<?xml version="1.0" encoding="utf-8" standalone="no"?>
<!DOCTYPE svg PUBLIC "-//W3C//DTD SVG 1.1//EN"
  "http://www.w3.org/Graphics/SVG/1.1/DTD/svg11.dtd">
<!-- Created with matplotlib (http://matplotlib.org/) -->
<svg height="237pt" version="1.1" viewBox="0 0 237 237" width="237pt" xmlns="http://www.w3.org/2000/svg" xmlns:xlink="http://www.w3.org/1999/xlink">
 <defs>
  <style type="text/css">
*{stroke-linecap:butt;stroke-linejoin:round;}
  </style>
 </defs>
 <g id="figure_1">
  <g id="patch_1">
   <path d="M 0 237.6 
L 237.6 237.6 
L 237.6 0 
L 0 0 
z
" style="fill:#ffffff;"/>
  </g>
  <g id="axes_1">
   <g id="patch_2">
    <path d="M 45.83 200.68 
L 194.058333 200.68 
L 194.058333 45.086667 
L 45.83 45.086667 
z
" style="fill:#ffffff;"/>
   </g>
   <g id="PolyCollection_1">
    <defs>
     <path d="M 142.654865 -86.42697 
L 142.654865 -91.141919 
L 141.119643 -93.499394 
L 139.584421 -91.141919 
L 139.584421 -86.42697 
L 141.119643 -84.069495 
z
" id="C0_0_1e68c342df"/>
    </defs>
    <g clip-path="url(#p64e0284ac9)">
     <use style="fill:#ffffff;stroke:#ffffff;" x="-13.34055" xlink:href="#C0_0_1e68c342df" y="266.361192"/>
    </g>
    <g clip-path="url(#p64e0284ac9)">
     <use style="fill:#ffffff;stroke:#ffffff;" x="-4.129218" xlink:href="#C0_0_1e68c342df" y="294.650889"/>
    </g>
    <g clip-path="url(#p64e0284ac9)">
     <use style="fill:#ffffff;stroke:#ffffff;" x="-1.058774" xlink:href="#C0_0_1e68c342df" y="266.361192"/>
    </g>
    <g clip-path="url(#p64e0284ac9)">
     <use style="fill:#e2e2e2;stroke:#e2e2e2;" x="-1.058774" xlink:href="#C0_0_1e68c342df" y="252.216343"/>
    </g>
    <g clip-path="url(#p64e0284ac9)">
     <use style="fill:#e2e2e2;stroke:#e2e2e2;" x="-1.058774" xlink:href="#C0_0_1e68c342df" y="238.071495"/>
    </g>
    <g clip-path="url(#p64e0284ac9)">
     <use style="fill:#e2e2e2;stroke:#e2e2e2;" x="2.01167" xlink:href="#C0_0_1e68c342df" y="238.071495"/>
    </g>
    <g clip-path="url(#p64e0284ac9)">
     <use style="fill:#404040;stroke:#404040;" x="2.01167" xlink:href="#C0_0_1e68c342df" y="223.926646"/>
    </g>
    <g clip-path="url(#p64e0284ac9)">
     <use style="fill:#ffffff;stroke:#ffffff;" x="5.082114" xlink:href="#C0_0_1e68c342df" y="280.50604"/>
    </g>
    <g clip-path="url(#p64e0284ac9)">
     <use style="fill:#ffffff;stroke:#ffffff;" x="5.082114" xlink:href="#C0_0_1e68c342df" y="252.216343"/>
    </g>
    <g clip-path="url(#p64e0284ac9)">
     <use style="fill:#ffffff;stroke:#ffffff;" x="5.082114" xlink:href="#C0_0_1e68c342df" y="238.071495"/>
    </g>
    <g clip-path="url(#p64e0284ac9)">
     <use style="fill:#b5b5b5;stroke:#b5b5b5;" x="5.082114" xlink:href="#C0_0_1e68c342df" y="223.926646"/>
    </g>
    <g clip-path="url(#p64e0284ac9)">
     <use style="fill:#ffffff;stroke:#ffffff;" x="5.082114" xlink:href="#C0_0_1e68c342df" y="209.781798"/>
    </g>
    <g clip-path="url(#p64e0284ac9)">
     <use style="fill:#ffffff;stroke:#ffffff;" x="17.363891" xlink:href="#C0_0_1e68c342df" y="252.216343"/>
    </g>
    <g clip-path="url(#p64e0284ac9)">
     <use style="fill:#ffffff;stroke:#ffffff;" x="17.363891" xlink:href="#C0_0_1e68c342df" y="139.057556"/>
    </g>
    <g clip-path="url(#p64e0284ac9)">
     <use style="fill:#ffffff;stroke:#ffffff;" x="26.575223" xlink:href="#C0_0_1e68c342df" y="294.650889"/>
    </g>
    <g clip-path="url(#p64e0284ac9)">
     <use style="fill:#ffffff;stroke:#ffffff;" x="29.645667" xlink:href="#C0_0_1e68c342df" y="238.071495"/>
    </g>
    <g clip-path="url(#p64e0284ac9)">
     <use style="fill:#ffffff;stroke:#ffffff;" x="-30.227992" xlink:href="#C0_0_1e68c342df" y="273.433616"/>
    </g>
    <g clip-path="url(#p64e0284ac9)">
     <use style="fill:#ffffff;stroke:#ffffff;" x="-5.66444" xlink:href="#C0_0_1e68c342df" y="245.143919"/>
    </g>
    <g clip-path="url(#p64e0284ac9)">
     <use style="fill:#ffffff;stroke:#ffffff;" x="-2.593996" xlink:href="#C0_0_1e68c342df" y="245.143919"/>
    </g>
    <g clip-path="url(#p64e0284ac9)">
     <use style="fill:#ffffff;stroke:#ffffff;" x="0.476448" xlink:href="#C0_0_1e68c342df" y="245.143919"/>
    </g>
    <g clip-path="url(#p64e0284ac9)">
     <use style="stroke:#000000;" x="0.476448" xlink:href="#C0_0_1e68c342df" y="230.999071"/>
    </g>
    <g clip-path="url(#p64e0284ac9)">
     <use style="fill:#ffffff;stroke:#ffffff;" x="0.476448" xlink:href="#C0_0_1e68c342df" y="216.854222"/>
    </g>
    <g clip-path="url(#p64e0284ac9)">
     <use style="fill:#ffffff;stroke:#ffffff;" x="3.546892" xlink:href="#C0_0_1e68c342df" y="245.143919"/>
    </g>
    <g clip-path="url(#p64e0284ac9)">
     <use style="fill:#b5b5b5;stroke:#b5b5b5;" x="3.546892" xlink:href="#C0_0_1e68c342df" y="230.999071"/>
    </g>
    <g clip-path="url(#p64e0284ac9)">
     <use style="fill:#ffffff;stroke:#ffffff;" x="3.546892" xlink:href="#C0_0_1e68c342df" y="216.854222"/>
    </g>
    <g clip-path="url(#p64e0284ac9)">
     <use style="fill:#ffffff;stroke:#ffffff;" x="6.617336" xlink:href="#C0_0_1e68c342df" y="245.143919"/>
    </g>
    <g clip-path="url(#p64e0284ac9)">
     <use style="fill:#7a7a7a;stroke:#7a7a7a;" x="6.617336" xlink:href="#C0_0_1e68c342df" y="230.999071"/>
    </g>
    <g clip-path="url(#p64e0284ac9)">
     <use style="fill:#e2e2e2;stroke:#e2e2e2;" x="6.617336" xlink:href="#C0_0_1e68c342df" y="216.854222"/>
    </g>
    <g clip-path="url(#p64e0284ac9)">
     <use style="fill:#ffffff;stroke:#ffffff;" x="12.758224" xlink:href="#C0_0_1e68c342df" y="202.709374"/>
    </g>
    <g clip-path="url(#p64e0284ac9)">
     <use style="fill:#ffffff;stroke:#ffffff;" x="18.899113" xlink:href="#C0_0_1e68c342df" y="273.433616"/>
    </g>
    <g clip-path="url(#p64e0284ac9)">
     <use style="fill:#ffffff;stroke:#ffffff;" x="28.110445" xlink:href="#C0_0_1e68c342df" y="287.578465"/>
    </g>
    <g clip-path="url(#p64e0284ac9)">
     <use style="fill:#ffffff;stroke:#ffffff;" x="28.110445" xlink:href="#C0_0_1e68c342df" y="230.999071"/>
    </g>
   </g>
   <g id="matplotlib.axis_1">
    <g id="xtick_1">
     <g id="line2d_1">
      <defs>
       <path d="M 0 0 
L 0 3.5 
" id="me4661452d8" style="stroke:#000000;stroke-width:0.8;"/>
      </defs>
      <g>
       <use style="stroke:#000000;stroke-width:0.8;" x="56.417738" xlink:href="#me4661452d8" y="200.68"/>
      </g>
     </g>
     <g id="text_1">
      <!-- −40 -->
      <defs>
       <path d="M 10.59375 35.5 
L 73.1875 35.5 
L 73.1875 27.203125 
L 10.59375 27.203125 
z
" id="DejaVuSans-2212"/>
       <path d="M 37.796875 64.3125 
L 12.890625 25.390625 
L 37.796875 25.390625 
z
M 35.203125 72.90625 
L 47.609375 72.90625 
L 47.609375 25.390625 
L 58.015625 25.390625 
L 58.015625 17.1875 
L 47.609375 17.1875 
L 47.609375 0 
L 37.796875 0 
L 37.796875 17.1875 
L 4.890625 17.1875 
L 4.890625 26.703125 
z
" id="DejaVuSans-34"/>
       <path d="M 31.78125 66.40625 
Q 24.171875 66.40625 20.328125 58.90625 
Q 16.5 51.421875 16.5 36.375 
Q 16.5 21.390625 20.328125 13.890625 
Q 24.171875 6.390625 31.78125 6.390625 
Q 39.453125 6.390625 43.28125 13.890625 
Q 47.125 21.390625 47.125 36.375 
Q 47.125 51.421875 43.28125 58.90625 
Q 39.453125 66.40625 31.78125 66.40625 
z
M 31.78125 74.21875 
Q 44.046875 74.21875 50.515625 64.515625 
Q 56.984375 54.828125 56.984375 36.375 
Q 56.984375 17.96875 50.515625 8.265625 
Q 44.046875 -1.421875 31.78125 -1.421875 
Q 19.53125 -1.421875 13.0625 8.265625 
Q 6.59375 17.96875 6.59375 36.375 
Q 6.59375 54.828125 13.0625 64.515625 
Q 19.53125 74.21875 31.78125 74.21875 
z
" id="DejaVuSans-30"/>
      </defs>
      <g transform="translate(47.975863 213.75875)scale(0.08 -0.08)">
       <use xlink:href="#DejaVuSans-2212"/>
       <use x="83.789062" xlink:href="#DejaVuSans-34"/>
       <use x="147.412109" xlink:href="#DejaVuSans-30"/>
      </g>
     </g>
    </g>
    <g id="xtick_2">
     <g id="line2d_2">
      <g>
       <use style="stroke:#000000;stroke-width:0.8;" x="98.76869" xlink:href="#me4661452d8" y="200.68"/>
      </g>
     </g>
     <g id="text_2">
      <!-- −20 -->
      <defs>
       <path d="M 19.1875 8.296875 
L 53.609375 8.296875 
L 53.609375 0 
L 7.328125 0 
L 7.328125 8.296875 
Q 12.9375 14.109375 22.625 23.890625 
Q 32.328125 33.6875 34.8125 36.53125 
Q 39.546875 41.84375 41.421875 45.53125 
Q 43.3125 49.21875 43.3125 52.78125 
Q 43.3125 58.59375 39.234375 62.25 
Q 35.15625 65.921875 28.609375 65.921875 
Q 23.96875 65.921875 18.8125 64.3125 
Q 13.671875 62.703125 7.8125 59.421875 
L 7.8125 69.390625 
Q 13.765625 71.78125 18.9375 73 
Q 24.125 74.21875 28.421875 74.21875 
Q 39.75 74.21875 46.484375 68.546875 
Q 53.21875 62.890625 53.21875 53.421875 
Q 53.21875 48.921875 51.53125 44.890625 
Q 49.859375 40.875 45.40625 35.40625 
Q 44.1875 33.984375 37.640625 27.21875 
Q 31.109375 20.453125 19.1875 8.296875 
z
" id="DejaVuSans-32"/>
      </defs>
      <g transform="translate(90.326815 213.75875)scale(0.08 -0.08)">
       <use xlink:href="#DejaVuSans-2212"/>
       <use x="83.789062" xlink:href="#DejaVuSans-32"/>
       <use x="147.412109" xlink:href="#DejaVuSans-30"/>
      </g>
     </g>
    </g>
    <g id="xtick_3">
     <g id="line2d_3">
      <g>
       <use style="stroke:#000000;stroke-width:0.8;" x="141.119643" xlink:href="#me4661452d8" y="200.68"/>
      </g>
     </g>
     <g id="text_3">
      <!-- 0 -->
      <g transform="translate(138.574643 213.75875)scale(0.08 -0.08)">
       <use xlink:href="#DejaVuSans-30"/>
      </g>
     </g>
    </g>
    <g id="xtick_4">
     <g id="line2d_4">
      <g>
       <use style="stroke:#000000;stroke-width:0.8;" x="183.470595" xlink:href="#me4661452d8" y="200.68"/>
      </g>
     </g>
     <g id="text_4">
      <!-- 20 -->
      <g transform="translate(178.380595 213.75875)scale(0.08 -0.08)">
       <use xlink:href="#DejaVuSans-32"/>
       <use x="63.623047" xlink:href="#DejaVuSans-30"/>
      </g>
     </g>
    </g>
    <g id="text_5">
     <!-- $\Delta$t (Cas3-b, Cas3-y) (min.) -->
     <defs>
      <path d="M 34.1875 63.1875 
L 14.15625 8.203125 
L 54.25 8.203125 
z
M 0.78125 0 
L 28.609375 72.90625 
L 39.796875 72.90625 
L 67.578125 0 
z
" id="DejaVuSans-394"/>
      <path d="M 18.3125 70.21875 
L 18.3125 54.6875 
L 36.8125 54.6875 
L 36.8125 47.703125 
L 18.3125 47.703125 
L 18.3125 18.015625 
Q 18.3125 11.328125 20.140625 9.421875 
Q 21.96875 7.515625 27.59375 7.515625 
L 36.8125 7.515625 
L 36.8125 0 
L 27.59375 0 
Q 17.1875 0 13.234375 3.875 
Q 9.28125 7.765625 9.28125 18.015625 
L 9.28125 47.703125 
L 2.6875 47.703125 
L 2.6875 54.6875 
L 9.28125 54.6875 
L 9.28125 70.21875 
z
" id="DejaVuSans-74"/>
      <path id="DejaVuSans-20"/>
      <path d="M 31 75.875 
Q 24.46875 64.65625 21.28125 53.65625 
Q 18.109375 42.671875 18.109375 31.390625 
Q 18.109375 20.125 21.3125 9.0625 
Q 24.515625 -2 31 -13.1875 
L 23.1875 -13.1875 
Q 15.875 -1.703125 12.234375 9.375 
Q 8.59375 20.453125 8.59375 31.390625 
Q 8.59375 42.28125 12.203125 53.3125 
Q 15.828125 64.359375 23.1875 75.875 
z
" id="DejaVuSans-28"/>
      <path d="M 64.40625 67.28125 
L 64.40625 56.890625 
Q 59.421875 61.53125 53.78125 63.8125 
Q 48.140625 66.109375 41.796875 66.109375 
Q 29.296875 66.109375 22.65625 58.46875 
Q 16.015625 50.828125 16.015625 36.375 
Q 16.015625 21.96875 22.65625 14.328125 
Q 29.296875 6.6875 41.796875 6.6875 
Q 48.140625 6.6875 53.78125 8.984375 
Q 59.421875 11.28125 64.40625 15.921875 
L 64.40625 5.609375 
Q 59.234375 2.09375 53.4375 0.328125 
Q 47.65625 -1.421875 41.21875 -1.421875 
Q 24.65625 -1.421875 15.125 8.703125 
Q 5.609375 18.84375 5.609375 36.375 
Q 5.609375 53.953125 15.125 64.078125 
Q 24.65625 74.21875 41.21875 74.21875 
Q 47.75 74.21875 53.53125 72.484375 
Q 59.328125 70.75 64.40625 67.28125 
z
" id="DejaVuSans-43"/>
      <path d="M 34.28125 27.484375 
Q 23.390625 27.484375 19.1875 25 
Q 14.984375 22.515625 14.984375 16.5 
Q 14.984375 11.71875 18.140625 8.90625 
Q 21.296875 6.109375 26.703125 6.109375 
Q 34.1875 6.109375 38.703125 11.40625 
Q 43.21875 16.703125 43.21875 25.484375 
L 43.21875 27.484375 
z
M 52.203125 31.203125 
L 52.203125 0 
L 43.21875 0 
L 43.21875 8.296875 
Q 40.140625 3.328125 35.546875 0.953125 
Q 30.953125 -1.421875 24.3125 -1.421875 
Q 15.921875 -1.421875 10.953125 3.296875 
Q 6 8.015625 6 15.921875 
Q 6 25.140625 12.171875 29.828125 
Q 18.359375 34.515625 30.609375 34.515625 
L 43.21875 34.515625 
L 43.21875 35.40625 
Q 43.21875 41.609375 39.140625 45 
Q 35.0625 48.390625 27.6875 48.390625 
Q 23 48.390625 18.546875 47.265625 
Q 14.109375 46.140625 10.015625 43.890625 
L 10.015625 52.203125 
Q 14.9375 54.109375 19.578125 55.046875 
Q 24.21875 56 28.609375 56 
Q 40.484375 56 46.34375 49.84375 
Q 52.203125 43.703125 52.203125 31.203125 
z
" id="DejaVuSans-61"/>
      <path d="M 44.28125 53.078125 
L 44.28125 44.578125 
Q 40.484375 46.53125 36.375 47.5 
Q 32.28125 48.484375 27.875 48.484375 
Q 21.1875 48.484375 17.84375 46.4375 
Q 14.5 44.390625 14.5 40.28125 
Q 14.5 37.15625 16.890625 35.375 
Q 19.28125 33.59375 26.515625 31.984375 
L 29.59375 31.296875 
Q 39.15625 29.25 43.1875 25.515625 
Q 47.21875 21.78125 47.21875 15.09375 
Q 47.21875 7.46875 41.1875 3.015625 
Q 35.15625 -1.421875 24.609375 -1.421875 
Q 20.21875 -1.421875 15.453125 -0.5625 
Q 10.6875 0.296875 5.421875 2 
L 5.421875 11.28125 
Q 10.40625 8.6875 15.234375 7.390625 
Q 20.0625 6.109375 24.8125 6.109375 
Q 31.15625 6.109375 34.5625 8.28125 
Q 37.984375 10.453125 37.984375 14.40625 
Q 37.984375 18.0625 35.515625 20.015625 
Q 33.0625 21.96875 24.703125 23.78125 
L 21.578125 24.515625 
Q 13.234375 26.265625 9.515625 29.90625 
Q 5.8125 33.546875 5.8125 39.890625 
Q 5.8125 47.609375 11.28125 51.796875 
Q 16.75 56 26.8125 56 
Q 31.78125 56 36.171875 55.265625 
Q 40.578125 54.546875 44.28125 53.078125 
z
" id="DejaVuSans-73"/>
      <path d="M 40.578125 39.3125 
Q 47.65625 37.796875 51.625 33 
Q 55.609375 28.21875 55.609375 21.1875 
Q 55.609375 10.40625 48.1875 4.484375 
Q 40.765625 -1.421875 27.09375 -1.421875 
Q 22.515625 -1.421875 17.65625 -0.515625 
Q 12.796875 0.390625 7.625 2.203125 
L 7.625 11.71875 
Q 11.71875 9.328125 16.59375 8.109375 
Q 21.484375 6.890625 26.8125 6.890625 
Q 36.078125 6.890625 40.9375 10.546875 
Q 45.796875 14.203125 45.796875 21.1875 
Q 45.796875 27.640625 41.28125 31.265625 
Q 36.765625 34.90625 28.71875 34.90625 
L 20.21875 34.90625 
L 20.21875 43.015625 
L 29.109375 43.015625 
Q 36.375 43.015625 40.234375 45.921875 
Q 44.09375 48.828125 44.09375 54.296875 
Q 44.09375 59.90625 40.109375 62.90625 
Q 36.140625 65.921875 28.71875 65.921875 
Q 24.65625 65.921875 20.015625 65.03125 
Q 15.375 64.15625 9.8125 62.3125 
L 9.8125 71.09375 
Q 15.4375 72.65625 20.34375 73.4375 
Q 25.25 74.21875 29.59375 74.21875 
Q 40.828125 74.21875 47.359375 69.109375 
Q 53.90625 64.015625 53.90625 55.328125 
Q 53.90625 49.265625 50.4375 45.09375 
Q 46.96875 40.921875 40.578125 39.3125 
z
" id="DejaVuSans-33"/>
      <path d="M 4.890625 31.390625 
L 31.203125 31.390625 
L 31.203125 23.390625 
L 4.890625 23.390625 
z
" id="DejaVuSans-2d"/>
      <path d="M 48.6875 27.296875 
Q 48.6875 37.203125 44.609375 42.84375 
Q 40.53125 48.484375 33.40625 48.484375 
Q 26.265625 48.484375 22.1875 42.84375 
Q 18.109375 37.203125 18.109375 27.296875 
Q 18.109375 17.390625 22.1875 11.75 
Q 26.265625 6.109375 33.40625 6.109375 
Q 40.53125 6.109375 44.609375 11.75 
Q 48.6875 17.390625 48.6875 27.296875 
z
M 18.109375 46.390625 
Q 20.953125 51.265625 25.265625 53.625 
Q 29.59375 56 35.59375 56 
Q 45.5625 56 51.78125 48.09375 
Q 58.015625 40.1875 58.015625 27.296875 
Q 58.015625 14.40625 51.78125 6.484375 
Q 45.5625 -1.421875 35.59375 -1.421875 
Q 29.59375 -1.421875 25.265625 0.953125 
Q 20.953125 3.328125 18.109375 8.203125 
L 18.109375 0 
L 9.078125 0 
L 9.078125 75.984375 
L 18.109375 75.984375 
z
" id="DejaVuSans-62"/>
      <path d="M 11.71875 12.40625 
L 22.015625 12.40625 
L 22.015625 4 
L 14.015625 -11.625 
L 7.71875 -11.625 
L 11.71875 4 
z
" id="DejaVuSans-2c"/>
      <path d="M 32.171875 -5.078125 
Q 28.375 -14.84375 24.75 -17.8125 
Q 21.140625 -20.796875 15.09375 -20.796875 
L 7.90625 -20.796875 
L 7.90625 -13.28125 
L 13.1875 -13.28125 
Q 16.890625 -13.28125 18.9375 -11.515625 
Q 21 -9.765625 23.484375 -3.21875 
L 25.09375 0.875 
L 2.984375 54.6875 
L 12.5 54.6875 
L 29.59375 11.921875 
L 46.6875 54.6875 
L 56.203125 54.6875 
z
" id="DejaVuSans-79"/>
      <path d="M 8.015625 75.875 
L 15.828125 75.875 
Q 23.140625 64.359375 26.78125 53.3125 
Q 30.421875 42.28125 30.421875 31.390625 
Q 30.421875 20.453125 26.78125 9.375 
Q 23.140625 -1.703125 15.828125 -13.1875 
L 8.015625 -13.1875 
Q 14.5 -2 17.703125 9.0625 
Q 20.90625 20.125 20.90625 31.390625 
Q 20.90625 42.671875 17.703125 53.65625 
Q 14.5 64.65625 8.015625 75.875 
z
" id="DejaVuSans-29"/>
      <path d="M 52 44.1875 
Q 55.375 50.25 60.0625 53.125 
Q 64.75 56 71.09375 56 
Q 79.640625 56 84.28125 50.015625 
Q 88.921875 44.046875 88.921875 33.015625 
L 88.921875 0 
L 79.890625 0 
L 79.890625 32.71875 
Q 79.890625 40.578125 77.09375 44.375 
Q 74.3125 48.1875 68.609375 48.1875 
Q 61.625 48.1875 57.5625 43.546875 
Q 53.515625 38.921875 53.515625 30.90625 
L 53.515625 0 
L 44.484375 0 
L 44.484375 32.71875 
Q 44.484375 40.625 41.703125 44.40625 
Q 38.921875 48.1875 33.109375 48.1875 
Q 26.21875 48.1875 22.15625 43.53125 
Q 18.109375 38.875 18.109375 30.90625 
L 18.109375 0 
L 9.078125 0 
L 9.078125 54.6875 
L 18.109375 54.6875 
L 18.109375 46.1875 
Q 21.1875 51.21875 25.484375 53.609375 
Q 29.78125 56 35.6875 56 
Q 41.65625 56 45.828125 52.96875 
Q 50 49.953125 52 44.1875 
z
" id="DejaVuSans-6d"/>
      <path d="M 9.421875 54.6875 
L 18.40625 54.6875 
L 18.40625 0 
L 9.421875 0 
z
M 9.421875 75.984375 
L 18.40625 75.984375 
L 18.40625 64.59375 
L 9.421875 64.59375 
z
" id="DejaVuSans-69"/>
      <path d="M 54.890625 33.015625 
L 54.890625 0 
L 45.90625 0 
L 45.90625 32.71875 
Q 45.90625 40.484375 42.875 44.328125 
Q 39.84375 48.1875 33.796875 48.1875 
Q 26.515625 48.1875 22.3125 43.546875 
Q 18.109375 38.921875 18.109375 30.90625 
L 18.109375 0 
L 9.078125 0 
L 9.078125 54.6875 
L 18.109375 54.6875 
L 18.109375 46.1875 
Q 21.34375 51.125 25.703125 53.5625 
Q 30.078125 56 35.796875 56 
Q 45.21875 56 50.046875 50.171875 
Q 54.890625 44.34375 54.890625 33.015625 
z
" id="DejaVuSans-6e"/>
      <path d="M 10.6875 12.40625 
L 21 12.40625 
L 21 0 
L 10.6875 0 
z
" id="DejaVuSans-2e"/>
     </defs>
     <g transform="translate(67.944167 225.5025)scale(0.08 -0.08)">
      <use transform="translate(0 0.015625)" xlink:href="#DejaVuSans-394"/>
      <use transform="translate(68.408203 0.015625)" xlink:href="#DejaVuSans-74"/>
      <use transform="translate(107.617188 0.015625)" xlink:href="#DejaVuSans-20"/>
      <use transform="translate(139.404297 0.015625)" xlink:href="#DejaVuSans-28"/>
      <use transform="translate(178.417969 0.015625)" xlink:href="#DejaVuSans-43"/>
      <use transform="translate(248.242188 0.015625)" xlink:href="#DejaVuSans-61"/>
      <use transform="translate(309.521484 0.015625)" xlink:href="#DejaVuSans-73"/>
      <use transform="translate(361.621094 0.015625)" xlink:href="#DejaVuSans-33"/>
      <use transform="translate(425.244141 0.015625)" xlink:href="#DejaVuSans-2d"/>
      <use transform="translate(461.328125 0.015625)" xlink:href="#DejaVuSans-62"/>
      <use transform="translate(524.804688 0.015625)" xlink:href="#DejaVuSans-2c"/>
      <use transform="translate(556.591797 0.015625)" xlink:href="#DejaVuSans-20"/>
      <use transform="translate(588.378906 0.015625)" xlink:href="#DejaVuSans-43"/>
      <use transform="translate(658.203125 0.015625)" xlink:href="#DejaVuSans-61"/>
      <use transform="translate(719.482422 0.015625)" xlink:href="#DejaVuSans-73"/>
      <use transform="translate(771.582031 0.015625)" xlink:href="#DejaVuSans-33"/>
      <use transform="translate(835.205078 0.015625)" xlink:href="#DejaVuSans-2d"/>
      <use transform="translate(871.289062 0.015625)" xlink:href="#DejaVuSans-79"/>
      <use transform="translate(930.46875 0.015625)" xlink:href="#DejaVuSans-29"/>
      <use transform="translate(969.482422 0.015625)" xlink:href="#DejaVuSans-20"/>
      <use transform="translate(1001.269531 0.015625)" xlink:href="#DejaVuSans-28"/>
      <use transform="translate(1040.283203 0.015625)" xlink:href="#DejaVuSans-6d"/>
      <use transform="translate(1137.695312 0.015625)" xlink:href="#DejaVuSans-69"/>
      <use transform="translate(1165.478516 0.015625)" xlink:href="#DejaVuSans-6e"/>
      <use transform="translate(1228.857422 0.015625)" xlink:href="#DejaVuSans-2e"/>
      <use transform="translate(1260.644531 0.015625)" xlink:href="#DejaVuSans-29"/>
     </g>
    </g>
   </g>
   <g id="matplotlib.axis_2">
    <g id="ytick_1">
     <g id="line2d_5">
      <defs>
       <path d="M 0 0 
L -3.5 0 
" id="m989c4bb818" style="stroke:#000000;stroke-width:0.8;"/>
      </defs>
      <g>
       <use style="stroke:#000000;stroke-width:0.8;" x="45.83" xlink:href="#m989c4bb818" y="200.68"/>
      </g>
     </g>
     <g id="text_6">
      <!-- −10 -->
      <defs>
       <path d="M 12.40625 8.296875 
L 28.515625 8.296875 
L 28.515625 63.921875 
L 10.984375 60.40625 
L 10.984375 69.390625 
L 28.421875 72.90625 
L 38.28125 72.90625 
L 38.28125 8.296875 
L 54.390625 8.296875 
L 54.390625 0 
L 12.40625 0 
z
" id="DejaVuSans-31"/>
      </defs>
      <g transform="translate(21.94625 203.719375)scale(0.08 -0.08)">
       <use xlink:href="#DejaVuSans-2212"/>
       <use x="83.789062" xlink:href="#DejaVuSans-31"/>
       <use x="147.412109" xlink:href="#DejaVuSans-30"/>
      </g>
     </g>
    </g>
    <g id="ytick_2">
     <g id="line2d_6">
      <g>
       <use style="stroke:#000000;stroke-width:0.8;" x="45.83" xlink:href="#m989c4bb818" y="174.747778"/>
      </g>
     </g>
     <g id="text_7">
      <!-- −5 -->
      <defs>
       <path d="M 10.796875 72.90625 
L 49.515625 72.90625 
L 49.515625 64.59375 
L 19.828125 64.59375 
L 19.828125 46.734375 
Q 21.96875 47.46875 24.109375 47.828125 
Q 26.265625 48.1875 28.421875 48.1875 
Q 40.625 48.1875 47.75 41.5 
Q 54.890625 34.8125 54.890625 23.390625 
Q 54.890625 11.625 47.5625 5.09375 
Q 40.234375 -1.421875 26.90625 -1.421875 
Q 22.3125 -1.421875 17.546875 -0.640625 
Q 12.796875 0.140625 7.71875 1.703125 
L 7.71875 11.625 
Q 12.109375 9.234375 16.796875 8.0625 
Q 21.484375 6.890625 26.703125 6.890625 
Q 35.15625 6.890625 40.078125 11.328125 
Q 45.015625 15.765625 45.015625 23.390625 
Q 45.015625 31 40.078125 35.4375 
Q 35.15625 39.890625 26.703125 39.890625 
Q 22.75 39.890625 18.8125 39.015625 
Q 14.890625 38.140625 10.796875 36.28125 
z
" id="DejaVuSans-35"/>
      </defs>
      <g transform="translate(27.03625 177.787153)scale(0.08 -0.08)">
       <use xlink:href="#DejaVuSans-2212"/>
       <use x="83.789062" xlink:href="#DejaVuSans-35"/>
      </g>
     </g>
    </g>
    <g id="ytick_3">
     <g id="line2d_7">
      <g>
       <use style="stroke:#000000;stroke-width:0.8;" x="45.83" xlink:href="#m989c4bb818" y="148.815556"/>
      </g>
     </g>
     <g id="text_8">
      <!-- 0 -->
      <g transform="translate(33.74 151.854931)scale(0.08 -0.08)">
       <use xlink:href="#DejaVuSans-30"/>
      </g>
     </g>
    </g>
    <g id="ytick_4">
     <g id="line2d_8">
      <g>
       <use style="stroke:#000000;stroke-width:0.8;" x="45.83" xlink:href="#m989c4bb818" y="122.883333"/>
      </g>
     </g>
     <g id="text_9">
      <!-- 5 -->
      <g transform="translate(33.74 125.922708)scale(0.08 -0.08)">
       <use xlink:href="#DejaVuSans-35"/>
      </g>
     </g>
    </g>
    <g id="ytick_5">
     <g id="line2d_9">
      <g>
       <use style="stroke:#000000;stroke-width:0.8;" x="45.83" xlink:href="#m989c4bb818" y="96.951111"/>
      </g>
     </g>
     <g id="text_10">
      <!-- 10 -->
      <g transform="translate(28.65 99.990486)scale(0.08 -0.08)">
       <use xlink:href="#DejaVuSans-31"/>
       <use x="63.623047" xlink:href="#DejaVuSans-30"/>
      </g>
     </g>
    </g>
    <g id="ytick_6">
     <g id="line2d_10">
      <g>
       <use style="stroke:#000000;stroke-width:0.8;" x="45.83" xlink:href="#m989c4bb818" y="71.018889"/>
      </g>
     </g>
     <g id="text_11">
      <!-- 15 -->
      <g transform="translate(28.65 74.058264)scale(0.08 -0.08)">
       <use xlink:href="#DejaVuSans-31"/>
       <use x="63.623047" xlink:href="#DejaVuSans-35"/>
      </g>
     </g>
    </g>
    <g id="ytick_7">
     <g id="line2d_11">
      <g>
       <use style="stroke:#000000;stroke-width:0.8;" x="45.83" xlink:href="#m989c4bb818" y="45.086667"/>
      </g>
     </g>
     <g id="text_12">
      <!-- 20 -->
      <g transform="translate(28.65 48.126042)scale(0.08 -0.08)">
       <use xlink:href="#DejaVuSans-32"/>
       <use x="63.623047" xlink:href="#DejaVuSans-30"/>
      </g>
     </g>
    </g>
    <g id="text_13">
     <!-- $\Delta$t (Cas3-b, Cas3-r) (min.) -->
     <defs>
      <path d="M 41.109375 46.296875 
Q 39.59375 47.171875 37.8125 47.578125 
Q 36.03125 48 33.890625 48 
Q 26.265625 48 22.1875 43.046875 
Q 18.109375 38.09375 18.109375 28.8125 
L 18.109375 0 
L 9.078125 0 
L 9.078125 54.6875 
L 18.109375 54.6875 
L 18.109375 46.1875 
Q 20.953125 51.171875 25.484375 53.578125 
Q 30.03125 56 36.53125 56 
Q 37.453125 56 38.578125 55.875 
Q 39.703125 55.765625 41.0625 55.515625 
z
" id="DejaVuSans-72"/>
     </defs>
     <g transform="translate(16.2825 174.163333)rotate(-90)scale(0.08 -0.08)">
      <use transform="translate(0 0.015625)" xlink:href="#DejaVuSans-394"/>
      <use transform="translate(68.408203 0.015625)" xlink:href="#DejaVuSans-74"/>
      <use transform="translate(107.617188 0.015625)" xlink:href="#DejaVuSans-20"/>
      <use transform="translate(139.404297 0.015625)" xlink:href="#DejaVuSans-28"/>
      <use transform="translate(178.417969 0.015625)" xlink:href="#DejaVuSans-43"/>
      <use transform="translate(248.242188 0.015625)" xlink:href="#DejaVuSans-61"/>
      <use transform="translate(309.521484 0.015625)" xlink:href="#DejaVuSans-73"/>
      <use transform="translate(361.621094 0.015625)" xlink:href="#DejaVuSans-33"/>
      <use transform="translate(425.244141 0.015625)" xlink:href="#DejaVuSans-2d"/>
      <use transform="translate(461.328125 0.015625)" xlink:href="#DejaVuSans-62"/>
      <use transform="translate(524.804688 0.015625)" xlink:href="#DejaVuSans-2c"/>
      <use transform="translate(556.591797 0.015625)" xlink:href="#DejaVuSans-20"/>
      <use transform="translate(588.378906 0.015625)" xlink:href="#DejaVuSans-43"/>
      <use transform="translate(658.203125 0.015625)" xlink:href="#DejaVuSans-61"/>
      <use transform="translate(719.482422 0.015625)" xlink:href="#DejaVuSans-73"/>
      <use transform="translate(771.582031 0.015625)" xlink:href="#DejaVuSans-33"/>
      <use transform="translate(835.205078 0.015625)" xlink:href="#DejaVuSans-2d"/>
      <use transform="translate(871.289062 0.015625)" xlink:href="#DejaVuSans-72"/>
      <use transform="translate(912.402344 0.015625)" xlink:href="#DejaVuSans-29"/>
      <use transform="translate(951.416016 0.015625)" xlink:href="#DejaVuSans-20"/>
      <use transform="translate(983.203125 0.015625)" xlink:href="#DejaVuSans-28"/>
      <use transform="translate(1022.216797 0.015625)" xlink:href="#DejaVuSans-6d"/>
      <use transform="translate(1119.628906 0.015625)" xlink:href="#DejaVuSans-69"/>
      <use transform="translate(1147.412109 0.015625)" xlink:href="#DejaVuSans-6e"/>
      <use transform="translate(1210.791016 0.015625)" xlink:href="#DejaVuSans-2e"/>
      <use transform="translate(1242.578125 0.015625)" xlink:href="#DejaVuSans-29"/>
     </g>
    </g>
   </g>
   <g id="LineCollection_1">
    <path clip-path="url(#p64e0284ac9)" d="M 139.596543 160.200798 
L 140.525195 161.190137 
L 141.453847 161.62228 
L 142.382499 161.608417 
L 143.311152 161.206381 
L 144.239804 160.432483 
L 144.811683 159.725732 
L 145.168456 159.289795 
L 146.097108 157.771274 
L 146.29028 157.380847 
L 147.02576 155.807256 
L 147.329271 155.035961 
L 147.954412 153.259751 
L 148.132144 152.691076 
L 148.759325 150.34619 
L 148.883065 149.780545 
L 149.250912 148.001305 
L 149.617399 145.656419 
L 149.811717 143.878432 
L 149.874264 143.311534 
L 150.028093 140.966648 
L 150.073025 138.621763 
L 150.004024 136.276877 
L 149.811717 133.984675 
L 149.807003 133.931992 
L 149.45181 131.587106 
L 148.888599 129.242221 
L 148.883065 129.224418 
L 147.954412 126.905665 
L 147.949643 126.897335 
L 147.02576 125.545895 
L 146.097108 124.778653 
L 145.426359 124.55245 
L 145.168456 124.468837 
L 144.239804 124.546213 
L 144.226688 124.55245 
L 143.311152 124.97081 
L 142.382499 125.743768 
L 141.454609 126.897335 
L 141.453847 126.898312 
L 140.525195 128.460359 
L 140.155056 129.242221 
L 139.596543 130.552117 
L 139.22038 131.587106 
L 138.667891 133.373893 
L 138.511431 133.931992 
L 137.968544 136.276877 
L 137.739239 137.558044 
L 137.553712 138.621763 
L 137.252464 140.966648 
L 137.056521 143.311534 
L 136.959125 145.656419 
L 136.960752 148.001305 
L 137.069269 150.34619 
L 137.300925 152.691076 
L 137.68226 155.035961 
L 137.739239 155.298088 
L 138.296538 157.380847 
L 138.667891 158.429837 
L 139.316746 159.725732 
L 139.596543 160.200798 
" style="fill:none;stroke:#440154;stroke-opacity:0.6;stroke-width:1.5;"/>
   </g>
   <g id="LineCollection_2">
    <path clip-path="url(#p64e0284ac9)" d="M 142.382499 150.657912 
L 143.311152 150.656649 
L 143.688444 150.34619 
L 144.239804 149.818704 
L 145.168456 148.144584 
L 145.223915 148.001305 
L 145.917991 145.656419 
L 146.097108 144.725567 
L 146.313121 143.311534 
L 146.453637 140.966648 
L 146.34723 138.621763 
L 146.097108 137.145413 
L 145.861758 136.276877 
L 145.168456 134.884341 
L 144.239804 134.227964 
L 143.311152 134.527888 
L 142.382499 135.61502 
L 142.04427 136.276877 
L 141.453847 137.7708 
L 141.206578 138.621763 
L 140.749242 140.966648 
L 140.525195 143.294654 
L 140.523848 143.311534 
L 140.525195 143.422614 
L 140.562951 145.656419 
L 140.936177 148.001305 
L 141.453847 149.546069 
L 142.047367 150.34619 
L 142.382499 150.657912 
" style="fill:none;stroke:#fde725;stroke-opacity:0.6;stroke-width:1.5;"/>
   </g>
   <g id="line2d_12">
    <path clip-path="url(#p64e0284ac9)" d="M 141.119643 200.68 
L 141.119643 45.086667 
" style="fill:none;opacity:0.5;stroke:#000000;stroke-dasharray:3.7,1.6;stroke-dashoffset:0;"/>
   </g>
   <g id="line2d_13">
    <path clip-path="url(#p64e0284ac9)" d="M 45.83 148.815556 
L 194.058333 148.815556 
" style="fill:none;opacity:0.5;stroke:#000000;stroke-dasharray:3.7,1.6;stroke-dashoffset:0;"/>
   </g>
   <g id="patch_3">
    <path d="M 45.83 200.68 
L 45.83 45.086667 
" style="fill:none;stroke:#000000;stroke-linecap:square;stroke-linejoin:miter;stroke-width:0.8;"/>
   </g>
   <g id="patch_4">
    <path d="M 45.83 200.68 
L 194.058333 200.68 
" style="fill:none;stroke:#000000;stroke-linecap:square;stroke-linejoin:miter;stroke-width:0.8;"/>
   </g>
  </g>
  <g id="axes_2">
   <g id="patch_5">
    <path d="M 45.83 31.046667 
L 194.058333 31.046667 
L 194.058333 11.16 
L 45.83 11.16 
z
" style="fill:#ffffff;"/>
   </g>
   <g id="patch_6">
    <path clip-path="url(#pcf752cd8dc)" d="M 109.356429 31.046667 
L 111.403391 31.046667 
L 111.403391 29.324877 
L 109.356429 29.324877 
z
" style="fill:#1f77b4;opacity:0.4;"/>
   </g>
   <g id="patch_7">
    <path clip-path="url(#pcf752cd8dc)" d="M 111.403391 31.046667 
L 113.450354 31.046667 
L 113.450354 31.046667 
L 111.403391 31.046667 
z
" style="fill:#1f77b4;opacity:0.4;"/>
   </g>
   <g id="patch_8">
    <path clip-path="url(#pcf752cd8dc)" d="M 113.450354 31.046667 
L 115.497317 31.046667 
L 115.497317 31.046667 
L 113.450354 31.046667 
z
" style="fill:#1f77b4;opacity:0.4;"/>
   </g>
   <g id="patch_9">
    <path clip-path="url(#pcf752cd8dc)" d="M 115.497317 31.046667 
L 117.544279 31.046667 
L 117.544279 31.046667 
L 115.497317 31.046667 
z
" style="fill:#1f77b4;opacity:0.4;"/>
   </g>
   <g id="patch_10">
    <path clip-path="url(#pcf752cd8dc)" d="M 117.544279 31.046667 
L 119.591242 31.046667 
L 119.591242 31.046667 
L 117.544279 31.046667 
z
" style="fill:#1f77b4;opacity:0.4;"/>
   </g>
   <g id="patch_11">
    <path clip-path="url(#pcf752cd8dc)" d="M 119.591242 31.046667 
L 121.638205 31.046667 
L 121.638205 31.046667 
L 119.591242 31.046667 
z
" style="fill:#1f77b4;opacity:0.4;"/>
   </g>
   <g id="patch_12">
    <path clip-path="url(#pcf752cd8dc)" d="M 121.638205 31.046667 
L 123.685167 31.046667 
L 123.685167 31.046667 
L 121.638205 31.046667 
z
" style="fill:#1f77b4;opacity:0.4;"/>
   </g>
   <g id="patch_13">
    <path clip-path="url(#pcf752cd8dc)" d="M 123.685167 31.046667 
L 125.73213 31.046667 
L 125.73213 31.046667 
L 123.685167 31.046667 
z
" style="fill:#1f77b4;opacity:0.4;"/>
   </g>
   <g id="patch_14">
    <path clip-path="url(#pcf752cd8dc)" d="M 125.73213 31.046667 
L 127.779093 31.046667 
L 127.779093 31.046667 
L 125.73213 31.046667 
z
" style="fill:#1f77b4;opacity:0.4;"/>
   </g>
   <g id="patch_15">
    <path clip-path="url(#pcf752cd8dc)" d="M 127.779093 31.046667 
L 129.826056 31.046667 
L 129.826056 29.324877 
L 127.779093 29.324877 
z
" style="fill:#1f77b4;opacity:0.4;"/>
   </g>
   <g id="patch_16">
    <path clip-path="url(#pcf752cd8dc)" d="M 129.826056 31.046667 
L 131.873018 31.046667 
L 131.873018 31.046667 
L 129.826056 31.046667 
z
" style="fill:#1f77b4;opacity:0.4;"/>
   </g>
   <g id="patch_17">
    <path clip-path="url(#pcf752cd8dc)" d="M 131.873018 31.046667 
L 133.919981 31.046667 
L 133.919981 31.046667 
L 131.873018 31.046667 
z
" style="fill:#1f77b4;opacity:0.4;"/>
   </g>
   <g id="patch_18">
    <path clip-path="url(#pcf752cd8dc)" d="M 133.919981 31.046667 
L 135.966944 31.046667 
L 135.966944 31.046667 
L 133.919981 31.046667 
z
" style="fill:#1f77b4;opacity:0.4;"/>
   </g>
   <g id="patch_19">
    <path clip-path="url(#pcf752cd8dc)" d="M 135.966944 31.046667 
L 138.013906 31.046667 
L 138.013906 27.603088 
L 135.966944 27.603088 
z
" style="fill:#1f77b4;opacity:0.4;"/>
   </g>
   <g id="patch_20">
    <path clip-path="url(#pcf752cd8dc)" d="M 138.013906 31.046667 
L 140.060869 31.046667 
L 140.060869 25.881299 
L 138.013906 25.881299 
z
" style="fill:#1f77b4;opacity:0.4;"/>
   </g>
   <g id="patch_21">
    <path clip-path="url(#pcf752cd8dc)" d="M 140.060869 31.046667 
L 142.107832 31.046667 
L 142.107832 12.106984 
L 140.060869 12.106984 
z
" style="fill:#1f77b4;opacity:0.4;"/>
   </g>
   <g id="patch_22">
    <path clip-path="url(#pcf752cd8dc)" d="M 142.107832 31.046667 
L 144.154794 31.046667 
L 144.154794 12.106984 
L 142.107832 12.106984 
z
" style="fill:#1f77b4;opacity:0.4;"/>
   </g>
   <g id="patch_23">
    <path clip-path="url(#pcf752cd8dc)" d="M 144.154794 31.046667 
L 146.201757 31.046667 
L 146.201757 20.715931 
L 144.154794 20.715931 
z
" style="fill:#1f77b4;opacity:0.4;"/>
   </g>
   <g id="patch_24">
    <path clip-path="url(#pcf752cd8dc)" d="M 146.201757 31.046667 
L 148.24872 31.046667 
L 148.24872 15.550563 
L 146.201757 15.550563 
z
" style="fill:#1f77b4;opacity:0.4;"/>
   </g>
   <g id="patch_25">
    <path clip-path="url(#pcf752cd8dc)" d="M 148.24872 31.046667 
L 150.295683 31.046667 
L 150.295683 31.046667 
L 148.24872 31.046667 
z
" style="fill:#1f77b4;opacity:0.4;"/>
   </g>
   <g id="patch_26">
    <path clip-path="url(#pcf752cd8dc)" d="M 150.295683 31.046667 
L 152.342645 31.046667 
L 152.342645 31.046667 
L 150.295683 31.046667 
z
" style="fill:#1f77b4;opacity:0.4;"/>
   </g>
   <g id="patch_27">
    <path clip-path="url(#pcf752cd8dc)" d="M 152.342645 31.046667 
L 154.389608 31.046667 
L 154.389608 29.324877 
L 152.342645 29.324877 
z
" style="fill:#1f77b4;opacity:0.4;"/>
   </g>
   <g id="patch_28">
    <path clip-path="url(#pcf752cd8dc)" d="M 154.389608 31.046667 
L 156.436571 31.046667 
L 156.436571 31.046667 
L 154.389608 31.046667 
z
" style="fill:#1f77b4;opacity:0.4;"/>
   </g>
   <g id="patch_29">
    <path clip-path="url(#pcf752cd8dc)" d="M 156.436571 31.046667 
L 158.483533 31.046667 
L 158.483533 27.603088 
L 156.436571 27.603088 
z
" style="fill:#1f77b4;opacity:0.4;"/>
   </g>
   <g id="patch_30">
    <path clip-path="url(#pcf752cd8dc)" d="M 158.483533 31.046667 
L 160.530496 31.046667 
L 160.530496 29.324877 
L 158.483533 29.324877 
z
" style="fill:#1f77b4;opacity:0.4;"/>
   </g>
   <g id="patch_31">
    <path clip-path="url(#pcf752cd8dc)" d="M 160.530496 31.046667 
L 162.577459 31.046667 
L 162.577459 31.046667 
L 160.530496 31.046667 
z
" style="fill:#1f77b4;opacity:0.4;"/>
   </g>
   <g id="patch_32">
    <path clip-path="url(#pcf752cd8dc)" d="M 162.577459 31.046667 
L 164.624421 31.046667 
L 164.624421 31.046667 
L 162.577459 31.046667 
z
" style="fill:#1f77b4;opacity:0.4;"/>
   </g>
   <g id="patch_33">
    <path clip-path="url(#pcf752cd8dc)" d="M 164.624421 31.046667 
L 166.671384 31.046667 
L 166.671384 29.324877 
L 164.624421 29.324877 
z
" style="fill:#1f77b4;opacity:0.4;"/>
   </g>
   <g id="patch_34">
    <path clip-path="url(#pcf752cd8dc)" d="M 166.671384 31.046667 
L 168.718347 31.046667 
L 168.718347 27.603088 
L 166.671384 27.603088 
z
" style="fill:#1f77b4;opacity:0.4;"/>
   </g>
   <g id="patch_35">
    <path clip-path="url(#pcf752cd8dc)" d="M 168.718347 31.046667 
L 170.76531 31.046667 
L 170.76531 29.324877 
L 168.718347 29.324877 
z
" style="fill:#1f77b4;opacity:0.4;"/>
   </g>
   <g id="matplotlib.axis_3">
    <g id="xtick_5">
     <g id="line2d_14">
      <g>
       <use style="stroke:#000000;stroke-width:0.8;" x="56.417738" xlink:href="#me4661452d8" y="31.046667"/>
      </g>
     </g>
    </g>
    <g id="xtick_6">
     <g id="line2d_15">
      <g>
       <use style="stroke:#000000;stroke-width:0.8;" x="98.76869" xlink:href="#me4661452d8" y="31.046667"/>
      </g>
     </g>
    </g>
    <g id="xtick_7">
     <g id="line2d_16">
      <g>
       <use style="stroke:#000000;stroke-width:0.8;" x="141.119643" xlink:href="#me4661452d8" y="31.046667"/>
      </g>
     </g>
    </g>
    <g id="xtick_8">
     <g id="line2d_17">
      <g>
       <use style="stroke:#000000;stroke-width:0.8;" x="183.470595" xlink:href="#me4661452d8" y="31.046667"/>
      </g>
     </g>
    </g>
   </g>
   <g id="matplotlib.axis_4">
    <g id="ytick_8"/>
    <g id="ytick_9"/>
   </g>
   <g id="patch_36">
    <path d="M 45.83 31.046667 
L 194.058333 31.046667 
" style="fill:none;stroke:#000000;stroke-linecap:square;stroke-linejoin:miter;stroke-width:0.8;"/>
   </g>
  </g>
  <g id="axes_3">
   <g id="patch_37">
    <path d="M 207.738333 200.68 
L 226.44 200.68 
L 226.44 45.086667 
L 207.738333 45.086667 
z
" style="fill:#ffffff;"/>
   </g>
   <g id="patch_38">
    <path clip-path="url(#p46d0af4657)" d="M 207.738333 205.866444 
L 210.976717 205.866444 
L 210.976717 200.68 
L 207.738333 200.68 
z
" style="fill:#1f77b4;opacity:0.4;"/>
   </g>
   <g id="patch_39">
    <path clip-path="url(#p46d0af4657)" d="M 207.738333 200.68 
L 207.738333 200.68 
L 207.738333 195.493556 
L 207.738333 195.493556 
z
" style="fill:#1f77b4;opacity:0.4;"/>
   </g>
   <g id="patch_40">
    <path clip-path="url(#p46d0af4657)" d="M 207.738333 195.493556 
L 209.357525 195.493556 
L 209.357525 190.307111 
L 207.738333 190.307111 
z
" style="fill:#1f77b4;opacity:0.4;"/>
   </g>
   <g id="patch_41">
    <path clip-path="url(#p46d0af4657)" d="M 207.738333 190.307111 
L 209.357525 190.307111 
L 209.357525 185.120667 
L 207.738333 185.120667 
z
" style="fill:#1f77b4;opacity:0.4;"/>
   </g>
   <g id="patch_42">
    <path clip-path="url(#p46d0af4657)" d="M 207.738333 185.120667 
L 210.976717 185.120667 
L 210.976717 179.934222 
L 207.738333 179.934222 
z
" style="fill:#1f77b4;opacity:0.4;"/>
   </g>
   <g id="patch_43">
    <path clip-path="url(#p46d0af4657)" d="M 207.738333 179.934222 
L 207.738333 179.934222 
L 207.738333 174.747778 
L 207.738333 174.747778 
z
" style="fill:#1f77b4;opacity:0.4;"/>
   </g>
   <g id="patch_44">
    <path clip-path="url(#p46d0af4657)" d="M 207.738333 174.747778 
L 210.976717 174.747778 
L 210.976717 169.561333 
L 207.738333 169.561333 
z
" style="fill:#1f77b4;opacity:0.4;"/>
   </g>
   <g id="patch_45">
    <path clip-path="url(#p46d0af4657)" d="M 207.738333 169.561333 
L 207.738333 169.561333 
L 207.738333 164.374889 
L 207.738333 164.374889 
z
" style="fill:#1f77b4;opacity:0.4;"/>
   </g>
   <g id="patch_46">
    <path clip-path="url(#p46d0af4657)" d="M 207.738333 164.374889 
L 214.215101 164.374889 
L 214.215101 159.188444 
L 207.738333 159.188444 
z
" style="fill:#1f77b4;opacity:0.4;"/>
   </g>
   <g id="patch_47">
    <path clip-path="url(#p46d0af4657)" d="M 207.738333 159.188444 
L 210.976717 159.188444 
L 210.976717 154.002 
L 207.738333 154.002 
z
" style="fill:#1f77b4;opacity:0.4;"/>
   </g>
   <g id="patch_48">
    <path clip-path="url(#p46d0af4657)" d="M 207.738333 154.002 
L 212.595909 154.002 
L 212.595909 148.815556 
L 207.738333 148.815556 
z
" style="fill:#1f77b4;opacity:0.4;"/>
   </g>
   <g id="patch_49">
    <path clip-path="url(#p46d0af4657)" d="M 207.738333 148.815556 
L 217.453485 148.815556 
L 217.453485 143.629111 
L 207.738333 143.629111 
z
" style="fill:#1f77b4;opacity:0.4;"/>
   </g>
   <g id="patch_50">
    <path clip-path="url(#p46d0af4657)" d="M 207.738333 143.629111 
L 222.311061 143.629111 
L 222.311061 138.442667 
L 207.738333 138.442667 
z
" style="fill:#1f77b4;opacity:0.4;"/>
   </g>
   <g id="patch_51">
    <path clip-path="url(#p46d0af4657)" d="M 207.738333 138.442667 
L 225.549444 138.442667 
L 225.549444 133.256222 
L 207.738333 133.256222 
z
" style="fill:#1f77b4;opacity:0.4;"/>
   </g>
   <g id="patch_52">
    <path clip-path="url(#p46d0af4657)" d="M 207.738333 133.256222 
L 210.976717 133.256222 
L 210.976717 128.069778 
L 207.738333 128.069778 
z
" style="fill:#1f77b4;opacity:0.4;"/>
   </g>
   <g id="patch_53">
    <path clip-path="url(#p46d0af4657)" d="M 207.738333 128.069778 
L 214.215101 128.069778 
L 214.215101 122.883333 
L 207.738333 122.883333 
z
" style="fill:#1f77b4;opacity:0.4;"/>
   </g>
   <g id="patch_54">
    <path clip-path="url(#p46d0af4657)" d="M 207.738333 122.883333 
L 209.357525 122.883333 
L 209.357525 117.696889 
L 207.738333 117.696889 
z
" style="fill:#1f77b4;opacity:0.4;"/>
   </g>
   <g id="patch_55">
    <path clip-path="url(#p46d0af4657)" d="M 207.738333 117.696889 
L 207.738333 117.696889 
L 207.738333 112.510444 
L 207.738333 112.510444 
z
" style="fill:#1f77b4;opacity:0.4;"/>
   </g>
   <g id="patch_56">
    <path clip-path="url(#p46d0af4657)" d="M 207.738333 112.510444 
L 209.357525 112.510444 
L 209.357525 107.324 
L 207.738333 107.324 
z
" style="fill:#1f77b4;opacity:0.4;"/>
   </g>
   <g id="patch_57">
    <path clip-path="url(#p46d0af4657)" d="M 207.738333 107.324 
L 207.738333 107.324 
L 207.738333 102.137556 
L 207.738333 102.137556 
z
" style="fill:#1f77b4;opacity:0.4;"/>
   </g>
   <g id="patch_58">
    <path clip-path="url(#p46d0af4657)" d="M 207.738333 102.137556 
L 207.738333 102.137556 
L 207.738333 96.951111 
L 207.738333 96.951111 
z
" style="fill:#1f77b4;opacity:0.4;"/>
   </g>
   <g id="patch_59">
    <path clip-path="url(#p46d0af4657)" d="M 207.738333 96.951111 
L 207.738333 96.951111 
L 207.738333 91.764667 
L 207.738333 91.764667 
z
" style="fill:#1f77b4;opacity:0.4;"/>
   </g>
   <g id="patch_60">
    <path clip-path="url(#p46d0af4657)" d="M 207.738333 91.764667 
L 207.738333 91.764667 
L 207.738333 86.578222 
L 207.738333 86.578222 
z
" style="fill:#1f77b4;opacity:0.4;"/>
   </g>
   <g id="patch_61">
    <path clip-path="url(#p46d0af4657)" d="M 207.738333 86.578222 
L 207.738333 86.578222 
L 207.738333 81.391778 
L 207.738333 81.391778 
z
" style="fill:#1f77b4;opacity:0.4;"/>
   </g>
   <g id="patch_62">
    <path clip-path="url(#p46d0af4657)" d="M 207.738333 81.391778 
L 207.738333 81.391778 
L 207.738333 76.205333 
L 207.738333 76.205333 
z
" style="fill:#1f77b4;opacity:0.4;"/>
   </g>
   <g id="patch_63">
    <path clip-path="url(#p46d0af4657)" d="M 207.738333 76.205333 
L 207.738333 76.205333 
L 207.738333 71.018889 
L 207.738333 71.018889 
z
" style="fill:#1f77b4;opacity:0.4;"/>
   </g>
   <g id="patch_64">
    <path clip-path="url(#p46d0af4657)" d="M 207.738333 71.018889 
L 207.738333 71.018889 
L 207.738333 65.832444 
L 207.738333 65.832444 
z
" style="fill:#1f77b4;opacity:0.4;"/>
   </g>
   <g id="patch_65">
    <path clip-path="url(#p46d0af4657)" d="M 207.738333 65.832444 
L 207.738333 65.832444 
L 207.738333 60.646 
L 207.738333 60.646 
z
" style="fill:#1f77b4;opacity:0.4;"/>
   </g>
   <g id="patch_66">
    <path clip-path="url(#p46d0af4657)" d="M 207.738333 60.646 
L 207.738333 60.646 
L 207.738333 55.459556 
L 207.738333 55.459556 
z
" style="fill:#1f77b4;opacity:0.4;"/>
   </g>
   <g id="patch_67">
    <path clip-path="url(#p46d0af4657)" d="M 207.738333 55.459556 
L 209.357525 55.459556 
L 209.357525 50.273111 
L 207.738333 50.273111 
z
" style="fill:#1f77b4;opacity:0.4;"/>
   </g>
   <g id="matplotlib.axis_5">
    <g id="xtick_9"/>
    <g id="xtick_10"/>
   </g>
   <g id="matplotlib.axis_6">
    <g id="ytick_10">
     <g id="line2d_18">
      <g>
       <use style="stroke:#000000;stroke-width:0.8;" x="207.738333" xlink:href="#m989c4bb818" y="200.68"/>
      </g>
     </g>
    </g>
    <g id="ytick_11">
     <g id="line2d_19">
      <g>
       <use style="stroke:#000000;stroke-width:0.8;" x="207.738333" xlink:href="#m989c4bb818" y="174.747778"/>
      </g>
     </g>
    </g>
    <g id="ytick_12">
     <g id="line2d_20">
      <g>
       <use style="stroke:#000000;stroke-width:0.8;" x="207.738333" xlink:href="#m989c4bb818" y="148.815556"/>
      </g>
     </g>
    </g>
    <g id="ytick_13">
     <g id="line2d_21">
      <g>
       <use style="stroke:#000000;stroke-width:0.8;" x="207.738333" xlink:href="#m989c4bb818" y="122.883333"/>
      </g>
     </g>
    </g>
    <g id="ytick_14">
     <g id="line2d_22">
      <g>
       <use style="stroke:#000000;stroke-width:0.8;" x="207.738333" xlink:href="#m989c4bb818" y="96.951111"/>
      </g>
     </g>
    </g>
    <g id="ytick_15">
     <g id="line2d_23">
      <g>
       <use style="stroke:#000000;stroke-width:0.8;" x="207.738333" xlink:href="#m989c4bb818" y="71.018889"/>
      </g>
     </g>
    </g>
    <g id="ytick_16">
     <g id="line2d_24">
      <g>
       <use style="stroke:#000000;stroke-width:0.8;" x="207.738333" xlink:href="#m989c4bb818" y="45.086667"/>
      </g>
     </g>
    </g>
   </g>
   <g id="patch_68">
    <path d="M 207.738333 200.68 
L 207.738333 45.086667 
" style="fill:none;stroke:#000000;stroke-linecap:square;stroke-linejoin:miter;stroke-width:0.8;"/>
   </g>
  </g>
 </g>
 <defs>
  <clipPath id="p64e0284ac9">
   <rect height="155.593333" width="148.228333" x="45.83" y="45.086667"/>
  </clipPath>
  <clipPath id="pcf752cd8dc">
   <rect height="19.886667" width="148.228333" x="45.83" y="11.16"/>
  </clipPath>
  <clipPath id="p46d0af4657">
   <rect height="155.593333" width="18.701667" x="207.738333" y="45.086667"/>
  </clipPath>
 </defs>
</svg>
