<?xml version="1.0" encoding="UTF-8" standalone="no"?>
<svg
   xmlns:dc="http://purl.org/dc/elements/1.1/"
   xmlns:cc="http://creativecommons.org/ns#"
   xmlns:rdf="http://www.w3.org/1999/02/22-rdf-syntax-ns#"
   xmlns:svg="http://www.w3.org/2000/svg"
   xmlns="http://www.w3.org/2000/svg"
   xmlns:xlink="http://www.w3.org/1999/xlink"
   xmlns:sodipodi="http://sodipodi.sourceforge.net/DTD/sodipodi-0.dtd"
   xmlns:inkscape="http://www.inkscape.org/namespaces/inkscape"
   height="288pt"
   version="1.1"
   viewBox="0 0 432 288"
   width="432pt"
   id="svg509"
   sodipodi:docname="ejemplo_enzima.svg"
   inkscape:version="1.0.1 (3bc2e813f5, 2020-09-07)">
  <sodipodi:namedview
     pagecolor="#ffffff"
     bordercolor="#666666"
     borderopacity="1"
     objecttolerance="10"
     gridtolerance="10"
     guidetolerance="10"
     inkscape:pageopacity="0"
     inkscape:pageshadow="2"
     inkscape:window-width="1825"
     inkscape:window-height="1046"
     id="namedview511"
     showgrid="false"
     inkscape:zoom="2.3333333"
     inkscape:cx="288"
     inkscape:cy="190"
     inkscape:window-x="-11"
     inkscape:window-y="-11"
     inkscape:window-maximized="1"
     inkscape:current-layer="svg509">
    <inkscape:grid
       type="xygrid"
       id="grid1336" />
  </sodipodi:namedview>
  <metadata
     id="metadata2">
    <rdf:RDF>
      <cc:Work>
        <dc:type
           rdf:resource="http://purl.org/dc/dcmitype/StillImage" />
        <dc:date>2021-06-14T19:40:15.801338</dc:date>
        <dc:format>image/svg+xml</dc:format>
        <dc:creator>
          <cc:Agent>
            <dc:title>Matplotlib v3.3.2, https://matplotlib.org/</dc:title>
          </cc:Agent>
        </dc:creator>
      </cc:Work>
    </rdf:RDF>
  </metadata>
  <defs
     id="defs6">
    <marker
       style="overflow:visible"
       id="Arrow2Mstart"
       refX="0.0"
       refY="0.0"
       orient="auto"
       inkscape:stockid="Arrow2Mstart"
       inkscape:isstock="true">
      <path
         transform="scale(0.6) translate(0,0)"
         d="M 8.7185878,4.0337352 L -2.2072895,0.016013256 L 8.7185884,-4.0017078 C 6.9730900,-1.6296469 6.9831476,1.6157441 8.7185878,4.0337352 z "
         style="fill-rule:evenodd;stroke-width:0.625;stroke-linejoin:round;stroke:#000000;stroke-opacity:1;fill:#000000;fill-opacity:1"
         id="path1364" />
    </marker>
    <marker
       style="overflow:visible"
       id="marker1618"
       refX="0.0"
       refY="0.0"
       orient="auto"
       inkscape:stockid="Arrow2Lstart"
       inkscape:isstock="true">
      <path
         transform="scale(1.1) translate(1,0)"
         d="M 8.7185878,4.0337352 L -2.2072895,0.016013256 L 8.7185884,-4.0017078 C 6.9730900,-1.6296469 6.9831476,1.6157441 8.7185878,4.0337352 z "
         style="fill-rule:evenodd;stroke-width:0.625;stroke-linejoin:round;stroke:#000000;stroke-opacity:1;fill:#000000;fill-opacity:1"
         id="path1616" />
    </marker>
    <marker
       style="overflow:visible"
       id="Arrow2Lstart"
       refX="0.0"
       refY="0.0"
       orient="auto"
       inkscape:stockid="Arrow2Lstart"
       inkscape:isstock="true">
      <path
         transform="scale(1.1) translate(1,0)"
         d="M 8.7185878,4.0337352 L -2.2072895,0.016013256 L 8.7185884,-4.0017078 C 6.9730900,-1.6296469 6.9831476,1.6157441 8.7185878,4.0337352 z "
         style="fill-rule:evenodd;stroke-width:0.625;stroke-linejoin:round;stroke:#000000;stroke-opacity:1;fill:#000000;fill-opacity:1"
         id="path1358" />
    </marker>
    <style
       type="text/css"
       id="style4">*{stroke-linecap:butt;stroke-linejoin:round;}</style>
  </defs>
  <g
     id="figure_1">
    <g
       id="patch_1">
      <path
         d="M 0 288  L 432 288  L 432 0  L 0 0  z "
         style="fill:none;"
         id="path8" />
    </g>
    <g
       id="axes_1">
      <g
         id="patch_2">
        <path
           d="M 54 252  L 388.8 252  L 388.8 34.56  L 54 34.56  z "
           style="fill:#ffffff;"
           id="path11" />
      </g>
      <g
         id="matplotlib.axis_1">
        <g
           id="xtick_1">
          <g
             id="line2d_1">
            <defs
               id="defs15">
              <path
                 d="M 0 0  L 0 3.5  "
                 id="madbdb2821e"
                 style="stroke:#000000;stroke-width:0.8;" />
            </defs>
            <g
               id="g19">
              <use
                 style="stroke:#000000;stroke-width:0.8;"
                 x="86.447125"
                 xlink:href="#madbdb2821e"
                 y="252"
                 id="use17" />
            </g>
          </g>
          <g
             id="text_1">
            <!-- 0 -->
            <g
               transform="translate(83.265875 266.598437)scale(0.1 -0.1)"
               id="g27">
              <defs
                 id="defs23">
                <path
                   d="M 31.78125 66.40625  Q 24.171875 66.40625 20.328125 58.90625  Q 16.5 51.421875 16.5 36.375  Q 16.5 21.390625 20.328125 13.890625  Q 24.171875 6.390625 31.78125 6.390625  Q 39.453125 6.390625 43.28125 13.890625  Q 47.125 21.390625 47.125 36.375  Q 47.125 51.421875 43.28125 58.90625  Q 39.453125 66.40625 31.78125 66.40625  z M 31.78125 74.21875  Q 44.046875 74.21875 50.515625 64.515625  Q 56.984375 54.828125 56.984375 36.375  Q 56.984375 17.96875 50.515625 8.265625  Q 44.046875 -1.421875 31.78125 -1.421875  Q 19.53125 -1.421875 13.0625 8.265625  Q 6.59375 17.96875 6.59375 36.375  Q 6.59375 54.828125 13.0625 64.515625  Q 19.53125 74.21875 31.78125 74.21875  z "
                   id="DejaVuSans-48" />
              </defs>
              <use
                 xlink:href="#DejaVuSans-48"
                 id="use25" />
            </g>
          </g>
        </g>
        <g
           id="xtick_2">
          <g
             id="line2d_2">
            <g
               id="g33">
              <use
                 style="stroke:#000000;stroke-width:0.8;"
                 x="129.519482"
                 xlink:href="#madbdb2821e"
                 y="252"
                 id="use31" />
            </g>
          </g>
          <g
             id="text_2">
            <!-- 50 -->
            <g
               transform="translate(123.156982 266.598437)scale(0.1 -0.1)"
               id="g43">
              <defs
                 id="defs37">
                <path
                   d="M 10.796875 72.90625  L 49.515625 72.90625  L 49.515625 64.59375  L 19.828125 64.59375  L 19.828125 46.734375  Q 21.96875 47.46875 24.109375 47.828125  Q 26.265625 48.1875 28.421875 48.1875  Q 40.625 48.1875 47.75 41.5  Q 54.890625 34.8125 54.890625 23.390625  Q 54.890625 11.625 47.5625 5.09375  Q 40.234375 -1.421875 26.90625 -1.421875  Q 22.3125 -1.421875 17.546875 -0.640625  Q 12.796875 0.140625 7.71875 1.703125  L 7.71875 11.625  Q 12.109375 9.234375 16.796875 8.0625  Q 21.484375 6.890625 26.703125 6.890625  Q 35.15625 6.890625 40.078125 11.328125  Q 45.015625 15.765625 45.015625 23.390625  Q 45.015625 31 40.078125 35.4375  Q 35.15625 39.890625 26.703125 39.890625  Q 22.75 39.890625 18.8125 39.015625  Q 14.890625 38.140625 10.796875 36.28125  z "
                   id="DejaVuSans-53" />
              </defs>
              <use
                 xlink:href="#DejaVuSans-53"
                 id="use39" />
              <use
                 x="63.623047"
                 xlink:href="#DejaVuSans-48"
                 id="use41" />
            </g>
          </g>
        </g>
        <g
           id="xtick_3">
          <g
             id="line2d_3">
            <g
               id="g49">
              <use
                 style="stroke:#000000;stroke-width:0.8;"
                 x="172.59184"
                 xlink:href="#madbdb2821e"
                 y="252"
                 id="use47" />
            </g>
          </g>
          <g
             id="text_3">
            <!-- 100 -->
            <g
               transform="translate(163.04809 266.598437)scale(0.1 -0.1)"
               id="g61">
              <defs
                 id="defs53">
                <path
                   d="M 12.40625 8.296875  L 28.515625 8.296875  L 28.515625 63.921875  L 10.984375 60.40625  L 10.984375 69.390625  L 28.421875 72.90625  L 38.28125 72.90625  L 38.28125 8.296875  L 54.390625 8.296875  L 54.390625 0  L 12.40625 0  z "
                   id="DejaVuSans-49" />
              </defs>
              <use
                 xlink:href="#DejaVuSans-49"
                 id="use55" />
              <use
                 x="63.623047"
                 xlink:href="#DejaVuSans-48"
                 id="use57" />
              <use
                 x="127.246094"
                 xlink:href="#DejaVuSans-48"
                 id="use59" />
            </g>
          </g>
        </g>
        <g
           id="xtick_4">
          <g
             id="line2d_4">
            <g
               id="g67">
              <use
                 style="stroke:#000000;stroke-width:0.8;"
                 x="215.664198"
                 xlink:href="#madbdb2821e"
                 y="252"
                 id="use65" />
            </g>
          </g>
          <g
             id="text_4">
            <!-- 150 -->
            <g
               transform="translate(206.120448 266.598437)scale(0.1 -0.1)"
               id="g76">
              <use
                 xlink:href="#DejaVuSans-49"
                 id="use70" />
              <use
                 x="63.623047"
                 xlink:href="#DejaVuSans-53"
                 id="use72" />
              <use
                 x="127.246094"
                 xlink:href="#DejaVuSans-48"
                 id="use74" />
            </g>
          </g>
        </g>
        <g
           id="xtick_5">
          <g
             id="line2d_5">
            <g
               id="g82">
              <use
                 style="stroke:#000000;stroke-width:0.8;"
                 x="258.736555"
                 xlink:href="#madbdb2821e"
                 y="252"
                 id="use80" />
            </g>
          </g>
          <g
             id="text_5">
            <!-- 200 -->
            <g
               transform="translate(249.192805 266.598437)scale(0.1 -0.1)"
               id="g94">
              <defs
                 id="defs86">
                <path
                   d="M 19.1875 8.296875  L 53.609375 8.296875  L 53.609375 0  L 7.328125 0  L 7.328125 8.296875  Q 12.9375 14.109375 22.625 23.890625  Q 32.328125 33.6875 34.8125 36.53125  Q 39.546875 41.84375 41.421875 45.53125  Q 43.3125 49.21875 43.3125 52.78125  Q 43.3125 58.59375 39.234375 62.25  Q 35.15625 65.921875 28.609375 65.921875  Q 23.96875 65.921875 18.8125 64.3125  Q 13.671875 62.703125 7.8125 59.421875  L 7.8125 69.390625  Q 13.765625 71.78125 18.9375 73  Q 24.125 74.21875 28.421875 74.21875  Q 39.75 74.21875 46.484375 68.546875  Q 53.21875 62.890625 53.21875 53.421875  Q 53.21875 48.921875 51.53125 44.890625  Q 49.859375 40.875 45.40625 35.40625  Q 44.1875 33.984375 37.640625 27.21875  Q 31.109375 20.453125 19.1875 8.296875  z "
                   id="DejaVuSans-50" />
              </defs>
              <use
                 xlink:href="#DejaVuSans-50"
                 id="use88" />
              <use
                 x="63.623047"
                 xlink:href="#DejaVuSans-48"
                 id="use90" />
              <use
                 x="127.246094"
                 xlink:href="#DejaVuSans-48"
                 id="use92" />
            </g>
          </g>
        </g>
        <g
           id="xtick_6">
          <g
             id="line2d_6">
            <g
               id="g100">
              <use
                 style="stroke:#000000;stroke-width:0.8;"
                 x="301.808913"
                 xlink:href="#madbdb2821e"
                 y="252"
                 id="use98" />
            </g>
          </g>
          <g
             id="text_6">
            <!-- 250 -->
            <g
               transform="translate(292.265163 266.598437)scale(0.1 -0.1)"
               id="g109">
              <use
                 xlink:href="#DejaVuSans-50"
                 id="use103" />
              <use
                 x="63.623047"
                 xlink:href="#DejaVuSans-53"
                 id="use105" />
              <use
                 x="127.246094"
                 xlink:href="#DejaVuSans-48"
                 id="use107" />
            </g>
          </g>
        </g>
        <g
           id="xtick_7">
          <g
             id="line2d_7">
            <g
               id="g115">
              <use
                 style="stroke:#000000;stroke-width:0.8;"
                 x="344.881271"
                 xlink:href="#madbdb2821e"
                 y="252"
                 id="use113" />
            </g>
          </g>
          <g
             id="text_7">
            <!-- 300 -->
            <g
               transform="translate(335.337521 266.598437)scale(0.1 -0.1)"
               id="g127">
              <defs
                 id="defs119">
                <path
                   d="M 40.578125 39.3125  Q 47.65625 37.796875 51.625 33  Q 55.609375 28.21875 55.609375 21.1875  Q 55.609375 10.40625 48.1875 4.484375  Q 40.765625 -1.421875 27.09375 -1.421875  Q 22.515625 -1.421875 17.65625 -0.515625  Q 12.796875 0.390625 7.625 2.203125  L 7.625 11.71875  Q 11.71875 9.328125 16.59375 8.109375  Q 21.484375 6.890625 26.8125 6.890625  Q 36.078125 6.890625 40.9375 10.546875  Q 45.796875 14.203125 45.796875 21.1875  Q 45.796875 27.640625 41.28125 31.265625  Q 36.765625 34.90625 28.71875 34.90625  L 20.21875 34.90625  L 20.21875 43.015625  L 29.109375 43.015625  Q 36.375 43.015625 40.234375 45.921875  Q 44.09375 48.828125 44.09375 54.296875  Q 44.09375 59.90625 40.109375 62.90625  Q 36.140625 65.921875 28.71875 65.921875  Q 24.65625 65.921875 20.015625 65.03125  Q 15.375 64.15625 9.8125 62.3125  L 9.8125 71.09375  Q 15.4375 72.65625 20.34375 73.4375  Q 25.25 74.21875 29.59375 74.21875  Q 40.828125 74.21875 47.359375 69.109375  Q 53.90625 64.015625 53.90625 55.328125  Q 53.90625 49.265625 50.4375 45.09375  Q 46.96875 40.921875 40.578125 39.3125  z "
                   id="DejaVuSans-51" />
              </defs>
              <use
                 xlink:href="#DejaVuSans-51"
                 id="use121" />
              <use
                 x="63.623047"
                 xlink:href="#DejaVuSans-48"
                 id="use123" />
              <use
                 x="127.246094"
                 xlink:href="#DejaVuSans-48"
                 id="use125" />
            </g>
          </g>
        </g>
        <g
           id="xtick_8">
          <g
             id="line2d_8">
            <g
               id="g133">
              <use
                 style="stroke:#000000;stroke-width:0.8;"
                 x="387.953628"
                 xlink:href="#madbdb2821e"
                 y="252"
                 id="use131" />
            </g>
          </g>
          <g
             id="text_8">
            <!-- 350 -->
            <g
               transform="translate(378.409878 266.598437)scale(0.1 -0.1)"
               id="g142">
              <use
                 xlink:href="#DejaVuSans-51"
                 id="use136" />
              <use
                 x="63.623047"
                 xlink:href="#DejaVuSans-53"
                 id="use138" />
              <use
                 x="127.246094"
                 xlink:href="#DejaVuSans-48"
                 id="use140" />
            </g>
          </g>
        </g>
        <g
           id="text_9">
          <!-- Tiempo (min.) -->
          <g
             transform="translate(186.425 280.276563)scale(0.1 -0.1)"
             id="g185">
            <defs
               id="defs157">
              <path
                 d="M -0.296875 72.90625  L 61.375 72.90625  L 61.375 64.59375  L 35.5 64.59375  L 35.5 0  L 25.59375 0  L 25.59375 64.59375  L -0.296875 64.59375  z "
                 id="DejaVuSans-84" />
              <path
                 d="M 9.421875 54.6875  L 18.40625 54.6875  L 18.40625 0  L 9.421875 0  z M 9.421875 75.984375  L 18.40625 75.984375  L 18.40625 64.59375  L 9.421875 64.59375  z "
                 id="DejaVuSans-105" />
              <path
                 d="M 56.203125 29.59375  L 56.203125 25.203125  L 14.890625 25.203125  Q 15.484375 15.921875 20.484375 11.0625  Q 25.484375 6.203125 34.421875 6.203125  Q 39.59375 6.203125 44.453125 7.46875  Q 49.3125 8.734375 54.109375 11.28125  L 54.109375 2.78125  Q 49.265625 0.734375 44.1875 -0.34375  Q 39.109375 -1.421875 33.890625 -1.421875  Q 20.796875 -1.421875 13.15625 6.1875  Q 5.515625 13.8125 5.515625 26.8125  Q 5.515625 40.234375 12.765625 48.109375  Q 20.015625 56 32.328125 56  Q 43.359375 56 49.78125 48.890625  Q 56.203125 41.796875 56.203125 29.59375  z M 47.21875 32.234375  Q 47.125 39.59375 43.09375 43.984375  Q 39.0625 48.390625 32.421875 48.390625  Q 24.90625 48.390625 20.390625 44.140625  Q 15.875 39.890625 15.1875 32.171875  z "
                 id="DejaVuSans-101" />
              <path
                 d="M 52 44.1875  Q 55.375 50.25 60.0625 53.125  Q 64.75 56 71.09375 56  Q 79.640625 56 84.28125 50.015625  Q 88.921875 44.046875 88.921875 33.015625  L 88.921875 0  L 79.890625 0  L 79.890625 32.71875  Q 79.890625 40.578125 77.09375 44.375  Q 74.3125 48.1875 68.609375 48.1875  Q 61.625 48.1875 57.5625 43.546875  Q 53.515625 38.921875 53.515625 30.90625  L 53.515625 0  L 44.484375 0  L 44.484375 32.71875  Q 44.484375 40.625 41.703125 44.40625  Q 38.921875 48.1875 33.109375 48.1875  Q 26.21875 48.1875 22.15625 43.53125  Q 18.109375 38.875 18.109375 30.90625  L 18.109375 0  L 9.078125 0  L 9.078125 54.6875  L 18.109375 54.6875  L 18.109375 46.1875  Q 21.1875 51.21875 25.484375 53.609375  Q 29.78125 56 35.6875 56  Q 41.65625 56 45.828125 52.96875  Q 50 49.953125 52 44.1875  z "
                 id="DejaVuSans-109" />
              <path
                 d="M 18.109375 8.203125  L 18.109375 -20.796875  L 9.078125 -20.796875  L 9.078125 54.6875  L 18.109375 54.6875  L 18.109375 46.390625  Q 20.953125 51.265625 25.265625 53.625  Q 29.59375 56 35.59375 56  Q 45.5625 56 51.78125 48.09375  Q 58.015625 40.1875 58.015625 27.296875  Q 58.015625 14.40625 51.78125 6.484375  Q 45.5625 -1.421875 35.59375 -1.421875  Q 29.59375 -1.421875 25.265625 0.953125  Q 20.953125 3.328125 18.109375 8.203125  z M 48.6875 27.296875  Q 48.6875 37.203125 44.609375 42.84375  Q 40.53125 48.484375 33.40625 48.484375  Q 26.265625 48.484375 22.1875 42.84375  Q 18.109375 37.203125 18.109375 27.296875  Q 18.109375 17.390625 22.1875 11.75  Q 26.265625 6.109375 33.40625 6.109375  Q 40.53125 6.109375 44.609375 11.75  Q 48.6875 17.390625 48.6875 27.296875  z "
                 id="DejaVuSans-112" />
              <path
                 d="M 30.609375 48.390625  Q 23.390625 48.390625 19.1875 42.75  Q 14.984375 37.109375 14.984375 27.296875  Q 14.984375 17.484375 19.15625 11.84375  Q 23.34375 6.203125 30.609375 6.203125  Q 37.796875 6.203125 41.984375 11.859375  Q 46.1875 17.53125 46.1875 27.296875  Q 46.1875 37.015625 41.984375 42.703125  Q 37.796875 48.390625 30.609375 48.390625  z M 30.609375 56  Q 42.328125 56 49.015625 48.375  Q 55.71875 40.765625 55.71875 27.296875  Q 55.71875 13.875 49.015625 6.21875  Q 42.328125 -1.421875 30.609375 -1.421875  Q 18.84375 -1.421875 12.171875 6.21875  Q 5.515625 13.875 5.515625 27.296875  Q 5.515625 40.765625 12.171875 48.375  Q 18.84375 56 30.609375 56  z "
                 id="DejaVuSans-111" />
              <path
                 id="DejaVuSans-32" />
              <path
                 d="M 31 75.875  Q 24.46875 64.65625 21.28125 53.65625  Q 18.109375 42.671875 18.109375 31.390625  Q 18.109375 20.125 21.3125 9.0625  Q 24.515625 -2 31 -13.1875  L 23.1875 -13.1875  Q 15.875 -1.703125 12.234375 9.375  Q 8.59375 20.453125 8.59375 31.390625  Q 8.59375 42.28125 12.203125 53.3125  Q 15.828125 64.359375 23.1875 75.875  z "
                 id="DejaVuSans-40" />
              <path
                 d="M 54.890625 33.015625  L 54.890625 0  L 45.90625 0  L 45.90625 32.71875  Q 45.90625 40.484375 42.875 44.328125  Q 39.84375 48.1875 33.796875 48.1875  Q 26.515625 48.1875 22.3125 43.546875  Q 18.109375 38.921875 18.109375 30.90625  L 18.109375 0  L 9.078125 0  L 9.078125 54.6875  L 18.109375 54.6875  L 18.109375 46.1875  Q 21.34375 51.125 25.703125 53.5625  Q 30.078125 56 35.796875 56  Q 45.21875 56 50.046875 50.171875  Q 54.890625 44.34375 54.890625 33.015625  z "
                 id="DejaVuSans-110" />
              <path
                 d="M 10.6875 12.40625  L 21 12.40625  L 21 0  L 10.6875 0  z "
                 id="DejaVuSans-46" />
              <path
                 d="M 8.015625 75.875  L 15.828125 75.875  Q 23.140625 64.359375 26.78125 53.3125  Q 30.421875 42.28125 30.421875 31.390625  Q 30.421875 20.453125 26.78125 9.375  Q 23.140625 -1.703125 15.828125 -13.1875  L 8.015625 -13.1875  Q 14.5 -2 17.703125 9.0625  Q 20.90625 20.125 20.90625 31.390625  Q 20.90625 42.671875 17.703125 53.65625  Q 14.5 64.65625 8.015625 75.875  z "
                 id="DejaVuSans-41" />
            </defs>
            <use
               xlink:href="#DejaVuSans-84"
               id="use159" />
            <use
               x="57.958984"
               xlink:href="#DejaVuSans-105"
               id="use161" />
            <use
               x="85.742188"
               xlink:href="#DejaVuSans-101"
               id="use163" />
            <use
               x="147.265625"
               xlink:href="#DejaVuSans-109"
               id="use165" />
            <use
               x="244.677734"
               xlink:href="#DejaVuSans-112"
               id="use167" />
            <use
               x="308.154297"
               xlink:href="#DejaVuSans-111"
               id="use169" />
            <use
               x="369.335938"
               xlink:href="#DejaVuSans-32"
               id="use171" />
            <use
               x="401.123047"
               xlink:href="#DejaVuSans-40"
               id="use173" />
            <use
               x="440.136719"
               xlink:href="#DejaVuSans-109"
               id="use175" />
            <use
               x="537.548828"
               xlink:href="#DejaVuSans-105"
               id="use177" />
            <use
               x="565.332031"
               xlink:href="#DejaVuSans-110"
               id="use179" />
            <use
               x="628.710938"
               xlink:href="#DejaVuSans-46"
               id="use181" />
            <use
               x="660.498047"
               xlink:href="#DejaVuSans-41"
               id="use183" />
          </g>
        </g>
      </g>
      <g
         id="matplotlib.axis_2">
        <g
           id="ytick_1">
          <g
             id="line2d_9">
            <defs
               id="defs190">
              <path
                 d="M 0 0  L -3.5 0  "
                 id="md12d9c8bdf"
                 style="stroke:#000000;stroke-width:0.8;" />
            </defs>
            <g
               id="g194">
              <use
                 style="stroke:#000000;stroke-width:0.8;"
                 x="54"
                 xlink:href="#md12d9c8bdf"
                 y="242.116364"
                 id="use192" />
            </g>
          </g>
          <g
             id="text_10">
            <!-- 0 -->
            <g
               transform="translate(40.6375 245.915582)scale(0.1 -0.1)"
               id="g199">
              <use
                 xlink:href="#DejaVuSans-48"
                 id="use197" />
            </g>
          </g>
        </g>
        <g
           id="ytick_2">
          <g
             id="line2d_10">
            <g
               id="g205">
              <use
                 style="stroke:#000000;stroke-width:0.8;"
                 x="54"
                 xlink:href="#md12d9c8bdf"
                 y="216.943267"
                 id="use203" />
            </g>
          </g>
          <g
             id="text_11">
            <!-- 2500 -->
            <g
               transform="translate(21.55 220.742486)scale(0.1 -0.1)"
               id="g216">
              <use
                 xlink:href="#DejaVuSans-50"
                 id="use208" />
              <use
                 x="63.623047"
                 xlink:href="#DejaVuSans-53"
                 id="use210" />
              <use
                 x="127.246094"
                 xlink:href="#DejaVuSans-48"
                 id="use212" />
              <use
                 x="190.869141"
                 xlink:href="#DejaVuSans-48"
                 id="use214" />
            </g>
          </g>
        </g>
        <g
           id="ytick_3">
          <g
             id="line2d_11">
            <g
               id="g222">
              <use
                 style="stroke:#000000;stroke-width:0.8;"
                 x="54"
                 xlink:href="#md12d9c8bdf"
                 y="191.770171"
                 id="use220" />
            </g>
          </g>
          <g
             id="text_12">
            <!-- 5000 -->
            <g
               transform="translate(21.55 195.56939)scale(0.1 -0.1)"
               id="g233">
              <use
                 xlink:href="#DejaVuSans-53"
                 id="use225" />
              <use
                 x="63.623047"
                 xlink:href="#DejaVuSans-48"
                 id="use227" />
              <use
                 x="127.246094"
                 xlink:href="#DejaVuSans-48"
                 id="use229" />
              <use
                 x="190.869141"
                 xlink:href="#DejaVuSans-48"
                 id="use231" />
            </g>
          </g>
        </g>
        <g
           id="ytick_4">
          <g
             id="line2d_12">
            <g
               id="g239">
              <use
                 style="stroke:#000000;stroke-width:0.8;"
                 x="54"
                 xlink:href="#md12d9c8bdf"
                 y="166.597075"
                 id="use237" />
            </g>
          </g>
          <g
             id="text_13">
            <!-- 7500 -->
            <g
               transform="translate(21.55 170.396293)scale(0.1 -0.1)"
               id="g253">
              <defs
                 id="defs243">
                <path
                   d="M 8.203125 72.90625  L 55.078125 72.90625  L 55.078125 68.703125  L 28.609375 0  L 18.3125 0  L 43.21875 64.59375  L 8.203125 64.59375  z "
                   id="DejaVuSans-55" />
              </defs>
              <use
                 xlink:href="#DejaVuSans-55"
                 id="use245" />
              <use
                 x="63.623047"
                 xlink:href="#DejaVuSans-53"
                 id="use247" />
              <use
                 x="127.246094"
                 xlink:href="#DejaVuSans-48"
                 id="use249" />
              <use
                 x="190.869141"
                 xlink:href="#DejaVuSans-48"
                 id="use251" />
            </g>
          </g>
        </g>
        <g
           id="ytick_5">
          <g
             id="line2d_13">
            <g
               id="g259">
              <use
                 style="stroke:#000000;stroke-width:0.8;"
                 x="54"
                 xlink:href="#md12d9c8bdf"
                 y="141.423978"
                 id="use257" />
            </g>
          </g>
          <g
             id="text_14">
            <!-- 10000 -->
            <g
               transform="translate(15.1875 145.223197)scale(0.1 -0.1)"
               id="g272">
              <use
                 xlink:href="#DejaVuSans-49"
                 id="use262" />
              <use
                 x="63.623047"
                 xlink:href="#DejaVuSans-48"
                 id="use264" />
              <use
                 x="127.246094"
                 xlink:href="#DejaVuSans-48"
                 id="use266" />
              <use
                 x="190.869141"
                 xlink:href="#DejaVuSans-48"
                 id="use268" />
              <use
                 x="254.492188"
                 xlink:href="#DejaVuSans-48"
                 id="use270" />
            </g>
          </g>
        </g>
        <g
           id="ytick_6">
          <g
             id="line2d_14">
            <g
               id="g278">
              <use
                 style="stroke:#000000;stroke-width:0.8;"
                 x="54"
                 xlink:href="#md12d9c8bdf"
                 y="116.250882"
                 id="use276" />
            </g>
          </g>
          <g
             id="text_15">
            <!-- 12500 -->
            <g
               transform="translate(15.1875 120.050101)scale(0.1 -0.1)"
               id="g291">
              <use
                 xlink:href="#DejaVuSans-49"
                 id="use281" />
              <use
                 x="63.623047"
                 xlink:href="#DejaVuSans-50"
                 id="use283" />
              <use
                 x="127.246094"
                 xlink:href="#DejaVuSans-53"
                 id="use285" />
              <use
                 x="190.869141"
                 xlink:href="#DejaVuSans-48"
                 id="use287" />
              <use
                 x="254.492188"
                 xlink:href="#DejaVuSans-48"
                 id="use289" />
            </g>
          </g>
        </g>
        <g
           id="ytick_7">
          <g
             id="line2d_15">
            <g
               id="g297">
              <use
                 style="stroke:#000000;stroke-width:0.8;"
                 x="54"
                 xlink:href="#md12d9c8bdf"
                 y="91.077786"
                 id="use295" />
            </g>
          </g>
          <g
             id="text_16">
            <!-- 15000 -->
            <g
               transform="translate(15.1875 94.877004)scale(0.1 -0.1)"
               id="g310">
              <use
                 xlink:href="#DejaVuSans-49"
                 id="use300" />
              <use
                 x="63.623047"
                 xlink:href="#DejaVuSans-53"
                 id="use302" />
              <use
                 x="127.246094"
                 xlink:href="#DejaVuSans-48"
                 id="use304" />
              <use
                 x="190.869141"
                 xlink:href="#DejaVuSans-48"
                 id="use306" />
              <use
                 x="254.492188"
                 xlink:href="#DejaVuSans-48"
                 id="use308" />
            </g>
          </g>
        </g>
        <g
           id="ytick_8">
          <g
             id="line2d_16">
            <g
               id="g316">
              <use
                 style="stroke:#000000;stroke-width:0.8;"
                 x="54"
                 xlink:href="#md12d9c8bdf"
                 y="65.904689"
                 id="use314" />
            </g>
          </g>
          <g
             id="text_17">
            <!-- 17500 -->
            <g
               transform="translate(15.1875 69.703908)scale(0.1 -0.1)"
               id="g329">
              <use
                 xlink:href="#DejaVuSans-49"
                 id="use319" />
              <use
                 x="63.623047"
                 xlink:href="#DejaVuSans-55"
                 id="use321" />
              <use
                 x="127.246094"
                 xlink:href="#DejaVuSans-53"
                 id="use323" />
              <use
                 x="190.869141"
                 xlink:href="#DejaVuSans-48"
                 id="use325" />
              <use
                 x="254.492188"
                 xlink:href="#DejaVuSans-48"
                 id="use327" />
            </g>
          </g>
        </g>
        <g
           id="ytick_9">
          <g
             id="line2d_17">
            <g
               id="g335">
              <use
                 style="stroke:#000000;stroke-width:0.8;"
                 x="54"
                 xlink:href="#md12d9c8bdf"
                 y="40.731593"
                 id="use333" />
            </g>
          </g>
          <g
             id="text_18">
            <!-- 20000 -->
            <g
               transform="translate(15.1875 44.530812)scale(0.1 -0.1)"
               id="g348">
              <use
                 xlink:href="#DejaVuSans-50"
                 id="use338" />
              <use
                 x="63.623047"
                 xlink:href="#DejaVuSans-48"
                 id="use340" />
              <use
                 x="127.246094"
                 xlink:href="#DejaVuSans-48"
                 id="use342" />
              <use
                 x="190.869141"
                 xlink:href="#DejaVuSans-48"
                 id="use344" />
              <use
                 x="254.492188"
                 xlink:href="#DejaVuSans-48"
                 id="use346" />
            </g>
          </g>
        </g>
        <g
           id="text_19">
          <!-- Moléculas/célula -->
          <g
             transform="translate(9.107812 184.615938)rotate(-90)scale(0.1 -0.1)"
             id="g394">
            <defs
               id="defs360">
              <path
                 d="M 9.8125 72.90625  L 24.515625 72.90625  L 43.109375 23.296875  L 61.8125 72.90625  L 76.515625 72.90625  L 76.515625 0  L 66.890625 0  L 66.890625 64.015625  L 48.09375 14.015625  L 38.1875 14.015625  L 19.390625 64.015625  L 19.390625 0  L 9.8125 0  z "
                 id="DejaVuSans-77" />
              <path
                 d="M 9.421875 75.984375  L 18.40625 75.984375  L 18.40625 0  L 9.421875 0  z "
                 id="DejaVuSans-108" />
              <path
                 d="M 56.203125 29.59375  L 56.203125 25.203125  L 14.890625 25.203125  Q 15.484375 15.921875 20.484375 11.0625  Q 25.484375 6.203125 34.421875 6.203125  Q 39.59375 6.203125 44.453125 7.46875  Q 49.3125 8.734375 54.109375 11.28125  L 54.109375 2.78125  Q 49.265625 0.734375 44.1875 -0.34375  Q 39.109375 -1.421875 33.890625 -1.421875  Q 20.796875 -1.421875 13.15625 6.1875  Q 5.515625 13.8125 5.515625 26.8125  Q 5.515625 40.234375 12.765625 48.109375  Q 20.015625 56 32.328125 56  Q 43.359375 56 49.78125 48.890625  Q 56.203125 41.796875 56.203125 29.59375  z M 47.21875 32.234375  Q 47.125 39.59375 43.09375 43.984375  Q 39.0625 48.390625 32.421875 48.390625  Q 24.90625 48.390625 20.390625 44.140625  Q 15.875 39.890625 15.1875 32.171875  z M 38.578125 79.984375  L 48.296875 79.984375  L 32.375 61.625  L 24.90625 61.625  z "
                 id="DejaVuSans-233" />
              <path
                 d="M 48.78125 52.59375  L 48.78125 44.1875  Q 44.96875 46.296875 41.140625 47.34375  Q 37.3125 48.390625 33.40625 48.390625  Q 24.65625 48.390625 19.8125 42.84375  Q 14.984375 37.3125 14.984375 27.296875  Q 14.984375 17.28125 19.8125 11.734375  Q 24.65625 6.203125 33.40625 6.203125  Q 37.3125 6.203125 41.140625 7.25  Q 44.96875 8.296875 48.78125 10.40625  L 48.78125 2.09375  Q 45.015625 0.34375 40.984375 -0.53125  Q 36.96875 -1.421875 32.421875 -1.421875  Q 20.0625 -1.421875 12.78125 6.34375  Q 5.515625 14.109375 5.515625 27.296875  Q 5.515625 40.671875 12.859375 48.328125  Q 20.21875 56 33.015625 56  Q 37.15625 56 41.109375 55.140625  Q 45.0625 54.296875 48.78125 52.59375  z "
                 id="DejaVuSans-99" />
              <path
                 d="M 8.5 21.578125  L 8.5 54.6875  L 17.484375 54.6875  L 17.484375 21.921875  Q 17.484375 14.15625 20.5 10.265625  Q 23.53125 6.390625 29.59375 6.390625  Q 36.859375 6.390625 41.078125 11.03125  Q 45.3125 15.671875 45.3125 23.6875  L 45.3125 54.6875  L 54.296875 54.6875  L 54.296875 0  L 45.3125 0  L 45.3125 8.40625  Q 42.046875 3.421875 37.71875 1  Q 33.40625 -1.421875 27.6875 -1.421875  Q 18.265625 -1.421875 13.375 4.4375  Q 8.5 10.296875 8.5 21.578125  z M 31.109375 56  z "
                 id="DejaVuSans-117" />
              <path
                 d="M 34.28125 27.484375  Q 23.390625 27.484375 19.1875 25  Q 14.984375 22.515625 14.984375 16.5  Q 14.984375 11.71875 18.140625 8.90625  Q 21.296875 6.109375 26.703125 6.109375  Q 34.1875 6.109375 38.703125 11.40625  Q 43.21875 16.703125 43.21875 25.484375  L 43.21875 27.484375  z M 52.203125 31.203125  L 52.203125 0  L 43.21875 0  L 43.21875 8.296875  Q 40.140625 3.328125 35.546875 0.953125  Q 30.953125 -1.421875 24.3125 -1.421875  Q 15.921875 -1.421875 10.953125 3.296875  Q 6 8.015625 6 15.921875  Q 6 25.140625 12.171875 29.828125  Q 18.359375 34.515625 30.609375 34.515625  L 43.21875 34.515625  L 43.21875 35.40625  Q 43.21875 41.609375 39.140625 45  Q 35.0625 48.390625 27.6875 48.390625  Q 23 48.390625 18.546875 47.265625  Q 14.109375 46.140625 10.015625 43.890625  L 10.015625 52.203125  Q 14.9375 54.109375 19.578125 55.046875  Q 24.21875 56 28.609375 56  Q 40.484375 56 46.34375 49.84375  Q 52.203125 43.703125 52.203125 31.203125  z "
                 id="DejaVuSans-97" />
              <path
                 d="M 44.28125 53.078125  L 44.28125 44.578125  Q 40.484375 46.53125 36.375 47.5  Q 32.28125 48.484375 27.875 48.484375  Q 21.1875 48.484375 17.84375 46.4375  Q 14.5 44.390625 14.5 40.28125  Q 14.5 37.15625 16.890625 35.375  Q 19.28125 33.59375 26.515625 31.984375  L 29.59375 31.296875  Q 39.15625 29.25 43.1875 25.515625  Q 47.21875 21.78125 47.21875 15.09375  Q 47.21875 7.46875 41.1875 3.015625  Q 35.15625 -1.421875 24.609375 -1.421875  Q 20.21875 -1.421875 15.453125 -0.5625  Q 10.6875 0.296875 5.421875 2  L 5.421875 11.28125  Q 10.40625 8.6875 15.234375 7.390625  Q 20.0625 6.109375 24.8125 6.109375  Q 31.15625 6.109375 34.5625 8.28125  Q 37.984375 10.453125 37.984375 14.40625  Q 37.984375 18.0625 35.515625 20.015625  Q 33.0625 21.96875 24.703125 23.78125  L 21.578125 24.515625  Q 13.234375 26.265625 9.515625 29.90625  Q 5.8125 33.546875 5.8125 39.890625  Q 5.8125 47.609375 11.28125 51.796875  Q 16.75 56 26.8125 56  Q 31.78125 56 36.171875 55.265625  Q 40.578125 54.546875 44.28125 53.078125  z "
                 id="DejaVuSans-115" />
              <path
                 d="M 25.390625 72.90625  L 33.6875 72.90625  L 8.296875 -9.28125  L 0 -9.28125  z "
                 id="DejaVuSans-47" />
            </defs>
            <use
               xlink:href="#DejaVuSans-77"
               id="use362" />
            <use
               x="86.279297"
               xlink:href="#DejaVuSans-111"
               id="use364" />
            <use
               x="147.460938"
               xlink:href="#DejaVuSans-108"
               id="use366" />
            <use
               x="175.244141"
               xlink:href="#DejaVuSans-233"
               id="use368" />
            <use
               x="236.767578"
               xlink:href="#DejaVuSans-99"
               id="use370" />
            <use
               x="291.748047"
               xlink:href="#DejaVuSans-117"
               id="use372" />
            <use
               x="355.126953"
               xlink:href="#DejaVuSans-108"
               id="use374" />
            <use
               x="382.910156"
               xlink:href="#DejaVuSans-97"
               id="use376" />
            <use
               x="444.189453"
               xlink:href="#DejaVuSans-115"
               id="use378" />
            <use
               x="496.289062"
               xlink:href="#DejaVuSans-47"
               id="use380" />
            <use
               x="529.980469"
               xlink:href="#DejaVuSans-99"
               id="use382" />
            <use
               x="584.960938"
               xlink:href="#DejaVuSans-233"
               id="use384" />
            <use
               x="646.484375"
               xlink:href="#DejaVuSans-108"
               id="use386" />
            <use
               x="674.267578"
               xlink:href="#DejaVuSans-117"
               id="use388" />
            <use
               x="737.646484"
               xlink:href="#DejaVuSans-108"
               id="use390" />
            <use
               x="765.429688"
               xlink:href="#DejaVuSans-97"
               id="use392" />
          </g>
        </g>
      </g>
      <g
         id="line2d_18">
        <path
           clip-path="url(#p2cdb694e31)"
           d="M 69.218182 141.423978  L 86.518912 141.524379  L 90.998437 147.592217  L 95.535392 153.365464  L 100.129777 158.853167  L 104.781592 164.064404  L 109.505194 169.022901  L 114.300583 173.735075  L 119.182117 178.220415  L 124.149795 182.483357  L 129.217976 186.53991  L 134.401016 190.403441  L 139.698916 194.075428  L 145.140391 197.575962  L 150.72544 200.903965  L 156.468421 204.067105  L 162.398049 207.078667  L 168.528681 209.942088  L 174.874675 212.660015  L 181.464746 215.239869  L 188.327608 217.686746  L 195.491977 220.003881  L 203.000925 222.197036  L 210.883166 224.26569  L 219.181774 226.211964  L 227.954177 228.03917  L 237.272164 229.75071  L 247.207521 231.347128  L 257.846393 232.828854  L 269.30364 234.197419  L 281.722837 235.454115  L 295.290629 236.600276  L 310.236738 237.636026  L 326.877025 238.562095  L 345.642216 239.378911  L 367.149679 240.086959  L 373.581818 240.260713  L 373.581818 240.260713  "
           style="fill:none;stroke:#1f77b4;stroke-linecap:square;stroke-width:1.5;"
           id="path398" />
      </g>
      <g
         id="line2d_19">
        <path
           clip-path="url(#p2cdb694e31)"
           d="M 69.218182 242.116364  L 86.490197 242.033975  L 93.554064 223.223017  L 97.74644 212.898512  L 101.953174 203.124702  L 106.174265 193.874347  L 110.424071 185.092556  L 114.702591 176.75937  L 118.99547 168.881001  L 123.317063 161.410183  L 127.681729 154.306373  L 132.075109 147.577614  L 136.511562 141.186929  L 140.991087 135.121565  L 145.528042 129.351234  L 150.108069 123.88361  L 154.759884 118.675266  L 159.469128 113.734652  L 164.264518 109.025152  L 169.131694 104.555501  L 174.099373 100.294871  L 179.167553 96.240848  L 184.350594 92.380038  L 189.648494 88.710929  L 195.075611 85.222322  L 200.66066 81.896731  L 206.403641 78.736035  L 212.333269 75.726952  L 218.463901 72.86607  L 224.809895 70.150734  L 231.399966 67.573531  L 238.262828 65.12925  L 245.427197 62.814645  L 252.936145 60.623964  L 260.818386 58.55774  L 269.116994 56.613839  L 277.903754 54.786103  L 287.221741 53.077079  L 297.157098 51.483087  L 307.810328 50.001824  L 319.281933 48.634118  L 331.715487 47.378612  L 345.297637 46.233911  L 360.258102 45.199808  L 373.581818 44.443636  L 373.581818 44.443636  "
           style="fill:none;stroke:#ff7f0e;stroke-linecap:square;stroke-width:1.5;"
           id="path401" />
      </g>
      <g
         id="line2d_20">
        <path
           clip-path="url(#p2cdb694e31)"
           d="M 69.218182 242.116364  L 86.432767 242.116364  L 86.447125 232.047125  L 86.547627 232.067161  L 267.508959 232.048747  L 373.581818 232.047496  L 373.581818 232.047496  "
           style="fill:none;stroke:#2ca02c;stroke-linecap:square;stroke-width:1.5;"
           id="path404" />
      </g>
      <g
         id="patch_3">
        <path
           d="M 54 252  L 54 34.56  "
           style="fill:none;stroke:#000000;stroke-linecap:square;stroke-linejoin:miter;stroke-width:0.8;"
           id="path407" />
      </g>
      <g
         id="patch_4">
        <path
           d="M 388.8 252  L 388.8 34.56  "
           style="fill:none;stroke:#000000;stroke-linecap:square;stroke-linejoin:miter;stroke-width:0.8;"
           id="path410" />
      </g>
      <g
         id="patch_5">
        <path
           d="M 54 252  L 388.8 252  "
           style="fill:none;stroke:#000000;stroke-linecap:square;stroke-linejoin:miter;stroke-width:0.8;"
           id="path413" />
      </g>
      <g
         id="patch_6">
        <path
           d="M 54 34.56  L 388.8 34.56  "
           style="fill:none;stroke:#000000;stroke-linecap:square;stroke-linejoin:miter;stroke-width:0.8;"
           id="path416" />
      </g>
      <g
         id="legend_1">
        <g
           id="patch_7">
          <path
             d="M 61 86.594375  L 146.101562 86.594375  Q 148.101562 86.594375 148.101562 84.594375  L 148.101562 41.56  Q 148.101562 39.56 146.101562 39.56  L 61 39.56  Q 59 39.56 59 41.56  L 59 84.594375  Q 59 86.594375 61 86.594375  z "
             style="fill:#ffffff;opacity:0.8;stroke:#cccccc;stroke-linejoin:miter;"
             id="path419" />
        </g>
        <g
           id="line2d_21">
          <path
             d="M 63 47.658438  L 83 47.658438  "
             style="fill:none;stroke:#1f77b4;stroke-linecap:square;stroke-width:1.5;"
             id="path422" />
        </g>
        <g
           id="line2d_22" />
        <g
           id="text_20">
          <!-- Dímero -->
          <g
             transform="translate(91 51.158438)scale(0.1 -0.1)"
             id="g443">
            <defs
               id="defs429">
              <path
                 d="M 19.671875 64.796875  L 19.671875 8.109375  L 31.59375 8.109375  Q 46.6875 8.109375 53.6875 14.9375  Q 60.6875 21.78125 60.6875 36.53125  Q 60.6875 51.171875 53.6875 57.984375  Q 46.6875 64.796875 31.59375 64.796875  z M 9.8125 72.90625  L 30.078125 72.90625  Q 51.265625 72.90625 61.171875 64.09375  Q 71.09375 55.28125 71.09375 36.53125  Q 71.09375 17.671875 61.125 8.828125  Q 51.171875 0 30.078125 0  L 9.8125 0  z "
                 id="DejaVuSans-68" />
              <path
                 d="M 20.703125 79.984375  L 30.421875 79.984375  L 14.5 61.625  L 7.03125 61.625  z M 9.421875 54.6875  L 18.40625 54.6875  L 18.40625 0  L 9.421875 0  z M 13.921875 56  z "
                 id="DejaVuSans-237" />
              <path
                 d="M 41.109375 46.296875  Q 39.59375 47.171875 37.8125 47.578125  Q 36.03125 48 33.890625 48  Q 26.265625 48 22.1875 43.046875  Q 18.109375 38.09375 18.109375 28.8125  L 18.109375 0  L 9.078125 0  L 9.078125 54.6875  L 18.109375 54.6875  L 18.109375 46.1875  Q 20.953125 51.171875 25.484375 53.578125  Q 30.03125 56 36.53125 56  Q 37.453125 56 38.578125 55.875  Q 39.703125 55.765625 41.0625 55.515625  z "
                 id="DejaVuSans-114" />
            </defs>
            <use
               xlink:href="#DejaVuSans-68"
               id="use431" />
            <use
               x="77.001953"
               xlink:href="#DejaVuSans-237"
               id="use433" />
            <use
               x="104.785156"
               xlink:href="#DejaVuSans-109"
               id="use435" />
            <use
               x="202.197266"
               xlink:href="#DejaVuSans-101"
               id="use437" />
            <use
               x="263.720703"
               xlink:href="#DejaVuSans-114"
               id="use439" />
            <use
               x="302.583984"
               xlink:href="#DejaVuSans-111"
               id="use441" />
          </g>
        </g>
        <g
           id="line2d_23">
          <path
             d="M 63 62.336563  L 83 62.336563  "
             style="fill:none;stroke:#ff7f0e;stroke-linecap:square;stroke-width:1.5;"
             id="path446" />
        </g>
        <g
           id="line2d_24" />
        <g
           id="text_21">
          <!-- Monómero -->
          <g
             transform="translate(91 65.836563)scale(0.1 -0.1)"
             id="g469">
            <defs
               id="defs451">
              <path
                 d="M 30.609375 48.390625  Q 23.390625 48.390625 19.1875 42.75  Q 14.984375 37.109375 14.984375 27.296875  Q 14.984375 17.484375 19.15625 11.84375  Q 23.34375 6.203125 30.609375 6.203125  Q 37.796875 6.203125 41.984375 11.859375  Q 46.1875 17.53125 46.1875 27.296875  Q 46.1875 37.015625 41.984375 42.703125  Q 37.796875 48.390625 30.609375 48.390625  z M 30.609375 56  Q 42.328125 56 49.015625 48.375  Q 55.71875 40.765625 55.71875 27.296875  Q 55.71875 13.875 49.015625 6.21875  Q 42.328125 -1.421875 30.609375 -1.421875  Q 18.84375 -1.421875 12.171875 6.21875  Q 5.515625 13.875 5.515625 27.296875  Q 5.515625 40.765625 12.171875 48.375  Q 18.84375 56 30.609375 56  z M 37.40625 79.984375  L 47.125 79.984375  L 31.203125 61.625  L 23.734375 61.625  z "
                 id="DejaVuSans-243" />
            </defs>
            <use
               xlink:href="#DejaVuSans-77"
               id="use453" />
            <use
               x="86.279297"
               xlink:href="#DejaVuSans-111"
               id="use455" />
            <use
               x="147.460938"
               xlink:href="#DejaVuSans-110"
               id="use457" />
            <use
               x="210.839844"
               xlink:href="#DejaVuSans-243"
               id="use459" />
            <use
               x="272.021484"
               xlink:href="#DejaVuSans-109"
               id="use461" />
            <use
               x="369.433594"
               xlink:href="#DejaVuSans-101"
               id="use463" />
            <use
               x="430.957031"
               xlink:href="#DejaVuSans-114"
               id="use465" />
            <use
               x="469.820312"
               xlink:href="#DejaVuSans-111"
               id="use467" />
          </g>
        </g>
        <g
           id="line2d_25">
          <path
             d="M 63 77.014688  L 83 77.014688  "
             style="fill:none;stroke:#2ca02c;stroke-linecap:square;stroke-width:1.5;"
             id="path472" />
        </g>
        <g
           id="line2d_26" />
        <g
           id="text_22">
          <!-- Caspasa 8 -->
          <g
             transform="translate(91 80.514688)scale(0.1 -0.1)"
             id="g498">
            <defs
               id="defs478">
              <path
                 d="M 64.40625 67.28125  L 64.40625 56.890625  Q 59.421875 61.53125 53.78125 63.8125  Q 48.140625 66.109375 41.796875 66.109375  Q 29.296875 66.109375 22.65625 58.46875  Q 16.015625 50.828125 16.015625 36.375  Q 16.015625 21.96875 22.65625 14.328125  Q 29.296875 6.6875 41.796875 6.6875  Q 48.140625 6.6875 53.78125 8.984375  Q 59.421875 11.28125 64.40625 15.921875  L 64.40625 5.609375  Q 59.234375 2.09375 53.4375 0.328125  Q 47.65625 -1.421875 41.21875 -1.421875  Q 24.65625 -1.421875 15.125 8.703125  Q 5.609375 18.84375 5.609375 36.375  Q 5.609375 53.953125 15.125 64.078125  Q 24.65625 74.21875 41.21875 74.21875  Q 47.75 74.21875 53.53125 72.484375  Q 59.328125 70.75 64.40625 67.28125  z "
                 id="DejaVuSans-67" />
              <path
                 d="M 31.78125 34.625  Q 24.75 34.625 20.71875 30.859375  Q 16.703125 27.09375 16.703125 20.515625  Q 16.703125 13.921875 20.71875 10.15625  Q 24.75 6.390625 31.78125 6.390625  Q 38.8125 6.390625 42.859375 10.171875  Q 46.921875 13.96875 46.921875 20.515625  Q 46.921875 27.09375 42.890625 30.859375  Q 38.875 34.625 31.78125 34.625  z M 21.921875 38.8125  Q 15.578125 40.375 12.03125 44.71875  Q 8.5 49.078125 8.5 55.328125  Q 8.5 64.0625 14.71875 69.140625  Q 20.953125 74.21875 31.78125 74.21875  Q 42.671875 74.21875 48.875 69.140625  Q 55.078125 64.0625 55.078125 55.328125  Q 55.078125 49.078125 51.53125 44.71875  Q 48 40.375 41.703125 38.8125  Q 48.828125 37.15625 52.796875 32.3125  Q 56.78125 27.484375 56.78125 20.515625  Q 56.78125 9.90625 50.3125 4.234375  Q 43.84375 -1.421875 31.78125 -1.421875  Q 19.734375 -1.421875 13.25 4.234375  Q 6.78125 9.90625 6.78125 20.515625  Q 6.78125 27.484375 10.78125 32.3125  Q 14.796875 37.15625 21.921875 38.8125  z M 18.3125 54.390625  Q 18.3125 48.734375 21.84375 45.5625  Q 25.390625 42.390625 31.78125 42.390625  Q 38.140625 42.390625 41.71875 45.5625  Q 45.3125 48.734375 45.3125 54.390625  Q 45.3125 60.0625 41.71875 63.234375  Q 38.140625 66.40625 31.78125 66.40625  Q 25.390625 66.40625 21.84375 63.234375  Q 18.3125 60.0625 18.3125 54.390625  z "
                 id="DejaVuSans-56" />
            </defs>
            <use
               xlink:href="#DejaVuSans-67"
               id="use480" />
            <use
               x="69.824219"
               xlink:href="#DejaVuSans-97"
               id="use482" />
            <use
               x="131.103516"
               xlink:href="#DejaVuSans-115"
               id="use484" />
            <use
               x="183.203125"
               xlink:href="#DejaVuSans-112"
               id="use486" />
            <use
               x="246.679688"
               xlink:href="#DejaVuSans-97"
               id="use488" />
            <use
               x="307.958984"
               xlink:href="#DejaVuSans-115"
               id="use490" />
            <use
               x="360.058594"
               xlink:href="#DejaVuSans-97"
               id="use492" />
            <use
               x="421.337891"
               xlink:href="#DejaVuSans-32"
               id="use494" />
            <use
               x="453.125"
               xlink:href="#DejaVuSans-56"
               id="use496" />
          </g>
        </g>
      </g>
    </g>
  </g>
  <defs
     id="defs507">
    <clipPath
       id="p2cdb694e31">
      <rect
         height="217.44"
         width="334.8"
         x="54"
         y="34.56"
         id="rect504" />
    </clipPath>
  </defs>
  <path
     style="fill:none;stroke:#000000;stroke-width:1.5;stroke-linecap:butt;stroke-linejoin:miter;stroke-miterlimit:4;stroke-dasharray:none;stroke-opacity:1;marker-start:url(#Arrow2Mstart)"
     d="m 86.25,218.25 c 0,-18.75 0,-18.75 0,-18.75"
     id="path1338" />
</svg>
