<?xml version="1.0" encoding="UTF-8" standalone="no"?>
<svg
   xmlns:dc="http://purl.org/dc/elements/1.1/"
   xmlns:cc="http://creativecommons.org/ns#"
   xmlns:rdf="http://www.w3.org/1999/02/22-rdf-syntax-ns#"
   xmlns:svg="http://www.w3.org/2000/svg"
   xmlns="http://www.w3.org/2000/svg"
   xmlns:xlink="http://www.w3.org/1999/xlink"
   xmlns:sodipodi="http://sodipodi.sourceforge.net/DTD/sodipodi-0.dtd"
   xmlns:inkscape="http://www.inkscape.org/namespaces/inkscape"
   height="411.27625pt"
   version="1.1"
   viewBox="0 0 322.74374 411.27625"
   width="322.74374pt"
   id="svg672"
   sodipodi:docname="error_bkg.svg"
   inkscape:version="1.0.1 (3bc2e813f5, 2020-09-07)">
  <metadata
     id="metadata676">
    <rdf:RDF>
      <cc:Work
         rdf:about="">
        <dc:format>image/svg+xml</dc:format>
        <dc:type
           rdf:resource="http://purl.org/dc/dcmitype/StillImage" />
        <dc:title></dc:title>
      </cc:Work>
    </rdf:RDF>
  </metadata>
  <sodipodi:namedview
     pagecolor="#ffffff"
     bordercolor="#666666"
     borderopacity="1"
     objecttolerance="10"
     gridtolerance="10"
     guidetolerance="10"
     inkscape:pageopacity="0"
     inkscape:pageshadow="2"
     inkscape:window-width="1825"
     inkscape:window-height="1046"
     id="namedview674"
     showgrid="false"
     inkscape:zoom="1.3333333"
     inkscape:cx="237.79167"
     inkscape:cy="255.89333"
     inkscape:window-x="-11"
     inkscape:window-y="-11"
     inkscape:window-maximized="1"
     inkscape:current-layer="svg672" />
  <defs
     id="defs4">
    <rect
       x="-127.6875"
       y="271.6875"
       width="91.125"
       height="24.1875"
       id="rect2456" />
    <rect
       x="216"
       y="129.375"
       width="30.87344"
       height="14.686565"
       id="rect2450" />
    <style
       type="text/css"
       id="style2">
*{stroke-linecap:butt;stroke-linejoin:round;}
  </style>
    <path
       d="m 9.8125,72.90625 h 46.09375 v -8.3125 H 19.671875 V 43.015625 h 34.71875 V 34.71875 H 19.671875 V 8.296875 H 56.78125 V 0 H 9.8125 Z"
       id="DejaVuSans-69-5" />
  </defs>
  <g
     id="patch_2"
     transform="translate(-1.6562495,-60.08)">
    <path
       d="M 45,250.74 H 324 V 60.48 H 45 Z"
       style="fill:#ffffff"
       id="path9" />
  </g>
  <g
     id="matplotlib.axis_1"
     transform="translate(-1.6562495,-60.08)">
    <g
       id="xtick_1">
      <g
         id="line2d_1">
        <defs
           id="defs13">
          <path
             d="M 0,0 V 3.5"
             id="m9f8bb361d6"
             style="stroke:#000000;stroke-width:0.8" />
        </defs>
        <g
           id="g17">
          <use
             style="stroke:#000000;stroke-width:0.8"
             x="57.681816"
             xlink:href="#m9f8bb361d6"
             y="250.74001"
             id="use15"
             width="100%"
             height="100%" />
        </g>
      </g>
    </g>
    <g
       id="xtick_2">
      <g
         id="line2d_2">
        <g
           id="g23">
          <use
             style="stroke:#000000;stroke-width:0.8"
             x="108.92149"
             xlink:href="#m9f8bb361d6"
             y="250.74001"
             id="use21"
             width="100%"
             height="100%" />
        </g>
      </g>
    </g>
    <g
       id="xtick_3">
      <g
         id="line2d_3">
        <g
           id="g29">
          <use
             style="stroke:#000000;stroke-width:0.8"
             x="160.16116"
             xlink:href="#m9f8bb361d6"
             y="250.74001"
             id="use27"
             width="100%"
             height="100%" />
        </g>
      </g>
    </g>
    <g
       id="xtick_4">
      <g
         id="line2d_4">
        <g
           id="g35">
          <use
             style="stroke:#000000;stroke-width:0.8"
             x="211.40083"
             xlink:href="#m9f8bb361d6"
             y="250.74001"
             id="use33"
             width="100%"
             height="100%" />
        </g>
      </g>
    </g>
    <g
       id="xtick_5">
      <g
         id="line2d_5">
        <g
           id="g41">
          <use
             style="stroke:#000000;stroke-width:0.8"
             x="262.6405"
             xlink:href="#m9f8bb361d6"
             y="250.74001"
             id="use39"
             width="100%"
             height="100%" />
        </g>
      </g>
    </g>
    <g
       id="xtick_6">
      <g
         id="line2d_6">
        <g
           id="g47">
          <use
             style="stroke:#000000;stroke-width:0.8"
             x="313.88016"
             xlink:href="#m9f8bb361d6"
             y="250.74001"
             id="use45"
             width="100%"
             height="100%" />
        </g>
      </g>
    </g>
  </g>
  <g
     id="matplotlib.axis_2"
     transform="translate(-1.6562495,-60.08)">
    <g
       id="ytick_1">
      <g
         id="line2d_7">
        <defs
           id="defs53">
          <path
             d="M 0,0 H -3.5"
             id="m48b419f873"
             style="stroke:#000000;stroke-width:0.8" />
        </defs>
        <g
           id="g57">
          <use
             style="stroke:#000000;stroke-width:0.8"
             x="45"
             xlink:href="#m48b419f873"
             y="227.21635"
             id="use55"
             width="100%"
             height="100%" />
        </g>
      </g>
      <g
         id="text_1">
        <!-- 250 -->
        <defs
           id="defs63">
          <path
             d="M 19.1875,8.296875 H 53.609375 V 0 H 7.328125 v 8.296875 q 5.609375,5.8125 15.296875,15.59375 9.703125,9.796875 12.1875,12.640625 4.734375,5.3125 6.609375,9 1.890625,3.6875 1.890625,7.25 0,5.8125 -4.078125,9.46875 -4.078125,3.671875 -10.625,3.671875 -4.640625,0 -9.796875,-1.609375 -5.140625,-1.609375 -11,-4.890625 v 9.96875 Q 13.765625,71.78125 18.9375,73 q 5.1875,1.21875 9.484375,1.21875 11.328125,0 18.0625,-5.671875 6.734375,-5.65625 6.734375,-15.125 0,-4.5 -1.6875,-8.53125 Q 49.859375,40.875 45.40625,35.40625 44.1875,33.984375 37.640625,27.21875 31.109375,20.453125 19.1875,8.296875 Z"
             id="DejaVuSans-50" />
          <path
             d="m 10.796875,72.90625 h 38.71875 v -8.3125 h -29.6875 V 46.734375 q 2.140625,0.734375 4.28125,1.09375 2.15625,0.359375 4.3125,0.359375 Q 40.625,48.1875 47.75,41.5 54.890625,34.8125 54.890625,23.390625 54.890625,11.625 47.5625,5.09375 40.234375,-1.421875 26.90625,-1.421875 q -4.59375,0 -9.359375,0.78125 -4.75,0.78125 -9.828125,2.34375 V 11.625 q 4.390625,-2.390625 9.078125,-3.5625 4.6875,-1.171875 9.90625,-1.171875 8.453125,0 13.375,4.4375 4.9375,4.4375 4.9375,12.0625 0,7.609375 -4.9375,12.046875 -4.921875,4.453125 -13.375,4.453125 -3.953125,0 -7.890625,-0.875 -3.921875,-0.875 -8.015625,-2.734375 z"
             id="DejaVuSans-53" />
          <path
             d="m 31.78125,66.40625 q -7.609375,0 -11.453125,-7.5 Q 16.5,51.421875 16.5,36.375 q 0,-14.984375 3.828125,-22.484375 3.84375,-7.5 11.453125,-7.5 7.671875,0 11.5,7.5 3.84375,7.5 3.84375,22.484375 0,15.046875 -3.84375,22.53125 -3.828125,7.5 -11.5,7.5 z m 0,7.8125 q 12.265625,0 18.734375,-9.703125 6.46875,-9.6875 6.46875,-28.140625 0,-18.40625 -6.46875,-28.109375 -6.46875,-9.6875 -18.734375,-9.6875 -12.25,0 -18.71875,9.6875 Q 6.59375,17.96875 6.59375,36.375 q 0,18.453125 6.46875,28.140625 6.46875,9.703125 18.71875,9.703125 z"
             id="DejaVuSans-48" />
        </defs>
        <g
           transform="matrix(0.1,0,0,-0.1,18.9125,231.01558)"
           id="g71">
          <use
             xlink:href="#DejaVuSans-50"
             id="use65"
             x="0"
             y="0"
             width="100%"
             height="100%" />
          <use
             x="63.623047"
             xlink:href="#DejaVuSans-53"
             id="use67"
             y="0"
             width="100%"
             height="100%" />
          <use
             x="127.24609"
             xlink:href="#DejaVuSans-48"
             id="use69"
             y="0"
             width="100%"
             height="100%" />
        </g>
      </g>
    </g>
    <g
       id="ytick_2">
      <g
         id="line2d_8">
        <g
           id="g77">
          <use
             style="stroke:#000000;stroke-width:0.8"
             x="45"
             xlink:href="#m48b419f873"
             y="199.31696"
             id="use75"
             width="100%"
             height="100%" />
        </g>
      </g>
      <g
         id="text_2">
        <!-- 300 -->
        <defs
           id="defs81">
          <path
             d="M 40.578125,39.3125 Q 47.65625,37.796875 51.625,33 q 3.984375,-4.78125 3.984375,-11.8125 0,-10.78125 -7.421875,-16.703125 -7.421875,-5.90625 -21.09375,-5.90625 -4.578125,0 -9.4375,0.90625 -4.859375,0.90625 -10.03125,2.71875 v 9.515625 q 4.09375,-2.390625 8.96875,-3.609375 4.890625,-1.21875 10.21875,-1.21875 9.265625,0 14.125,3.65625 4.859375,3.65625 4.859375,10.640625 0,6.453125 -4.515625,10.078125 -4.515625,3.640625 -12.5625,3.640625 h -8.5 v 8.109375 h 8.890625 q 7.265625,0 11.125,2.90625 3.859375,2.90625 3.859375,8.375 0,5.609375 -3.984375,8.609375 -3.96875,3.015625 -11.390625,3.015625 -4.0625,0 -8.703125,-0.890625 Q 15.375,64.15625 9.8125,62.3125 v 8.78125 q 5.625,1.5625 10.53125,2.34375 4.90625,0.78125 9.25,0.78125 11.234375,0 17.765625,-5.109375 6.546875,-5.09375 6.546875,-13.78125 0,-6.0625 -3.46875,-10.234375 -3.46875,-4.171875 -9.859375,-5.78125 z"
             id="DejaVuSans-51" />
        </defs>
        <g
           transform="matrix(0.1,0,0,-0.1,18.9125,203.11617)"
           id="g89">
          <use
             xlink:href="#DejaVuSans-51"
             id="use83"
             x="0"
             y="0"
             width="100%"
             height="100%" />
          <use
             x="63.623047"
             xlink:href="#DejaVuSans-48"
             id="use85"
             y="0"
             width="100%"
             height="100%" />
          <use
             x="127.24609"
             xlink:href="#DejaVuSans-48"
             id="use87"
             y="0"
             width="100%"
             height="100%" />
        </g>
      </g>
    </g>
    <g
       id="ytick_3">
      <g
         id="line2d_9">
        <g
           id="g95">
          <use
             style="stroke:#000000;stroke-width:0.8"
             x="45"
             xlink:href="#m48b419f873"
             y="171.41756"
             id="use93"
             width="100%"
             height="100%" />
        </g>
      </g>
      <g
         id="text_3">
        <!-- 350 -->
        <g
           transform="matrix(0.1,0,0,-0.1,18.9125,175.21677)"
           id="g104">
          <use
             xlink:href="#DejaVuSans-51"
             id="use98"
             x="0"
             y="0"
             width="100%"
             height="100%" />
          <use
             x="63.623047"
             xlink:href="#DejaVuSans-53"
             id="use100"
             y="0"
             width="100%"
             height="100%" />
          <use
             x="127.24609"
             xlink:href="#DejaVuSans-48"
             id="use102"
             y="0"
             width="100%"
             height="100%" />
        </g>
      </g>
    </g>
    <g
       id="ytick_4">
      <g
         id="line2d_10">
        <g
           id="g110">
          <use
             style="stroke:#000000;stroke-width:0.8"
             x="45"
             xlink:href="#m48b419f873"
             y="143.51814"
             id="use108"
             width="100%"
             height="100%" />
        </g>
      </g>
      <g
         id="text_4">
        <!-- 400 -->
        <defs
           id="defs114">
          <path
             d="M 37.796875,64.3125 12.890625,25.390625 h 24.90625 z m -2.59375,8.59375 h 12.40625 V 25.390625 h 10.40625 V 17.1875 H 47.609375 V 0 h -9.8125 V 17.1875 H 4.890625 v 9.515625 z"
             id="DejaVuSans-52" />
        </defs>
        <g
           transform="matrix(0.1,0,0,-0.1,18.9125,147.31736)"
           id="g122">
          <use
             xlink:href="#DejaVuSans-52"
             id="use116"
             x="0"
             y="0"
             width="100%"
             height="100%" />
          <use
             x="63.623047"
             xlink:href="#DejaVuSans-48"
             id="use118"
             y="0"
             width="100%"
             height="100%" />
          <use
             x="127.24609"
             xlink:href="#DejaVuSans-48"
             id="use120"
             y="0"
             width="100%"
             height="100%" />
        </g>
      </g>
    </g>
    <g
       id="ytick_5">
      <g
         id="line2d_11">
        <g
           id="g128">
          <use
             style="stroke:#000000;stroke-width:0.8"
             x="45"
             xlink:href="#m48b419f873"
             y="115.61874"
             id="use126"
             width="100%"
             height="100%" />
        </g>
      </g>
      <g
         id="text_5">
        <!-- 450 -->
        <g
           transform="matrix(0.1,0,0,-0.1,18.9125,119.41796)"
           id="g137">
          <use
             xlink:href="#DejaVuSans-52"
             id="use131"
             x="0"
             y="0"
             width="100%"
             height="100%" />
          <use
             x="63.623047"
             xlink:href="#DejaVuSans-53"
             id="use133"
             y="0"
             width="100%"
             height="100%" />
          <use
             x="127.24609"
             xlink:href="#DejaVuSans-48"
             id="use135"
             y="0"
             width="100%"
             height="100%" />
        </g>
      </g>
    </g>
    <g
       id="ytick_6">
      <g
         id="line2d_12">
        <g
           id="g143">
          <use
             style="stroke:#000000;stroke-width:0.8"
             x="45"
             xlink:href="#m48b419f873"
             y="87.719337"
             id="use141"
             width="100%"
             height="100%" />
        </g>
      </g>
      <g
         id="text_6">
        <!-- 500 -->
        <g
           transform="matrix(0.1,0,0,-0.1,18.9125,91.518555)"
           id="g152">
          <use
             xlink:href="#DejaVuSans-53"
             id="use146"
             x="0"
             y="0"
             width="100%"
             height="100%" />
          <use
             x="63.623047"
             xlink:href="#DejaVuSans-48"
             id="use148"
             y="0"
             width="100%"
             height="100%" />
          <use
             x="127.24609"
             xlink:href="#DejaVuSans-48"
             id="use150"
             y="0"
             width="100%"
             height="100%" />
        </g>
      </g>
    </g>
    <g
       id="text_7">
      <!-- Intensidad (u.a.) -->
      <defs
         id="defs169">
        <path
           d="m 9.8125,72.90625 h 9.859375 V 0 H 9.8125 Z"
           id="DejaVuSans-73" />
        <path
           d="M 54.890625,33.015625 V 0 H 45.90625 v 32.71875 q 0,7.765625 -3.03125,11.609375 -3.03125,3.859375 -9.078125,3.859375 -7.28125,0 -11.484375,-4.640625 -4.203125,-4.625 -4.203125,-12.640625 V 0 h -9.03125 v 54.6875 h 9.03125 v -8.5 q 3.234375,4.9375 7.59375,7.375 4.375,2.4375 10.09375,2.4375 9.421875,0 14.25,-5.828125 4.84375,-5.828125 4.84375,-17.15625 z"
           id="DejaVuSans-110" />
        <path
           d="M 18.3125,70.21875 V 54.6875 h 18.5 v -6.984375 h -18.5 v -29.6875 q 0,-6.6875 1.828125,-8.59375 1.828125,-1.90625 7.453125,-1.90625 H 36.8125 V 0 H 27.59375 Q 17.1875,0 13.234375,3.875 9.28125,7.765625 9.28125,18.015625 v 29.6875 H 2.6875 V 54.6875 h 6.59375 v 15.53125 z"
           id="DejaVuSans-116" />
        <path
           d="m 56.203125,29.59375 v -4.390625 h -41.3125 q 0.59375,-9.28125 5.59375,-14.140625 5,-4.859375 13.9375,-4.859375 5.171875,0 10.03125,1.265625 4.859375,1.265625 9.65625,3.8125 v -8.5 q -4.84375,-2.046875 -9.921875,-3.125 -5.078125,-1.078125 -10.296875,-1.078125 -13.09375,0 -20.734375,7.609375 -7.640625,7.625 -7.640625,20.625 0,13.421875 7.25,21.296875 Q 20.015625,56 32.328125,56 q 11.03125,0 17.453125,-7.109375 6.421875,-7.09375 6.421875,-19.296875 z m -8.984375,2.640625 q -0.09375,7.359375 -4.125,11.75 -4.03125,4.40625 -10.671875,4.40625 -7.515625,0 -12.03125,-4.25 -4.515625,-4.25 -5.203125,-11.96875 z"
           id="DejaVuSans-101" />
        <path
           d="m 44.28125,53.078125 v -8.5 Q 40.484375,46.53125 36.375,47.5 q -4.09375,0.984375 -8.5,0.984375 -6.6875,0 -10.03125,-2.046875 Q 14.5,44.390625 14.5,40.28125 q 0,-3.125 2.390625,-4.90625 2.390625,-1.78125 9.625,-3.390625 l 3.078125,-0.6875 Q 39.15625,29.25 43.1875,25.515625 47.21875,21.78125 47.21875,15.09375 q 0,-7.625 -6.03125,-12.078125 -6.03125,-4.4375 -16.578125,-4.4375 -4.390625,0 -9.15625,0.859375 Q 10.6875,0.296875 5.421875,2 v 9.28125 q 4.984375,-2.59375 9.8125,-3.890625 4.828125,-1.28125 9.578125,-1.28125 6.34375,0 9.75,2.171875 3.421875,2.171875 3.421875,6.125 0,3.65625 -2.46875,5.609375 -2.453125,1.953125 -10.8125,3.765625 l -3.125,0.734375 q -8.34375,1.75 -12.0625,5.390625 -3.703125,3.640625 -3.703125,9.984375 0,7.71875 5.46875,11.90625 Q 16.75,56 26.8125,56 q 4.96875,0 9.359375,-0.734375 4.40625,-0.71875 8.109375,-2.1875 z"
           id="DejaVuSans-115" />
        <path
           d="M 9.421875,54.6875 H 18.40625 V 0 H 9.421875 Z m 0,21.296875 H 18.40625 V 64.59375 H 9.421875 Z"
           id="DejaVuSans-105" />
        <path
           d="m 45.40625,46.390625 v 29.59375 h 8.984375 V 0 H 45.40625 v 8.203125 q -2.828125,-4.875 -7.15625,-7.25 -4.3125,-2.375 -10.375,-2.375 -9.90625,0 -16.140625,7.90625 -6.21875,7.921875 -6.21875,20.8125 0,12.890625 6.21875,20.796875 Q 17.96875,56 27.875,56 q 6.0625,0 10.375,-2.375 4.328125,-2.359375 7.15625,-7.234375 z M 14.796875,27.296875 q 0,-9.90625 4.078125,-15.546875 4.078125,-5.640625 11.203125,-5.640625 7.125,0 11.21875,5.640625 4.109375,5.640625 4.109375,15.546875 0,9.90625 -4.109375,15.546875 -4.09375,5.640625 -11.21875,5.640625 -7.125,0 -11.203125,-5.640625 -4.078125,-5.640625 -4.078125,-15.546875 z"
           id="DejaVuSans-100" />
        <path
           d="m 34.28125,27.484375 q -10.890625,0 -15.09375,-2.484375 -4.203125,-2.484375 -4.203125,-8.5 0,-4.78125 3.15625,-7.59375 3.15625,-2.796875 8.5625,-2.796875 7.484375,0 12,5.296875 4.515625,5.296875 4.515625,14.078125 v 2 z m 17.921875,3.71875 V 0 H 43.21875 v 8.296875 q -3.078125,-4.96875 -7.671875,-7.34375 -4.59375,-2.375 -11.234375,-2.375 -8.390625,0 -13.359375,4.71875 Q 6,8.015625 6,15.921875 q 0,9.21875 6.171875,13.90625 6.1875,4.6875 18.4375,4.6875 H 43.21875 v 0.890625 q 0,6.203125 -4.078125,9.59375 -4.078125,3.390625 -11.453125,3.390625 -4.6875,0 -9.140625,-1.125 -4.4375,-1.125 -8.53125,-3.375 v 8.3125 q 4.921875,1.90625 9.5625,2.84375 Q 24.21875,56 28.609375,56 q 11.875,0 17.734375,-6.15625 5.859375,-6.140625 5.859375,-18.640625 z"
           id="DejaVuSans-97" />
        <path
           id="DejaVuSans-32"
           d="" />
        <path
           d="M 31,75.875 Q 24.46875,64.65625 21.28125,53.65625 18.109375,42.671875 18.109375,31.390625 18.109375,20.125 21.3125,9.0625 24.515625,-2 31,-13.1875 H 23.1875 Q 15.875,-1.703125 12.234375,9.375 8.59375,20.453125 8.59375,31.390625 q 0,10.890625 3.609375,21.921875 3.625,11.046875 10.984375,22.5625 z"
           id="DejaVuSans-40" />
        <path
           d="M 8.5,21.578125 V 54.6875 h 8.984375 V 21.921875 q 0,-7.765625 3.015625,-11.65625 3.03125,-3.875 9.09375,-3.875 7.265625,0 11.484375,4.640625 4.234375,4.640625 4.234375,12.65625 v 31 h 8.984375 V 0 H 45.3125 V 8.40625 Q 42.046875,3.421875 37.71875,1 33.40625,-1.421875 27.6875,-1.421875 18.265625,-1.421875 13.375,4.4375 8.5,10.296875 8.5,21.578125 Z M 31.109375,56 Z"
           id="DejaVuSans-117" />
        <path
           d="M 10.6875,12.40625 H 21 V 0 H 10.6875 Z"
           id="DejaVuSans-46" />
        <path
           d="m 8.015625,75.875 h 7.8125 q 7.3125,-11.515625 10.953125,-22.5625 3.640625,-11.03125 3.640625,-21.921875 0,-10.9375 -3.640625,-22.015625 -3.640625,-11.078125 -10.953125,-22.5625 h -7.8125 Q 14.5,-2 17.703125,9.0625 20.90625,20.125 20.90625,31.390625 q 0,11.28125 -3.203125,22.265625 -3.203125,11 -9.6875,22.21875 z"
           id="DejaVuSans-41" />
      </defs>
      <g
         transform="matrix(0,-0.1,-0.1,0,12.832812,196.76703)"
         id="g205">
        <use
           xlink:href="#DejaVuSans-73"
           id="use171"
           x="0"
           y="0"
           width="100%"
           height="100%" />
        <use
           x="29.492188"
           xlink:href="#DejaVuSans-110"
           id="use173"
           y="0"
           width="100%"
           height="100%" />
        <use
           x="92.871094"
           xlink:href="#DejaVuSans-116"
           id="use175"
           y="0"
           width="100%"
           height="100%" />
        <use
           x="132.08008"
           xlink:href="#DejaVuSans-101"
           id="use177"
           y="0"
           width="100%"
           height="100%" />
        <use
           x="193.60352"
           xlink:href="#DejaVuSans-110"
           id="use179"
           y="0"
           width="100%"
           height="100%" />
        <use
           x="256.98242"
           xlink:href="#DejaVuSans-115"
           id="use181"
           y="0"
           width="100%"
           height="100%" />
        <use
           x="309.08203"
           xlink:href="#DejaVuSans-105"
           id="use183"
           y="0"
           width="100%"
           height="100%" />
        <use
           x="336.86523"
           xlink:href="#DejaVuSans-100"
           id="use185"
           y="0"
           width="100%"
           height="100%" />
        <use
           x="400.3418"
           xlink:href="#DejaVuSans-97"
           id="use187"
           y="0"
           width="100%"
           height="100%" />
        <use
           x="461.62109"
           xlink:href="#DejaVuSans-100"
           id="use189"
           y="0"
           width="100%"
           height="100%" />
        <use
           x="525.09766"
           xlink:href="#DejaVuSans-32"
           id="use191"
           y="0"
           width="100%"
           height="100%" />
        <use
           x="556.88477"
           xlink:href="#DejaVuSans-40"
           id="use193"
           y="0"
           width="100%"
           height="100%" />
        <use
           x="595.89844"
           xlink:href="#DejaVuSans-117"
           id="use195"
           y="0"
           width="100%"
           height="100%" />
        <use
           x="659.27734"
           xlink:href="#DejaVuSans-46"
           id="use197"
           y="0"
           width="100%"
           height="100%" />
        <use
           x="691.06445"
           xlink:href="#DejaVuSans-97"
           id="use199"
           y="0"
           width="100%"
           height="100%" />
        <use
           x="752.34375"
           xlink:href="#DejaVuSans-46"
           id="use201"
           y="0"
           width="100%"
           height="100%" />
        <use
           x="784.13086"
           xlink:href="#DejaVuSans-41"
           id="use203"
           y="0"
           width="100%"
           height="100%" />
      </g>
    </g>
  </g>
  <g
     id="line2d_13"
     transform="translate(-1.6562495,-60.08)">
    <path
       clip-path="url(#p37d97c7def)"
       d="m 57.681818,98.871947 2.561984,-0.0013 2.561983,-0.0015 2.561984,-0.0018 2.561983,-0.0021 2.561984,-0.0025 2.561983,-0.003 2.561983,-0.0035 2.561984,-0.0042 2.561983,-0.0049 2.561984,-0.0058 2.561983,-0.0069 2.561984,-0.0081 2.561983,-0.0095 2.561984,-0.01127 2.561983,-0.01331 2.561984,-0.0157 2.561986,-0.01853 2.56198,-0.02186 2.56198,-0.02578 2.56199,-0.0304 2.56198,-0.03584 2.56199,-0.04222 2.56198,-0.04973 2.56198,-0.05853 2.56198,-0.06885 2.56199,-0.08092 2.56198,-0.09502 2.56198,-0.111459 2.56199,-0.130578 2.56198,-0.152754 2.56199,-0.178388 2.56198,-0.207908 2.56198,-0.241747 2.56199,-0.280331 2.56198,-0.32405 2.56198,-0.373227 2.56199,-0.428069 2.56198,-0.488616 2.56198,-0.554677 2.56199,-0.625763 2.56198,-0.701024 2.56198,-0.77919 2.56199,-0.858543 2.56198,-0.936925 2.56198,-1.011798 2.56199,-1.080351 2.56198,-1.139696 2.56198,-1.187075 2.56199,-1.220126 2.56198,-1.237111 2.56198,-1.237111 2.56199,-1.220126 2.56198,-1.187075 2.56199,-1.139695 2.56198,-1.080352 2.56198,-1.011797 2.56199,-0.936926 2.56198,-0.858543 2.56198,-0.77919 2.56199,-0.701024 2.56198,-0.625763 2.56198,-0.554677 2.56199,-0.488616 2.56198,-0.428069 2.56198,-0.373227 2.56199,-0.32405 2.56198,-0.280331 2.56198,-0.241746 2.56199,-0.207909 2.56198,-0.178388 2.56199,-0.152754 2.56198,-0.130578 2.56198,-0.111458 2.56198,-0.09502 2.56199,-0.08092 2.56198,-0.06885 2.56198,-0.05853 2.56199,-0.04973 2.56198,-0.04222 2.56199,-0.03584 2.56198,-0.0304 2.56198,-0.02578 2.56199,-0.02186 2.56198,-0.01853 2.56198,-0.0157 2.56199,-0.01331 2.56198,-0.01127 2.56198,-0.0095 2.56199,-0.0081 2.56198,-0.0069 2.56198,-0.0058 2.56199,-0.0049 2.56198,-0.0042 2.56198,-0.0035 2.56199,-0.003 2.56198,-0.0025 2.56198,-0.0021 2.56199,-0.0018 2.56198,-0.0015"
       style="fill:none;stroke:#008000;stroke-width:1.5;stroke-linecap:square"
       id="path209" />
  </g>
  <g
     id="line2d_14"
     transform="translate(-1.6562495,-60.08)">
    <path
       clip-path="url(#p37d97c7def)"
       d="m 57.681818,227.21994 2.561984,6.4e-4 2.561983,7.7e-4 2.561984,9e-4 2.561983,0.001 2.561984,0.001 2.561983,10e-4 2.561983,0.002 2.561984,0.002 2.561983,0.002 2.561984,0.003 2.561983,0.003 2.561984,0.004 2.561983,0.005 2.561984,0.006 2.561983,0.007 2.561984,0.008 2.561986,0.009 2.56198,0.0109 2.56198,0.0129 2.56199,0.0152 2.56198,0.0179 2.56199,0.0211 2.56198,0.0249 2.56198,0.0293 2.56198,0.0344 2.56199,0.0405 2.56198,0.0475 2.56198,0.0557 2.56199,0.0653 2.56198,0.0764 2.56199,0.0892 2.56198,0.10395 2.56198,0.12087 2.56199,0.14017 2.56198,0.16202 2.56198,0.18662 2.56199,0.21403 2.56198,0.24431 2.56198,0.27734 2.56199,0.31288 2.56198,0.35051 2.56198,0.3896 2.56199,0.42927 2.56198,0.46846 2.56198,0.5059 2.56199,0.54018 2.56198,0.56984 2.56198,0.59354 2.56199,0.61006 2.56198,0.61856 2.56198,0.61856 2.56199,0.61006 2.56198,0.59354 2.56199,0.56984 2.56198,0.54018 2.56198,0.5059 2.56199,0.46846 2.56198,0.42927 2.56198,0.3896 2.56199,0.35051 2.56198,0.31288 2.56198,0.27734 2.56199,0.24431 2.56198,0.21403 2.56198,0.18662 2.56199,0.16202 2.56198,0.14017 2.56198,0.12087 2.56199,0.10395 2.56198,0.0892 2.56199,0.0764 2.56198,0.0653 2.56198,0.0557 2.56198,0.0475 2.56199,0.0405 2.56198,0.0344 2.56198,0.0293 2.56199,0.0249 2.56198,0.0211 2.56199,0.0179 2.56198,0.0152 2.56198,0.0129 2.56199,0.0109 2.56198,0.009 2.56198,0.008 2.56199,0.007 2.56198,0.006 2.56198,0.005 2.56199,0.004 2.56198,0.003 2.56198,0.003 2.56199,0.002 2.56198,0.002 2.56198,0.002 2.56199,0.001 2.56198,0.001 2.56198,10e-4 2.56199,9e-4 2.56198,7.7e-4"
       style="fill:none;stroke:#0000ff;stroke-width:1.5;stroke-linecap:square"
       id="path212" />
  </g>
  <g
     id="line2d_15"
     transform="translate(-1.6562495,-60.08)">
    <path
       clip-path="url(#p37d97c7def)"
       d="m 57.681818,98.871947 2.561984,-0.0013 2.561983,-0.0015 2.561984,-0.0018 2.561983,-0.0021 2.561984,-0.0025 2.561983,-0.003 2.561983,-0.0035 2.561984,-0.0042 2.561983,-0.0049 2.561984,-0.0058 2.561983,-0.0069 2.561984,-0.0081 2.561983,-0.0095 2.561984,-0.01127 2.561983,-0.01331 2.561984,-0.0157 2.561986,-0.01853 2.56198,-0.02186 2.56198,-0.02578 2.56199,-0.0304 2.56198,-0.03584 2.56199,-0.04222 2.56198,-0.04973 2.56198,-0.05853 2.56198,-0.06885 2.56199,-0.08092 2.56198,-0.09502 2.56198,-0.111459 2.56199,-0.130578 2.56198,-0.152754 2.56199,-0.178388 2.56198,-0.207908 2.56198,-0.241747 2.56199,-0.280331 2.56198,-0.32405 2.56198,-0.373227 2.56199,-0.428069 2.56198,-0.488616 2.56198,-0.554677 2.56199,-0.625763 2.56198,-0.701024 2.56198,-0.77919 2.56199,-0.858543 2.56198,-0.936925 2.56198,-1.011798 2.56199,-1.080351 2.56198,-1.139696 2.56198,-1.187075 2.56199,-1.220126 2.56198,-1.237111 2.56198,-1.237111 2.56199,-1.220126 2.56198,-1.187075 2.56199,-1.139695 2.56198,-1.080352 2.56198,-1.011797 2.56199,-0.936926 2.56198,-0.858543 2.56198,-0.77919 2.56199,-0.701024 2.56198,-0.625763 2.56198,-0.554677 2.56199,-0.488616 2.56198,-0.428069 2.56198,-0.373227 2.56199,-0.32405 2.56198,-0.280331 2.56198,-0.241746 2.56199,-0.207909 2.56198,-0.178388 2.56199,-0.152754 2.56198,-0.130578 2.56198,-0.111458 2.56198,-0.09502 2.56199,-0.08092 2.56198,-0.06885 2.56198,-0.05853 2.56199,-0.04973 2.56198,-0.04222 2.56199,-0.03584 2.56198,-0.0304 2.56198,-0.02578 2.56199,-0.02186 2.56198,-0.01853 2.56198,-0.0157 2.56199,-0.01331 2.56198,-0.01127 2.56198,-0.0095 2.56199,-0.0081 2.56198,-0.0069 2.56198,-0.0058 2.56199,-0.0049 2.56198,-0.0042 2.56198,-0.0035 2.56199,-0.003 2.56198,-0.0025 2.56198,-0.0021 2.56199,-0.0018 2.56198,-0.0015"
       style="fill:none;stroke:#008000;stroke-width:1.5;stroke-linecap:square;stroke-opacity:0.5"
       id="path215" />
  </g>
  <g
     id="line2d_16"
     transform="translate(-1.6562495,-60.08)">
    <path
       clip-path="url(#p37d97c7def)"
       d="m 57.681818,221.64005 2.561984,6.5e-4 2.561983,7.7e-4 2.561984,9e-4 2.561983,0.001 2.561984,0.001 2.561983,0.001 2.561983,0.002 2.561984,0.002 2.561983,0.002 2.561984,0.003 2.561983,0.003 2.561984,0.004 2.561983,0.005 2.561984,0.006 2.561983,0.007 2.561984,0.008 2.561986,0.009 2.56198,0.0109 2.56198,0.0129 2.56199,0.0152 2.56198,0.0179 2.56199,0.0211 2.56198,0.0249 2.56198,0.0293 2.56198,0.0344 2.56199,0.0405 2.56198,0.0475 2.56198,0.0557 2.56199,0.0653 2.56198,0.0764 2.56199,0.0892 2.56198,0.10395 2.56198,0.12087 2.56199,0.14017 2.56198,0.16202 2.56198,0.18662 2.56199,0.21403 2.56198,0.24431 2.56198,0.27734 2.56199,0.31288 2.56198,0.35051 2.56198,0.3896 2.56199,0.42927 2.56198,0.46846 2.56198,0.5059 2.56199,0.54018 2.56198,0.56984 2.56198,0.59354 2.56199,0.61006 2.56198,0.61856 2.56198,0.61856 2.56199,0.61006 2.56198,0.59354 2.56199,0.56984 2.56198,0.54018 2.56198,0.5059 2.56199,0.46846 2.56198,0.42927 2.56198,0.3896 2.56199,0.35051 2.56198,0.31288 2.56198,0.27734 2.56199,0.24431 2.56198,0.21403 2.56198,0.18662 2.56199,0.16202 2.56198,0.14017 2.56198,0.12087 2.56199,0.10395 2.56198,0.0892 2.56199,0.0764 2.56198,0.0653 2.56198,0.0557 2.56198,0.0475 2.56199,0.0405 2.56198,0.0344 2.56198,0.0293 2.56199,0.0249 2.56198,0.0211 2.56199,0.0179 2.56198,0.0152 2.56198,0.0129 2.56199,0.0109 2.56198,0.009 2.56198,0.008 2.56199,0.007 2.56198,0.006 2.56198,0.005 2.56199,0.004 2.56198,0.003 2.56198,0.003 2.56199,0.002 2.56198,0.002 2.56198,0.002 2.56199,0.001 2.56198,0.001 2.56198,0.001 2.56199,9e-4 2.56198,7.7e-4"
       style="fill:none;stroke:#0000ff;stroke-width:1.5;stroke-linecap:square;stroke-opacity:0.5"
       id="path218" />
  </g>
  <g
     id="patch_3"
     transform="translate(-1.6562495,-60.08)">
    <path
       d="M 45,250.74 V 60.48"
       style="fill:none;stroke:#000000;stroke-width:0.8;stroke-linecap:square;stroke-linejoin:miter"
       id="path221" />
  </g>
  <g
     id="patch_4"
     transform="translate(-1.6562495,-60.08)">
    <path
       d="M 324,250.74 V 60.48"
       style="fill:none;stroke:#000000;stroke-width:0.8;stroke-linecap:square;stroke-linejoin:miter"
       id="path224" />
  </g>
  <g
     id="patch_5"
     transform="translate(-1.6562495,-60.08)">
    <path
       d="M 45,250.74 H 324"
       style="fill:none;stroke:#000000;stroke-width:0.8;stroke-linecap:square;stroke-linejoin:miter"
       id="path227" />
  </g>
  <g
     id="patch_6"
     transform="translate(-1.6562495,-60.08)">
    <path
       d="M 45,60.48 H 324"
       style="fill:none;stroke:#000000;stroke-width:0.8;stroke-linecap:square;stroke-linejoin:miter"
       id="path230" />
  </g>
  <g
     id="patch_7"
     transform="matrix(1.3039778,0,0,0.74415119,-98.625176,-28.161901)">
    <path
       d="M 215.89219,186.46625 H 317 q 2,0 2,-2 v -57.7125 q 0,-2 -2,-2 H 215.89219 q -2,0 -2,2 v 57.7125 q 0,2 2,2 z"
       style="opacity:0.8;fill:#ffffff;stroke:#cccccc;stroke-linejoin:miter"
       id="path233" />
  </g>
  <g
     id="line2d_17"
     transform="translate(-1.6562495,-45.08)">
    <path
       d="m 217.89219,132.85219 h 20"
       style="fill:none;stroke:#008000;stroke-width:1.5;stroke-linecap:square"
       id="path236" />
  </g>
  <g
     id="line2d_18"
     transform="translate(-1.6562495,-60.08)" />
  <g
     id="text_8"
     transform="translate(-1.6562495,-45.08)">
    <!-- Paralelo -->
    <defs
       id="defs244">
      <path
         d="M 19.671875,64.796875 V 37.40625 h 12.40625 q 6.890625,0 10.640625,3.5625 3.765625,3.5625 3.765625,10.15625 0,6.546875 -3.765625,10.109375 -3.75,3.5625 -10.640625,3.5625 z M 9.8125,72.90625 h 22.265625 q 12.265625,0 18.53125,-5.546875 6.28125,-5.546875 6.28125,-16.234375 0,-10.796875 -6.28125,-16.3125 -6.265625,-5.515625 -18.53125,-5.515625 H 19.671875 V 0 H 9.8125 Z"
         id="DejaVuSans-80" />
      <path
         d="m 41.109375,46.296875 q -1.515625,0.875 -3.296875,1.28125 Q 36.03125,48 33.890625,48 26.265625,48 22.1875,43.046875 18.109375,38.09375 18.109375,28.8125 V 0 h -9.03125 v 54.6875 h 9.03125 v -8.5 q 2.84375,4.984375 7.375,7.390625 Q 30.03125,56 36.53125,56 q 0.921875,0 2.046875,-0.125 1.125,-0.109375 2.484375,-0.359375 z"
         id="DejaVuSans-114" />
      <path
         d="M 9.421875,75.984375 H 18.40625 V 0 H 9.421875 Z"
         id="DejaVuSans-108" />
      <path
         d="m 30.609375,48.390625 q -7.21875,0 -11.421875,-5.640625 -4.203125,-5.640625 -4.203125,-15.453125 0,-9.8125 4.171875,-15.453125 4.1875,-5.640625 11.453125,-5.640625 7.1875,0 11.375,5.65625 4.203125,5.671875 4.203125,15.4375 0,9.71875 -4.203125,15.40625 -4.1875,5.6875 -11.375,5.6875 z m 0,7.609375 q 11.71875,0 18.40625,-7.625 6.703125,-7.609375 6.703125,-21.078125 0,-13.421875 -6.703125,-21.078125 -6.6875,-7.640625 -18.40625,-7.640625 -11.765625,0 -18.4375,7.640625 -6.65625,7.65625 -6.65625,21.078125 0,13.46875 6.65625,21.078125 Q 18.84375,56 30.609375,56 Z"
         id="DejaVuSans-111" />
    </defs>
    <g
       transform="matrix(0.1,0,0,-0.1,245.89219,136.35219)"
       id="g262">
      <use
         xlink:href="#DejaVuSans-80"
         id="use246"
         x="0"
         y="0"
         width="100%"
         height="100%" />
      <use
         x="60.240234"
         xlink:href="#DejaVuSans-97"
         id="use248"
         y="0"
         width="100%"
         height="100%" />
      <use
         x="121.51953"
         xlink:href="#DejaVuSans-114"
         id="use250"
         y="0"
         width="100%"
         height="100%" />
      <use
         x="162.63281"
         xlink:href="#DejaVuSans-97"
         id="use252"
         y="0"
         width="100%"
         height="100%" />
      <use
         x="223.91211"
         xlink:href="#DejaVuSans-108"
         id="use254"
         y="0"
         width="100%"
         height="100%" />
      <use
         x="251.69531"
         xlink:href="#DejaVuSans-101"
         id="use256"
         y="0"
         width="100%"
         height="100%" />
      <use
         x="313.21875"
         xlink:href="#DejaVuSans-108"
         id="use258"
         y="0"
         width="100%"
         height="100%" />
      <use
         x="341.00195"
         xlink:href="#DejaVuSans-111"
         id="use260"
         y="0"
         width="100%"
         height="100%" />
    </g>
  </g>
  <g
     id="line2d_19"
     transform="translate(-1.6562495,-45.08)">
    <path
       d="m 217.89219,147.53031 h 20"
       style="fill:none;stroke:#0000ff;stroke-width:1.5;stroke-linecap:square"
       id="path265" />
  </g>
  <g
     id="line2d_20"
     transform="translate(-1.6562495,-60.08)" />
  <g
     id="text_9"
     transform="translate(-1.6562495,-45.08)">
    <!-- Perpendicular -->
    <defs
       id="defs271">
      <path
         d="m 18.109375,8.203125 v -29 H 9.078125 V 54.6875 h 9.03125 v -8.296875 q 2.84375,4.875 7.15625,7.234375 Q 29.59375,56 35.59375,56 q 9.96875,0 16.1875,-7.90625 6.234375,-7.90625 6.234375,-20.796875 0,-12.890625 -6.234375,-20.8125 -6.21875,-7.90625 -16.1875,-7.90625 -6,0 -10.328125,2.375 -4.3125,2.375 -7.15625,7.25 z M 48.6875,27.296875 q 0,9.90625 -4.078125,15.546875 -4.078125,5.640625 -11.203125,5.640625 -7.140625,0 -11.21875,-5.640625 -4.078125,-5.640625 -4.078125,-15.546875 0,-9.90625 4.078125,-15.546875 4.078125,-5.640625 11.21875,-5.640625 7.125,0 11.203125,5.640625 4.078125,5.640625 4.078125,15.546875 z"
         id="DejaVuSans-112" />
      <path
         d="M 48.78125,52.59375 V 44.1875 q -3.8125,2.109375 -7.640625,3.15625 -3.828125,1.046875 -7.734375,1.046875 -8.75,0 -13.59375,-5.546875 -4.828125,-5.53125 -4.828125,-15.546875 0,-10.015625 4.828125,-15.5625 4.84375,-5.53125 13.59375,-5.53125 3.90625,0 7.734375,1.046875 3.828125,1.046875 7.640625,3.15625 v -8.3125 q -3.765625,-1.75 -7.796875,-2.625 -4.015625,-0.890625 -8.5625,-0.890625 -12.359375,0 -19.640625,7.765625 -7.265625,7.765625 -7.265625,20.953125 0,13.375 7.34375,21.03125 Q 20.21875,56 33.015625,56 q 4.140625,0 8.09375,-0.859375 3.953125,-0.84375 7.671875,-2.546875 z"
         id="DejaVuSans-99" />
    </defs>
    <g
       transform="matrix(0.1,0,0,-0.1,245.89219,151.03031)"
       id="g299">
      <use
         xlink:href="#DejaVuSans-80"
         id="use273"
         x="0"
         y="0"
         width="100%"
         height="100%" />
      <use
         x="60.255859"
         xlink:href="#DejaVuSans-101"
         id="use275"
         y="0"
         width="100%"
         height="100%" />
      <use
         x="121.7793"
         xlink:href="#DejaVuSans-114"
         id="use277"
         y="0"
         width="100%"
         height="100%" />
      <use
         x="162.89258"
         xlink:href="#DejaVuSans-112"
         id="use279"
         y="0"
         width="100%"
         height="100%" />
      <use
         x="226.36914"
         xlink:href="#DejaVuSans-101"
         id="use281"
         y="0"
         width="100%"
         height="100%" />
      <use
         x="287.89258"
         xlink:href="#DejaVuSans-110"
         id="use283"
         y="0"
         width="100%"
         height="100%" />
      <use
         x="351.27148"
         xlink:href="#DejaVuSans-100"
         id="use285"
         y="0"
         width="100%"
         height="100%" />
      <use
         x="414.74805"
         xlink:href="#DejaVuSans-105"
         id="use287"
         y="0"
         width="100%"
         height="100%" />
      <use
         x="442.53125"
         xlink:href="#DejaVuSans-99"
         id="use289"
         y="0"
         width="100%"
         height="100%" />
      <use
         x="497.51172"
         xlink:href="#DejaVuSans-117"
         id="use291"
         y="0"
         width="100%"
         height="100%" />
      <use
         x="560.89062"
         xlink:href="#DejaVuSans-108"
         id="use293"
         y="0"
         width="100%"
         height="100%" />
      <use
         x="588.67383"
         xlink:href="#DejaVuSans-97"
         id="use295"
         y="0"
         width="100%"
         height="100%" />
      <use
         x="649.95312"
         xlink:href="#DejaVuSans-114"
         id="use297"
         y="0"
         width="100%"
         height="100%" />
    </g>
  </g>
  <g
     id="line2d_21"
     transform="translate(-30.156249,-74.43625)">
    <path
       d="m 217.89219,162.20844 h 20"
       style="fill:none;stroke:#008000;stroke-width:1.5;stroke-linecap:square;stroke-opacity:0.5"
       id="path302" />
  </g>
  <g
     id="line2d_22"
     transform="translate(-1.6562495,-60.08)" />
  <g
     id="line2d_23"
     transform="translate(-30.156249,-74.43625)">
    <path
       d="m 217.89219,176.88656 h 20"
       style="fill:none;stroke:#0000ff;stroke-width:1.5;stroke-linecap:square;stroke-opacity:0.5"
       id="path320" />
  </g>
  <g
     id="line2d_24"
     transform="translate(-1.6562495,-60.08)" />
  <g
     id="text_11"
     transform="translate(-59.178319,-102.08)">
    <!-- Real -->
    <g
       transform="matrix(0.1,0,0,-0.1,245.89219,180.38656)"
       id="g332">
      <path
         d="m 44.390625,34.1875 q 3.171875,-1.078125 6.171875,-4.59375 3,-3.515625 6.03125,-9.671875 L 66.609375,0 H 56 l -9.3125,18.703125 q -3.625,7.328125 -7.015625,9.71875 -3.390625,2.390625 -9.25,2.390625 h -10.75 V 0 H 9.8125 v 72.90625 h 22.265625 q 12.5,0 18.65625,-5.234375 6.15625,-5.21875 6.15625,-15.765625 0,-6.890625 -3.203125,-11.4375 -3.203125,-4.53125 -9.296875,-6.28125 z m -24.71875,30.609375 v -25.875 h 12.40625 q 7.125,0 10.765625,3.296875 3.640625,3.296875 3.640625,9.6875 0,6.390625 -3.640625,9.640625 -3.640625,3.25 -10.765625,3.25 z"
         id="use324" />
      <use
         x="69.419922"
         xlink:href="#DejaVuSans-101"
         id="use326"
         y="0"
         width="100%"
         height="100%" />
      <use
         x="130.94336"
         xlink:href="#DejaVuSans-97"
         id="use328"
         y="0"
         width="100%"
         height="100%" />
      <use
         x="192.22266"
         xlink:href="#DejaVuSans-108"
         id="use330"
         y="0"
         width="100%"
         height="100%" />
    </g>
  </g>
  <g
     id="patch_8"
     transform="translate(-1.6562495,-60.08)">
    <path
       d="M 45,441 H 324 V 250.74 H 45 Z"
       style="fill:#ffffff"
       id="path337" />
  </g>
  <g
     id="matplotlib.axis_3"
     transform="translate(-1.6562495,-60.08)">
    <g
       id="xtick_7">
      <g
         id="line2d_25">
        <g
           id="g342">
          <use
             style="stroke:#000000;stroke-width:0.8"
             x="57.681816"
             xlink:href="#m9f8bb361d6"
             y="441"
             id="use340"
             width="100%"
             height="100%" />
        </g>
      </g>
      <g
         id="text_12">
        <!-- 0 -->
        <g
           transform="matrix(0.1,0,0,-0.1,54.500568,455.59844)"
           id="g347">
          <use
             xlink:href="#DejaVuSans-48"
             id="use345"
             x="0"
             y="0"
             width="100%"
             height="100%" />
        </g>
      </g>
    </g>
    <g
       id="xtick_8">
      <g
         id="line2d_26">
        <g
           id="g353">
          <use
             style="stroke:#000000;stroke-width:0.8"
             x="108.92149"
             xlink:href="#m9f8bb361d6"
             y="441"
             id="use351"
             width="100%"
             height="100%" />
        </g>
      </g>
      <g
         id="text_13">
        <!-- 20 -->
        <g
           transform="matrix(0.1,0,0,-0.1,102.55899,455.59844)"
           id="g360">
          <use
             xlink:href="#DejaVuSans-50"
             id="use356"
             x="0"
             y="0"
             width="100%"
             height="100%" />
          <use
             x="63.623047"
             xlink:href="#DejaVuSans-48"
             id="use358"
             y="0"
             width="100%"
             height="100%" />
        </g>
      </g>
    </g>
    <g
       id="xtick_9">
      <g
         id="line2d_27">
        <g
           id="g366">
          <use
             style="stroke:#000000;stroke-width:0.8"
             x="160.16116"
             xlink:href="#m9f8bb361d6"
             y="441"
             id="use364"
             width="100%"
             height="100%" />
        </g>
      </g>
      <g
         id="text_14">
        <!-- 40 -->
        <g
           transform="matrix(0.1,0,0,-0.1,153.79866,455.59844)"
           id="g373">
          <use
             xlink:href="#DejaVuSans-52"
             id="use369"
             x="0"
             y="0"
             width="100%"
             height="100%" />
          <use
             x="63.623047"
             xlink:href="#DejaVuSans-48"
             id="use371"
             y="0"
             width="100%"
             height="100%" />
        </g>
      </g>
    </g>
    <g
       id="xtick_10">
      <g
         id="line2d_28">
        <g
           id="g379">
          <use
             style="stroke:#000000;stroke-width:0.8"
             x="211.40083"
             xlink:href="#m9f8bb361d6"
             y="441"
             id="use377"
             width="100%"
             height="100%" />
        </g>
      </g>
      <g
         id="text_15">
        <!-- 60 -->
        <defs
           id="defs383">
          <path
             d="m 33.015625,40.375 q -6.640625,0 -10.53125,-4.546875 -3.875,-4.53125 -3.875,-12.4375 0,-7.859375 3.875,-12.4375 3.890625,-4.5625 10.53125,-4.5625 6.640625,0 10.515625,4.5625 3.875,4.578125 3.875,12.4375 0,7.90625 -3.875,12.4375 Q 39.65625,40.375 33.015625,40.375 Z M 52.59375,71.296875 V 62.3125 q -3.71875,1.75 -7.5,2.671875 -3.78125,0.9375 -7.5,0.9375 -9.765625,0 -14.921875,-6.59375 -5.140625,-6.59375 -5.875,-19.921875 2.875,4.25 7.21875,6.515625 4.359375,2.265625 9.578125,2.265625 10.984375,0 17.359375,-6.671875 6.375,-6.65625 6.375,-18.125 0,-11.234375 -6.640625,-18.03125 -6.640625,-6.78125 -17.671875,-6.78125 -12.65625,0 -19.34375,9.6875 -6.6875,9.703125 -6.6875,28.109375 0,17.28125 8.203125,27.5625 8.203125,10.28125 22.015625,10.28125 3.71875,0 7.5,-0.734375 3.78125,-0.734375 7.890625,-2.1875 z"
             id="DejaVuSans-54" />
        </defs>
        <g
           transform="matrix(0.1,0,0,-0.1,205.03833,455.59844)"
           id="g389">
          <use
             xlink:href="#DejaVuSans-54"
             id="use385"
             x="0"
             y="0"
             width="100%"
             height="100%" />
          <use
             x="63.623047"
             xlink:href="#DejaVuSans-48"
             id="use387"
             y="0"
             width="100%"
             height="100%" />
        </g>
      </g>
    </g>
    <g
       id="xtick_11">
      <g
         id="line2d_29">
        <g
           id="g395">
          <use
             style="stroke:#000000;stroke-width:0.8"
             x="262.6405"
             xlink:href="#m9f8bb361d6"
             y="441"
             id="use393"
             width="100%"
             height="100%" />
        </g>
      </g>
      <g
         id="text_16">
        <!-- 80 -->
        <defs
           id="defs399">
          <path
             d="m 31.78125,34.625 q -7.03125,0 -11.0625,-3.765625 -4.015625,-3.765625 -4.015625,-10.34375 0,-6.59375 4.015625,-10.359375 4.03125,-3.765625 11.0625,-3.765625 7.03125,0 11.078125,3.78125 4.0625,3.796875 4.0625,10.34375 0,6.578125 -4.03125,10.34375 Q 38.875,34.625 31.78125,34.625 Z m -9.859375,4.1875 Q 15.578125,40.375 12.03125,44.71875 8.5,49.078125 8.5,55.328125 q 0,8.734375 6.21875,13.8125 6.234375,5.078125 17.0625,5.078125 10.890625,0 17.09375,-5.078125 6.203125,-5.078125 6.203125,-13.8125 0,-6.25 -3.546875,-10.609375 Q 48,40.375 41.703125,38.8125 q 7.125,-1.65625 11.09375,-6.5 3.984375,-4.828125 3.984375,-11.796875 0,-10.609375 -6.46875,-16.28125 -6.46875,-5.65625 -18.53125,-5.65625 -12.046875,0 -18.53125,5.65625 -6.46875,5.671875 -6.46875,16.28125 0,6.96875 4,11.796875 4.015625,4.84375 11.140625,6.5 z M 18.3125,54.390625 q 0,-5.65625 3.53125,-8.828125 3.546875,-3.171875 9.9375,-3.171875 6.359375,0 9.9375,3.171875 3.59375,3.171875 3.59375,8.828125 0,5.671875 -3.59375,8.84375 -3.578125,3.171875 -9.9375,3.171875 -6.390625,0 -9.9375,-3.171875 Q 18.3125,60.0625 18.3125,54.390625 Z"
             id="DejaVuSans-56" />
        </defs>
        <g
           transform="matrix(0.1,0,0,-0.1,256.278,455.59844)"
           id="g405">
          <use
             xlink:href="#DejaVuSans-56"
             id="use401"
             x="0"
             y="0"
             width="100%"
             height="100%" />
          <use
             x="63.623047"
             xlink:href="#DejaVuSans-48"
             id="use403"
             y="0"
             width="100%"
             height="100%" />
        </g>
      </g>
    </g>
    <g
       id="xtick_12">
      <g
         id="line2d_30">
        <g
           id="g411">
          <use
             style="stroke:#000000;stroke-width:0.8"
             x="313.88016"
             xlink:href="#m9f8bb361d6"
             y="441"
             id="use409"
             width="100%"
             height="100%" />
        </g>
      </g>
      <g
         id="text_17">
        <!-- 100 -->
        <defs
           id="defs415">
          <path
             d="m 12.40625,8.296875 h 16.109375 v 55.625 L 10.984375,60.40625 v 8.984375 l 17.4375,3.515625 H 38.28125 V 8.296875 H 54.390625 V 0 H 12.40625 Z"
             id="DejaVuSans-49" />
        </defs>
        <g
           transform="matrix(0.1,0,0,-0.1,304.33641,455.59844)"
           id="g423">
          <use
             xlink:href="#DejaVuSans-49"
             id="use417"
             x="0"
             y="0"
             width="100%"
             height="100%" />
          <use
             x="63.623047"
             xlink:href="#DejaVuSans-48"
             id="use419"
             y="0"
             width="100%"
             height="100%" />
          <use
             x="127.24609"
             xlink:href="#DejaVuSans-48"
             id="use421"
             y="0"
             width="100%"
             height="100%" />
        </g>
      </g>
    </g>
    <g
       id="text_18">
      <!-- Tiempo (min.) -->
      <defs
         id="defs429">
        <path
           d="M -0.296875,72.90625 H 61.375 v -8.3125 H 35.5 V 0 H 25.59375 V 64.59375 H -0.296875 Z"
           id="DejaVuSans-84" />
        <path
           d="M 52,44.1875 Q 55.375,50.25 60.0625,53.125 64.75,56 71.09375,56 q 8.546875,0 13.1875,-5.984375 4.640625,-5.96875 4.640625,-17 V 0 h -9.03125 v 32.71875 q 0,7.859375 -2.796875,11.65625 -2.78125,3.8125 -8.484375,3.8125 -6.984375,0 -11.046875,-4.640625 -4.046875,-4.625 -4.046875,-12.640625 V 0 h -9.03125 v 32.71875 q 0,7.90625 -2.78125,11.6875 -2.78125,3.78125 -8.59375,3.78125 -6.890625,0 -10.953125,-4.65625 -4.046875,-4.65625 -4.046875,-12.625 V 0 h -9.03125 v 54.6875 h 9.03125 v -8.5 q 3.078125,5.03125 7.375,7.421875 Q 29.78125,56 35.6875,56 41.65625,56 45.828125,52.96875 50,49.953125 52,44.1875 Z"
           id="DejaVuSans-109" />
      </defs>
      <g
         transform="matrix(0.1,0,0,-0.1,149.37109,469.27656)"
         id="g457">
        <use
           xlink:href="#DejaVuSans-84"
           id="use431"
           x="0"
           y="0"
           width="100%"
           height="100%" />
        <use
           x="61.037109"
           xlink:href="#DejaVuSans-105"
           id="use433"
           y="0"
           width="100%"
           height="100%" />
        <use
           x="88.820312"
           xlink:href="#DejaVuSans-101"
           id="use435"
           y="0"
           width="100%"
           height="100%" />
        <use
           x="150.34375"
           xlink:href="#DejaVuSans-109"
           id="use437"
           y="0"
           width="100%"
           height="100%" />
        <use
           x="247.75586"
           xlink:href="#DejaVuSans-112"
           id="use439"
           y="0"
           width="100%"
           height="100%" />
        <use
           x="311.23242"
           xlink:href="#DejaVuSans-111"
           id="use441"
           y="0"
           width="100%"
           height="100%" />
        <use
           x="372.41406"
           xlink:href="#DejaVuSans-32"
           id="use443"
           y="0"
           width="100%"
           height="100%" />
        <use
           x="404.20117"
           xlink:href="#DejaVuSans-40"
           id="use445"
           y="0"
           width="100%"
           height="100%" />
        <use
           x="443.21484"
           xlink:href="#DejaVuSans-109"
           id="use447"
           y="0"
           width="100%"
           height="100%" />
        <use
           x="540.62695"
           xlink:href="#DejaVuSans-105"
           id="use449"
           y="0"
           width="100%"
           height="100%" />
        <use
           x="568.41016"
           xlink:href="#DejaVuSans-110"
           id="use451"
           y="0"
           width="100%"
           height="100%" />
        <use
           x="631.78906"
           xlink:href="#DejaVuSans-46"
           id="use453"
           y="0"
           width="100%"
           height="100%" />
        <use
           x="663.57617"
           xlink:href="#DejaVuSans-41"
           id="use455"
           y="0"
           width="100%"
           height="100%" />
      </g>
    </g>
  </g>
  <g
     id="matplotlib.axis_4"
     transform="translate(-1.6562495,-60.08)">
    <g
       id="ytick_7">
      <g
         id="line2d_31">
        <g
           id="g463">
          <use
             style="stroke:#000000;stroke-width:0.8"
             x="45"
             xlink:href="#m48b419f873"
             y="432.35181"
             id="use461"
             width="100%"
             height="100%" />
        </g>
      </g>
      <g
         id="text_19">
        <!-- 0.22 -->
        <g
           transform="matrix(0.1,0,0,-0.1,15.734375,436.15104)"
           id="g474">
          <use
             xlink:href="#DejaVuSans-48"
             id="use466"
             x="0"
             y="0"
             width="100%"
             height="100%" />
          <use
             x="63.623047"
             xlink:href="#DejaVuSans-46"
             id="use468"
             y="0"
             width="100%"
             height="100%" />
          <use
             x="95.410156"
             xlink:href="#DejaVuSans-50"
             id="use470"
             y="0"
             width="100%"
             height="100%" />
          <use
             x="159.0332"
             xlink:href="#DejaVuSans-50"
             id="use472"
             y="0"
             width="100%"
             height="100%" />
        </g>
      </g>
    </g>
    <g
       id="ytick_8">
      <g
         id="line2d_32">
        <g
           id="g480">
          <use
             style="stroke:#000000;stroke-width:0.8"
             x="45"
             xlink:href="#m48b419f873"
             y="396.43124"
             id="use478"
             width="100%"
             height="100%" />
        </g>
      </g>
      <g
         id="text_20">
        <!-- 0.24 -->
        <g
           transform="matrix(0.1,0,0,-0.1,15.734375,400.23045)"
           id="g491">
          <use
             xlink:href="#DejaVuSans-48"
             id="use483"
             x="0"
             y="0"
             width="100%"
             height="100%" />
          <use
             x="63.623047"
             xlink:href="#DejaVuSans-46"
             id="use485"
             y="0"
             width="100%"
             height="100%" />
          <use
             x="95.410156"
             xlink:href="#DejaVuSans-50"
             id="use487"
             y="0"
             width="100%"
             height="100%" />
          <use
             x="159.0332"
             xlink:href="#DejaVuSans-52"
             id="use489"
             y="0"
             width="100%"
             height="100%" />
        </g>
      </g>
    </g>
    <g
       id="ytick_9">
      <g
         id="line2d_33">
        <g
           id="g497">
          <use
             style="stroke:#000000;stroke-width:0.8"
             x="45"
             xlink:href="#m48b419f873"
             y="360.51065"
             id="use495"
             width="100%"
             height="100%" />
        </g>
      </g>
      <g
         id="text_21">
        <!-- 0.26 -->
        <g
           transform="matrix(0.1,0,0,-0.1,15.734375,364.30987)"
           id="g508">
          <use
             xlink:href="#DejaVuSans-48"
             id="use500"
             x="0"
             y="0"
             width="100%"
             height="100%" />
          <use
             x="63.623047"
             xlink:href="#DejaVuSans-46"
             id="use502"
             y="0"
             width="100%"
             height="100%" />
          <use
             x="95.410156"
             xlink:href="#DejaVuSans-50"
             id="use504"
             y="0"
             width="100%"
             height="100%" />
          <use
             x="159.0332"
             xlink:href="#DejaVuSans-54"
             id="use506"
             y="0"
             width="100%"
             height="100%" />
        </g>
      </g>
    </g>
    <g
       id="ytick_10">
      <g
         id="line2d_34">
        <g
           id="g514">
          <use
             style="stroke:#000000;stroke-width:0.8"
             x="45"
             xlink:href="#m48b419f873"
             y="324.59006"
             id="use512"
             width="100%"
             height="100%" />
        </g>
      </g>
      <g
         id="text_22">
        <!-- 0.28 -->
        <g
           transform="matrix(0.1,0,0,-0.1,15.734375,328.38929)"
           id="g525">
          <use
             xlink:href="#DejaVuSans-48"
             id="use517"
             x="0"
             y="0"
             width="100%"
             height="100%" />
          <use
             x="63.623047"
             xlink:href="#DejaVuSans-46"
             id="use519"
             y="0"
             width="100%"
             height="100%" />
          <use
             x="95.410156"
             xlink:href="#DejaVuSans-50"
             id="use521"
             y="0"
             width="100%"
             height="100%" />
          <use
             x="159.0332"
             xlink:href="#DejaVuSans-56"
             id="use523"
             y="0"
             width="100%"
             height="100%" />
        </g>
      </g>
    </g>
    <g
       id="ytick_11">
      <g
         id="line2d_35">
        <g
           id="g531">
          <use
             style="stroke:#000000;stroke-width:0.8"
             x="45"
             xlink:href="#m48b419f873"
             y="288.66949"
             id="use529"
             width="100%"
             height="100%" />
        </g>
      </g>
      <g
         id="text_23">
        <!-- 0.30 -->
        <g
           transform="matrix(0.1,0,0,-0.1,15.734375,292.4687)"
           id="g542">
          <use
             xlink:href="#DejaVuSans-48"
             id="use534"
             x="0"
             y="0"
             width="100%"
             height="100%" />
          <use
             x="63.623047"
             xlink:href="#DejaVuSans-46"
             id="use536"
             y="0"
             width="100%"
             height="100%" />
          <use
             x="95.410156"
             xlink:href="#DejaVuSans-51"
             id="use538"
             y="0"
             width="100%"
             height="100%" />
          <use
             x="159.0332"
             xlink:href="#DejaVuSans-48"
             id="use540"
             y="0"
             width="100%"
             height="100%" />
        </g>
      </g>
    </g>
    <g
       id="ytick_12">
      <g
         id="line2d_36">
        <g
           id="g548">
          <use
             style="stroke:#000000;stroke-width:0.8"
             x="45"
             xlink:href="#m48b419f873"
             y="252.7489"
             id="use546"
             width="100%"
             height="100%" />
        </g>
      </g>
      <g
         id="text_24">
        <!-- 0.32 -->
        <g
           transform="matrix(0.1,0,0,-0.1,15.734375,256.54812)"
           id="g559">
          <use
             xlink:href="#DejaVuSans-48"
             id="use551"
             x="0"
             y="0"
             width="100%"
             height="100%" />
          <use
             x="63.623047"
             xlink:href="#DejaVuSans-46"
             id="use553"
             y="0"
             width="100%"
             height="100%" />
          <use
             x="95.410156"
             xlink:href="#DejaVuSans-51"
             id="use555"
             y="0"
             width="100%"
             height="100%" />
          <use
             x="159.0332"
             xlink:href="#DejaVuSans-50"
             id="use557"
             y="0"
             width="100%"
             height="100%" />
        </g>
      </g>
    </g>
    <g
       id="text_25">
      <!-- Anisotropa -->
      <defs
         id="defs565">
        <path
           d="M 34.1875,63.1875 20.796875,26.90625 h 26.8125 z m -5.578125,9.71875 h 11.1875 L 67.578125,0 h -10.25 L 50.6875,18.703125 H 17.828125 L 11.1875,0 H 0.78125 Z"
           id="DejaVuSans-65" />
        <path
           d="m 20.703125,79.984375 h 9.71875 L 14.5,61.625 H 7.03125 Z M 9.421875,54.6875 H 18.40625 V 0 H 9.421875 Z m 4.5,1.3125 z"
           id="DejaVuSans-237" />
      </defs>
      <g
         transform="matrix(0,-0.1,-0.1,0,9.654687,374.21297)"
         id="g589">
        <use
           xlink:href="#DejaVuSans-65"
           id="use567"
           x="0"
           y="0"
           width="100%"
           height="100%" />
        <use
           x="68.408203"
           xlink:href="#DejaVuSans-110"
           id="use569"
           y="0"
           width="100%"
           height="100%" />
        <use
           x="131.78711"
           xlink:href="#DejaVuSans-105"
           id="use571"
           y="0"
           width="100%"
           height="100%" />
        <use
           x="159.57031"
           xlink:href="#DejaVuSans-115"
           id="use573"
           y="0"
           width="100%"
           height="100%" />
        <use
           x="211.66992"
           xlink:href="#DejaVuSans-111"
           id="use575"
           y="0"
           width="100%"
           height="100%" />
        <use
           x="272.85156"
           xlink:href="#DejaVuSans-116"
           id="use577"
           y="0"
           width="100%"
           height="100%" />
        <use
           x="312.06055"
           xlink:href="#DejaVuSans-114"
           id="use579"
           y="0"
           width="100%"
           height="100%" />
        <use
           x="353.14258"
           xlink:href="#DejaVuSans-111"
           id="use581"
           y="0"
           width="100%"
           height="100%" />
        <use
           x="414.32422"
           xlink:href="#DejaVuSans-112"
           id="use583"
           y="0"
           width="100%"
           height="100%" />
        <use
           x="477.80078"
           xlink:href="#DejaVuSans-237"
           id="use585"
           y="0"
           width="100%"
           height="100%" />
        <use
           x="505.58398"
           xlink:href="#DejaVuSans-97"
           id="use587"
           y="0"
           width="100%"
           height="100%" />
      </g>
    </g>
  </g>
  <g
     id="line2d_37"
     transform="translate(-1.6562495,-60.08)">
    <path
       clip-path="url(#p464825d812)"
       d="M 45,432.35182 H 324"
       style="fill:none;stroke:#000000;stroke-width:1.5;stroke-dasharray:5.55, 2.4;stroke-dashoffset:0"
       id="path593" />
  </g>
  <g
     id="line2d_38"
     transform="translate(-1.6562495,-60.08)">
    <path
       clip-path="url(#p464825d812)"
       d="M 45,288.66949 H 324"
       style="fill:none;stroke:#000000;stroke-width:1.5;stroke-dasharray:5.55, 2.4;stroke-dashoffset:0"
       id="path596" />
  </g>
  <g
     id="line2d_39"
     transform="translate(-1.6562495,-60.08)">
    <path
       clip-path="url(#p464825d812)"
       d="m 57.681818,405.92595 2.561984,-0.006 2.561983,-0.008 2.561984,-0.009 2.561983,-0.0105 2.561984,-0.0124 2.561983,-0.0147 2.561983,-0.0174 2.561984,-0.0205 2.561983,-0.0242 2.561984,-0.0286 2.561983,-0.0337 2.561984,-0.0399 2.561983,-0.047 2.561984,-0.0555 2.561983,-0.0655 2.561984,-0.0774 2.561986,-0.0913 2.56198,-0.1077 2.56198,-0.12704 2.56199,-0.14978 2.56198,-0.17656 2.56199,-0.20803 2.56198,-0.24499 2.56198,-0.28836 2.56198,-0.33918 2.56199,-0.39866 2.56198,-0.46812 2.56198,-0.54912 2.56199,-0.64332 2.56198,-0.75256 2.56199,-0.87887 2.56198,-1.02429 2.56198,-1.19101 2.56199,-1.3811 2.56198,-1.59648 2.56198,-1.83877 2.56199,-2.10896 2.56198,-2.40725 2.56198,-2.73271 2.56199,-3.08293 2.56198,-3.45371 2.56198,-3.83882 2.56199,-4.22975 2.56198,-4.61593 2.56198,-4.98479 2.56199,-5.32254 2.56198,-5.61491 2.56198,-5.84833 2.56199,-6.01116 2.56198,-6.09484 2.56198,-6.09484 2.56199,-6.01116 2.56198,-5.84833 2.56199,-5.6149 2.56198,-5.32254 2.56198,-4.98479 2.56199,-4.61593 2.56198,-4.22976 2.56198,-3.83881 2.56199,-3.45372 2.56198,-3.08293 2.56198,-2.73271 2.56199,-2.40725 2.56198,-2.10895 2.56198,-1.83877 2.56199,-1.59649 2.56198,-1.3811 2.56198,-1.191 2.56199,-1.0243 2.56198,-0.87886 2.56199,-0.75257 2.56198,-0.64331 2.56198,-0.54912 2.56198,-0.46813 2.56199,-0.39865 2.56198,-0.33918 2.56198,-0.28836 2.56199,-0.24499 2.56198,-0.20803 2.56199,-0.17656 2.56198,-0.14979 2.56198,-0.12703 2.56199,-0.10771 2.56198,-0.0913 2.56198,-0.0774 2.56199,-0.0656 2.56198,-0.0555 2.56198,-0.0471 2.56199,-0.0398 2.56198,-0.0337 2.56198,-0.0286 2.56199,-0.0242 2.56198,-0.0205 2.56198,-0.0173 2.56199,-0.0147 2.56198,-0.0124 2.56198,-0.0105 2.56199,-0.009 2.56198,-0.008"
       style="fill:none;stroke:#ff0000;stroke-width:1.5;stroke-linecap:square"
       id="path599" />
  </g>
  <g
     id="line2d_40"
     transform="translate(-1.6562495,-60.08)">
    <path
       clip-path="url(#p464825d812)"
       d="m 57.681818,432.31729 2.561984,-0.006 2.561983,-0.007 2.561984,-0.009 2.561983,-0.0103 2.561984,-0.0122 2.561983,-0.0144 2.561983,-0.017 2.561984,-0.0201 2.561983,-0.0237 2.561984,-0.028 2.561983,-0.0331 2.561984,-0.039 2.561983,-0.0461 2.561984,-0.0544 2.561983,-0.0643 2.561984,-0.0758 2.561986,-0.0895 2.56198,-0.10555 2.56198,-0.12449 2.56199,-0.1468 2.56198,-0.17302 2.56199,-0.20387 2.56198,-0.24009 2.56198,-0.28259 2.56198,-0.3324 2.56199,-0.39068 2.56198,-0.45877 2.56198,-0.53813 2.56199,-0.63045 2.56198,-0.73752 2.56199,-0.86128 2.56198,-1.00381 2.56198,-1.16719 2.56199,-1.35347 2.56198,-1.56456 2.56198,-1.80199 2.56199,-2.06678 2.56198,-2.35911 2.56198,-2.67805 2.56199,-3.02128 2.56198,-3.38464 2.56198,-3.76203 2.56199,-4.14517 2.56198,-4.5236 2.56198,-4.8851 2.56199,-5.21609 2.56198,-5.50261 2.56198,-5.73136 2.56199,-5.89093 2.56198,-5.97295 2.56198,-5.97294 2.56199,-5.89094 2.56198,-5.73136 2.56199,-5.50261 2.56198,-5.21609 2.56198,-4.88509 2.56199,-4.52361 2.56198,-4.14516 2.56198,-3.76204 2.56199,-3.38464 2.56198,-3.02127 2.56198,-2.67806 2.56199,-2.35911 2.56198,-2.06677 2.56198,-1.80199 2.56199,-1.56456 2.56198,-1.35348 2.56198,-1.16718 2.56199,-1.00381 2.56198,-0.86129 2.56199,-0.73752 2.56198,-0.63045 2.56198,-0.53813 2.56198,-0.45876 2.56199,-0.39068 2.56198,-0.3324 2.56198,-0.2826 2.56199,-0.24009 2.56198,-0.20386 2.56199,-0.17303 2.56198,-0.14679 2.56198,-0.1245 2.56199,-0.10555 2.56198,-0.0895 2.56198,-0.0758 2.56199,-0.0642 2.56198,-0.0544 2.56198,-0.0461 2.56199,-0.0391 2.56198,-0.0331 2.56198,-0.028 2.56199,-0.0237 2.56198,-0.0201 2.56198,-0.017 2.56199,-0.0144 2.56198,-0.0122 2.56198,-0.0103 2.56199,-0.009 2.56198,-0.007"
       style="fill:none;stroke:#ff0000;stroke-width:1.5;stroke-linecap:square;stroke-opacity:0.5"
       id="path602" />
  </g>
  <g
     id="patch_9"
     transform="translate(-1.6562495,-60.08)">
    <path
       d="M 45,441 V 250.74"
       style="fill:none;stroke:#000000;stroke-width:0.8;stroke-linecap:square;stroke-linejoin:miter"
       id="path605" />
  </g>
  <g
     id="patch_10"
     transform="translate(-1.6562495,-60.08)">
    <path
       d="M 324,441 V 250.74"
       style="fill:none;stroke:#000000;stroke-width:0.8;stroke-linecap:square;stroke-linejoin:miter"
       id="path608" />
  </g>
  <g
     id="patch_11"
     transform="translate(-1.6562495,-60.08)">
    <path
       d="M 45,441 H 324"
       style="fill:none;stroke:#000000;stroke-width:0.8;stroke-linecap:square;stroke-linejoin:miter"
       id="path611" />
  </g>
  <g
     id="patch_12"
     transform="translate(-1.6562495,-60.08)">
    <path
       d="M 45,250.74 H 324"
       style="fill:none;stroke:#000000;stroke-width:0.8;stroke-linecap:square;stroke-linejoin:miter"
       id="path614" />
  </g>
  <g
     id="line2d_42"
     transform="translate(-1.6562495,-60.08)" />
  <g
     id="line2d_44"
     transform="translate(-1.6562495,-60.08)" />
  <g
     id="g2476"
     transform="translate(179.27672,132.75)">
    <g
       id="patch_13"
       transform="matrix(1.0880393,0,0,1,-6.0582149,-60.08)">
      <path
         d="m 52,288.09625 h 78.5625 q 2,0 2,-2 V 257.74 q 0,-2 -2,-2 H 52 q -2,0 -2,2 v 28.35625 q 0,2 2,2 z"
         style="opacity:0.8;fill:#ffffff;stroke:#cccccc;stroke-linejoin:miter"
         id="path617" />
    </g>
    <g
       id="line2d_41"
       transform="translate(-1.6562495,-60.08)">
      <path
         d="M 54,263.83844 H 74"
         style="fill:none;stroke:#ff0000;stroke-width:1.5;stroke-linecap:square"
         id="path620" />
    </g>
    <text
       xml:space="preserve"
       id="text2454"
       style="font-style:normal;font-weight:normal;font-size:10px;line-height:1.25;font-family:sans-serif;letter-spacing:0px;word-spacing:0px;white-space:pre;shape-inside:url(#rect2456);fill:#000000;fill-opacity:1;stroke:none;"
       transform="translate(208.45098,-73.561543)"><tspan
         x="-127.6875"
         y="280.8108"><tspan
           style="font-size:10px;stroke-linecap:butt;stroke-linejoin:round">Observado</tspan></tspan></text>
    <g
       id="line2d_43"
       transform="translate(-1.6562495,-60.08)">
      <path
         d="M 54,278.51656 H 74"
         style="fill:none;stroke:#ff0000;stroke-width:1.5;stroke-linecap:square;stroke-opacity:0.5"
         id="path646" />
    </g>
    <g
       id="text_27"
       transform="translate(-1.6562495,-60.08)">
      <!-- Real -->
      <g
         transform="matrix(0.1,0,0,-0.1,82,282.01656)"
         id="g658">
        <path
           d="m 44.390625,34.1875 q 3.171875,-1.078125 6.171875,-4.59375 3,-3.515625 6.03125,-9.671875 L 66.609375,0 H 56 l -9.3125,18.703125 q -3.625,7.328125 -7.015625,9.71875 -3.390625,2.390625 -9.25,2.390625 h -10.75 V 0 H 9.8125 v 72.90625 h 22.265625 q 12.5,0 18.65625,-5.234375 6.15625,-5.21875 6.15625,-15.765625 0,-6.890625 -3.203125,-11.4375 -3.203125,-4.53125 -9.296875,-6.28125 z m -24.71875,30.609375 v -25.875 h 12.40625 q 7.125,0 10.765625,3.296875 3.640625,3.296875 3.640625,9.6875 0,6.390625 -3.640625,9.640625 -3.640625,3.25 -10.765625,3.25 z"
           id="use650" />
        <use
           x="69.419922"
           xlink:href="#DejaVuSans-101"
           id="use652"
           y="0"
           width="100%"
           height="100%" />
        <use
           x="130.94336"
           xlink:href="#DejaVuSans-97"
           id="use654"
           y="0"
           width="100%"
           height="100%" />
        <use
           x="192.22266"
           xlink:href="#DejaVuSans-108"
           id="use656"
           y="0"
           width="100%"
           height="100%" />
      </g>
    </g>
  </g>
  <defs
     id="defs670">
    <clipPath
       id="p37d97c7def">
      <rect
         height="190.25999"
         width="279"
         x="45"
         y="60.48"
         id="rect664" />
    </clipPath>
    <clipPath
       id="p464825d812">
      <rect
         height="190.25999"
         width="279"
         x="45"
         y="250.74001"
         id="rect667" />
    </clipPath>
  </defs>
  <text
     xml:space="preserve"
     id="text2448"
     style="font-style:normal;font-weight:normal;font-size:10px;line-height:1.25;font-family:sans-serif;letter-spacing:0px;word-spacing:0px;white-space:pre;shape-inside:url(#rect2450);fill:#000000;fill-opacity:1;stroke:none;"
     transform="translate(-0.90175481,-60.196724)"><tspan
       x="216"
       y="138.4983"><tspan
         style="font-size:10px;stroke-linecap:butt;stroke-linejoin:round">Obs.</tspan></tspan></text>
</svg>
