<?xml version="1.0" encoding="UTF-8" standalone="no"?>
<svg
   xmlns:dc="http://purl.org/dc/elements/1.1/"
   xmlns:cc="http://creativecommons.org/ns#"
   xmlns:rdf="http://www.w3.org/1999/02/22-rdf-syntax-ns#"
   xmlns:svg="http://www.w3.org/2000/svg"
   xmlns="http://www.w3.org/2000/svg"
   xmlns:xlink="http://www.w3.org/1999/xlink"
   xmlns:sodipodi="http://sodipodi.sourceforge.net/DTD/sodipodi-0.dtd"
   xmlns:inkscape="http://www.inkscape.org/namespaces/inkscape"
   height="218.17999pt"
   version="1.1"
   viewBox="0 0 441.60046 218.17999"
   width="441.60046pt"
   id="svg663"
   sodipodi:docname="sim_analysis.svg"
   inkscape:version="1.0.1 (3bc2e813f5, 2020-09-07)">
  <metadata
     id="metadata667">
    <rdf:RDF>
      <cc:Work
         rdf:about="">
        <dc:format>image/svg+xml</dc:format>
        <dc:type
           rdf:resource="http://purl.org/dc/dcmitype/StillImage" />
        <dc:title></dc:title>
      </cc:Work>
    </rdf:RDF>
  </metadata>
  <sodipodi:namedview
     pagecolor="#ffffff"
     bordercolor="#666666"
     borderopacity="1"
     objecttolerance="10"
     gridtolerance="10"
     guidetolerance="10"
     inkscape:pageopacity="0"
     inkscape:pageshadow="2"
     inkscape:window-width="1825"
     inkscape:window-height="1046"
     id="namedview665"
     showgrid="false"
     inkscape:zoom="1.6221183"
     inkscape:cx="281.59338"
     inkscape:cy="155.60172"
     inkscape:window-x="-11"
     inkscape:window-y="-11"
     inkscape:window-maximized="1"
     inkscape:current-layer="svg663" />
  <defs
     id="defs4">
    <rect
       x="105.88007"
       y="258.92068"
       width="109.57894"
       height="19.881411"
       id="rect2712" />
    <rect
       x="130.38506"
       y="-21.268486"
       width="172.92204"
       height="23.11792"
       id="rect2626" />
    <rect
       x="0"
       y="-18.956694"
       width="92.934036"
       height="12.483676"
       id="rect2620" />
    <rect
       x="77.676208"
       y="69.816116"
       width="73.977341"
       height="11.55896"
       id="rect2614" />
    <rect
       x="75.364418"
       y="50.397064"
       width="61.493664"
       height="12.946035"
       id="rect2608" />
    <style
       type="text/css"
       id="style2">
*{stroke-linecap:butt;stroke-linejoin:round;}
  </style>
  </defs>
  <g
     id="patch_2"
     transform="translate(-10.078124,-10.76)">
    <path
       d="M 44.75,107.36 H 447.12 V 11.16 H 44.75 Z"
       style="fill:#ffffff"
       id="path9" />
  </g>
  <g
     id="PathCollection_1"
     transform="translate(-10.078124,-10.76)">
    <defs
       id="defs13">
      <path
         d="m 0,-5 -1.12257,3.454915 H -4.755283 L -1.816356,0.59017 -2.938926,4.045085 0,1.90983 2.938926,4.045085 1.816356,0.59017 4.755283,-1.545085 H 1.12257 Z"
         id="m8ba5f81d31"
         style="stroke:#000000" />
    </defs>
    <g
       clip-path="url(#p2fa6604139)"
       id="g17">
      <use
         style="fill:#0000ff;stroke:#000000"
         x="224.13995"
         xlink:href="#m8ba5f81d31"
         y="58.23748"
         id="use15"
         width="100%"
         height="100%" />
    </g>
  </g>
  <g
     id="PathCollection_2"
     transform="translate(-10.078124,-10.76)">
    <defs
       id="defs21">
      <path
         d="m 0,-5 -1.12257,3.454915 H -4.755283 L -1.816356,0.59017 -2.938926,4.045085 0,1.90983 2.938926,4.045085 1.816356,0.59017 4.755283,-1.545085 H 1.12257 Z"
         id="me606a49c79"
         style="stroke:#000000" />
    </defs>
    <g
       clip-path="url(#p2fa6604139)"
       id="g25">
      <use
         style="fill:#ff0000;stroke:#000000"
         x="269.40659"
         xlink:href="#me606a49c79"
         y="59.087376"
         id="use23"
         width="100%"
         height="100%" />
    </g>
  </g>
  <g
     id="matplotlib.axis_1"
     transform="translate(-10.078124,-10.76)">
    <g
       id="xtick_1">
      <g
         id="line2d_1">
        <defs
           id="defs29">
          <path
             d="M 0,0 V 3.5"
             id="mc0397016fb"
             style="stroke:#000000;stroke-width:0.8" />
        </defs>
        <g
           id="g33">
          <use
             style="stroke:#000000;stroke-width:0.8"
             x="44.75"
             xlink:href="#mc0397016fb"
             y="107.36"
             id="use31"
             width="100%"
             height="100%" />
        </g>
      </g>
    </g>
    <g
       id="xtick_2">
      <g
         id="line2d_2">
        <g
           id="g39">
          <use
             style="stroke:#000000;stroke-width:0.8"
             x="95.046249"
             xlink:href="#mc0397016fb"
             y="107.36"
             id="use37"
             width="100%"
             height="100%" />
        </g>
      </g>
    </g>
    <g
       id="xtick_3">
      <g
         id="line2d_3">
        <g
           id="g45">
          <use
             style="stroke:#000000;stroke-width:0.8"
             x="145.3425"
             xlink:href="#mc0397016fb"
             y="107.36"
             id="use43"
             width="100%"
             height="100%" />
        </g>
      </g>
    </g>
    <g
       id="xtick_4">
      <g
         id="line2d_4">
        <g
           id="g51">
          <use
             style="stroke:#000000;stroke-width:0.8"
             x="195.63875"
             xlink:href="#mc0397016fb"
             y="107.36"
             id="use49"
             width="100%"
             height="100%" />
        </g>
      </g>
    </g>
    <g
       id="xtick_5">
      <g
         id="line2d_5">
        <g
           id="g57">
          <use
             style="stroke:#000000;stroke-width:0.8"
             x="245.935"
             xlink:href="#mc0397016fb"
             y="107.36"
             id="use55"
             width="100%"
             height="100%" />
        </g>
      </g>
    </g>
    <g
       id="xtick_6">
      <g
         id="line2d_6">
        <g
           id="g63">
          <use
             style="stroke:#000000;stroke-width:0.8"
             x="296.23126"
             xlink:href="#mc0397016fb"
             y="107.36"
             id="use61"
             width="100%"
             height="100%" />
        </g>
      </g>
    </g>
    <g
       id="xtick_7">
      <g
         id="line2d_7">
        <g
           id="g69">
          <use
             style="stroke:#000000;stroke-width:0.8"
             x="346.5275"
             xlink:href="#mc0397016fb"
             y="107.36"
             id="use67"
             width="100%"
             height="100%" />
        </g>
      </g>
    </g>
    <g
       id="xtick_8">
      <g
         id="line2d_8">
        <g
           id="g75">
          <use
             style="stroke:#000000;stroke-width:0.8"
             x="396.82376"
             xlink:href="#mc0397016fb"
             y="107.36"
             id="use73"
             width="100%"
             height="100%" />
        </g>
      </g>
    </g>
    <g
       id="xtick_9">
      <g
         id="line2d_9">
        <g
           id="g81">
          <use
             style="stroke:#000000;stroke-width:0.8"
             x="447.12"
             xlink:href="#mc0397016fb"
             y="107.36"
             id="use79"
             width="100%"
             height="100%" />
        </g>
      </g>
    </g>
  </g>
  <g
     id="ytick_1"
     transform="translate(-10.078124,-10.76)">
    <g
       id="line2d_10">
      <defs
         id="defs87">
        <path
           d="M 0,0 H -3.5"
           id="mdd26cab55a"
           style="stroke:#000000;stroke-width:0.8" />
      </defs>
      <g
         id="g91">
        <use
           style="stroke:#000000;stroke-width:0.8"
           x="44.75"
           xlink:href="#mdd26cab55a"
           y="102.98727"
           id="use89"
           width="100%"
           height="100%" />
      </g>
    </g>
    <g
       id="text_1">
      <!-- 0.23 -->
      <defs
         id="defs98">
        <path
           d="m 31.78125,66.40625 q -7.609375,0 -11.453125,-7.5 Q 16.5,51.421875 16.5,36.375 q 0,-14.984375 3.828125,-22.484375 3.84375,-7.5 11.453125,-7.5 7.671875,0 11.5,7.5 3.84375,7.5 3.84375,22.484375 0,15.046875 -3.84375,22.53125 -3.828125,7.5 -11.5,7.5 z m 0,7.8125 q 12.265625,0 18.734375,-9.703125 6.46875,-9.6875 6.46875,-28.140625 0,-18.40625 -6.46875,-28.109375 -6.46875,-9.6875 -18.734375,-9.6875 -12.25,0 -18.71875,9.6875 Q 6.59375,17.96875 6.59375,36.375 q 0,18.453125 6.46875,28.140625 6.46875,9.703125 18.71875,9.703125 z"
           id="DejaVuSans-30" />
        <path
           d="M 10.6875,12.40625 H 21 V 0 H 10.6875 Z"
           id="DejaVuSans-2e" />
        <path
           d="M 19.1875,8.296875 H 53.609375 V 0 H 7.328125 v 8.296875 q 5.609375,5.8125 15.296875,15.59375 9.703125,9.796875 12.1875,12.640625 4.734375,5.3125 6.609375,9 1.890625,3.6875 1.890625,7.25 0,5.8125 -4.078125,9.46875 -4.078125,3.671875 -10.625,3.671875 -4.640625,0 -9.796875,-1.609375 -5.140625,-1.609375 -11,-4.890625 v 9.96875 Q 13.765625,71.78125 18.9375,73 q 5.1875,1.21875 9.484375,1.21875 11.328125,0 18.0625,-5.671875 6.734375,-5.65625 6.734375,-15.125 0,-4.5 -1.6875,-8.53125 Q 49.859375,40.875 45.40625,35.40625 44.1875,33.984375 37.640625,27.21875 31.109375,20.453125 19.1875,8.296875 Z"
           id="DejaVuSans-32" />
        <path
           d="M 40.578125,39.3125 Q 47.65625,37.796875 51.625,33 q 3.984375,-4.78125 3.984375,-11.8125 0,-10.78125 -7.421875,-16.703125 -7.421875,-5.90625 -21.09375,-5.90625 -4.578125,0 -9.4375,0.90625 -4.859375,0.90625 -10.03125,2.71875 v 9.515625 q 4.09375,-2.390625 8.96875,-3.609375 4.890625,-1.21875 10.21875,-1.21875 9.265625,0 14.125,3.65625 4.859375,3.65625 4.859375,10.640625 0,6.453125 -4.515625,10.078125 -4.515625,3.640625 -12.5625,3.640625 h -8.5 v 8.109375 h 8.890625 q 7.265625,0 11.125,2.90625 3.859375,2.90625 3.859375,8.375 0,5.609375 -3.984375,8.609375 -3.96875,3.015625 -11.390625,3.015625 -4.0625,0 -8.703125,-0.890625 Q 15.375,64.15625 9.8125,62.3125 v 8.78125 q 5.625,1.5625 10.53125,2.34375 4.90625,0.78125 9.25,0.78125 11.234375,0 17.765625,-5.109375 6.546875,-5.09375 6.546875,-13.78125 0,-6.0625 -3.46875,-10.234375 -3.46875,-4.171875 -9.859375,-5.78125 z"
           id="DejaVuSans-33" />
      </defs>
      <g
         transform="matrix(0.08,0,0,-0.08,19.9375,106.02665)"
         id="g108">
        <use
           xlink:href="#DejaVuSans-30"
           id="use100"
           x="0"
           y="0"
           width="100%"
           height="100%" />
        <use
           x="63.623047"
           xlink:href="#DejaVuSans-2e"
           id="use102"
           y="0"
           width="100%"
           height="100%" />
        <use
           x="95.410156"
           xlink:href="#DejaVuSans-32"
           id="use104"
           y="0"
           width="100%"
           height="100%" />
        <use
           x="159.0332"
           xlink:href="#DejaVuSans-33"
           id="use106"
           y="0"
           width="100%"
           height="100%" />
      </g>
    </g>
  </g>
  <g
     id="ytick_2"
     transform="translate(-10.078124,-10.76)">
    <g
       id="line2d_11">
      <g
         id="g114">
        <use
           style="stroke:#000000;stroke-width:0.8"
           x="44.75"
           xlink:href="#mdd26cab55a"
           y="85.496361"
           id="use112"
           width="100%"
           height="100%" />
      </g>
    </g>
    <g
       id="text_2">
      <!-- 0.24 -->
      <defs
         id="defs118">
        <path
           d="M 37.796875,64.3125 12.890625,25.390625 h 24.90625 z m -2.59375,8.59375 h 12.40625 V 25.390625 h 10.40625 V 17.1875 H 47.609375 V 0 h -9.8125 V 17.1875 H 4.890625 v 9.515625 z"
           id="DejaVuSans-34" />
      </defs>
      <g
         transform="matrix(0.08,0,0,-0.08,19.9375,88.535739)"
         id="g128">
        <use
           xlink:href="#DejaVuSans-30"
           id="use120"
           x="0"
           y="0"
           width="100%"
           height="100%" />
        <use
           x="63.623047"
           xlink:href="#DejaVuSans-2e"
           id="use122"
           y="0"
           width="100%"
           height="100%" />
        <use
           x="95.410156"
           xlink:href="#DejaVuSans-32"
           id="use124"
           y="0"
           width="100%"
           height="100%" />
        <use
           x="159.0332"
           xlink:href="#DejaVuSans-34"
           id="use126"
           y="0"
           width="100%"
           height="100%" />
      </g>
    </g>
  </g>
  <g
     id="ytick_3"
     transform="translate(-10.078124,-10.76)">
    <g
       id="line2d_12">
      <g
         id="g134">
        <use
           style="stroke:#000000;stroke-width:0.8"
           x="44.75"
           xlink:href="#mdd26cab55a"
           y="68.005455"
           id="use132"
           width="100%"
           height="100%" />
      </g>
    </g>
    <g
       id="text_3">
      <!-- 0.25 -->
      <defs
         id="defs138">
        <path
           d="m 10.796875,72.90625 h 38.71875 v -8.3125 h -29.6875 V 46.734375 q 2.140625,0.734375 4.28125,1.09375 2.15625,0.359375 4.3125,0.359375 Q 40.625,48.1875 47.75,41.5 54.890625,34.8125 54.890625,23.390625 54.890625,11.625 47.5625,5.09375 40.234375,-1.421875 26.90625,-1.421875 q -4.59375,0 -9.359375,0.78125 -4.75,0.78125 -9.828125,2.34375 V 11.625 q 4.390625,-2.390625 9.078125,-3.5625 4.6875,-1.171875 9.90625,-1.171875 8.453125,0 13.375,4.4375 4.9375,4.4375 4.9375,12.0625 0,7.609375 -4.9375,12.046875 -4.921875,4.453125 -13.375,4.453125 -3.953125,0 -7.890625,-0.875 -3.921875,-0.875 -8.015625,-2.734375 z"
           id="DejaVuSans-35" />
      </defs>
      <g
         transform="matrix(0.08,0,0,-0.08,19.9375,71.04483)"
         id="g148">
        <use
           xlink:href="#DejaVuSans-30"
           id="use140"
           x="0"
           y="0"
           width="100%"
           height="100%" />
        <use
           x="63.623047"
           xlink:href="#DejaVuSans-2e"
           id="use142"
           y="0"
           width="100%"
           height="100%" />
        <use
           x="95.410156"
           xlink:href="#DejaVuSans-32"
           id="use144"
           y="0"
           width="100%"
           height="100%" />
        <use
           x="159.0332"
           xlink:href="#DejaVuSans-35"
           id="use146"
           y="0"
           width="100%"
           height="100%" />
      </g>
    </g>
  </g>
  <g
     id="ytick_4"
     transform="translate(-10.078124,-10.76)">
    <g
       id="line2d_13">
      <g
         id="g154">
        <use
           style="stroke:#000000;stroke-width:0.8"
           x="44.75"
           xlink:href="#mdd26cab55a"
           y="50.514545"
           id="use152"
           width="100%"
           height="100%" />
      </g>
    </g>
    <g
       id="text_4">
      <!-- 0.26 -->
      <defs
         id="defs158">
        <path
           d="m 33.015625,40.375 q -6.640625,0 -10.53125,-4.546875 -3.875,-4.53125 -3.875,-12.4375 0,-7.859375 3.875,-12.4375 3.890625,-4.5625 10.53125,-4.5625 6.640625,0 10.515625,4.5625 3.875,4.578125 3.875,12.4375 0,7.90625 -3.875,12.4375 Q 39.65625,40.375 33.015625,40.375 Z M 52.59375,71.296875 V 62.3125 q -3.71875,1.75 -7.5,2.671875 -3.78125,0.9375 -7.5,0.9375 -9.765625,0 -14.921875,-6.59375 -5.140625,-6.59375 -5.875,-19.921875 2.875,4.25 7.21875,6.515625 4.359375,2.265625 9.578125,2.265625 10.984375,0 17.359375,-6.671875 6.375,-6.65625 6.375,-18.125 0,-11.234375 -6.640625,-18.03125 -6.640625,-6.78125 -17.671875,-6.78125 -12.65625,0 -19.34375,9.6875 -6.6875,9.703125 -6.6875,28.109375 0,17.28125 8.203125,27.5625 8.203125,10.28125 22.015625,10.28125 3.71875,0 7.5,-0.734375 3.78125,-0.734375 7.890625,-2.1875 z"
           id="DejaVuSans-36" />
      </defs>
      <g
         transform="matrix(0.08,0,0,-0.08,19.9375,53.55392)"
         id="g168">
        <use
           xlink:href="#DejaVuSans-30"
           id="use160"
           x="0"
           y="0"
           width="100%"
           height="100%" />
        <use
           x="63.623047"
           xlink:href="#DejaVuSans-2e"
           id="use162"
           y="0"
           width="100%"
           height="100%" />
        <use
           x="95.410156"
           xlink:href="#DejaVuSans-32"
           id="use164"
           y="0"
           width="100%"
           height="100%" />
        <use
           x="159.0332"
           xlink:href="#DejaVuSans-36"
           id="use166"
           y="0"
           width="100%"
           height="100%" />
      </g>
    </g>
  </g>
  <g
     id="ytick_5"
     transform="translate(-10.078124,-10.76)">
    <g
       id="line2d_14">
      <g
         id="g174">
        <use
           style="stroke:#000000;stroke-width:0.8"
           x="44.75"
           xlink:href="#mdd26cab55a"
           y="33.023636"
           id="use172"
           width="100%"
           height="100%" />
      </g>
    </g>
    <g
       id="text_5">
      <!-- 0.27 -->
      <defs
         id="defs178">
        <path
           d="m 8.203125,72.90625 h 46.875 V 68.703125 L 28.609375,0 H 18.3125 L 43.21875,64.59375 H 8.203125 Z"
           id="DejaVuSans-37" />
      </defs>
      <g
         transform="matrix(0.08,0,0,-0.08,19.9375,36.063011)"
         id="g188">
        <use
           xlink:href="#DejaVuSans-30"
           id="use180"
           x="0"
           y="0"
           width="100%"
           height="100%" />
        <use
           x="63.623047"
           xlink:href="#DejaVuSans-2e"
           id="use182"
           y="0"
           width="100%"
           height="100%" />
        <use
           x="95.410156"
           xlink:href="#DejaVuSans-32"
           id="use184"
           y="0"
           width="100%"
           height="100%" />
        <use
           x="159.0332"
           xlink:href="#DejaVuSans-37"
           id="use186"
           y="0"
           width="100%"
           height="100%" />
      </g>
    </g>
  </g>
  <g
     id="ytick_6"
     transform="translate(-10.078124,-10.76)">
    <g
       id="line2d_15">
      <g
         id="g194">
        <use
           style="stroke:#000000;stroke-width:0.8"
           x="44.75"
           xlink:href="#mdd26cab55a"
           y="15.532727"
           id="use192"
           width="100%"
           height="100%" />
      </g>
    </g>
    <g
       id="text_6">
      <!-- 0.28 -->
      <defs
         id="defs198">
        <path
           d="m 31.78125,34.625 q -7.03125,0 -11.0625,-3.765625 -4.015625,-3.765625 -4.015625,-10.34375 0,-6.59375 4.015625,-10.359375 4.03125,-3.765625 11.0625,-3.765625 7.03125,0 11.078125,3.78125 4.0625,3.796875 4.0625,10.34375 0,6.578125 -4.03125,10.34375 Q 38.875,34.625 31.78125,34.625 Z m -9.859375,4.1875 Q 15.578125,40.375 12.03125,44.71875 8.5,49.078125 8.5,55.328125 q 0,8.734375 6.21875,13.8125 6.234375,5.078125 17.0625,5.078125 10.890625,0 17.09375,-5.078125 6.203125,-5.078125 6.203125,-13.8125 0,-6.25 -3.546875,-10.609375 Q 48,40.375 41.703125,38.8125 q 7.125,-1.65625 11.09375,-6.5 3.984375,-4.828125 3.984375,-11.796875 0,-10.609375 -6.46875,-16.28125 -6.46875,-5.65625 -18.53125,-5.65625 -12.046875,0 -18.53125,5.65625 -6.46875,5.671875 -6.46875,16.28125 0,6.96875 4,11.796875 4.015625,4.84375 11.140625,6.5 z M 18.3125,54.390625 q 0,-5.65625 3.53125,-8.828125 3.546875,-3.171875 9.9375,-3.171875 6.359375,0 9.9375,3.171875 3.59375,3.171875 3.59375,8.828125 0,5.671875 -3.59375,8.84375 -3.578125,3.171875 -9.9375,3.171875 -6.390625,0 -9.9375,-3.171875 Q 18.3125,60.0625 18.3125,54.390625 Z"
           id="DejaVuSans-38" />
      </defs>
      <g
         transform="matrix(0.08,0,0,-0.08,19.9375,18.572102)"
         id="g208">
        <use
           xlink:href="#DejaVuSans-30"
           id="use200"
           x="0"
           y="0"
           width="100%"
           height="100%" />
        <use
           x="63.623047"
           xlink:href="#DejaVuSans-2e"
           id="use202"
           y="0"
           width="100%"
           height="100%" />
        <use
           x="95.410156"
           xlink:href="#DejaVuSans-32"
           id="use204"
           y="0"
           width="100%"
           height="100%" />
        <use
           x="159.0332"
           xlink:href="#DejaVuSans-38"
           id="use206"
           y="0"
           width="100%"
           height="100%" />
      </g>
    </g>
  </g>
  <g
     id="line2d_16"
     transform="translate(-10.078124,-10.76)">
    <path
       clip-path="url(#p2fa6604139)"
       d="m 35.529021,102.98727 8.476896,-6e-5 8.476896,-7.6e-4 8.476896,-0.002 8.476896,-0.005 8.476896,-0.009 8.476896,-0.0135 8.476896,-0.0191 8.476897,-0.0257 8.47689,-0.0332 8.4769,-0.0418 8.4769,-0.0515 8.47689,-0.0621 8.4769,-0.0738 8.4769,-0.0863 8.47689,-0.0997 8.4769,-0.11385 8.47689,-0.12856 8.4769,-0.14488 8.4769,-0.18297 8.47689,-1.05853 8.4769,-11.424533 8.47689,-24.248861 8.4769,-26.131811 8.4769,-15.886183 8.47689,-5.517753 8.4769,-1.462693 8.47689,-0.402784 8.4769,-0.130771 8.4769,-0.05053 8.47689,-0.02241 8.4769,-0.01092 8.47689,-0.0056 8.4769,-0.003 8.4769,-0.0016 8.47689,-9.02e-4 8.4769,-4.99e-4 8.47689,-2.77e-4 8.4769,-1.54e-4 8.4769,-8.5e-5 8.47689,-4.8e-5 8.4769,-2.6e-5 8.4769,-1.5e-5 8.47689,-8e-6 8.4769,-5e-6 8.47689,-3e-6 8.4769,-10e-7 8.4769,-1e-6 h 8.47689 8.4769 l 8.47689,-10e-7 H 461.8"
       style="fill:none;stroke:#0000ff;stroke-width:1.5;stroke-linecap:square"
       id="path247" />
  </g>
  <g
     id="line2d_17"
     transform="translate(-10.078124,-10.76)">
    <path
       clip-path="url(#p2fa6604139)"
       d="M 220.78687,107.36 V 11.16"
       style="opacity:0.6;fill:none;stroke:#000000;stroke-width:2;stroke-dasharray:7.4, 3.2;stroke-dashoffset:0"
       id="path250" />
  </g>
  <g
     id="line2d_18"
     transform="translate(-10.078124,-10.76)">
    <path
       clip-path="url(#p2fa6604139)"
       d="m -1,102.98727 h 0.860126 8.476896 8.476896 8.476896 8.476896 8.476896 8.476896 8.476896 8.476896 8.476897 8.476896 8.476896 8.476897 8.4769 8.47689 8.4769 l 8.47689,-10e-6 8.4769,-4e-5 8.47689,-1.1e-4 8.4769,-3.6e-4 8.4769,-0.001 8.47689,-0.005 8.4769,-0.0215 8.47689,-0.11169 8.4769,-0.45722 8.4769,-2.916292 8.47689,-6.328295 8.4769,-6.923215 8.4769,-6.606413 8.47689,-6.108778 8.4769,-5.59141 8.47689,-5.096112 8.4769,-4.63402 8.4769,-4.207144 8.47689,-3.81468 8.4769,-3.45493 8.47689,-3.125923 8.4769,-2.825617 8.4769,-2.551996 8.47689,-2.303082 8.4769,-2.076979 8.47689,-1.871871 8.4769,-1.686043 8.4769,-1.51788 8.47689,-1.365825 8.4769,-1.22837 8.47689,-1.104264 8.4769,-0.992359 8.4769,-0.891526 8.47689,-0.800716 8.4769,-0.718972 8.47689,-0.645423 8.4769,-0.579276 8.4769,-0.519808 8.47689,-0.466365 4.18749,-0.206661"
       style="fill:none;stroke:#ff0000;stroke-width:1.5;stroke-linecap:square"
       id="path253" />
  </g>
  <g
     id="line2d_19"
     transform="translate(-10.078124,-10.76)">
    <path
       clip-path="url(#p2fa6604139)"
       d="M 220.78687,107.36 V 11.16"
       style="opacity:0.6;fill:none;stroke:#000000;stroke-width:2;stroke-dasharray:7.4, 3.2;stroke-dashoffset:0"
       id="path256" />
  </g>
  <g
     id="patch_3"
     transform="translate(-10.078124,-10.76)">
    <path
       d="M 44.75,107.36 V 11.16"
       style="fill:none;stroke:#000000;stroke-width:0.8;stroke-linecap:square;stroke-linejoin:miter"
       id="path259" />
  </g>
  <g
     id="patch_4"
     transform="translate(-10.078124,-10.76)">
    <path
       d="M 447.12,107.36 V 11.16"
       style="fill:none;stroke:#000000;stroke-width:0.8;stroke-linecap:square;stroke-linejoin:miter"
       id="path262" />
  </g>
  <g
     id="patch_5"
     transform="translate(-10.078124,-10.76)">
    <path
       d="M 44.75,107.36 H 447.12"
       style="fill:none;stroke:#000000;stroke-width:0.8;stroke-linecap:square;stroke-linejoin:miter"
       id="path265" />
  </g>
  <g
     id="patch_6"
     transform="translate(-10.078124,-10.76)">
    <path
       d="M 44.75,11.16 H 447.12"
       style="fill:none;stroke:#000000;stroke-width:0.8;stroke-linecap:square;stroke-linejoin:miter"
       id="path268" />
  </g>
  <g
     id="patch_7"
     transform="translate(-10.078124,-10.76)">
    <path
       d="m 50.35,41.045 h 84.395 q 1.6,0 1.6,-1.6 V 16.76 q 0,-1.6 -1.6,-1.6 H 50.35 q -1.6,0 -1.6,1.6 v 22.685 q 0,1.6 1.6,1.6 z"
       style="opacity:0.8;fill:#ffffff;stroke:#cccccc;stroke-linejoin:miter"
       id="path271" />
  </g>
  <g
     id="line2d_20"
     transform="translate(-10.078124,-10.76)">
    <path
       d="m 51.95,21.63875 h 16"
       style="fill:none;stroke:#0000ff;stroke-width:1.5;stroke-linecap:square"
       id="path274" />
  </g>
  <g
     id="line2d_21"
     transform="translate(-10.078124,-10.76)" />
  <g
     id="line2d_22"
     transform="translate(-10.078124,-10.76)">
    <path
       d="m 51.95,33.38125 h 16"
       style="fill:none;stroke:#ff0000;stroke-width:1.5;stroke-linecap:square"
       id="path314" />
  </g>
  <g
     id="line2d_23"
     transform="translate(-10.078124,-10.76)" />
  <g
     id="patch_8"
     transform="translate(-10.078124,-10.76)">
    <path
       d="m 44.75,203.56 h 402.37 v -96.2 H 44.75 Z"
       style="fill:#ffffff"
       id="path358" />
  </g>
  <g
     id="patch_9"
     transform="translate(-10.078124,-10.76)">
    <path
       clip-path="url(#p18fb32588c)"
       d="m 220.78687,119.79966 -7.31027,-3.70879 0.55108,-1.81731 0.7124,0.58732 0.0225,-0.0742 -0.7124,-0.58732 0.55108,-1.8173 z"
       style="stroke:#000000;stroke-linejoin:miter"
       id="path361" />
  </g>
  <g
     id="patch_10"
     transform="translate(-10.078124,-10.76)">
    <path
       clip-path="url(#p18fb32588c)"
       d="m 220.78687,119.79966 -7.31027,-3.70879 0.55108,-1.81731 0.7124,0.58732 0.0225,-0.0742 -0.7124,-0.58732 0.55108,-1.8173 z"
       style="stroke:#000000;stroke-linejoin:miter"
       id="path364" />
  </g>
  <g
     id="xtick_10"
     transform="translate(-10.078124,-10.76)">
    <g
       id="line2d_24">
      <g
         id="g369">
        <use
           style="stroke:#000000;stroke-width:0.8"
           x="44.75"
           xlink:href="#mc0397016fb"
           y="203.56"
           id="use367"
           width="100%"
           height="100%" />
      </g>
    </g>
    <g
       id="text_10">
      <!-- 2 -->
      <g
         transform="matrix(0.08,0,0,-0.08,42.205,216.63875)"
         id="g374">
        <use
           xlink:href="#DejaVuSans-32"
           id="use372"
           x="0"
           y="0"
           width="100%"
           height="100%" />
      </g>
    </g>
  </g>
  <g
     id="xtick_11"
     transform="translate(-10.078124,-10.76)">
    <g
       id="line2d_25">
      <g
         id="g380">
        <use
           style="stroke:#000000;stroke-width:0.8"
           x="95.046249"
           xlink:href="#mc0397016fb"
           y="203.56"
           id="use378"
           width="100%"
           height="100%" />
      </g>
    </g>
    <g
       id="text_11">
      <!-- 3 -->
      <g
         transform="matrix(0.08,0,0,-0.08,92.50125,216.63875)"
         id="g385">
        <use
           xlink:href="#DejaVuSans-33"
           id="use383"
           x="0"
           y="0"
           width="100%"
           height="100%" />
      </g>
    </g>
  </g>
  <g
     id="xtick_12"
     transform="translate(-10.078124,-10.76)">
    <g
       id="line2d_26">
      <g
         id="g391">
        <use
           style="stroke:#000000;stroke-width:0.8"
           x="145.3425"
           xlink:href="#mc0397016fb"
           y="203.56"
           id="use389"
           width="100%"
           height="100%" />
      </g>
    </g>
    <g
       id="text_12">
      <!-- 4 -->
      <g
         transform="matrix(0.08,0,0,-0.08,142.7975,216.63875)"
         id="g396">
        <use
           xlink:href="#DejaVuSans-34"
           id="use394"
           x="0"
           y="0"
           width="100%"
           height="100%" />
      </g>
    </g>
  </g>
  <g
     id="xtick_13"
     transform="translate(-10.078124,-10.76)">
    <g
       id="line2d_27">
      <g
         id="g402">
        <use
           style="stroke:#000000;stroke-width:0.8"
           x="195.63875"
           xlink:href="#mc0397016fb"
           y="203.56"
           id="use400"
           width="100%"
           height="100%" />
      </g>
    </g>
    <g
       id="text_13">
      <!-- 5 -->
      <g
         transform="matrix(0.08,0,0,-0.08,193.09375,216.63875)"
         id="g407">
        <use
           xlink:href="#DejaVuSans-35"
           id="use405"
           x="0"
           y="0"
           width="100%"
           height="100%" />
      </g>
    </g>
  </g>
  <g
     id="xtick_14"
     transform="translate(-10.078124,-10.76)">
    <g
       id="line2d_28">
      <g
         id="g413">
        <use
           style="stroke:#000000;stroke-width:0.8"
           x="245.935"
           xlink:href="#mc0397016fb"
           y="203.56"
           id="use411"
           width="100%"
           height="100%" />
      </g>
    </g>
    <g
       id="text_14">
      <!-- 6 -->
      <g
         transform="matrix(0.08,0,0,-0.08,243.39,216.63875)"
         id="g418">
        <use
           xlink:href="#DejaVuSans-36"
           id="use416"
           x="0"
           y="0"
           width="100%"
           height="100%" />
      </g>
    </g>
  </g>
  <g
     id="xtick_15"
     transform="translate(-10.078124,-10.76)">
    <g
       id="line2d_29">
      <g
         id="g424">
        <use
           style="stroke:#000000;stroke-width:0.8"
           x="296.23126"
           xlink:href="#mc0397016fb"
           y="203.56"
           id="use422"
           width="100%"
           height="100%" />
      </g>
    </g>
    <g
       id="text_15">
      <!-- 7 -->
      <g
         transform="matrix(0.08,0,0,-0.08,293.68625,216.63875)"
         id="g429">
        <use
           xlink:href="#DejaVuSans-37"
           id="use427"
           x="0"
           y="0"
           width="100%"
           height="100%" />
      </g>
    </g>
  </g>
  <g
     id="xtick_16"
     transform="translate(-10.078124,-10.76)">
    <g
       id="line2d_30">
      <g
         id="g435">
        <use
           style="stroke:#000000;stroke-width:0.8"
           x="346.5275"
           xlink:href="#mc0397016fb"
           y="203.56"
           id="use433"
           width="100%"
           height="100%" />
      </g>
    </g>
    <g
       id="text_16">
      <!-- 8 -->
      <g
         transform="matrix(0.08,0,0,-0.08,343.9825,216.63875)"
         id="g440">
        <use
           xlink:href="#DejaVuSans-38"
           id="use438"
           x="0"
           y="0"
           width="100%"
           height="100%" />
      </g>
    </g>
  </g>
  <g
     id="xtick_17"
     transform="translate(-10.078124,-10.76)">
    <g
       id="line2d_31">
      <g
         id="g446">
        <use
           style="stroke:#000000;stroke-width:0.8"
           x="396.82376"
           xlink:href="#mc0397016fb"
           y="203.56"
           id="use444"
           width="100%"
           height="100%" />
      </g>
    </g>
    <g
       id="text_17">
      <!-- 9 -->
      <defs
         id="defs450">
        <path
           d="M 10.984375,1.515625 V 10.5 Q 14.703125,8.734375 18.5,7.8125 q 3.8125,-0.921875 7.484375,-0.921875 9.765625,0 14.90625,6.5625 5.15625,6.5625 5.890625,19.953125 -2.828125,-4.203125 -7.1875,-6.453125 -4.34375,-2.25 -9.609375,-2.25 -10.9375,0 -17.3125,6.609375 -6.375,6.625 -6.375,18.109375 0,11.21875 6.640625,18 6.640625,6.796875 17.671875,6.796875 12.65625,0 19.3125,-9.703125 6.671875,-9.6875 6.671875,-28.140625 0,-17.234375 -8.1875,-27.515625 -8.171875,-10.28125 -21.984375,-10.28125 -3.71875,0 -7.53125,0.734375 -3.796875,0.734375 -7.90625,2.203125 z m 19.625,30.90625 q 6.640625,0 10.515625,4.53125 3.890625,4.546875 3.890625,12.46875 0,7.859375 -3.890625,12.421875 -3.875,4.5625 -10.515625,4.5625 -6.640625,0 -10.515625,-4.5625 -3.875,-4.5625 -3.875,-12.421875 0,-7.921875 3.875,-12.46875 3.875,-4.53125 10.515625,-4.53125 z"
           id="DejaVuSans-39" />
      </defs>
      <g
         transform="matrix(0.08,0,0,-0.08,394.27875,216.63875)"
         id="g454">
        <use
           xlink:href="#DejaVuSans-39"
           id="use452"
           x="0"
           y="0"
           width="100%"
           height="100%" />
      </g>
    </g>
  </g>
  <g
     id="xtick_18"
     transform="translate(-10.078124,-10.76)">
    <g
       id="line2d_32">
      <g
         id="g460">
        <use
           style="stroke:#000000;stroke-width:0.8"
           x="447.12"
           xlink:href="#mc0397016fb"
           y="203.56"
           id="use458"
           width="100%"
           height="100%" />
      </g>
    </g>
    <g
       id="text_18">
      <!-- 10 -->
      <defs
         id="defs464">
        <path
           d="m 12.40625,8.296875 h 16.109375 v 55.625 L 10.984375,60.40625 v 8.984375 l 17.4375,3.515625 H 38.28125 V 8.296875 H 54.390625 V 0 H 12.40625 Z"
           id="DejaVuSans-31" />
      </defs>
      <g
         transform="matrix(0.08,0,0,-0.08,442.03,216.63875)"
         id="g470">
        <use
           xlink:href="#DejaVuSans-31"
           id="use466"
           x="0"
           y="0"
           width="100%"
           height="100%" />
        <use
           x="63.623047"
           xlink:href="#DejaVuSans-30"
           id="use468"
           y="0"
           width="100%"
           height="100%" />
      </g>
    </g>
  </g>
  <g
     id="ytick_7"
     transform="translate(-10.078124,-10.76)">
    <g
       id="line2d_33">
      <g
         id="g502">
        <use
           style="stroke:#000000;stroke-width:0.8"
           x="44.75"
           xlink:href="#mdd26cab55a"
           y="202.73068"
           id="use500"
           width="100%"
           height="100%" />
      </g>
    </g>
    <g
       id="text_20">
      <!-- 0.0 -->
      <g
         transform="matrix(0.08,0,0,-0.08,25.0275,205.77006)"
         id="g511">
        <use
           xlink:href="#DejaVuSans-30"
           id="use505"
           x="0"
           y="0"
           width="100%"
           height="100%" />
        <use
           x="63.623047"
           xlink:href="#DejaVuSans-2e"
           id="use507"
           y="0"
           width="100%"
           height="100%" />
        <use
           x="95.410156"
           xlink:href="#DejaVuSans-30"
           id="use509"
           y="0"
           width="100%"
           height="100%" />
      </g>
    </g>
  </g>
  <g
     id="ytick_8"
     transform="translate(-10.078124,-10.76)">
    <g
       id="line2d_34">
      <g
         id="g517">
        <use
           style="stroke:#000000;stroke-width:0.8"
           x="44.75"
           xlink:href="#mdd26cab55a"
           y="186.14449"
           id="use515"
           width="100%"
           height="100%" />
      </g>
    </g>
    <g
       id="text_21">
      <!-- 0.2 -->
      <g
         transform="matrix(0.08,0,0,-0.08,25.0275,189.18386)"
         id="g526">
        <use
           xlink:href="#DejaVuSans-30"
           id="use520"
           x="0"
           y="0"
           width="100%"
           height="100%" />
        <use
           x="63.623047"
           xlink:href="#DejaVuSans-2e"
           id="use522"
           y="0"
           width="100%"
           height="100%" />
        <use
           x="95.410156"
           xlink:href="#DejaVuSans-32"
           id="use524"
           y="0"
           width="100%"
           height="100%" />
      </g>
    </g>
  </g>
  <g
     id="ytick_9"
     transform="translate(-10.078124,-10.76)">
    <g
       id="line2d_35">
      <g
         id="g532">
        <use
           style="stroke:#000000;stroke-width:0.8"
           x="44.75"
           xlink:href="#mdd26cab55a"
           y="169.55827"
           id="use530"
           width="100%"
           height="100%" />
      </g>
    </g>
    <g
       id="text_22">
      <!-- 0.4 -->
      <g
         transform="matrix(0.08,0,0,-0.08,25.0275,172.59765)"
         id="g541">
        <use
           xlink:href="#DejaVuSans-30"
           id="use535"
           x="0"
           y="0"
           width="100%"
           height="100%" />
        <use
           x="63.623047"
           xlink:href="#DejaVuSans-2e"
           id="use537"
           y="0"
           width="100%"
           height="100%" />
        <use
           x="95.410156"
           xlink:href="#DejaVuSans-34"
           id="use539"
           y="0"
           width="100%"
           height="100%" />
      </g>
    </g>
  </g>
  <g
     id="ytick_10"
     transform="translate(-10.078124,-10.76)">
    <g
       id="line2d_36">
      <g
         id="g547">
        <use
           style="stroke:#000000;stroke-width:0.8"
           x="44.75"
           xlink:href="#mdd26cab55a"
           y="152.97208"
           id="use545"
           width="100%"
           height="100%" />
      </g>
    </g>
    <g
       id="text_23">
      <!-- 0.6 -->
      <g
         transform="matrix(0.08,0,0,-0.08,25.0275,156.01144)"
         id="g556">
        <use
           xlink:href="#DejaVuSans-30"
           id="use550"
           x="0"
           y="0"
           width="100%"
           height="100%" />
        <use
           x="63.623047"
           xlink:href="#DejaVuSans-2e"
           id="use552"
           y="0"
           width="100%"
           height="100%" />
        <use
           x="95.410156"
           xlink:href="#DejaVuSans-36"
           id="use554"
           y="0"
           width="100%"
           height="100%" />
      </g>
    </g>
  </g>
  <g
     id="ytick_11"
     transform="translate(-10.078124,-10.76)">
    <g
       id="line2d_37">
      <g
         id="g562">
        <use
           style="stroke:#000000;stroke-width:0.8"
           x="44.75"
           xlink:href="#mdd26cab55a"
           y="136.38586"
           id="use560"
           width="100%"
           height="100%" />
      </g>
    </g>
    <g
       id="text_24">
      <!-- 0.8 -->
      <g
         transform="matrix(0.08,0,0,-0.08,25.0275,139.42524)"
         id="g571">
        <use
           xlink:href="#DejaVuSans-30"
           id="use565"
           x="0"
           y="0"
           width="100%"
           height="100%" />
        <use
           x="63.623047"
           xlink:href="#DejaVuSans-2e"
           id="use567"
           y="0"
           width="100%"
           height="100%" />
        <use
           x="95.410156"
           xlink:href="#DejaVuSans-38"
           id="use569"
           y="0"
           width="100%"
           height="100%" />
      </g>
    </g>
  </g>
  <g
     id="ytick_12"
     transform="translate(-10.078124,-10.76)">
    <g
       id="line2d_38">
      <g
         id="g577">
        <use
           style="stroke:#000000;stroke-width:0.8"
           x="44.75"
           xlink:href="#mdd26cab55a"
           y="119.79965"
           id="use575"
           width="100%"
           height="100%" />
      </g>
    </g>
    <g
       id="text_25">
      <!-- 1.0 -->
      <g
         transform="matrix(0.08,0,0,-0.08,25.0275,122.83903)"
         id="g586">
        <use
           xlink:href="#DejaVuSans-31"
           id="use580"
           x="0"
           y="0"
           width="100%"
           height="100%" />
        <use
           x="63.623047"
           xlink:href="#DejaVuSans-2e"
           id="use582"
           y="0"
           width="100%"
           height="100%" />
        <use
           x="95.410156"
           xlink:href="#DejaVuSans-30"
           id="use584"
           y="0"
           width="100%"
           height="100%" />
      </g>
    </g>
  </g>
  <g
     id="line2d_39"
     transform="translate(-10.078124,-10.76)">
    <path
       clip-path="url(#p18fb32588c)"
       d="m 35.529021,202.73076 8.476896,-9.1e-4 8.476896,-0.004 8.476896,-0.007 8.476896,-0.01 8.476896,-0.0127 8.476896,-0.0156 8.476896,-0.0186 8.476897,-0.0216 8.47689,-0.0247 8.4769,-0.0279 8.4769,-0.031 8.47689,-0.0341 8.4769,-0.0371 8.4769,-0.0398 8.47689,-0.0421 8.4769,-0.0439 8.47689,-0.0421 8.4769,0.12985 8.4769,1.01618 8.47689,-16.77933 8.4769,-40.67452 8.47689,-26.21098 8.4769,15.54721 8.4769,36.22725 8.47689,22.85359 8.4769,6.41426 8.47689,1.32243 8.4769,0.35118 8.4769,0.12109 8.47689,0.0489 8.4769,0.0221 8.47689,0.0108 8.4769,0.006 8.4769,0.003 8.47689,0.002 8.4769,8.9e-4 8.47689,5e-4 8.4769,2.7e-4 8.4769,1.6e-4 8.47689,8e-5 8.4769,5e-5 8.4769,3e-5 8.47689,1e-5 8.4769,1e-5 h 8.47689 l 8.4769,1e-5 h 8.4769 8.47689 8.4769 8.47689 2.42618"
       style="fill:none;stroke:#0000ff;stroke-width:1.5;stroke-linecap:square"
       id="path629" />
  </g>
  <g
     id="line2d_40"
     transform="translate(-10.078124,-10.76)">
    <path
       clip-path="url(#p18fb32588c)"
       d="m 220.78687,203.56 v -96.2"
       style="opacity:0.6;fill:none;stroke:#000000;stroke-width:2;stroke-dasharray:7.4, 3.2;stroke-dashoffset:0"
       id="path632" />
  </g>
  <g
     id="line2d_41"
     transform="translate(-10.078124,-10.76)">
    <path
       clip-path="url(#p18fb32588c)"
       d="m -1,202.73069 h 0.860126 8.476896 8.476896 8.476896 8.476896 8.476896 8.476896 8.476896 8.476896 8.476897 8.476896 8.476896 8.476897 l 8.4769,-1e-5 8.47689,-1e-5 8.4769,-5e-5 8.47689,-1.4e-4 8.4769,-4.3e-4 8.47689,-0.001 8.4769,-0.004 8.4769,-0.0139 8.47689,-0.0502 8.4769,-0.39787 8.47689,-0.5724 8.4769,-16.07056 8.4769,-40.00909 8.47689,-25.81066 8.4769,0.96397 8.4769,5.7573 8.47689,6.26973 8.4769,6.10635 8.47689,5.73625 8.4769,5.31536 8.4769,4.89542 8.47689,4.49298 8.4769,4.11333 8.47689,3.75791 8.4769,3.42689 8.4769,3.1198 8.47689,2.83589 8.4769,2.57421 8.47689,2.33365 8.4769,2.11296 8.4769,1.91117 8.47689,1.72791 8.4769,1.5612 8.47689,1.40857 8.4769,1.26955 8.4769,1.14363 8.47689,1.02968 8.4769,0.92666 8.47689,0.83358 8.4769,0.74954 8.4769,0.67372 8.47689,0.60537 4.18749,0.26863"
       style="fill:none;stroke:#ff0000;stroke-width:1.5;stroke-linecap:square"
       id="path635" />
  </g>
  <g
     id="line2d_42"
     transform="translate(-10.078124,-10.76)">
    <path
       clip-path="url(#p18fb32588c)"
       d="m 220.78687,203.56 v -96.2"
       style="opacity:0.6;fill:none;stroke:#000000;stroke-width:2;stroke-dasharray:7.4, 3.2;stroke-dashoffset:0"
       id="path638" />
  </g>
  <g
     id="patch_11"
     transform="translate(-10.078124,-10.76)">
    <path
       d="m 44.75,203.56 v -96.2"
       style="fill:none;stroke:#000000;stroke-width:0.8;stroke-linecap:square;stroke-linejoin:miter"
       id="path641" />
  </g>
  <g
     id="patch_12"
     transform="translate(-10.078124,-10.76)">
    <path
       d="m 447.12,203.56 v -96.2"
       style="fill:none;stroke:#000000;stroke-width:0.8;stroke-linecap:square;stroke-linejoin:miter"
       id="path644" />
  </g>
  <g
     id="patch_13"
     transform="translate(-10.078124,-10.76)">
    <path
       d="M 44.75,203.56 H 447.12"
       style="fill:none;stroke:#000000;stroke-width:0.8;stroke-linecap:square;stroke-linejoin:miter"
       id="path647" />
  </g>
  <g
     id="patch_14"
     transform="translate(-10.078124,-10.76)">
    <path
       d="M 44.75,107.36 H 447.12"
       style="fill:none;stroke:#000000;stroke-width:0.8;stroke-linecap:square;stroke-linejoin:miter"
       id="path650" />
  </g>
  <defs
     id="defs661">
    <clipPath
       id="p2fa6604139">
      <rect
         height="96.199997"
         width="402.37"
         x="44.75"
         y="11.16"
         id="rect655" />
    </clipPath>
    <clipPath
       id="p18fb32588c">
      <rect
         height="96.199997"
         width="402.37"
         x="44.75"
         y="107.36"
         id="rect658" />
    </clipPath>
  </defs>
  <text
     xml:space="preserve"
     id="text2606"
     style="font-style:normal;font-weight:normal;font-size:8px;line-height:1.25;font-family:sans-serif;letter-spacing:0px;word-spacing:0px;white-space:pre;shape-inside:url(#rect2608);fill:#000000;fill-opacity:1;stroke:none;"
     transform="translate(-10.890546,-44.603486)"><tspan
       x="75.365234"
       y="57.695127"><tspan
         style="stroke-linecap:butt;stroke-linejoin:round">Sigmoidea</tspan></tspan></text>
  <text
     xml:space="preserve"
     id="text2612"
     style="font-style:normal;font-weight:normal;font-size:8px;line-height:1.25;font-family:sans-serif;letter-spacing:0px;word-spacing:0px;white-space:pre;shape-inside:url(#rect2614);fill:#000000;fill-opacity:1;stroke:none;"
     transform="translate(-13.458906,-52.025049)"><tspan
       x="77.675781"
       y="77.115049"><tspan
         style="stroke-linecap:butt;stroke-linejoin:round">Hiperbólica</tspan></tspan></text>
  <text
     xml:space="preserve"
     id="text2618"
     style="font-style:normal;font-weight:normal;font-size:8px;line-height:1.25;font-family:sans-serif;letter-spacing:0px;word-spacing:0px;white-space:pre;shape-inside:url(#rect2620);fill:#000000;fill-opacity:1;stroke:none;"
     transform="rotate(-90,44.494234,26.28897)"><tspan
       x="0"
       y="-11.658389"><tspan
         style="stroke-linecap:butt;stroke-linejoin:round">Anisotropía</tspan></tspan></text>
  <text
     xml:space="preserve"
     id="text2624"
     style="font-style:normal;font-weight:normal;font-size:8px;line-height:1.25;font-family:sans-serif;letter-spacing:0px;word-spacing:0px;white-space:pre;shape-inside:url(#rect2626);fill:#000000;fill-opacity:1;stroke:none;"
     transform="rotate(-90,163.84814,143.5667)"><tspan
       x="130.38477"
       y="-13.968936"><tspan
         style="stroke-linecap:butt;stroke-linejoin:round">Actividad (u. a.)</tspan></tspan></text>
  <text
     xml:space="preserve"
     id="text2710"
     style="font-style:normal;font-weight:normal;font-size:8px;line-height:1.25;font-family:sans-serif;letter-spacing:0px;word-spacing:0px;white-space:pre;shape-inside:url(#rect2712);fill:#000000;fill-opacity:1;stroke:none;"
     transform="translate(106.29633,-49.647939)"><tspan
       x="105.88086"
       y="266.21856"><tspan
         style="stroke-linecap:butt;stroke-linejoin:round">Tiempo (hr)</tspan></tspan></text>
</svg>
