<?xml version="1.0" encoding="UTF-8" standalone="no"?>
<svg
   xmlns:dc="http://purl.org/dc/elements/1.1/"
   xmlns:cc="http://creativecommons.org/ns#"
   xmlns:rdf="http://www.w3.org/1999/02/22-rdf-syntax-ns#"
   xmlns:svg="http://www.w3.org/2000/svg"
   xmlns="http://www.w3.org/2000/svg"
   xmlns:sodipodi="http://sodipodi.sourceforge.net/DTD/sodipodi-0.dtd"
   xmlns:inkscape="http://www.inkscape.org/namespaces/inkscape"
   width="90.774033mm"
   height="60.130894mm"
   viewBox="0 0 90.774033 60.130894"
   version="1.1"
   id="svg842"
   inkscape:version="1.0.1 (3bc2e813f5, 2020-09-07)"
   sodipodi:docname="flujo_sketch.svg">
  <defs
     id="defs836" />
  <sodipodi:namedview
     id="base"
     pagecolor="#ffffff"
     bordercolor="#666666"
     borderopacity="1.0"
     inkscape:pageopacity="0.0"
     inkscape:pageshadow="2"
     inkscape:zoom="1.979899"
     inkscape:cx="126.18479"
     inkscape:cy="159.48295"
     inkscape:document-units="mm"
     inkscape:current-layer="layer1"
     inkscape:document-rotation="0"
     showgrid="false"
     fit-margin-top="0"
     fit-margin-left="0"
     fit-margin-right="0"
     fit-margin-bottom="0"
     inkscape:window-width="1825"
     inkscape:window-height="1046"
     inkscape:window-x="-11"
     inkscape:window-y="-11"
     inkscape:window-maximized="1" />
  <metadata
     id="metadata839">
    <rdf:RDF>
      <cc:Work
         rdf:about="">
        <dc:format>image/svg+xml</dc:format>
        <dc:type
           rdf:resource="http://purl.org/dc/dcmitype/StillImage" />
        <dc:title></dc:title>
      </cc:Work>
    </rdf:RDF>
  </metadata>
  <g
     inkscape:label="Layer 1"
     inkscape:groupmode="layer"
     id="layer1"
     transform="translate(-38.129553,-76.82342)">
    <rect
       style="fill:#de7d64;fill-opacity:1;stroke:none;stroke-width:1.09016;stroke-linecap:round;stroke-linejoin:round;stroke-miterlimit:4;stroke-dasharray:none;stroke-dashoffset:0;stroke-opacity:1"
       id="rect1147"
       width="5.6888852"
       height="33.255924"
       x="76.623787"
       y="81.895706" />
    <g
       id="g27150"
       style="stroke-linecap:butt;stroke-linejoin:round"
       transform="translate(35.438981,73.194367)">
      <path
         style="color:#000000;font-style:normal;font-variant:normal;font-weight:normal;font-stretch:normal;font-size:medium;line-height:normal;font-family:sans-serif;text-indent:0;text-align:start;text-decoration:none;text-decoration-line:none;text-decoration-style:solid;text-decoration-color:#000000;letter-spacing:normal;word-spacing:normal;text-transform:none;writing-mode:lr-tb;direction:ltr;baseline-shift:baseline;text-anchor:start;white-space:normal;clip-rule:nonzero;display:inline;overflow:visible;visibility:visible;opacity:0.8;isolation:auto;mix-blend-mode:normal;color-interpolation:sRGB;color-interpolation-filters:linearRGB;solid-color:#000000;solid-opacity:1;fill:#becd6a;fill-opacity:1;fill-rule:evenodd;stroke:none;stroke-width:2.38067;stroke-linecap:butt;stroke-linejoin:miter;stroke-miterlimit:4;stroke-dasharray:none;stroke-dashoffset:0;stroke-opacity:1;color-rendering:auto;image-rendering:auto;shape-rendering:auto;text-rendering:auto;enable-background:accumulate"
         d="m 12.805133,39.609242 v 12.531663 h 5.600612 V 39.609242 Z"
         id="path61714-2"
         inkscape:connector-curvature="0"
         sodipodi:nodetypes="ccccc" />
      <path
         style="opacity:0.8;fill:#becd6a;fill-opacity:1;fill-rule:evenodd;stroke:#becd6a;stroke-width:0.565957pt;stroke-linecap:butt;stroke-linejoin:round;stroke-opacity:1"
         d="M 15.605446,55.278838 10.68658,52.462469 h 9.837717 z"
         id="path66890-2"
         inkscape:connector-curvature="0" />
    </g>
    <path
       style="color:#000000;font-style:normal;font-variant:normal;font-weight:normal;font-stretch:normal;font-size:medium;line-height:normal;font-family:sans-serif;text-indent:0;text-align:start;text-decoration:none;text-decoration-line:none;text-decoration-style:solid;text-decoration-color:#000000;letter-spacing:normal;word-spacing:normal;text-transform:none;writing-mode:lr-tb;direction:ltr;baseline-shift:baseline;text-anchor:start;white-space:normal;clip-rule:nonzero;display:inline;overflow:visible;visibility:visible;opacity:0.8;isolation:auto;mix-blend-mode:normal;color-interpolation:sRGB;color-interpolation-filters:linearRGB;solid-color:#000000;solid-opacity:1;fill:#de7d64;fill-opacity:1;fill-rule:evenodd;stroke:none;stroke-width:2.79206;stroke-linecap:butt;stroke-linejoin:miter;stroke-miterlimit:4;stroke-dasharray:none;stroke-dashoffset:0;stroke-opacity:1;color-rendering:auto;image-rendering:auto;shape-rendering:auto;text-rendering:auto;enable-background:accumulate"
       d="m 83.195808,112.85177 -18.457167,-0.20159 0.04933,5.29167 18.355357,-0.0504 z"
       id="path66938"
       inkscape:connector-curvature="0"
       sodipodi:nodetypes="ccccc" />
    <path
       id="path67184"
       d="m 60.361561,115.62345 4.007239,-4.63028 v 9.26057 z"
       style="opacity:0.8;fill:#de7d64;fill-opacity:1;fill-rule:evenodd;stroke:#de7d64;stroke-width:0.654987pt;stroke-linecap:butt;stroke-linejoin:round;stroke-opacity:1"
       inkscape:connector-curvature="0" />
    <g
       id="g27135"
       style="stroke-linecap:butt;stroke-linejoin:round"
       transform="translate(35.438981,73.194367)">
      <path
         style="color:#000000;font-style:normal;font-variant:normal;font-weight:normal;font-stretch:normal;font-size:medium;line-height:normal;font-family:sans-serif;text-indent:0;text-align:start;text-decoration:none;text-decoration-line:none;text-decoration-style:solid;text-decoration-color:#000000;letter-spacing:normal;word-spacing:normal;text-transform:none;writing-mode:lr-tb;direction:ltr;baseline-shift:baseline;text-anchor:start;white-space:normal;clip-rule:nonzero;display:inline;overflow:visible;visibility:visible;opacity:0.8;isolation:auto;mix-blend-mode:normal;color-interpolation:sRGB;color-interpolation-filters:linearRGB;solid-color:#000000;solid-opacity:1;fill:#52badd;fill-opacity:1;fill-rule:evenodd;stroke:none;stroke-width:2.33696;stroke-linecap:butt;stroke-linejoin:miter;stroke-miterlimit:4;stroke-dasharray:none;stroke-dashoffset:0;stroke-opacity:1;color-rendering:auto;image-rendering:auto;shape-rendering:auto;text-rendering:auto;enable-background:accumulate"
         d="M 12.805133,8.4295545 V 34.436054 h 5.600612 V 8.4295545 Z"
         id="path61714"
         inkscape:connector-curvature="0"
         sodipodi:nodetypes="ccccc" />
      <path
         style="opacity:0.8;fill:#52badd;fill-opacity:1;fill-rule:evenodd;stroke:#52badd;stroke-width:0.565957pt;stroke-linecap:butt;stroke-linejoin:round;stroke-opacity:1"
         d="M 15.605446,37.569532 10.68658,34.753163 h 9.837717 z"
         id="path66890"
         inkscape:connector-curvature="0" />
    </g>
    <rect
       rx="1.8142856"
       ry="1.8142856"
       y="93.852028"
       x="42.376167"
       height="7.2571425"
       width="17.336508"
       id="rect30849-3"
       style="fill:#52badd;fill-opacity:1;stroke:#000000;stroke-width:0.846667;stroke-linecap:round;stroke-linejoin:bevel;stroke-miterlimit:4;stroke-dasharray:none;stroke-opacity:1" />
    <text
       id="text30851-3"
       y="98.711739"
       x="46.473743"
       style="font-style:normal;font-weight:normal;font-size:3.38667px;line-height:0%;font-family:sans-serif;letter-spacing:0px;word-spacing:0px;fill:#000000;fill-opacity:1;stroke:none;stroke-width:0.282222px;stroke-linecap:butt;stroke-linejoin:miter;stroke-opacity:1"
       xml:space="preserve"><tspan
         style="font-style:normal;font-variant:normal;font-weight:bold;font-stretch:normal;font-family:sans-serif;-inkscape-font-specification:'sans-serif Bold';stroke-width:0.282222px;stroke-linecap:butt;stroke-linejoin:round"
         y="98.711739"
         x="46.473743"
         id="tspan30853-5"
         sodipodi:role="line">Cas8</tspan></text>
    <rect
       rx="1.8142856"
       ry="1.8142856"
       y="111.49091"
       x="42.376167"
       height="7.2571425"
       width="17.336508"
       id="rect30849-5"
       style="fill:#becd6a;fill-opacity:1;stroke:#000000;stroke-width:0.846667;stroke-linecap:round;stroke-linejoin:bevel;stroke-miterlimit:4;stroke-dasharray:none;stroke-opacity:1" />
    <text
       id="text30851-6"
       y="116.35062"
       x="46.508469"
       style="font-style:normal;font-weight:normal;font-size:3.38667px;line-height:0%;font-family:sans-serif;letter-spacing:0px;word-spacing:0px;fill:#000000;fill-opacity:1;stroke:none;stroke-width:0.282222px;stroke-linecap:butt;stroke-linejoin:miter;stroke-opacity:1"
       xml:space="preserve"><tspan
         style="font-style:normal;font-variant:normal;font-weight:bold;font-stretch:normal;font-family:sans-serif;-inkscape-font-specification:'sans-serif Bold';stroke-width:0.282222px;stroke-linecap:butt;stroke-linejoin:round"
         y="116.35062"
         x="46.508469"
         id="tspan30853-2"
         sodipodi:role="line">Cas3</tspan></text>
    <rect
       ry="1.8142856"
       y="111.49091"
       x="70.79998"
       height="7.2571425"
       width="17.336508"
       id="rect30849-6"
       style="fill:#de7d64;fill-opacity:1;stroke:#000000;stroke-width:0.846667;stroke-linecap:round;stroke-linejoin:bevel;stroke-miterlimit:4;stroke-dasharray:none;stroke-opacity:1"
       rx="1.8142856" />
    <text
       id="text30851-2"
       y="116.3498"
       x="74.926491"
       style="font-style:normal;font-weight:normal;font-size:3.38667px;line-height:0%;font-family:sans-serif;letter-spacing:0px;word-spacing:0px;fill:#000000;fill-opacity:1;stroke:none;stroke-width:0.282222px;stroke-linecap:butt;stroke-linejoin:miter;stroke-opacity:1"
       xml:space="preserve"><tspan
         style="font-style:normal;font-variant:normal;font-weight:bold;font-stretch:normal;font-family:sans-serif;-inkscape-font-specification:'sans-serif Bold';stroke-width:0.282222px;stroke-linecap:butt;stroke-linejoin:round"
         y="116.3498"
         x="74.926491"
         id="tspan30853-7"
         sodipodi:role="line">Cas9</tspan></text>
    <g
       id="g1252"
       transform="matrix(0.28222222,0,0,0.28222222,44.871533,20.397138)"
       style="stroke-linecap:butt;stroke-linejoin:round">
      <rect
         ry="6.3690233"
         y="385.90268"
         x="-14.247313"
         height="25.476093"
         width="72.239487"
         id="rect30849-1"
         style="fill:#ffffff;fill-opacity:1;stroke:#000000;stroke-width:3.23819;stroke-linecap:round;stroke-linejoin:bevel;stroke-miterlimit:4;stroke-dasharray:none;stroke-opacity:1"
         rx="7.5599461" />
      <text
         id="text30851-8"
         y="401.99228"
         x="-11.203741"
         style="font-style:normal;font-weight:normal;line-height:0%;font-family:sans-serif;letter-spacing:0px;word-spacing:0px;fill:#d40000;fill-opacity:1;stroke:none;stroke-width:1px;stroke-linecap:butt;stroke-linejoin:miter;stroke-opacity:1"
         xml:space="preserve"><tspan
           style="font-style:normal;font-variant:normal;font-weight:bold;font-stretch:normal;font-family:sans-serif;-inkscape-font-specification:'sans-serif Bold';fill:#d40000;stroke-linecap:butt;stroke-linejoin:round"
           y="401.99228"
           x="-11.203741"
           id="tspan30853-79"
           sodipodi:role="line">Apoptosis</tspan></text>
    </g>
    <g
       id="g1570"
       transform="translate(3.1339533)">
      <rect
         rx="2.5875127"
         ry="2.1653321"
         y="77.375725"
         x="35.547905"
         height="8.6613283"
         width="24.725122"
         id="rect30849-2-1"
         style="fill:#cccccc;fill-opacity:1;stroke:#000000;stroke-width:1.10461;stroke-linecap:round;stroke-linejoin:bevel;stroke-miterlimit:4;stroke-dasharray:none;stroke-opacity:1" />
      <flowRoot
         transform="matrix(0.26458333,0,0,0.26458333,-24.198672,75.650196)"
         style="font-style:normal;font-weight:normal;font-size:10.6667px;line-height:1.25;font-family:sans-serif;text-align:center;letter-spacing:0px;word-spacing:0px;text-anchor:middle;fill:#000000;fill-opacity:1;stroke:none;stroke-linecap:butt;stroke-linejoin:round"
         id="flowRoot1200-1"
         xml:space="preserve"><flowRegion
           style="text-align:center;text-anchor:middle;stroke-linecap:butt;stroke-linejoin:round"
           id="flowRegion1202-6"><rect
             style="text-align:center;text-anchor:middle;stroke-linecap:butt;stroke-linejoin:round"
             y="8.3396091"
             x="233.21428"
             height="34.581577"
             width="78.009422"
             id="rect1204-3" /></flowRegion><flowPara
           style="font-style:normal;font-variant:normal;font-weight:bold;font-stretch:normal;font-size:12.8px;font-family:sans-serif;-inkscape-font-specification:'sans-serif Bold';text-align:center;text-anchor:middle;stroke-linecap:butt;stroke-linejoin:round"
           id="flowPara1206-4">Estímulo Extrínseco</flowPara></flowRoot>
    </g>
    <rect
       rx="2.5884666"
       ry="2.129988"
       y="77.446411"
       x="67.101112"
       height="8.5199518"
       width="24.734238"
       id="rect30849-2"
       style="fill:#cccccc;fill-opacity:1;stroke:#000000;stroke-width:1.09576;stroke-linecap:round;stroke-linejoin:bevel;stroke-miterlimit:4;stroke-dasharray:none;stroke-opacity:1" />
    <flowRoot
       transform="matrix(0.26458333,0,0,0.26458333,7.4814095,75.650195)"
       style="font-style:normal;font-weight:normal;font-size:10.6667px;line-height:1.25;font-family:sans-serif;text-align:center;letter-spacing:0px;word-spacing:0px;text-anchor:middle;fill:#000000;fill-opacity:1;stroke:none;stroke-linecap:butt;stroke-linejoin:round"
       id="flowRoot1200"
       xml:space="preserve"><flowRegion
         style="text-align:center;text-anchor:middle;stroke-linecap:butt;stroke-linejoin:round"
         id="flowRegion1202"><rect
           style="text-align:center;text-anchor:middle;stroke-linecap:butt;stroke-linejoin:round"
           y="8.3396091"
           x="233.21428"
           height="33.571426"
           width="77.504341"
           id="rect1204" /></flowRegion><flowPara
         style="font-style:normal;font-variant:normal;font-weight:bold;font-stretch:normal;font-size:12.8px;font-family:sans-serif;-inkscape-font-specification:'sans-serif Bold';text-align:center;text-anchor:middle;stroke-linecap:butt;stroke-linejoin:round"
         id="flowPara1206">Estímulo</flowPara><flowPara
         style="font-style:normal;font-variant:normal;font-weight:bold;font-stretch:normal;font-size:12.8px;font-family:sans-serif;-inkscape-font-specification:'sans-serif Bold';text-align:center;text-anchor:middle;stroke-linecap:butt;stroke-linejoin:round"
         id="flowPara1563">Intrínseco</flowPara></flowRoot>
    <g
       id="g1668"
       transform="matrix(0.28222223,0,0,0.28222223,133.30949,27.069671)"
       style="stroke-linecap:butt;stroke-linejoin:round">
      <rect
         rx="25.357145"
         ry="18.57143"
         y="224.48752"
         x="-230.06183"
         height="50.000004"
         width="78.571419"
         id="rect31867-0-5"
         style="fill:#de7d64;fill-opacity:1;stroke:#000000;stroke-width:3;stroke-linecap:round;stroke-linejoin:bevel;stroke-miterlimit:4;stroke-dasharray:none;stroke-opacity:1" />
      <path
         style="fill:none;stroke:#000000;stroke-width:0.9375px;stroke-linecap:butt;stroke-linejoin:miter;stroke-opacity:1"
         d="m -222.68571,243.39139 c -1.21742,17.61032 4.95647,21.4142 4.95647,21.4142 3.21388,2.75942 9.8756,8.24948 10.34613,0.99525 l 0.0847,-3.8862 c 0.0922,-5.03317 -0.83734,-11.0696 1.64203,-11.18417 2.5709,0.0271 2.6385,5.55356 2.57931,10.43619 l 0.23675,4.86211 c 0.18528,4.99935 4.196,3.36807 7.15923,3.70702 2.6846,-0.43033 6.69497,-0.48743 6.68888,-3.28456 l 0.28512,-3.68147 c 0.0252,-6.04987 0.20022,-12.63989 2.25026,-12.65394 2.06659,0.21309 3.01623,6.81247 2.82468,12.9523 l 0.43437,3.45207 c 1.65182,3.20346 4.10925,3.25931 7.01063,2.90606 2.55341,-0.18713 5.10291,-0.32572 5.8518,-2.66425 0.29523,-2.50384 0.17193,-4.33804 0.13234,-8.01376 0.041,-5.74773 -0.0811,-9.50336 1.68886,-9.74932 2.36454,0.23588 2.68756,3.45833 2.65508,8.63999 0.28078,3.55755 0.24091,3.08613 0.32399,5.78744 0.22998,3.18864 2.89364,2.50554 5.39092,-1.96723 1.44688,-2.8224 1.19934,-7.14381 1.81758,-11.45856 0.56686,-5.26441 -0.2168,-6.58957 -0.5417,-9.19984 -0.70438,-2.29705 -1.76443,-4.08244 -3.95269,-6.60808 -1.93254,-2.76573 -9.59665,-5.87356 -10.28059,-0.77863 -0.6958,5.18564 -0.69573,6.93935 -0.77934,10.702 -0.1234,2.67098 -0.6958,8.84845 -2.59486,9.3354 -2.20516,-0.73386 -1.80603,-7.56415 -2.05796,-9.48178 -0.25493,-2.0982 -0.42505,-8.67224 -1.24546,-10.76611 -1.38078,-3.79615 -4.98851,-2.99589 -8.64824,-3.01245 -2.96954,0.46846 -4.51571,2.67592 -4.72278,5.47919 -0.29126,4.39774 -0.0806,4.85365 -0.1992,7.83602 -0.0996,2.50189 -0.4409,10.55253 -2.53394,10.80394 -2.01802,-0.25803 -2.46667,-7.91187 -2.8866,-11.12933 l -0.20195,-7.1486 c -0.0754,-2.95415 -2.38715,-5.55516 -6.01232,-5.47291 -3.75377,-0.10401 -6.03047,0.27868 -6.23815,4.10817 l -0.0566,7.71096 c -0.60396,4.42328 0.81927,10.48777 -1.78058,10.47507 -2.79821,-0.60688 -1.64514,-5.79261 -1.94133,-10.62218 -0.0654,-4.86361 0.78871,-10.00752 -4.29596,-5.29969 -1.83987,2.35052 -2.85111,3.93159 -3.38883,6.45968 z"
         id="path1657"
         sodipodi:nodetypes="cccccccccccccccccccccccccccccccccccccccccc" />
      <path
         style="fill:#f6bc96;fill-opacity:1;stroke:#000000;stroke-width:0.477237;stroke-linecap:round;stroke-linejoin:round;stroke-opacity:1"
         d="m -176.08118,69.428321 c -0.76081,-0.204546 -1.40117,-0.809443 -1.66812,-1.575737 -0.25412,-0.729431 -0.40756,-3.16874 -0.56468,-8.976864 -0.12652,-4.677247 -0.24359,-5.774324 -0.77754,-7.286808 -0.3094,-0.876425 -0.92982,-1.700959 -1.50284,-1.99728 -0.19793,-0.102351 -0.63839,-0.186092 -0.97881,-0.186092 -0.78846,0 -1.35907,0.370268 -1.74023,1.129241 -0.57156,1.138084 -0.6091,1.67641 -0.63018,9.035418 -0.0214,7.462331 -0.0489,7.809555 -0.70191,8.86621 -0.89565,1.44919 -3.16855,0.893185 -6.52641,-1.596515 -2.02066,-1.498227 -3.72211,-2.990928 -4.32835,-3.797295 -2.69327,-3.582357 -4.10641,-10.260976 -3.83396,-18.119611 0.12605,-3.635902 0.55174,-5.021483 2.35837,-7.676296 1.24193,-1.825005 2.82203,-3.241391 3.84396,-3.445697 0.94337,-0.1886 1.04755,0.662807 1.05189,8.596611 0.002,3.652159 0.0577,6.659422 0.13225,7.134203 0.19539,1.245112 0.77926,2.341138 1.48587,2.789258 1.08201,0.686189 2.10867,0.389813 2.7105,-0.782467 0.51018,-0.993747 0.58708,-2.243966 0.70987,-11.540106 0.11877,-8.990823 0.11573,-8.960067 0.97778,-9.914246 0.73948,-0.818525 1.51234,-1.037339 3.90362,-1.105208 1.26275,-0.03584 2.28902,-0.003 2.72299,0.08707 1.54139,0.31999 2.95355,1.295589 3.68705,2.547211 0.60164,1.026613 0.70107,1.769975 0.84294,6.301734 0.21512,6.872087 0.97273,12.419174 2.00752,14.698696 0.82705,1.821908 2.26013,2.116456 3.166,0.650726 1.1639,-1.883233 1.70748,-6.055624 1.901,-14.591807 0.0866,-3.819688 0.16461,-5.313949 0.30825,-5.904376 0.42628,-1.752135 1.47976,-3.118844 2.90943,-3.774458 0.66063,-0.30295 0.99199,-0.361098 2.58851,-0.454225 3.8678,-0.225614 5.78565,0.186765 6.73091,1.447292 1.2508,1.667972 1.35474,2.427942 2.36217,17.272063 0.20373,3.001973 0.63732,4.629887 1.45831,5.475228 0.57654,0.593651 0.98468,0.694024 1.56287,0.384354 1.62586,-0.870791 2.53552,-4.677694 2.78805,-11.667959 0.13718,-3.797327 0.28615,-5.784234 0.64246,-8.568913 0.26803,-2.094752 0.46758,-2.666575 1.12295,-3.21804 1.09652,-0.922653 3.38124,-0.7235 5.88369,0.512864 1.5529,0.767223 2.41476,1.503496 3.84282,3.282838 2.38534,2.972095 3.15744,4.584342 3.73629,7.801848 0.32503,1.806659 0.36287,2.29404 0.35784,4.608821 -0.004,1.64328 -0.0837,3.210988 -0.21941,4.293148 -0.11759,0.937548 -0.30085,2.755822 -0.40724,4.04061 -0.34609,4.179235 -0.74974,5.879978 -1.79462,7.561398 -1.52398,2.452387 -3.17045,3.710225 -3.85968,2.948637 -0.28455,-0.314428 -0.46241,-1.196831 -0.46409,-2.302545 -7.6e-4,-0.52086 -0.0592,-1.998208 -0.1298,-3.282996 -0.0706,-1.284788 -0.18469,-3.4724 -0.25355,-4.861359 -0.13225,-2.66777 -0.33624,-3.869474 -0.83942,-4.944869 -0.55759,-1.191692 -1.73343,-1.948204 -2.73579,-1.760159 -0.60413,0.113334 -1.28579,0.889396 -1.53165,1.743747 -0.43604,1.51521 -0.48985,2.523328 -0.5142,9.633236 -0.0133,3.889087 -0.0686,7.298352 -0.12274,7.576144 -0.25295,1.296775 -1.07061,2.01004 -2.74299,2.392781 -1.42093,0.325198 -5.11716,0.596262 -6.14426,0.450592 -1.45966,-0.207017 -2.56037,-0.88523 -3.33688,-2.056059 -0.39411,-0.594243 -0.45902,-0.821087 -0.64238,-2.244785 -0.11218,-0.871055 -0.20448,-2.234761 -0.2051,-3.030457 -0.004,-4.709484 -0.63071,-9.293824 -1.55796,-11.390514 -0.8733,-1.974678 -2.41487,-2.508087 -3.42418,-1.18482 -0.97819,1.282475 -1.57797,5.527997 -1.5815,11.194632 -0.002,2.617954 -0.31689,6.453555 -0.57079,6.944546 -0.43915,0.849213 -1.50479,1.279841 -4.22866,1.708802 -1.58143,0.249049 -2.40563,0.306648 -4.29314,0.300025 -1.48717,-0.0052 -2.55659,-0.0675 -2.9431,-0.17142 z"
         id="path1663"
         transform="matrix(0.9375,0,0,0.9375,-35.418977,203.9518)" />
    </g>
    <g
       id="g1589"
       transform="translate(28.33057,-28.865109)">
      <rect
         style="opacity:0.8;fill:#52badd;fill-opacity:1;stroke:none;stroke-width:2.82222;stroke-linecap:round;stroke-linejoin:bevel;stroke-miterlimit:4;stroke-dasharray:none;stroke-opacity:1"
         id="rect67295"
         width="10.427693"
         height="4.6609645"
         x="68.564064"
         y="127.39152"
         ry="1.1656775"
         rx="1.1987715" />
      <rect
         style="opacity:0.8;fill:#de7d64;fill-opacity:1;stroke:none;stroke-width:2.82222;stroke-linecap:round;stroke-linejoin:bevel;stroke-miterlimit:4;stroke-dasharray:none;stroke-opacity:1"
         id="rect67295-8"
         width="10.427693"
         height="4.6609645"
         x="68.564064"
         y="133.33235"
         ry="1.1656775"
         rx="1.1987715" />
      <rect
         style="opacity:0.8;fill:#becd6a;fill-opacity:1;stroke:none;stroke-width:2.82222;stroke-linecap:round;stroke-linejoin:bevel;stroke-miterlimit:4;stroke-dasharray:none;stroke-opacity:1"
         id="rect67295-9"
         width="10.427693"
         height="4.6609645"
         x="68.564064"
         y="139.1786"
         ry="1.1656775"
         rx="1.1987715" />
      <text
         xml:space="preserve"
         style="font-style:normal;font-weight:normal;font-size:3.38667px;line-height:0%;font-family:sans-serif;letter-spacing:0px;word-spacing:0px;fill:#000000;fill-opacity:1;stroke:none;stroke-width:0.282222px;stroke-linecap:butt;stroke-linejoin:miter;stroke-opacity:1"
         x="80.690659"
         y="130.7507"
         id="text30851-7"><tspan
           sodipodi:role="line"
           id="tspan30853-3"
           x="80.690659"
           y="130.7507"
           style="font-style:normal;font-variant:normal;font-weight:bold;font-stretch:normal;font-family:sans-serif;-inkscape-font-specification:'sans-serif Bold';stroke-width:0.282222px;stroke-linecap:butt;stroke-linejoin:round">Extrínseco</tspan></text>
      <text
         xml:space="preserve"
         style="font-style:normal;font-weight:normal;font-size:3.38667px;line-height:0%;font-family:sans-serif;letter-spacing:0px;word-spacing:0px;fill:#000000;fill-opacity:1;stroke:none;stroke-width:0.282222px;stroke-linecap:butt;stroke-linejoin:miter;stroke-opacity:1"
         x="81.084778"
         y="136.4304"
         id="text30851-7-6"><tspan
           sodipodi:role="line"
           id="tspan30853-3-1"
           x="81.084778"
           y="136.4304"
           style="font-style:normal;font-variant:normal;font-weight:bold;font-stretch:normal;font-family:sans-serif;-inkscape-font-specification:'sans-serif Bold';stroke-width:0.282222px;stroke-linecap:butt;stroke-linejoin:round">Intrínseco</tspan></text>
      <text
         xml:space="preserve"
         style="font-style:normal;font-weight:normal;font-size:3.38667px;line-height:0%;font-family:sans-serif;letter-spacing:0px;word-spacing:0px;fill:#000000;fill-opacity:1;stroke:none;stroke-width:0.282222px;stroke-linecap:butt;stroke-linejoin:miter;stroke-opacity:1"
         x="81.398972"
         y="142.27666"
         id="text30851-7-2"><tspan
           sodipodi:role="line"
           id="tspan30853-3-9"
           x="81.398972"
           y="142.27666"
           style="font-style:normal;font-variant:normal;font-weight:bold;font-stretch:normal;font-family:sans-serif;-inkscape-font-specification:'sans-serif Bold';stroke-width:0.282222px;stroke-linecap:butt;stroke-linejoin:round">Efector</tspan></text>
      <text
         xml:space="preserve"
         style="font-style:normal;font-weight:normal;font-size:3.38667px;line-height:0%;font-family:sans-serif;letter-spacing:0px;word-spacing:0px;fill:#000000;fill-opacity:1;stroke:none;stroke-width:0.282223px;stroke-linecap:butt;stroke-linejoin:miter;stroke-opacity:1"
         x="68.24987"
         y="124.91072"
         id="text30851-7-22"><tspan
           sodipodi:role="line"
           id="tspan30853-3-6"
           x="68.24987"
           y="124.91072"
           style="font-style:normal;font-variant:normal;font-weight:bold;font-stretch:normal;font-family:sans-serif;-inkscape-font-specification:'sans-serif Bold';stroke-width:0.282223px;stroke-linecap:butt;stroke-linejoin:round">Módulos</tspan></text>
    </g>
  </g>
</svg>
