<?xml version="1.0" encoding="utf-8" standalone="no"?>
<!DOCTYPE svg PUBLIC "-//W3C//DTD SVG 1.1//EN"
  "http://www.w3.org/Graphics/SVG/1.1/DTD/svg11.dtd">
<!-- Created with matplotlib (https://matplotlib.org/) -->
<svg height="216pt" version="1.1" viewBox="0 0 216 216" width="216pt" xmlns="http://www.w3.org/2000/svg" xmlns:xlink="http://www.w3.org/1999/xlink">
 <metadata>
  <rdf:RDF xmlns:cc="http://creativecommons.org/ns#" xmlns:dc="http://purl.org/dc/elements/1.1/" xmlns:rdf="http://www.w3.org/1999/02/22-rdf-syntax-ns#">
   <cc:Work>
    <dc:type rdf:resource="http://purl.org/dc/dcmitype/StillImage"/>
    <dc:date>2021-04-29T18:52:16.900644</dc:date>
    <dc:format>image/svg+xml</dc:format>
    <dc:creator>
     <cc:Agent>
      <dc:title>Matplotlib v3.3.2, https://matplotlib.org/</dc:title>
     </cc:Agent>
    </dc:creator>
   </cc:Work>
  </rdf:RDF>
 </metadata>
 <defs>
  <style type="text/css">*{stroke-linecap:butt;stroke-linejoin:round;}</style>
 </defs>
 <g id="figure_1">
  <g id="patch_1">
   <path d="M 0 216 
L 216 216 
L 216 0 
L 0 0 
z
" style="fill:none;"/>
  </g>
  <g id="axes_1">
   <g id="patch_2">
    <path d="M 53.83125 173.29375 
L 179.251071 173.29375 
L 179.251071 38.656071 
L 53.83125 38.656071 
z
" style="fill:#ffffff;"/>
   </g>
   <g id="matplotlib.axis_1">
    <g id="xtick_1">
     <g id="line2d_1">
      <defs>
       <path d="M 0 0 
L 0 3.5 
" id="md549fd4daf" style="stroke:#000000;stroke-width:0.8;"/>
      </defs>
      <g>
       <use style="stroke:#000000;stroke-width:0.8;" x="53.83125" xlink:href="#md549fd4daf" y="173.29375"/>
      </g>
     </g>
     <g id="text_1">
      <!-- −10 -->
      <g transform="translate(43.278906 187.892188)scale(0.1 -0.1)">
       <defs>
        <path d="M 10.59375 35.5 
L 73.1875 35.5 
L 73.1875 27.203125 
L 10.59375 27.203125 
z
" id="DejaVuSans-8722"/>
        <path d="M 12.40625 8.296875 
L 28.515625 8.296875 
L 28.515625 63.921875 
L 10.984375 60.40625 
L 10.984375 69.390625 
L 28.421875 72.90625 
L 38.28125 72.90625 
L 38.28125 8.296875 
L 54.390625 8.296875 
L 54.390625 0 
L 12.40625 0 
z
" id="DejaVuSans-49"/>
        <path d="M 31.78125 66.40625 
Q 24.171875 66.40625 20.328125 58.90625 
Q 16.5 51.421875 16.5 36.375 
Q 16.5 21.390625 20.328125 13.890625 
Q 24.171875 6.390625 31.78125 6.390625 
Q 39.453125 6.390625 43.28125 13.890625 
Q 47.125 21.390625 47.125 36.375 
Q 47.125 51.421875 43.28125 58.90625 
Q 39.453125 66.40625 31.78125 66.40625 
z
M 31.78125 74.21875 
Q 44.046875 74.21875 50.515625 64.515625 
Q 56.984375 54.828125 56.984375 36.375 
Q 56.984375 17.96875 50.515625 8.265625 
Q 44.046875 -1.421875 31.78125 -1.421875 
Q 19.53125 -1.421875 13.0625 8.265625 
Q 6.59375 17.96875 6.59375 36.375 
Q 6.59375 54.828125 13.0625 64.515625 
Q 19.53125 74.21875 31.78125 74.21875 
z
" id="DejaVuSans-48"/>
       </defs>
       <use xlink:href="#DejaVuSans-8722"/>
       <use x="83.789062" xlink:href="#DejaVuSans-49"/>
       <use x="147.412109" xlink:href="#DejaVuSans-48"/>
      </g>
     </g>
    </g>
    <g id="xtick_2">
     <g id="line2d_2">
      <g>
       <use style="stroke:#000000;stroke-width:0.8;" x="85.186205" xlink:href="#md549fd4daf" y="173.29375"/>
      </g>
     </g>
     <g id="text_2">
      <!-- 0 -->
      <g transform="translate(82.004955 187.892188)scale(0.1 -0.1)">
       <use xlink:href="#DejaVuSans-48"/>
      </g>
     </g>
    </g>
    <g id="xtick_3">
     <g id="line2d_3">
      <g>
       <use style="stroke:#000000;stroke-width:0.8;" x="116.541161" xlink:href="#md549fd4daf" y="173.29375"/>
      </g>
     </g>
     <g id="text_3">
      <!-- 10 -->
      <g transform="translate(110.178661 187.892188)scale(0.1 -0.1)">
       <use xlink:href="#DejaVuSans-49"/>
       <use x="63.623047" xlink:href="#DejaVuSans-48"/>
      </g>
     </g>
    </g>
    <g id="xtick_4">
     <g id="line2d_4">
      <g>
       <use style="stroke:#000000;stroke-width:0.8;" x="147.896116" xlink:href="#md549fd4daf" y="173.29375"/>
      </g>
     </g>
     <g id="text_4">
      <!-- 20 -->
      <g transform="translate(141.533616 187.892188)scale(0.1 -0.1)">
       <defs>
        <path d="M 19.1875 8.296875 
L 53.609375 8.296875 
L 53.609375 0 
L 7.328125 0 
L 7.328125 8.296875 
Q 12.9375 14.109375 22.625 23.890625 
Q 32.328125 33.6875 34.8125 36.53125 
Q 39.546875 41.84375 41.421875 45.53125 
Q 43.3125 49.21875 43.3125 52.78125 
Q 43.3125 58.59375 39.234375 62.25 
Q 35.15625 65.921875 28.609375 65.921875 
Q 23.96875 65.921875 18.8125 64.3125 
Q 13.671875 62.703125 7.8125 59.421875 
L 7.8125 69.390625 
Q 13.765625 71.78125 18.9375 73 
Q 24.125 74.21875 28.421875 74.21875 
Q 39.75 74.21875 46.484375 68.546875 
Q 53.21875 62.890625 53.21875 53.421875 
Q 53.21875 48.921875 51.53125 44.890625 
Q 49.859375 40.875 45.40625 35.40625 
Q 44.1875 33.984375 37.640625 27.21875 
Q 31.109375 20.453125 19.1875 8.296875 
z
" id="DejaVuSans-50"/>
       </defs>
       <use xlink:href="#DejaVuSans-50"/>
       <use x="63.623047" xlink:href="#DejaVuSans-48"/>
      </g>
     </g>
    </g>
    <g id="xtick_5">
     <g id="line2d_5">
      <g>
       <use style="stroke:#000000;stroke-width:0.8;" x="179.251071" xlink:href="#md549fd4daf" y="173.29375"/>
      </g>
     </g>
     <g id="text_5">
      <!-- 30 -->
      <g transform="translate(172.888571 187.892188)scale(0.1 -0.1)">
       <defs>
        <path d="M 40.578125 39.3125 
Q 47.65625 37.796875 51.625 33 
Q 55.609375 28.21875 55.609375 21.1875 
Q 55.609375 10.40625 48.1875 4.484375 
Q 40.765625 -1.421875 27.09375 -1.421875 
Q 22.515625 -1.421875 17.65625 -0.515625 
Q 12.796875 0.390625 7.625 2.203125 
L 7.625 11.71875 
Q 11.71875 9.328125 16.59375 8.109375 
Q 21.484375 6.890625 26.8125 6.890625 
Q 36.078125 6.890625 40.9375 10.546875 
Q 45.796875 14.203125 45.796875 21.1875 
Q 45.796875 27.640625 41.28125 31.265625 
Q 36.765625 34.90625 28.71875 34.90625 
L 20.21875 34.90625 
L 20.21875 43.015625 
L 29.109375 43.015625 
Q 36.375 43.015625 40.234375 45.921875 
Q 44.09375 48.828125 44.09375 54.296875 
Q 44.09375 59.90625 40.109375 62.90625 
Q 36.140625 65.921875 28.71875 65.921875 
Q 24.65625 65.921875 20.015625 65.03125 
Q 15.375 64.15625 9.8125 62.3125 
L 9.8125 71.09375 
Q 15.4375 72.65625 20.34375 73.4375 
Q 25.25 74.21875 29.59375 74.21875 
Q 40.828125 74.21875 47.359375 69.109375 
Q 53.90625 64.015625 53.90625 55.328125 
Q 53.90625 49.265625 50.4375 45.09375 
Q 46.96875 40.921875 40.578125 39.3125 
z
" id="DejaVuSans-51"/>
       </defs>
       <use xlink:href="#DejaVuSans-51"/>
       <use x="63.623047" xlink:href="#DejaVuSans-48"/>
      </g>
     </g>
    </g>
    <g id="text_6">
     <!-- Cas9 to Cas3 (min.) -->
     <g transform="translate(67.152879 201.570312)scale(0.1 -0.1)">
      <defs>
       <path d="M 64.40625 67.28125 
L 64.40625 56.890625 
Q 59.421875 61.53125 53.78125 63.8125 
Q 48.140625 66.109375 41.796875 66.109375 
Q 29.296875 66.109375 22.65625 58.46875 
Q 16.015625 50.828125 16.015625 36.375 
Q 16.015625 21.96875 22.65625 14.328125 
Q 29.296875 6.6875 41.796875 6.6875 
Q 48.140625 6.6875 53.78125 8.984375 
Q 59.421875 11.28125 64.40625 15.921875 
L 64.40625 5.609375 
Q 59.234375 2.09375 53.4375 0.328125 
Q 47.65625 -1.421875 41.21875 -1.421875 
Q 24.65625 -1.421875 15.125 8.703125 
Q 5.609375 18.84375 5.609375 36.375 
Q 5.609375 53.953125 15.125 64.078125 
Q 24.65625 74.21875 41.21875 74.21875 
Q 47.75 74.21875 53.53125 72.484375 
Q 59.328125 70.75 64.40625 67.28125 
z
" id="DejaVuSans-67"/>
       <path d="M 34.28125 27.484375 
Q 23.390625 27.484375 19.1875 25 
Q 14.984375 22.515625 14.984375 16.5 
Q 14.984375 11.71875 18.140625 8.90625 
Q 21.296875 6.109375 26.703125 6.109375 
Q 34.1875 6.109375 38.703125 11.40625 
Q 43.21875 16.703125 43.21875 25.484375 
L 43.21875 27.484375 
z
M 52.203125 31.203125 
L 52.203125 0 
L 43.21875 0 
L 43.21875 8.296875 
Q 40.140625 3.328125 35.546875 0.953125 
Q 30.953125 -1.421875 24.3125 -1.421875 
Q 15.921875 -1.421875 10.953125 3.296875 
Q 6 8.015625 6 15.921875 
Q 6 25.140625 12.171875 29.828125 
Q 18.359375 34.515625 30.609375 34.515625 
L 43.21875 34.515625 
L 43.21875 35.40625 
Q 43.21875 41.609375 39.140625 45 
Q 35.0625 48.390625 27.6875 48.390625 
Q 23 48.390625 18.546875 47.265625 
Q 14.109375 46.140625 10.015625 43.890625 
L 10.015625 52.203125 
Q 14.9375 54.109375 19.578125 55.046875 
Q 24.21875 56 28.609375 56 
Q 40.484375 56 46.34375 49.84375 
Q 52.203125 43.703125 52.203125 31.203125 
z
" id="DejaVuSans-97"/>
       <path d="M 44.28125 53.078125 
L 44.28125 44.578125 
Q 40.484375 46.53125 36.375 47.5 
Q 32.28125 48.484375 27.875 48.484375 
Q 21.1875 48.484375 17.84375 46.4375 
Q 14.5 44.390625 14.5 40.28125 
Q 14.5 37.15625 16.890625 35.375 
Q 19.28125 33.59375 26.515625 31.984375 
L 29.59375 31.296875 
Q 39.15625 29.25 43.1875 25.515625 
Q 47.21875 21.78125 47.21875 15.09375 
Q 47.21875 7.46875 41.1875 3.015625 
Q 35.15625 -1.421875 24.609375 -1.421875 
Q 20.21875 -1.421875 15.453125 -0.5625 
Q 10.6875 0.296875 5.421875 2 
L 5.421875 11.28125 
Q 10.40625 8.6875 15.234375 7.390625 
Q 20.0625 6.109375 24.8125 6.109375 
Q 31.15625 6.109375 34.5625 8.28125 
Q 37.984375 10.453125 37.984375 14.40625 
Q 37.984375 18.0625 35.515625 20.015625 
Q 33.0625 21.96875 24.703125 23.78125 
L 21.578125 24.515625 
Q 13.234375 26.265625 9.515625 29.90625 
Q 5.8125 33.546875 5.8125 39.890625 
Q 5.8125 47.609375 11.28125 51.796875 
Q 16.75 56 26.8125 56 
Q 31.78125 56 36.171875 55.265625 
Q 40.578125 54.546875 44.28125 53.078125 
z
" id="DejaVuSans-115"/>
       <path d="M 10.984375 1.515625 
L 10.984375 10.5 
Q 14.703125 8.734375 18.5 7.8125 
Q 22.3125 6.890625 25.984375 6.890625 
Q 35.75 6.890625 40.890625 13.453125 
Q 46.046875 20.015625 46.78125 33.40625 
Q 43.953125 29.203125 39.59375 26.953125 
Q 35.25 24.703125 29.984375 24.703125 
Q 19.046875 24.703125 12.671875 31.3125 
Q 6.296875 37.9375 6.296875 49.421875 
Q 6.296875 60.640625 12.9375 67.421875 
Q 19.578125 74.21875 30.609375 74.21875 
Q 43.265625 74.21875 49.921875 64.515625 
Q 56.59375 54.828125 56.59375 36.375 
Q 56.59375 19.140625 48.40625 8.859375 
Q 40.234375 -1.421875 26.421875 -1.421875 
Q 22.703125 -1.421875 18.890625 -0.6875 
Q 15.09375 0.046875 10.984375 1.515625 
z
M 30.609375 32.421875 
Q 37.25 32.421875 41.125 36.953125 
Q 45.015625 41.5 45.015625 49.421875 
Q 45.015625 57.28125 41.125 61.84375 
Q 37.25 66.40625 30.609375 66.40625 
Q 23.96875 66.40625 20.09375 61.84375 
Q 16.21875 57.28125 16.21875 49.421875 
Q 16.21875 41.5 20.09375 36.953125 
Q 23.96875 32.421875 30.609375 32.421875 
z
" id="DejaVuSans-57"/>
       <path id="DejaVuSans-32"/>
       <path d="M 18.3125 70.21875 
L 18.3125 54.6875 
L 36.8125 54.6875 
L 36.8125 47.703125 
L 18.3125 47.703125 
L 18.3125 18.015625 
Q 18.3125 11.328125 20.140625 9.421875 
Q 21.96875 7.515625 27.59375 7.515625 
L 36.8125 7.515625 
L 36.8125 0 
L 27.59375 0 
Q 17.1875 0 13.234375 3.875 
Q 9.28125 7.765625 9.28125 18.015625 
L 9.28125 47.703125 
L 2.6875 47.703125 
L 2.6875 54.6875 
L 9.28125 54.6875 
L 9.28125 70.21875 
z
" id="DejaVuSans-116"/>
       <path d="M 30.609375 48.390625 
Q 23.390625 48.390625 19.1875 42.75 
Q 14.984375 37.109375 14.984375 27.296875 
Q 14.984375 17.484375 19.15625 11.84375 
Q 23.34375 6.203125 30.609375 6.203125 
Q 37.796875 6.203125 41.984375 11.859375 
Q 46.1875 17.53125 46.1875 27.296875 
Q 46.1875 37.015625 41.984375 42.703125 
Q 37.796875 48.390625 30.609375 48.390625 
z
M 30.609375 56 
Q 42.328125 56 49.015625 48.375 
Q 55.71875 40.765625 55.71875 27.296875 
Q 55.71875 13.875 49.015625 6.21875 
Q 42.328125 -1.421875 30.609375 -1.421875 
Q 18.84375 -1.421875 12.171875 6.21875 
Q 5.515625 13.875 5.515625 27.296875 
Q 5.515625 40.765625 12.171875 48.375 
Q 18.84375 56 30.609375 56 
z
" id="DejaVuSans-111"/>
       <path d="M 31 75.875 
Q 24.46875 64.65625 21.28125 53.65625 
Q 18.109375 42.671875 18.109375 31.390625 
Q 18.109375 20.125 21.3125 9.0625 
Q 24.515625 -2 31 -13.1875 
L 23.1875 -13.1875 
Q 15.875 -1.703125 12.234375 9.375 
Q 8.59375 20.453125 8.59375 31.390625 
Q 8.59375 42.28125 12.203125 53.3125 
Q 15.828125 64.359375 23.1875 75.875 
z
" id="DejaVuSans-40"/>
       <path d="M 52 44.1875 
Q 55.375 50.25 60.0625 53.125 
Q 64.75 56 71.09375 56 
Q 79.640625 56 84.28125 50.015625 
Q 88.921875 44.046875 88.921875 33.015625 
L 88.921875 0 
L 79.890625 0 
L 79.890625 32.71875 
Q 79.890625 40.578125 77.09375 44.375 
Q 74.3125 48.1875 68.609375 48.1875 
Q 61.625 48.1875 57.5625 43.546875 
Q 53.515625 38.921875 53.515625 30.90625 
L 53.515625 0 
L 44.484375 0 
L 44.484375 32.71875 
Q 44.484375 40.625 41.703125 44.40625 
Q 38.921875 48.1875 33.109375 48.1875 
Q 26.21875 48.1875 22.15625 43.53125 
Q 18.109375 38.875 18.109375 30.90625 
L 18.109375 0 
L 9.078125 0 
L 9.078125 54.6875 
L 18.109375 54.6875 
L 18.109375 46.1875 
Q 21.1875 51.21875 25.484375 53.609375 
Q 29.78125 56 35.6875 56 
Q 41.65625 56 45.828125 52.96875 
Q 50 49.953125 52 44.1875 
z
" id="DejaVuSans-109"/>
       <path d="M 9.421875 54.6875 
L 18.40625 54.6875 
L 18.40625 0 
L 9.421875 0 
z
M 9.421875 75.984375 
L 18.40625 75.984375 
L 18.40625 64.59375 
L 9.421875 64.59375 
z
" id="DejaVuSans-105"/>
       <path d="M 54.890625 33.015625 
L 54.890625 0 
L 45.90625 0 
L 45.90625 32.71875 
Q 45.90625 40.484375 42.875 44.328125 
Q 39.84375 48.1875 33.796875 48.1875 
Q 26.515625 48.1875 22.3125 43.546875 
Q 18.109375 38.921875 18.109375 30.90625 
L 18.109375 0 
L 9.078125 0 
L 9.078125 54.6875 
L 18.109375 54.6875 
L 18.109375 46.1875 
Q 21.34375 51.125 25.703125 53.5625 
Q 30.078125 56 35.796875 56 
Q 45.21875 56 50.046875 50.171875 
Q 54.890625 44.34375 54.890625 33.015625 
z
" id="DejaVuSans-110"/>
       <path d="M 10.6875 12.40625 
L 21 12.40625 
L 21 0 
L 10.6875 0 
z
" id="DejaVuSans-46"/>
       <path d="M 8.015625 75.875 
L 15.828125 75.875 
Q 23.140625 64.359375 26.78125 53.3125 
Q 30.421875 42.28125 30.421875 31.390625 
Q 30.421875 20.453125 26.78125 9.375 
Q 23.140625 -1.703125 15.828125 -13.1875 
L 8.015625 -13.1875 
Q 14.5 -2 17.703125 9.0625 
Q 20.90625 20.125 20.90625 31.390625 
Q 20.90625 42.671875 17.703125 53.65625 
Q 14.5 64.65625 8.015625 75.875 
z
" id="DejaVuSans-41"/>
      </defs>
      <use xlink:href="#DejaVuSans-67"/>
      <use x="69.824219" xlink:href="#DejaVuSans-97"/>
      <use x="131.103516" xlink:href="#DejaVuSans-115"/>
      <use x="183.203125" xlink:href="#DejaVuSans-57"/>
      <use x="246.826172" xlink:href="#DejaVuSans-32"/>
      <use x="278.613281" xlink:href="#DejaVuSans-116"/>
      <use x="317.822266" xlink:href="#DejaVuSans-111"/>
      <use x="379.003906" xlink:href="#DejaVuSans-32"/>
      <use x="410.791016" xlink:href="#DejaVuSans-67"/>
      <use x="480.615234" xlink:href="#DejaVuSans-97"/>
      <use x="541.894531" xlink:href="#DejaVuSans-115"/>
      <use x="593.994141" xlink:href="#DejaVuSans-51"/>
      <use x="657.617188" xlink:href="#DejaVuSans-32"/>
      <use x="689.404297" xlink:href="#DejaVuSans-40"/>
      <use x="728.417969" xlink:href="#DejaVuSans-109"/>
      <use x="825.830078" xlink:href="#DejaVuSans-105"/>
      <use x="853.613281" xlink:href="#DejaVuSans-110"/>
      <use x="916.992188" xlink:href="#DejaVuSans-46"/>
      <use x="948.779297" xlink:href="#DejaVuSans-41"/>
     </g>
    </g>
   </g>
   <g id="matplotlib.axis_2">
    <g id="ytick_1">
     <g id="line2d_6">
      <defs>
       <path d="M 0 0 
L -3.5 0 
" id="m02b57e8a5a" style="stroke:#000000;stroke-width:0.8;"/>
      </defs>
      <g>
       <use style="stroke:#000000;stroke-width:0.8;" x="53.83125" xlink:href="#m02b57e8a5a" y="173.29375"/>
      </g>
     </g>
     <g id="text_7">
      <!-- −10 -->
      <g transform="translate(25.726563 177.092969)scale(0.1 -0.1)">
       <use xlink:href="#DejaVuSans-8722"/>
       <use x="83.789062" xlink:href="#DejaVuSans-49"/>
       <use x="147.412109" xlink:href="#DejaVuSans-48"/>
      </g>
     </g>
    </g>
    <g id="ytick_2">
     <g id="line2d_7">
      <g>
       <use style="stroke:#000000;stroke-width:0.8;" x="53.83125" xlink:href="#m02b57e8a5a" y="146.366214"/>
      </g>
     </g>
     <g id="text_8">
      <!-- 0 -->
      <g transform="translate(40.46875 150.165433)scale(0.1 -0.1)">
       <use xlink:href="#DejaVuSans-48"/>
      </g>
     </g>
    </g>
    <g id="ytick_3">
     <g id="line2d_8">
      <g>
       <use style="stroke:#000000;stroke-width:0.8;" x="53.83125" xlink:href="#m02b57e8a5a" y="119.438679"/>
      </g>
     </g>
     <g id="text_9">
      <!-- 10 -->
      <g transform="translate(34.10625 123.237897)scale(0.1 -0.1)">
       <use xlink:href="#DejaVuSans-49"/>
       <use x="63.623047" xlink:href="#DejaVuSans-48"/>
      </g>
     </g>
    </g>
    <g id="ytick_4">
     <g id="line2d_9">
      <g>
       <use style="stroke:#000000;stroke-width:0.8;" x="53.83125" xlink:href="#m02b57e8a5a" y="92.511143"/>
      </g>
     </g>
     <g id="text_10">
      <!-- 20 -->
      <g transform="translate(34.10625 96.310362)scale(0.1 -0.1)">
       <use xlink:href="#DejaVuSans-50"/>
       <use x="63.623047" xlink:href="#DejaVuSans-48"/>
      </g>
     </g>
    </g>
    <g id="ytick_5">
     <g id="line2d_10">
      <g>
       <use style="stroke:#000000;stroke-width:0.8;" x="53.83125" xlink:href="#m02b57e8a5a" y="65.583607"/>
      </g>
     </g>
     <g id="text_11">
      <!-- 30 -->
      <g transform="translate(34.10625 69.382826)scale(0.1 -0.1)">
       <use xlink:href="#DejaVuSans-51"/>
       <use x="63.623047" xlink:href="#DejaVuSans-48"/>
      </g>
     </g>
    </g>
    <g id="ytick_6">
     <g id="line2d_11">
      <g>
       <use style="stroke:#000000;stroke-width:0.8;" x="53.83125" xlink:href="#m02b57e8a5a" y="38.656071"/>
      </g>
     </g>
     <g id="text_12">
      <!-- 40 -->
      <g transform="translate(34.10625 42.45529)scale(0.1 -0.1)">
       <defs>
        <path d="M 37.796875 64.3125 
L 12.890625 25.390625 
L 37.796875 25.390625 
z
M 35.203125 72.90625 
L 47.609375 72.90625 
L 47.609375 25.390625 
L 58.015625 25.390625 
L 58.015625 17.1875 
L 47.609375 17.1875 
L 47.609375 0 
L 37.796875 0 
L 37.796875 17.1875 
L 4.890625 17.1875 
L 4.890625 26.703125 
z
" id="DejaVuSans-52"/>
       </defs>
       <use xlink:href="#DejaVuSans-52"/>
       <use x="63.623047" xlink:href="#DejaVuSans-48"/>
      </g>
     </g>
    </g>
    <g id="text_13">
     <!-- Cas8 to Cas3 (min.) -->
     <g transform="translate(19.646875 155.363192)rotate(-90)scale(0.1 -0.1)">
      <defs>
       <path d="M 31.78125 34.625 
Q 24.75 34.625 20.71875 30.859375 
Q 16.703125 27.09375 16.703125 20.515625 
Q 16.703125 13.921875 20.71875 10.15625 
Q 24.75 6.390625 31.78125 6.390625 
Q 38.8125 6.390625 42.859375 10.171875 
Q 46.921875 13.96875 46.921875 20.515625 
Q 46.921875 27.09375 42.890625 30.859375 
Q 38.875 34.625 31.78125 34.625 
z
M 21.921875 38.8125 
Q 15.578125 40.375 12.03125 44.71875 
Q 8.5 49.078125 8.5 55.328125 
Q 8.5 64.0625 14.71875 69.140625 
Q 20.953125 74.21875 31.78125 74.21875 
Q 42.671875 74.21875 48.875 69.140625 
Q 55.078125 64.0625 55.078125 55.328125 
Q 55.078125 49.078125 51.53125 44.71875 
Q 48 40.375 41.703125 38.8125 
Q 48.828125 37.15625 52.796875 32.3125 
Q 56.78125 27.484375 56.78125 20.515625 
Q 56.78125 9.90625 50.3125 4.234375 
Q 43.84375 -1.421875 31.78125 -1.421875 
Q 19.734375 -1.421875 13.25 4.234375 
Q 6.78125 9.90625 6.78125 20.515625 
Q 6.78125 27.484375 10.78125 32.3125 
Q 14.796875 37.15625 21.921875 38.8125 
z
M 18.3125 54.390625 
Q 18.3125 48.734375 21.84375 45.5625 
Q 25.390625 42.390625 31.78125 42.390625 
Q 38.140625 42.390625 41.71875 45.5625 
Q 45.3125 48.734375 45.3125 54.390625 
Q 45.3125 60.0625 41.71875 63.234375 
Q 38.140625 66.40625 31.78125 66.40625 
Q 25.390625 66.40625 21.84375 63.234375 
Q 18.3125 60.0625 18.3125 54.390625 
z
" id="DejaVuSans-56"/>
      </defs>
      <use xlink:href="#DejaVuSans-67"/>
      <use x="69.824219" xlink:href="#DejaVuSans-97"/>
      <use x="131.103516" xlink:href="#DejaVuSans-115"/>
      <use x="183.203125" xlink:href="#DejaVuSans-56"/>
      <use x="246.826172" xlink:href="#DejaVuSans-32"/>
      <use x="278.613281" xlink:href="#DejaVuSans-116"/>
      <use x="317.822266" xlink:href="#DejaVuSans-111"/>
      <use x="379.003906" xlink:href="#DejaVuSans-32"/>
      <use x="410.791016" xlink:href="#DejaVuSans-67"/>
      <use x="480.615234" xlink:href="#DejaVuSans-97"/>
      <use x="541.894531" xlink:href="#DejaVuSans-115"/>
      <use x="593.994141" xlink:href="#DejaVuSans-51"/>
      <use x="657.617188" xlink:href="#DejaVuSans-32"/>
      <use x="689.404297" xlink:href="#DejaVuSans-40"/>
      <use x="728.417969" xlink:href="#DejaVuSans-109"/>
      <use x="825.830078" xlink:href="#DejaVuSans-105"/>
      <use x="853.613281" xlink:href="#DejaVuSans-110"/>
      <use x="916.992188" xlink:href="#DejaVuSans-46"/>
      <use x="948.779297" xlink:href="#DejaVuSans-41"/>
     </g>
    </g>
   </g>
   <g id="LineCollection_1">
    <path clip-path="url(#p833092d245)" d="M 86.919394 151.02533 
L 90.858459 151.278229 
L 95.585336 151.34965 
L 100.312214 151.19867 
L 105.039092 150.843831 
L 109.812316 150.290328 
L 114.492847 149.566408 
L 119.219725 148.652543 
L 124.734415 147.343251 
L 129.461293 145.997749 
L 134.188171 144.413716 
L 138.178592 142.848044 
L 142.0663 141.058722 
L 145.217552 139.348474 
L 148.195168 137.435474 
L 150.829353 135.40576 
L 153.095682 133.315618 
L 154.912124 131.346333 
L 156.51592 129.316619 
L 157.876801 127.286905 
L 158.988338 125.257191 
L 159.795481 123.227478 
L 160.119541 121.874335 
L 160.228471 120.521193 
L 160.069098 119.16805 
L 159.570654 117.814908 
L 159.164914 117.138336 
L 158.610372 116.436926 
L 157.822559 115.672866 
L 156.246933 114.553569 
L 154.671307 113.73375 
L 152.307869 112.829827 
L 149.94443 112.162774 
L 146.793178 111.521917 
L 142.854113 111.001841 
L 138.915048 110.716329 
L 134.188171 110.618702 
L 129.461293 110.752562 
L 124.734415 111.100074 
L 119.489576 111.725766 
L 115.28066 112.406958 
L 110.553782 113.362011 
L 105.826905 114.522129 
L 101.100027 115.881368 
L 96.373149 117.440233 
L 91.646272 119.212004 
L 86.919394 121.219838 
L 82.768917 123.227478 
L 79.041264 125.296365 
L 75.890013 127.324857 
L 73.248925 129.316619 
L 70.996481 131.346333 
L 69.165781 133.376046 
L 67.75465 135.40576 
L 67.054951 136.758903 
L 66.561709 138.112045 
L 66.294372 139.465188 
L 66.281561 140.81833 
L 66.562705 142.171473 
L 67.22407 143.5718 
L 68.248106 144.877758 
L 69.587509 146.037267 
L 70.907934 146.907471 
L 72.738761 147.837146 
L 75.1022 148.757424 
L 77.465638 149.463011 
L 80.61689 150.169981 
L 84.555955 150.77773 
L 86.919394 151.02533 
L 86.919394 151.02533 
" style="fill:none;stroke:#5aa2cf;stroke-opacity:0.9;stroke-width:2;"/>
   </g>
   <g id="LineCollection_2">
    <path clip-path="url(#p833092d245)" d="M 97.160962 140.92486 
L 99.524401 141.228149 
L 102.675653 141.358253 
L 105.826905 141.237507 
L 109.637445 140.81833 
L 112.917221 140.222989 
L 116.068473 139.446593 
L 119.219725 138.434778 
L 121.737978 137.435474 
L 124.457914 136.082331 
L 126.595063 134.729189 
L 128.253957 133.376046 
L 129.488479 132.022904 
L 130.308961 130.669761 
L 130.696643 129.316619 
L 130.711531 128.640048 
L 130.588265 127.963476 
L 130.249106 127.197706 
L 129.461293 126.253953 
L 128.67348 125.650524 
L 127.885667 125.200235 
L 126.310041 124.58062 
L 123.946602 124.041715 
L 121.583164 123.775762 
L 118.431912 123.713947 
L 115.242256 123.904049 
L 112.129408 124.302304 
L 108.978156 124.892168 
L 105.826905 125.671799 
L 102.675653 126.654376 
L 99.34775 127.963476 
L 96.373149 129.45832 
L 94.447974 130.669761 
L 92.75708 132.022904 
L 91.511663 133.376046 
L 90.714925 134.729189 
L 90.495652 135.40576 
L 90.404955 136.082331 
L 90.457844 136.758903 
L 90.858459 137.755741 
L 91.083704 138.112045 
L 91.733291 138.788616 
L 93.221897 139.724963 
L 94.797523 140.349706 
L 97.160962 140.92486 
L 97.160962 140.92486 
" style="fill:none;stroke:#08306b;stroke-opacity:0.9;stroke-width:2;"/>
   </g>
   <g id="LineCollection_3">
    <path clip-path="url(#p833092d245)" d="M 94.00971 150.980733 
L 96.373149 150.916766 
L 98.736588 150.543609 
L 101.100027 149.850634 
L 103.463466 148.83232 
L 105.826905 147.482957 
L 108.190343 145.791846 
L 110.553782 143.742694 
L 112.758243 141.494901 
L 115.060507 138.788616 
L 117.094371 136.082331 
L 119.35612 132.699475 
L 121.350191 129.316619 
L 123.158789 125.66346 
L 123.946602 123.727499 
L 124.570226 121.874335 
L 125.196728 119.16805 
L 125.4211 117.138336 
L 125.426938 115.108623 
L 125.204504 113.078909 
L 124.733187 111.049195 
L 124.017954 109.019481 
L 123.032362 106.989768 
L 121.747688 104.960054 
L 120.120167 102.93034 
L 118.431912 101.214718 
L 116.471285 99.547484 
L 114.492847 98.125733 
L 112.129408 96.686799 
L 109.764278 95.488056 
L 107.402531 94.509299 
L 105.039092 93.755464 
L 102.675653 93.237481 
L 100.312214 92.970692 
L 97.948775 92.970609 
L 95.585336 93.251599 
L 93.221897 93.827219 
L 90.858459 94.714512 
L 88.49502 95.92941 
L 86.113714 97.51777 
L 83.768142 99.470992 
L 81.680661 101.577198 
L 79.829077 103.766132 
L 77.96291 106.313196 
L 75.890013 109.597095 
L 74.314387 112.471139 
L 73.041546 115.108623 
L 71.670596 118.491479 
L 70.811153 121.197764 
L 70.203462 123.904049 
L 69.936046 125.933763 
L 69.855557 127.963476 
L 69.980716 129.99319 
L 70.375322 132.174833 
L 70.937034 134.052618 
L 71.810493 136.082331 
L 72.973926 138.112045 
L 74.450222 140.141759 
L 76.261913 142.171473 
L 78.253451 144.034597 
L 80.61689 145.893201 
L 83.228676 147.584043 
L 85.343768 148.710621 
L 87.707207 149.705122 
L 90.070646 150.424112 
L 92.434084 150.856878 
L 94.00971 150.980733 
L 94.00971 150.980733 
" style="fill:none;stroke:#fda762;stroke-opacity:0.9;stroke-width:2;"/>
   </g>
   <g id="LineCollection_4">
    <path clip-path="url(#p833092d245)" d="M 90.858459 134.930606 
L 92.434084 135.282175 
L 94.00971 135.402634 
L 95.585336 135.29965 
L 97.160962 134.975252 
L 98.736588 134.421625 
L 100.312214 133.622164 
L 101.88784 132.547722 
L 103.463466 131.145926 
L 104.505385 129.99319 
L 105.826905 128.178755 
L 106.721476 126.610334 
L 107.588944 124.58062 
L 108.159304 122.550906 
L 108.431943 120.521193 
L 108.392265 118.491479 
L 108.173255 117.138336 
L 107.770408 115.785194 
L 107.156386 114.432051 
L 106.268246 113.078909 
L 105.039092 111.76234 
L 104.132586 111.049195 
L 102.675653 110.199794 
L 101.100027 109.601406 
L 99.524401 109.27365 
L 97.948775 109.181564 
L 96.373149 109.311862 
L 94.681518 109.696053 
L 92.912903 110.372624 
L 91.617373 111.049195 
L 89.684323 112.402338 
L 88.196727 113.75548 
L 86.919394 115.195227 
L 85.563383 117.138336 
L 84.555955 119.03956 
L 83.968314 120.521193 
L 83.434839 122.550906 
L 83.223751 124.58062 
L 83.276918 125.933763 
L 83.501009 127.286905 
L 83.917496 128.640048 
L 84.557985 129.99319 
L 85.484874 131.346333 
L 86.793101 132.699475 
L 87.707207 133.412405 
L 89.282833 134.323374 
L 90.858459 134.930606 
L 90.858459 134.930606 
" style="fill:none;stroke:#892b04;stroke-opacity:0.9;stroke-width:2;"/>
   </g>
   <g id="line2d_12">
    <path clip-path="url(#p833092d245)" d="M 53.83125 146.366214 
L 179.251071 146.366214 
" style="fill:none;stroke:#000000;stroke-linecap:square;stroke-opacity:0.5;stroke-width:1.5;"/>
   </g>
   <g id="line2d_13">
    <path clip-path="url(#p833092d245)" d="M 85.186205 173.29375 
L 85.186205 38.656071 
" style="fill:none;stroke:#000000;stroke-linecap:square;stroke-opacity:0.5;stroke-width:1.5;"/>
   </g>
   <g id="patch_3">
    <path d="M 53.83125 173.29375 
L 53.83125 38.656071 
" style="fill:none;stroke:#000000;stroke-linecap:square;stroke-linejoin:miter;stroke-width:0.8;"/>
   </g>
   <g id="patch_4">
    <path d="M 53.83125 173.29375 
L 179.251071 173.29375 
" style="fill:none;stroke:#000000;stroke-linecap:square;stroke-linejoin:miter;stroke-width:0.8;"/>
   </g>
   <g id="legend_1">
    <g id="patch_5">
     <path d="M 97.721384 76.012321 
L 172.251071 76.012321 
Q 174.251071 76.012321 174.251071 74.012321 
L 174.251071 45.656071 
Q 174.251071 43.656071 172.251071 43.656071 
L 97.721384 43.656071 
Q 95.721384 43.656071 95.721384 45.656071 
L 95.721384 74.012321 
Q 95.721384 76.012321 97.721384 76.012321 
z
" style="fill:#ffffff;opacity:0.8;stroke:#cccccc;stroke-linejoin:miter;"/>
    </g>
    <g id="line2d_14">
     <path d="M 99.721384 51.754509 
L 119.721384 51.754509 
" style="fill:none;stroke:#5aa2cf;stroke-opacity:0.9;stroke-width:2;"/>
    </g>
    <g id="text_14">
     <!-- extrinsic -->
     <g transform="translate(127.721384 55.254509)scale(0.1 -0.1)">
      <defs>
       <path d="M 56.203125 29.59375 
L 56.203125 25.203125 
L 14.890625 25.203125 
Q 15.484375 15.921875 20.484375 11.0625 
Q 25.484375 6.203125 34.421875 6.203125 
Q 39.59375 6.203125 44.453125 7.46875 
Q 49.3125 8.734375 54.109375 11.28125 
L 54.109375 2.78125 
Q 49.265625 0.734375 44.1875 -0.34375 
Q 39.109375 -1.421875 33.890625 -1.421875 
Q 20.796875 -1.421875 13.15625 6.1875 
Q 5.515625 13.8125 5.515625 26.8125 
Q 5.515625 40.234375 12.765625 48.109375 
Q 20.015625 56 32.328125 56 
Q 43.359375 56 49.78125 48.890625 
Q 56.203125 41.796875 56.203125 29.59375 
z
M 47.21875 32.234375 
Q 47.125 39.59375 43.09375 43.984375 
Q 39.0625 48.390625 32.421875 48.390625 
Q 24.90625 48.390625 20.390625 44.140625 
Q 15.875 39.890625 15.1875 32.171875 
z
" id="DejaVuSans-101"/>
       <path d="M 54.890625 54.6875 
L 35.109375 28.078125 
L 55.90625 0 
L 45.3125 0 
L 29.390625 21.484375 
L 13.484375 0 
L 2.875 0 
L 24.125 28.609375 
L 4.6875 54.6875 
L 15.28125 54.6875 
L 29.78125 35.203125 
L 44.28125 54.6875 
z
" id="DejaVuSans-120"/>
       <path d="M 41.109375 46.296875 
Q 39.59375 47.171875 37.8125 47.578125 
Q 36.03125 48 33.890625 48 
Q 26.265625 48 22.1875 43.046875 
Q 18.109375 38.09375 18.109375 28.8125 
L 18.109375 0 
L 9.078125 0 
L 9.078125 54.6875 
L 18.109375 54.6875 
L 18.109375 46.1875 
Q 20.953125 51.171875 25.484375 53.578125 
Q 30.03125 56 36.53125 56 
Q 37.453125 56 38.578125 55.875 
Q 39.703125 55.765625 41.0625 55.515625 
z
" id="DejaVuSans-114"/>
       <path d="M 48.78125 52.59375 
L 48.78125 44.1875 
Q 44.96875 46.296875 41.140625 47.34375 
Q 37.3125 48.390625 33.40625 48.390625 
Q 24.65625 48.390625 19.8125 42.84375 
Q 14.984375 37.3125 14.984375 27.296875 
Q 14.984375 17.28125 19.8125 11.734375 
Q 24.65625 6.203125 33.40625 6.203125 
Q 37.3125 6.203125 41.140625 7.25 
Q 44.96875 8.296875 48.78125 10.40625 
L 48.78125 2.09375 
Q 45.015625 0.34375 40.984375 -0.53125 
Q 36.96875 -1.421875 32.421875 -1.421875 
Q 20.0625 -1.421875 12.78125 6.34375 
Q 5.515625 14.109375 5.515625 27.296875 
Q 5.515625 40.671875 12.859375 48.328125 
Q 20.21875 56 33.015625 56 
Q 37.15625 56 41.109375 55.140625 
Q 45.0625 54.296875 48.78125 52.59375 
z
" id="DejaVuSans-99"/>
      </defs>
      <use xlink:href="#DejaVuSans-101"/>
      <use x="59.773438" xlink:href="#DejaVuSans-120"/>
      <use x="118.953125" xlink:href="#DejaVuSans-116"/>
      <use x="158.162109" xlink:href="#DejaVuSans-114"/>
      <use x="199.275391" xlink:href="#DejaVuSans-105"/>
      <use x="227.058594" xlink:href="#DejaVuSans-110"/>
      <use x="290.4375" xlink:href="#DejaVuSans-115"/>
      <use x="342.537109" xlink:href="#DejaVuSans-105"/>
      <use x="370.320312" xlink:href="#DejaVuSans-99"/>
     </g>
    </g>
    <g id="line2d_15">
     <path d="M 99.721384 66.432634 
L 119.721384 66.432634 
" style="fill:none;stroke:#fda762;stroke-opacity:0.9;stroke-width:2;"/>
    </g>
    <g id="text_15">
     <!-- intrinsic -->
     <g transform="translate(127.721384 69.932634)scale(0.1 -0.1)">
      <use xlink:href="#DejaVuSans-105"/>
      <use x="27.783203" xlink:href="#DejaVuSans-110"/>
      <use x="91.162109" xlink:href="#DejaVuSans-116"/>
      <use x="130.371094" xlink:href="#DejaVuSans-114"/>
      <use x="171.484375" xlink:href="#DejaVuSans-105"/>
      <use x="199.267578" xlink:href="#DejaVuSans-110"/>
      <use x="262.646484" xlink:href="#DejaVuSans-115"/>
      <use x="314.746094" xlink:href="#DejaVuSans-105"/>
      <use x="342.529297" xlink:href="#DejaVuSans-99"/>
     </g>
    </g>
   </g>
  </g>
  <g id="axes_2">
   <g id="patch_6">
    <path d="M 53.83125 34.013393 
L 179.251071 34.013393 
L 179.251071 10.8 
L 53.83125 10.8 
z
" style="fill:#ffffff;"/>
   </g>
   <g id="patch_7">
    <path clip-path="url(#p3e180a0d91)" d="M 66.373232 34.013393 
L 82.05071 34.013393 
L 82.05071 33.509987 
L 66.373232 33.509987 
z
" style="fill:none;stroke:#2e7ebc;stroke-linejoin:miter;stroke-width:2;"/>
   </g>
   <g id="patch_8">
    <path clip-path="url(#p3e180a0d91)" d="M 82.05071 34.013393 
L 97.728187 34.013393 
L 97.728187 29.48274 
L 82.05071 29.48274 
z
" style="fill:none;stroke:#2e7ebc;stroke-linejoin:miter;stroke-width:2;"/>
   </g>
   <g id="patch_9">
    <path clip-path="url(#p3e180a0d91)" d="M 97.728187 34.013393 
L 113.405665 34.013393 
L 113.405665 22.938464 
L 97.728187 22.938464 
z
" style="fill:none;stroke:#2e7ebc;stroke-linejoin:miter;stroke-width:2;"/>
   </g>
   <g id="patch_10">
    <path clip-path="url(#p3e180a0d91)" d="M 113.405665 34.013393 
L 129.083143 34.013393 
L 129.083143 27.972523 
L 113.405665 27.972523 
z
" style="fill:none;stroke:#2e7ebc;stroke-linejoin:miter;stroke-width:2;"/>
   </g>
   <g id="patch_11">
    <path clip-path="url(#p3e180a0d91)" d="M 129.083143 34.013393 
L 144.760621 34.013393 
L 144.760621 29.986146 
L 129.083143 29.986146 
z
" style="fill:none;stroke:#2e7ebc;stroke-linejoin:miter;stroke-width:2;"/>
   </g>
   <g id="patch_12">
    <path clip-path="url(#p3e180a0d91)" d="M 144.760621 34.013393 
L 160.438098 34.013393 
L 160.438098 31.748067 
L 144.760621 31.748067 
z
" style="fill:none;stroke:#2e7ebc;stroke-linejoin:miter;stroke-width:2;"/>
   </g>
   <g id="patch_13">
    <path clip-path="url(#p3e180a0d91)" d="M 160.438098 34.013393 
L 176.115576 34.013393 
L 176.115576 33.258284 
L 160.438098 33.258284 
z
" style="fill:none;stroke:#2e7ebc;stroke-linejoin:miter;stroke-width:2;"/>
   </g>
   <g id="patch_14">
    <path clip-path="url(#p3e180a0d91)" d="M 176.115576 34.013393 
L 191.793054 34.013393 
L 191.793054 33.006581 
L 176.115576 33.006581 
z
" style="fill:none;stroke:#2e7ebc;stroke-linejoin:miter;stroke-width:2;"/>
   </g>
   <g id="patch_15">
    <path clip-path="url(#p3e180a0d91)" d="M 191.793054 34.013393 
L 207.470531 34.013393 
L 207.470531 32.503175 
L 191.793054 32.503175 
z
" style="fill:none;stroke:#2e7ebc;stroke-linejoin:miter;stroke-width:2;"/>
   </g>
   <g id="patch_16">
    <path clip-path="url(#p3e180a0d91)" d="M 207.470531 34.013393 
L 223.148009 34.013393 
L 223.148009 33.258284 
L 207.470531 33.258284 
z
" style="fill:none;stroke:#2e7ebc;stroke-linejoin:miter;stroke-width:2;"/>
   </g>
   <g id="patch_17">
    <path clip-path="url(#p3e180a0d91)" d="M 223.148009 34.013393 
L 238.825487 34.013393 
L 238.825487 32.754878 
L 223.148009 32.754878 
z
" style="fill:none;stroke:#2e7ebc;stroke-linejoin:miter;stroke-width:2;"/>
   </g>
   <g id="patch_18">
    <path clip-path="url(#p3e180a0d91)" d="M 238.825487 34.013393 
L 254.502964 34.013393 
L 254.502964 33.006581 
L 238.825487 33.006581 
z
" style="fill:none;stroke:#2e7ebc;stroke-linejoin:miter;stroke-width:2;"/>
   </g>
   <g id="patch_19">
    <path clip-path="url(#p3e180a0d91)" d="M 254.502964 34.013393 
L 270.180442 34.013393 
L 270.180442 33.006581 
L 254.502964 33.006581 
z
" style="fill:none;stroke:#2e7ebc;stroke-linejoin:miter;stroke-width:2;"/>
   </g>
   <g id="patch_20">
    <path clip-path="url(#p3e180a0d91)" d="M 270.180442 34.013393 
L 285.85792 34.013393 
L 285.85792 33.258284 
L 270.180442 33.258284 
z
" style="fill:none;stroke:#2e7ebc;stroke-linejoin:miter;stroke-width:2;"/>
   </g>
   <g id="patch_21">
    <path clip-path="url(#p3e180a0d91)" d="M 285.85792 34.013393 
L 301.535397 34.013393 
L 301.535397 34.013393 
L 285.85792 34.013393 
z
" style="fill:none;stroke:#2e7ebc;stroke-linejoin:miter;stroke-width:2;"/>
   </g>
   <g id="patch_22">
    <path clip-path="url(#p3e180a0d91)" d="M 301.535397 34.013393 
L 317.212875 34.013393 
L 317.212875 33.76169 
L 301.535397 33.76169 
z
" style="fill:none;stroke:#2e7ebc;stroke-linejoin:miter;stroke-width:2;"/>
   </g>
   <g id="patch_23">
    <path clip-path="url(#p3e180a0d91)" d="M 317.212875 34.013393 
L 332.890353 34.013393 
L 332.890353 33.76169 
L 317.212875 33.76169 
z
" style="fill:none;stroke:#2e7ebc;stroke-linejoin:miter;stroke-width:2;"/>
   </g>
   <g id="patch_24">
    <path clip-path="url(#p3e180a0d91)" d="M 332.890353 34.013393 
L 348.56783 34.013393 
L 348.56783 33.509987 
L 332.890353 33.509987 
z
" style="fill:none;stroke:#2e7ebc;stroke-linejoin:miter;stroke-width:2;"/>
   </g>
   <g id="patch_25">
    <path clip-path="url(#p3e180a0d91)" d="M 348.56783 34.013393 
L 364.245308 34.013393 
L 364.245308 33.76169 
L 348.56783 33.76169 
z
" style="fill:none;stroke:#2e7ebc;stroke-linejoin:miter;stroke-width:2;"/>
   </g>
   <g id="patch_26">
    <path clip-path="url(#p3e180a0d91)" d="M 364.245308 34.013393 
L 379.922786 34.013393 
L 379.922786 33.509987 
L 364.245308 33.509987 
z
" style="fill:none;stroke:#2e7ebc;stroke-linejoin:miter;stroke-width:2;"/>
   </g>
   <g id="patch_27">
    <path clip-path="url(#p3e180a0d91)" d="M 19.340799 34.013393 
L 32.980205 34.013393 
L 32.980205 33.532784 
L 19.340799 33.532784 
z
" style="fill:none;stroke:#e25508;stroke-linejoin:miter;stroke-width:2;"/>
   </g>
   <g id="patch_28">
    <path clip-path="url(#p3e180a0d91)" d="M 32.980205 34.013393 
L 46.61961 34.013393 
L 46.61961 34.013393 
L 32.980205 34.013393 
z
" style="fill:none;stroke:#e25508;stroke-linejoin:miter;stroke-width:2;"/>
   </g>
   <g id="patch_29">
    <path clip-path="url(#p3e180a0d91)" d="M 46.61961 34.013393 
L 60.259016 34.013393 
L 60.259016 34.013393 
L 46.61961 34.013393 
z
" style="fill:none;stroke:#e25508;stroke-linejoin:miter;stroke-width:2;"/>
   </g>
   <g id="patch_30">
    <path clip-path="url(#p3e180a0d91)" d="M 60.259016 34.013393 
L 73.898421 34.013393 
L 73.898421 33.29248 
L 60.259016 33.29248 
z
" style="fill:none;stroke:#e25508;stroke-linejoin:miter;stroke-width:2;"/>
   </g>
   <g id="patch_31">
    <path clip-path="url(#p3e180a0d91)" d="M 73.898421 34.013393 
L 87.537827 34.013393 
L 87.537827 28.726699 
L 73.898421 28.726699 
z
" style="fill:none;stroke:#e25508;stroke-linejoin:miter;stroke-width:2;"/>
   </g>
   <g id="patch_32">
    <path clip-path="url(#p3e180a0d91)" d="M 87.537827 34.013393 
L 101.177233 34.013393 
L 101.177233 11.9054 
L 87.537827 11.9054 
z
" style="fill:none;stroke:#e25508;stroke-linejoin:miter;stroke-width:2;"/>
   </g>
   <g id="patch_33">
    <path clip-path="url(#p3e180a0d91)" d="M 101.177233 34.013393 
L 114.816638 34.013393 
L 114.816638 28.486395 
L 101.177233 28.486395 
z
" style="fill:none;stroke:#e25508;stroke-linejoin:miter;stroke-width:2;"/>
   </g>
   <g id="patch_34">
    <path clip-path="url(#p3e180a0d91)" d="M 114.816638 34.013393 
L 128.456044 34.013393 
L 128.456044 31.61035 
L 114.816638 31.61035 
z
" style="fill:none;stroke:#e25508;stroke-linejoin:miter;stroke-width:2;"/>
   </g>
   <g id="patch_35">
    <path clip-path="url(#p3e180a0d91)" d="M 128.456044 34.013393 
L 142.095449 34.013393 
L 142.095449 30.408829 
L 128.456044 30.408829 
z
" style="fill:none;stroke:#e25508;stroke-linejoin:miter;stroke-width:2;"/>
   </g>
   <g id="patch_36">
    <path clip-path="url(#p3e180a0d91)" d="M 142.095449 34.013393 
L 155.734855 34.013393 
L 155.734855 32.811871 
L 142.095449 32.811871 
z
" style="fill:none;stroke:#e25508;stroke-linejoin:miter;stroke-width:2;"/>
   </g>
   <g id="patch_37">
    <path clip-path="url(#p3e180a0d91)" d="M 155.734855 34.013393 
L 169.37426 34.013393 
L 169.37426 33.773089 
L 155.734855 33.773089 
z
" style="fill:none;stroke:#e25508;stroke-linejoin:miter;stroke-width:2;"/>
   </g>
   <g id="patch_38">
    <path clip-path="url(#p3e180a0d91)" d="M 169.37426 34.013393 
L 183.013666 34.013393 
L 183.013666 33.29248 
L 169.37426 33.29248 
z
" style="fill:none;stroke:#e25508;stroke-linejoin:miter;stroke-width:2;"/>
   </g>
   <g id="patch_39">
    <path clip-path="url(#p3e180a0d91)" d="M 183.013666 34.013393 
L 196.653072 34.013393 
L 196.653072 33.532784 
L 183.013666 33.532784 
z
" style="fill:none;stroke:#e25508;stroke-linejoin:miter;stroke-width:2;"/>
   </g>
   <g id="patch_40">
    <path clip-path="url(#p3e180a0d91)" d="M 196.653072 34.013393 
L 210.292477 34.013393 
L 210.292477 33.532784 
L 196.653072 33.532784 
z
" style="fill:none;stroke:#e25508;stroke-linejoin:miter;stroke-width:2;"/>
   </g>
   <g id="patch_41">
    <path clip-path="url(#p3e180a0d91)" d="M 210.292477 34.013393 
L 223.931883 34.013393 
L 223.931883 34.013393 
L 210.292477 34.013393 
z
" style="fill:none;stroke:#e25508;stroke-linejoin:miter;stroke-width:2;"/>
   </g>
   <g id="patch_42">
    <path clip-path="url(#p3e180a0d91)" d="M 223.931883 34.013393 
L 237.571288 34.013393 
L 237.571288 34.013393 
L 223.931883 34.013393 
z
" style="fill:none;stroke:#e25508;stroke-linejoin:miter;stroke-width:2;"/>
   </g>
   <g id="patch_43">
    <path clip-path="url(#p3e180a0d91)" d="M 237.571288 34.013393 
L 251.210694 34.013393 
L 251.210694 33.773089 
L 237.571288 33.773089 
z
" style="fill:none;stroke:#e25508;stroke-linejoin:miter;stroke-width:2;"/>
   </g>
   <g id="patch_44">
    <path clip-path="url(#p3e180a0d91)" d="M 251.210694 34.013393 
L 264.8501 34.013393 
L 264.8501 34.013393 
L 251.210694 34.013393 
z
" style="fill:none;stroke:#e25508;stroke-linejoin:miter;stroke-width:2;"/>
   </g>
   <g id="patch_45">
    <path clip-path="url(#p3e180a0d91)" d="M 264.8501 34.013393 
L 278.489505 34.013393 
L 278.489505 33.773089 
L 264.8501 33.773089 
z
" style="fill:none;stroke:#e25508;stroke-linejoin:miter;stroke-width:2;"/>
   </g>
   <g id="patch_46">
    <path clip-path="url(#p3e180a0d91)" d="M 278.489505 34.013393 
L 292.128911 34.013393 
L 292.128911 33.773089 
L 278.489505 33.773089 
z
" style="fill:none;stroke:#e25508;stroke-linejoin:miter;stroke-width:2;"/>
   </g>
   <g id="matplotlib.axis_3">
    <g id="xtick_6">
     <g id="line2d_16">
      <g>
       <use style="stroke:#000000;stroke-width:0.8;" x="53.83125" xlink:href="#md549fd4daf" y="34.013393"/>
      </g>
     </g>
    </g>
    <g id="xtick_7">
     <g id="line2d_17">
      <g>
       <use style="stroke:#000000;stroke-width:0.8;" x="85.186205" xlink:href="#md549fd4daf" y="34.013393"/>
      </g>
     </g>
    </g>
    <g id="xtick_8">
     <g id="line2d_18">
      <g>
       <use style="stroke:#000000;stroke-width:0.8;" x="116.541161" xlink:href="#md549fd4daf" y="34.013393"/>
      </g>
     </g>
    </g>
    <g id="xtick_9">
     <g id="line2d_19">
      <g>
       <use style="stroke:#000000;stroke-width:0.8;" x="147.896116" xlink:href="#md549fd4daf" y="34.013393"/>
      </g>
     </g>
    </g>
    <g id="xtick_10">
     <g id="line2d_20">
      <g>
       <use style="stroke:#000000;stroke-width:0.8;" x="179.251071" xlink:href="#md549fd4daf" y="34.013393"/>
      </g>
     </g>
    </g>
   </g>
   <g id="matplotlib.axis_4">
    <g id="ytick_7"/>
    <g id="ytick_8"/>
   </g>
   <g id="patch_47">
    <path d="M 53.83125 34.013393 
L 179.251071 34.013393 
" style="fill:none;stroke:#000000;stroke-linecap:square;stroke-linejoin:miter;stroke-width:0.8;"/>
   </g>
  </g>
  <g id="axes_3">
   <g id="patch_48">
    <path d="M 183.575893 173.29375 
L 205.2 173.29375 
L 205.2 38.656071 
L 183.575893 38.656071 
z
" style="fill:#ffffff;"/>
   </g>
   <g id="patch_49">
    <path clip-path="url(#pb4bd615e98)" d="M 183.575893 259.461864 
L 184.043947 259.461864 
L 184.043947 248.960125 
L 183.575893 248.960125 
z
" style="fill:none;stroke:#2e7ebc;stroke-linejoin:miter;stroke-width:2;"/>
   </g>
   <g id="patch_50">
    <path clip-path="url(#pb4bd615e98)" d="M 183.575893 248.960125 
L 183.575893 248.960125 
L 183.575893 238.458386 
L 183.575893 238.458386 
z
" style="fill:none;stroke:#2e7ebc;stroke-linejoin:miter;stroke-width:2;"/>
   </g>
   <g id="patch_51">
    <path clip-path="url(#pb4bd615e98)" d="M 183.575893 238.458386 
L 183.575893 238.458386 
L 183.575893 227.956647 
L 183.575893 227.956647 
z
" style="fill:none;stroke:#2e7ebc;stroke-linejoin:miter;stroke-width:2;"/>
   </g>
   <g id="patch_52">
    <path clip-path="url(#pb4bd615e98)" d="M 183.575893 227.956647 
L 183.575893 227.956647 
L 183.575893 217.454909 
L 183.575893 217.454909 
z
" style="fill:none;stroke:#2e7ebc;stroke-linejoin:miter;stroke-width:2;"/>
   </g>
   <g id="patch_53">
    <path clip-path="url(#pb4bd615e98)" d="M 183.575893 217.454909 
L 183.575893 217.454909 
L 183.575893 206.95317 
L 183.575893 206.95317 
z
" style="fill:none;stroke:#2e7ebc;stroke-linejoin:miter;stroke-width:2;"/>
   </g>
   <g id="patch_54">
    <path clip-path="url(#pb4bd615e98)" d="M 183.575893 206.95317 
L 183.575893 206.95317 
L 183.575893 196.451431 
L 183.575893 196.451431 
z
" style="fill:none;stroke:#2e7ebc;stroke-linejoin:miter;stroke-width:2;"/>
   </g>
   <g id="patch_55">
    <path clip-path="url(#pb4bd615e98)" d="M 183.575893 196.451431 
L 184.512001 196.451431 
L 184.512001 185.949692 
L 183.575893 185.949692 
z
" style="fill:none;stroke:#2e7ebc;stroke-linejoin:miter;stroke-width:2;"/>
   </g>
   <g id="patch_56">
    <path clip-path="url(#pb4bd615e98)" d="M 183.575893 185.949692 
L 184.043947 185.949692 
L 184.043947 175.447953 
L 183.575893 175.447953 
z
" style="fill:none;stroke:#2e7ebc;stroke-linejoin:miter;stroke-width:2;"/>
   </g>
   <g id="patch_57">
    <path clip-path="url(#pb4bd615e98)" d="M 183.575893 175.447953 
L 184.512001 175.447953 
L 184.512001 164.946214 
L 183.575893 164.946214 
z
" style="fill:none;stroke:#2e7ebc;stroke-linejoin:miter;stroke-width:2;"/>
   </g>
   <g id="patch_58">
    <path clip-path="url(#pb4bd615e98)" d="M 183.575893 164.946214 
L 184.043947 164.946214 
L 184.043947 154.444475 
L 183.575893 154.444475 
z
" style="fill:none;stroke:#2e7ebc;stroke-linejoin:miter;stroke-width:2;"/>
   </g>
   <g id="patch_59">
    <path clip-path="url(#pb4bd615e98)" d="M 183.575893 154.444475 
L 190.596707 154.444475 
L 190.596707 143.942736 
L 183.575893 143.942736 
z
" style="fill:none;stroke:#2e7ebc;stroke-linejoin:miter;stroke-width:2;"/>
   </g>
   <g id="patch_60">
    <path clip-path="url(#pb4bd615e98)" d="M 183.575893 143.942736 
L 202.766118 143.942736 
L 202.766118 133.440997 
L 183.575893 133.440997 
z
" style="fill:none;stroke:#2e7ebc;stroke-linejoin:miter;stroke-width:2;"/>
   </g>
   <g id="patch_61">
    <path clip-path="url(#pb4bd615e98)" d="M 183.575893 133.440997 
L 204.170281 133.440997 
L 204.170281 122.939258 
L 183.575893 122.939258 
z
" style="fill:none;stroke:#2e7ebc;stroke-linejoin:miter;stroke-width:2;"/>
   </g>
   <g id="patch_62">
    <path clip-path="url(#pb4bd615e98)" d="M 183.575893 122.939258 
L 196.213358 122.939258 
L 196.213358 112.437519 
L 183.575893 112.437519 
z
" style="fill:none;stroke:#2e7ebc;stroke-linejoin:miter;stroke-width:2;"/>
   </g>
   <g id="patch_63">
    <path clip-path="url(#pb4bd615e98)" d="M 183.575893 112.437519 
L 190.128653 112.437519 
L 190.128653 101.93578 
L 183.575893 101.93578 
z
" style="fill:none;stroke:#2e7ebc;stroke-linejoin:miter;stroke-width:2;"/>
   </g>
   <g id="patch_64">
    <path clip-path="url(#pb4bd615e98)" d="M 183.575893 101.93578 
L 184.512001 101.93578 
L 184.512001 91.434041 
L 183.575893 91.434041 
z
" style="fill:none;stroke:#2e7ebc;stroke-linejoin:miter;stroke-width:2;"/>
   </g>
   <g id="patch_65">
    <path clip-path="url(#pb4bd615e98)" d="M 183.575893 91.434041 
L 184.043947 91.434041 
L 184.043947 80.932302 
L 183.575893 80.932302 
z
" style="fill:none;stroke:#2e7ebc;stroke-linejoin:miter;stroke-width:2;"/>
   </g>
   <g id="patch_66">
    <path clip-path="url(#pb4bd615e98)" d="M 183.575893 80.932302 
L 183.575893 80.932302 
L 183.575893 70.430564 
L 183.575893 70.430564 
z
" style="fill:none;stroke:#2e7ebc;stroke-linejoin:miter;stroke-width:2;"/>
   </g>
   <g id="patch_67">
    <path clip-path="url(#pb4bd615e98)" d="M 183.575893 70.430564 
L 183.575893 70.430564 
L 183.575893 59.928825 
L 183.575893 59.928825 
z
" style="fill:none;stroke:#2e7ebc;stroke-linejoin:miter;stroke-width:2;"/>
   </g>
   <g id="patch_68">
    <path clip-path="url(#pb4bd615e98)" d="M 183.575893 59.928825 
L 184.043947 59.928825 
L 184.043947 49.427086 
L 183.575893 49.427086 
z
" style="fill:none;stroke:#2e7ebc;stroke-linejoin:miter;stroke-width:2;"/>
   </g>
   <g id="patch_69">
    <path clip-path="url(#pb4bd615e98)" d="M 183.575893 254.076357 
L 184.297888 254.076357 
L 184.297888 242.766792 
L 183.575893 242.766792 
z
" style="fill:none;stroke:#e25508;stroke-linejoin:miter;stroke-width:2;"/>
   </g>
   <g id="patch_70">
    <path clip-path="url(#pb4bd615e98)" d="M 183.575893 242.766792 
L 183.575893 242.766792 
L 183.575893 231.457227 
L 183.575893 231.457227 
z
" style="fill:none;stroke:#e25508;stroke-linejoin:miter;stroke-width:2;"/>
   </g>
   <g id="patch_71">
    <path clip-path="url(#pb4bd615e98)" d="M 183.575893 231.457227 
L 183.575893 231.457227 
L 183.575893 220.147662 
L 183.575893 220.147662 
z
" style="fill:none;stroke:#e25508;stroke-linejoin:miter;stroke-width:2;"/>
   </g>
   <g id="patch_72">
    <path clip-path="url(#pb4bd615e98)" d="M 183.575893 220.147662 
L 183.93689 220.147662 
L 183.93689 208.838097 
L 183.575893 208.838097 
z
" style="fill:none;stroke:#e25508;stroke-linejoin:miter;stroke-width:2;"/>
   </g>
   <g id="patch_73">
    <path clip-path="url(#pb4bd615e98)" d="M 183.575893 208.838097 
L 183.575893 208.838097 
L 183.575893 197.528532 
L 183.575893 197.528532 
z
" style="fill:none;stroke:#e25508;stroke-linejoin:miter;stroke-width:2;"/>
   </g>
   <g id="patch_74">
    <path clip-path="url(#pb4bd615e98)" d="M 183.575893 197.528532 
L 183.93689 197.528532 
L 183.93689 186.218967 
L 183.575893 186.218967 
z
" style="fill:none;stroke:#e25508;stroke-linejoin:miter;stroke-width:2;"/>
   </g>
   <g id="patch_75">
    <path clip-path="url(#pb4bd615e98)" d="M 183.575893 186.218967 
L 185.019882 186.218967 
L 185.019882 174.909402 
L 183.575893 174.909402 
z
" style="fill:none;stroke:#e25508;stroke-linejoin:miter;stroke-width:2;"/>
   </g>
   <g id="patch_76">
    <path clip-path="url(#pb4bd615e98)" d="M 183.575893 174.909402 
L 183.93689 174.909402 
L 183.93689 163.599837 
L 183.575893 163.599837 
z
" style="fill:none;stroke:#e25508;stroke-linejoin:miter;stroke-width:2;"/>
   </g>
   <g id="patch_77">
    <path clip-path="url(#pb4bd615e98)" d="M 183.575893 163.599837 
L 185.019882 163.599837 
L 185.019882 152.290272 
L 183.575893 152.290272 
z
" style="fill:none;stroke:#e25508;stroke-linejoin:miter;stroke-width:2;"/>
   </g>
   <g id="patch_78">
    <path clip-path="url(#pb4bd615e98)" d="M 183.575893 152.290272 
L 187.546864 152.290272 
L 187.546864 140.980707 
L 183.575893 140.980707 
z
" style="fill:none;stroke:#e25508;stroke-linejoin:miter;stroke-width:2;"/>
   </g>
   <g id="patch_79">
    <path clip-path="url(#pb4bd615e98)" d="M 183.575893 140.980707 
L 194.405814 140.980707 
L 194.405814 129.671142 
L 183.575893 129.671142 
z
" style="fill:none;stroke:#e25508;stroke-linejoin:miter;stroke-width:2;"/>
   </g>
   <g id="patch_80">
    <path clip-path="url(#pb4bd615e98)" d="M 183.575893 129.671142 
L 203.791745 129.671142 
L 203.791745 118.361577 
L 183.575893 118.361577 
z
" style="fill:none;stroke:#e25508;stroke-linejoin:miter;stroke-width:2;"/>
   </g>
   <g id="patch_81">
    <path clip-path="url(#pb4bd615e98)" d="M 183.575893 118.361577 
L 194.044816 118.361577 
L 194.044816 107.052012 
L 183.575893 107.052012 
z
" style="fill:none;stroke:#e25508;stroke-linejoin:miter;stroke-width:2;"/>
   </g>
   <g id="patch_82">
    <path clip-path="url(#pb4bd615e98)" d="M 183.575893 107.052012 
L 191.156837 107.052012 
L 191.156837 95.742447 
L 183.575893 95.742447 
z
" style="fill:none;stroke:#e25508;stroke-linejoin:miter;stroke-width:2;"/>
   </g>
   <g id="patch_83">
    <path clip-path="url(#pb4bd615e98)" d="M 183.575893 95.742447 
L 188.268859 95.742447 
L 188.268859 84.432882 
L 183.575893 84.432882 
z
" style="fill:none;stroke:#e25508;stroke-linejoin:miter;stroke-width:2;"/>
   </g>
   <g id="patch_84">
    <path clip-path="url(#pb4bd615e98)" d="M 183.575893 84.432882 
L 185.741877 84.432882 
L 185.741877 73.123317 
L 183.575893 73.123317 
z
" style="fill:none;stroke:#e25508;stroke-linejoin:miter;stroke-width:2;"/>
   </g>
   <g id="patch_85">
    <path clip-path="url(#pb4bd615e98)" d="M 183.575893 73.123317 
L 183.93689 73.123317 
L 183.93689 61.813752 
L 183.575893 61.813752 
z
" style="fill:none;stroke:#e25508;stroke-linejoin:miter;stroke-width:2;"/>
   </g>
   <g id="patch_86">
    <path clip-path="url(#pb4bd615e98)" d="M 183.575893 61.813752 
L 183.93689 61.813752 
L 183.93689 50.504187 
L 183.575893 50.504187 
z
" style="fill:none;stroke:#e25508;stroke-linejoin:miter;stroke-width:2;"/>
   </g>
   <g id="patch_87">
    <path clip-path="url(#pb4bd615e98)" d="M 183.575893 50.504187 
L 183.575893 50.504187 
L 183.575893 39.194622 
L 183.575893 39.194622 
z
" style="fill:none;stroke:#e25508;stroke-linejoin:miter;stroke-width:2;"/>
   </g>
   <g id="patch_88">
    <path clip-path="url(#pb4bd615e98)" d="M 183.575893 39.194622 
L 184.297888 39.194622 
L 184.297888 27.885057 
L 183.575893 27.885057 
z
" style="fill:none;stroke:#e25508;stroke-linejoin:miter;stroke-width:2;"/>
   </g>
   <g id="matplotlib.axis_5">
    <g id="xtick_11"/>
    <g id="xtick_12"/>
   </g>
   <g id="matplotlib.axis_6">
    <g id="ytick_9">
     <g id="line2d_21">
      <g>
       <use style="stroke:#000000;stroke-width:0.8;" x="183.575893" xlink:href="#m02b57e8a5a" y="173.29375"/>
      </g>
     </g>
    </g>
    <g id="ytick_10">
     <g id="line2d_22">
      <g>
       <use style="stroke:#000000;stroke-width:0.8;" x="183.575893" xlink:href="#m02b57e8a5a" y="146.366214"/>
      </g>
     </g>
    </g>
    <g id="ytick_11">
     <g id="line2d_23">
      <g>
       <use style="stroke:#000000;stroke-width:0.8;" x="183.575893" xlink:href="#m02b57e8a5a" y="119.438679"/>
      </g>
     </g>
    </g>
    <g id="ytick_12">
     <g id="line2d_24">
      <g>
       <use style="stroke:#000000;stroke-width:0.8;" x="183.575893" xlink:href="#m02b57e8a5a" y="92.511143"/>
      </g>
     </g>
    </g>
    <g id="ytick_13">
     <g id="line2d_25">
      <g>
       <use style="stroke:#000000;stroke-width:0.8;" x="183.575893" xlink:href="#m02b57e8a5a" y="65.583607"/>
      </g>
     </g>
    </g>
    <g id="ytick_14">
     <g id="line2d_26">
      <g>
       <use style="stroke:#000000;stroke-width:0.8;" x="183.575893" xlink:href="#m02b57e8a5a" y="38.656071"/>
      </g>
     </g>
    </g>
   </g>
   <g id="patch_89">
    <path d="M 183.575893 173.29375 
L 183.575893 38.656071 
" style="fill:none;stroke:#000000;stroke-linecap:square;stroke-linejoin:miter;stroke-width:0.8;"/>
   </g>
  </g>
 </g>
 <defs>
  <clipPath id="p833092d245">
   <rect height="134.637679" width="125.419821" x="53.83125" y="38.656071"/>
  </clipPath>
  <clipPath id="p3e180a0d91">
   <rect height="23.213393" width="125.419821" x="53.83125" y="10.8"/>
  </clipPath>
  <clipPath id="pb4bd615e98">
   <rect height="134.637679" width="21.624107" x="183.575893" y="38.656071"/>
  </clipPath>
 </defs>
</svg>
