<?xml version="1.0" encoding="utf-8" standalone="no"?>
<!DOCTYPE svg PUBLIC "-//W3C//DTD SVG 1.1//EN"
  "http://www.w3.org/Graphics/SVG/1.1/DTD/svg11.dtd">
<!-- Created with matplotlib (https://matplotlib.org/) -->
<svg height="324pt" version="1.1" viewBox="0 0 324 324" width="324pt" xmlns="http://www.w3.org/2000/svg" xmlns:xlink="http://www.w3.org/1999/xlink">
 <metadata>
  <rdf:RDF xmlns:cc="http://creativecommons.org/ns#" xmlns:dc="http://purl.org/dc/elements/1.1/" xmlns:rdf="http://www.w3.org/1999/02/22-rdf-syntax-ns#">
   <cc:Work>
    <dc:type rdf:resource="http://purl.org/dc/dcmitype/StillImage"/>
    <dc:date>2021-02-04T19:37:38.697156</dc:date>
    <dc:format>image/svg+xml</dc:format>
    <dc:creator>
     <cc:Agent>
      <dc:title>Matplotlib v3.3.2, https://matplotlib.org/</dc:title>
     </cc:Agent>
    </dc:creator>
   </cc:Work>
  </rdf:RDF>
 </metadata>
 <defs>
  <style type="text/css">*{stroke-linecap:butt;stroke-linejoin:round;}</style>
 </defs>
 <g id="figure_1">
  <g id="patch_1">
   <path d="M 0 324 
L 324 324 
L 324 0 
L 0 0 
z
" style="fill:none;"/>
  </g>
  <g id="axes_1">
   <g id="patch_2">
    <path d="M 53.83125 281.29375 
L 268.736786 281.29375 
L 268.736786 57.170357 
L 53.83125 57.170357 
z
" style="fill:#ffffff;"/>
   </g>
   <g id="PathCollection_1">
    <path clip-path="url(#pf7d9bf5692)" d="M 239.847757 278.930039 
L 240.431039 278.968184 
L 241.014322 279.000954 
L 241.597604 279.027807 
L 242.180886 279.048191 
L 242.764168 279.061553 
L 243.34745 279.067346 
L 243.930732 279.065034 
L 244.514014 279.0541 
L 245.097296 279.034041 
L 245.680578 279.004376 
L 246.26386 278.964643 
L 246.847142 278.914392 
L 246.93867 278.904845 
L 247.430425 278.852324 
L 248.013707 278.778595 
L 248.596989 278.692989 
L 248.98042 278.62887 
L 249.180271 278.594452 
L 249.763553 278.481885 
L 250.346835 278.356361 
L 250.361571 278.352895 
L 250.930117 278.214549 
L 251.447731 278.07692 
L 251.513399 278.058788 
L 252.096681 277.885748 
L 252.363717 277.800945 
L 252.679963 277.696379 
L 253.168613 277.52497 
L 253.263245 277.490321 
L 253.846528 277.26608 
L 253.889158 277.248996 
L 254.42981 277.022739 
L 254.544611 276.973021 
L 255.013092 276.76095 
L 255.150668 276.697046 
L 255.596374 276.480577 
L 255.716756 276.421071 
L 256.179656 276.181893 
L 256.250181 276.145096 
L 256.756606 275.869121 
L 256.762938 275.865513 
L 257.240818 275.593146 
L 257.34622 275.53043 
L 257.707032 275.317171 
L 257.929502 275.180129 
L 258.15804 275.041196 
L 258.512784 274.816796 
L 258.595897 274.765222 
L 259.023233 274.489247 
L 259.096066 274.440288 
L 259.442273 274.213272 
L 259.679348 274.051793 
L 259.852366 273.937297 
L 260.253493 273.661322 
L 260.262631 273.654759 
L 260.649367 273.385347 
L 260.845913 273.242646 
L 261.035382 273.109372 
L 261.410069 272.833397 
L 261.429195 272.818584 
L 261.776003 272.557422 
L 262.012477 272.369403 
L 262.125997 272.281447 
L 262.460242 272.005473 
L 262.595759 271.885808 
L 262.775849 271.729498 
L 263.069589 271.453523 
L 263.179041 271.341836 
L 263.341111 271.177548 
L 263.588061 270.901573 
L 263.762323 270.684987 
L 263.809894 270.625598 
L 264.00824 270.349623 
L 264.182226 270.073648 
L 264.333896 269.797673 
L 264.345605 269.773661 
L 264.465705 269.521699 
L 264.578881 269.245724 
L 264.675737 268.969749 
L 264.758541 268.693774 
L 264.829408 268.417799 
L 264.890275 268.141824 
L 264.928887 267.940981 
L 264.942839 267.865849 
L 264.98854 267.589874 
L 265.02882 267.313899 
L 265.06481 267.037925 
L 265.097426 266.76195 
L 265.127386 266.485975 
L 265.155222 266.21 
L 265.181298 265.934025 
L 265.205832 265.65805 
L 265.228911 265.382075 
L 265.250509 265.1061 
L 265.270506 264.830125 
L 265.288703 264.55415 
L 265.304838 264.278176 
L 265.318597 264.002201 
L 265.32963 263.726226 
L 265.337558 263.450251 
L 265.341983 263.174276 
L 265.342501 262.898301 
L 265.3387 262.622326 
L 265.330174 262.346351 
L 265.316523 262.070376 
L 265.297358 261.794402 
L 265.272304 261.518427 
L 265.241003 261.242452 
L 265.203114 260.966477 
L 265.158314 260.690502 
L 265.106301 260.414527 
L 265.046792 260.138552 
L 264.979521 259.862577 
L 264.928887 259.676976 
L 264.904614 259.586602 
L 264.822399 259.310628 
L 264.731931 259.034653 
L 264.633013 258.758678 
L 264.525455 258.482703 
L 264.409075 258.206728 
L 264.345605 258.06652 
L 264.284467 257.930753 
L 264.151611 257.654778 
L 264.009523 257.378803 
L 263.857991 257.102828 
L 263.762323 256.938235 
L 263.697316 256.826853 
L 263.527539 256.550879 
L 263.347569 256.274904 
L 263.179041 256.030338 
L 263.157109 255.998929 
L 262.956095 255.722954 
L 262.743539 255.446979 
L 262.595759 255.264248 
L 262.518567 255.171004 
L 262.28003 254.895029 
L 262.027626 254.619054 
L 262.012477 254.603062 
L 261.757513 254.343079 
L 261.470821 254.067105 
L 261.429195 254.028507 
L 261.161266 253.79113 
L 260.845913 253.52738 
L 260.830462 253.515155 
L 260.468066 253.23918 
L 260.262631 253.090758 
L 260.073487 252.963205 
L 259.679348 252.710592 
L 259.639802 252.68723 
L 259.15189 252.411255 
L 259.096066 252.381023 
L 258.595109 252.13528 
L 258.512784 252.096583 
L 257.945863 251.859305 
L 257.929502 251.852717 
L 257.34622 251.645607 
L 257.14125 251.583331 
L 256.762938 251.471908 
L 256.179656 251.328939 
L 256.072088 251.307356 
L 255.596374 251.214083 
L 255.013092 251.125465 
L 254.42981 251.061309 
L 254.010245 251.031381 
L 253.846528 251.019833 
L 253.263245 250.999463 
L 252.679963 250.999025 
L 252.096681 251.017228 
L 251.866371 251.031381 
L 251.513399 251.052578 
L 250.930117 251.103709 
L 250.346835 251.169638 
L 249.763553 251.249258 
L 249.396568 251.307356 
L 249.180271 251.340883 
L 248.596989 251.442639 
L 248.013707 251.554409 
L 247.873877 251.583331 
L 247.430425 251.673245 
L 246.847142 251.798942 
L 246.580081 251.859305 
L 246.26386 251.929453 
L 245.680578 252.063611 
L 245.376851 252.13528 
L 245.097296 252.200133 
L 244.514014 252.337585 
L 244.203444 252.411255 
L 243.930732 252.475006 
L 243.34745 252.610998 
L 243.016889 252.68723 
L 242.764168 252.744843 
L 242.180886 252.875078 
L 241.775223 252.963205 
L 241.597604 253.001491 
L 241.014322 253.122125 
L 240.431039 253.23774 
L 240.423253 253.23918 
L 239.847757 253.345374 
L 239.264475 253.446157 
L 238.829907 253.515155 
L 238.681193 253.53883 
L 238.097911 253.621922 
L 237.514629 253.695776 
L 236.931347 253.759637 
L 236.58219 253.79113 
L 236.348065 253.812493 
L 235.764783 253.853758 
L 235.181501 253.883351 
L 234.598219 253.900834 
L 234.014937 253.905882 
L 233.431654 253.89831 
L 232.848372 253.878093 
L 232.26509 253.845399 
L 231.681808 253.800614 
L 231.579899 253.79113 
L 231.098526 253.74428 
L 230.515244 253.677698 
L 229.931962 253.602331 
L 229.34868 253.519994 
L 229.314771 253.515155 
L 228.765398 253.434023 
L 228.182116 253.346954 
L 227.598834 253.262129 
L 227.422718 253.23918 
L 227.015551 253.185132 
L 226.432269 253.119964 
L 225.848987 253.071054 
L 225.265705 253.043993 
L 224.682423 253.045048 
L 224.099141 253.081227 
L 223.515859 253.160373 
L 223.15719 253.23918 
L 222.932577 253.295378 
L 222.349295 253.505169 
L 222.328105 253.515155 
L 221.826071 253.79113 
L 221.766013 253.830311 
L 221.471494 254.067105 
L 221.190758 254.343079 
L 221.182731 254.352373 
L 220.986258 254.619054 
L 220.818872 254.895029 
L 220.680428 255.171004 
L 220.599448 255.360975 
L 220.566853 255.446979 
L 220.473579 255.722954 
L 220.389474 255.998929 
L 220.310238 256.274904 
L 220.232026 256.550879 
L 220.151459 256.826853 
L 220.065619 257.102828 
L 220.016166 257.246321 
L 219.973625 257.378803 
L 219.873512 257.654778 
L 219.761765 257.930753 
L 219.63721 258.206728 
L 219.499046 258.482703 
L 219.432884 258.600613 
L 219.348317 258.758678 
L 219.184289 259.034653 
L 219.005841 259.310628 
L 218.849602 259.53353 
L 218.813702 259.586602 
L 218.609297 259.862577 
L 218.392088 260.138552 
L 218.26632 260.288409 
L 218.163231 260.414527 
L 217.923755 260.690502 
L 217.683038 260.95724 
L 217.674867 260.966477 
L 217.416843 261.242452 
L 217.152355 261.518427 
L 217.099756 261.571314 
L 216.881022 261.794402 
L 216.606032 262.070376 
L 216.516474 262.1584 
L 216.327112 262.346351 
L 216.047315 262.622326 
L 215.933192 262.7342 
L 215.766776 262.898301 
L 215.488109 263.174276 
L 215.34991 263.312296 
L 215.212095 263.450251 
L 214.940411 263.726226 
L 214.766628 263.907056 
L 214.675087 264.002201 
L 214.415879 264.278176 
L 214.183345 264.53642 
L 214.167306 264.55415 
L 213.925517 264.830125 
L 213.697041 265.1061 
L 213.600063 265.229734 
L 213.479522 265.382075 
L 213.274666 265.65805 
L 213.085464 265.934025 
L 213.016781 266.042619 
L 212.90947 266.21 
L 212.748617 266.485975 
L 212.605062 266.76195 
L 212.47903 267.037925 
L 212.433499 267.153467 
L 212.368974 267.313899 
L 212.276199 267.589874 
L 212.202209 267.865849 
L 212.147227 268.141824 
L 212.111512 268.417799 
L 212.095368 268.693774 
L 212.09915 268.969749 
L 212.123275 269.245724 
L 212.168228 269.521699 
L 212.234569 269.797673 
L 212.322941 270.073648 
L 212.433499 270.348199 
L 212.434067 270.349623 
L 212.565673 270.625598 
L 212.721261 270.901573 
L 212.901849 271.177548 
L 213.016781 271.332403 
L 213.106794 271.453523 
L 213.33633 271.729498 
L 213.594018 272.005473 
L 213.600063 272.011432 
L 213.876825 272.281447 
L 214.183345 272.551627 
L 214.190024 272.557422 
L 214.531176 272.833397 
L 214.766628 273.008888 
L 214.90444 273.109372 
L 215.310239 273.385347 
L 215.34991 273.410872 
L 215.75011 273.661322 
L 215.933192 273.769419 
L 216.226811 273.937297 
L 216.516474 274.094782 
L 216.742473 274.213272 
L 217.099756 274.392706 
L 217.299874 274.489247 
L 217.683038 274.667526 
L 217.902419 274.765222 
L 218.26632 274.92252 
L 218.554128 275.041196 
L 218.849602 275.160166 
L 219.259597 275.317171 
L 219.432884 275.38233 
L 220.016166 275.590445 
L 220.024105 275.593146 
L 220.599448 275.786738 
L 220.858821 275.869121 
L 221.182731 275.971351 
L 221.766013 276.144854 
L 221.766867 276.145096 
L 222.349295 276.309796 
L 222.768071 276.421071 
L 222.932577 276.464933 
L 223.515859 276.612163 
L 223.872848 276.697046 
L 224.099141 276.751297 
L 224.682423 276.88345 
L 225.101922 276.973021 
L 225.265705 277.00842 
L 225.848987 277.12771 
L 226.432269 277.240237 
L 226.480189 277.248996 
L 227.015551 277.348421 
L 227.598834 277.450971 
L 228.042112 277.52497 
L 228.182116 277.548761 
L 228.765398 277.642962 
L 229.34868 277.732819 
L 229.810825 277.800945 
L 229.931962 277.819132 
L 230.515244 277.902841 
L 231.098526 277.983398 
L 231.681808 278.061255 
L 231.803561 278.07692 
L 232.26509 278.137243 
L 232.848372 278.21107 
L 233.431654 278.282878 
L 234.014937 278.352895 
L 234.598219 278.421322 
L 235.181501 278.487862 
L 235.764783 278.552514 
L 236.348065 278.615196 
L 236.480597 278.62887 
L 236.931347 278.675511 
L 237.514629 278.733155 
L 238.097911 278.787862 
L 238.681193 278.839254 
L 239.264475 278.886894 
L 239.506438 278.904845 
z
" style="fill:#3f007d;fill-opacity:0.4;"/>
   </g>
   <g id="PathCollection_2">
    <path clip-path="url(#pf7d9bf5692)" d="M 171.050156 141.712847 
L 171.494958 141.74083 
L 171.939759 141.751217 
L 172.384561 141.744031 
L 172.829362 141.719146 
L 173.078776 141.695101 
L 173.274164 141.676245 
L 173.718965 141.614865 
L 174.163767 141.534503 
L 174.608568 141.434443 
L 175.05337 141.313821 
L 175.141263 141.285898 
L 175.498172 141.1716 
L 175.942973 141.006667 
L 176.25008 140.876694 
L 176.387775 140.81782 
L 176.832576 140.603773 
L 177.085828 140.467491 
L 177.277378 140.363106 
L 177.722179 140.094326 
L 177.776679 140.058288 
L 178.166981 139.79628 
L 178.367696 139.649084 
L 178.611782 139.467194 
L 178.893171 139.239881 
L 179.056584 139.105568 
L 179.367311 138.830677 
L 179.501386 138.709784 
L 179.800414 138.421474 
L 179.946187 138.277889 
L 180.199919 138.012271 
L 180.390989 137.807319 
L 180.571164 137.603067 
L 180.83579 137.294542 
L 180.917924 137.193864 
L 181.241995 136.784661 
L 181.280592 136.734472 
L 181.544516 136.375457 
L 181.725393 136.119051 
L 181.828901 135.966254 
L 182.094879 135.55705 
L 182.170195 135.436012 
L 182.343191 135.147847 
L 182.575257 134.738644 
L 182.614996 134.664984 
L 182.790498 134.32944 
L 182.990308 133.920237 
L 183.059798 133.768433 
L 183.174621 133.511033 
L 183.343942 133.10183 
L 183.498849 132.692627 
L 183.5046 132.676214 
L 183.63962 132.283423 
L 183.766731 131.87422 
L 183.880602 131.465016 
L 183.949401 131.18791 
L 183.981823 131.055813 
L 184.071018 130.64661 
L 184.148424 130.237406 
L 184.214558 129.828203 
L 184.26994 129.419 
L 184.31509 129.009796 
L 184.350521 128.600593 
L 184.376731 128.191389 
L 184.394203 127.782186 
L 184.403488 127.372983 
L 184.404852 126.963779 
L 184.398705 126.554576 
L 184.394203 126.415793 
L 184.385515 126.145372 
L 184.365659 125.736169 
L 184.339405 125.326966 
L 184.307034 124.917762 
L 184.268792 124.508559 
L 184.224893 124.099355 
L 184.175514 123.690152 
L 184.120803 123.280949 
L 184.060871 122.871745 
L 183.9958 122.462542 
L 183.949401 122.190989 
L 183.925723 122.053339 
L 183.850699 121.644135 
L 183.770521 121.234932 
L 183.685144 120.825728 
L 183.594501 120.416525 
L 183.5046 120.032958 
L 183.498486 120.007322 
L 183.396541 119.598118 
L 183.288854 119.188915 
L 183.175301 118.779711 
L 183.059798 118.384143 
L 183.055707 118.370508 
L 182.928394 117.961305 
L 182.794563 117.552101 
L 182.654105 117.142898 
L 182.614996 117.032818 
L 182.504629 116.733694 
L 182.347163 116.324491 
L 182.182454 115.915288 
L 182.170195 115.885619 
L 182.005636 115.506084 
L 181.820657 115.096881 
L 181.725393 114.892627 
L 181.624056 114.687678 
L 181.415378 114.278474 
L 181.280592 114.022287 
L 181.194254 113.869271 
L 180.957409 113.460067 
L 180.83579 113.25532 
L 180.703808 113.050864 
L 180.432657 112.641661 
L 180.390989 112.579711 
L 180.133153 112.232457 
L 179.946187 111.986397 
L 179.807074 111.823254 
L 179.501386 111.471455 
L 179.444273 111.41405 
L 179.056584 111.030069 
L 179.026676 111.004847 
L 178.611782 110.658679 
L 178.520002 110.595644 
L 178.166981 110.354825 
L 177.85233 110.18644 
L 177.722179 110.116999 
L 177.277378 109.939715 
L 176.832576 109.821834 
L 176.524507 109.777237 
L 176.387775 109.757362 
L 175.942973 109.741822 
L 175.498172 109.771362 
L 175.461286 109.777237 
L 175.05337 109.838907 
L 174.608568 109.939767 
L 174.163767 110.068707 
L 173.819471 110.18644 
L 173.718965 110.218971 
L 173.274164 110.381066 
L 172.829362 110.552598 
L 172.721978 110.595644 
L 172.384561 110.722525 
L 171.939759 110.887587 
L 171.60821 111.004847 
L 171.494958 111.042097 
L 171.050156 111.17793 
L 170.605354 111.295403 
L 170.160553 111.391006 
L 170.019997 111.41405 
L 169.715751 111.45979 
L 169.27095 111.502194 
L 168.826148 111.518364 
L 168.381347 111.508068 
L 167.936545 111.471649 
L 167.522692 111.41405 
L 167.491744 111.409706 
L 167.046942 111.319381 
L 166.60214 111.205235 
L 166.157339 111.069009 
L 165.97929 111.004847 
L 165.712537 110.907805 
L 165.267736 110.724218 
L 164.986742 110.595644 
L 164.822934 110.519965 
L 164.378133 110.293735 
L 164.183151 110.18644 
L 163.933331 110.04769 
L 163.48853 109.784853 
L 163.476527 109.777237 
L 163.043728 109.50027 
L 162.846586 109.368033 
L 162.598926 109.200687 
L 162.255687 108.95883 
L 162.154125 108.886838 
L 161.709323 108.559404 
L 161.696531 108.549627 
L 161.264522 108.217981 
L 161.16598 108.140423 
L 160.81972 107.867171 
L 160.650837 107.73122 
L 160.374919 107.508895 
L 160.146403 107.322017 
L 159.930117 107.145269 
L 159.648421 106.912813 
L 159.485316 106.778526 
L 159.15296 106.50361 
L 159.040514 106.410938 
L 158.656298 106.094406 
L 158.595712 106.044733 
L 158.154824 105.685203 
L 158.150911 105.68203 
L 157.706109 105.323546 
L 157.646226 105.276 
L 157.261308 104.972107 
L 157.125213 104.866796 
L 156.816506 104.629296 
L 156.587699 104.457593 
L 156.371705 104.296406 
L 156.029352 104.048389 
L 155.926903 103.974542 
L 155.482102 103.664091 
L 155.445237 103.639186 
L 155.0373 103.364488 
L 154.828712 103.229983 
L 154.592498 103.077971 
L 154.173276 102.820779 
L 154.147697 102.805095 
L 153.702895 102.5435 
L 153.465864 102.411576 
L 153.258094 102.295679 
L 152.813292 102.061166 
L 152.695278 102.002372 
L 152.368491 101.83872 
L 151.923689 101.630274 
L 151.839351 101.593169 
L 151.478888 101.433255 
L 151.034086 101.249874 
L 150.862077 101.183966 
L 150.589284 101.078232 
L 150.144483 100.919007 
L 149.70584 100.774762 
L 149.699681 100.772707 
L 149.25488 100.636881 
L 148.810078 100.513629 
L 148.365277 100.402473 
L 148.199346 100.365559 
L 147.920475 100.302337 
L 147.475674 100.213736 
L 147.030872 100.136958 
L 146.58607 100.071902 
L 146.141269 100.01859 
L 145.696467 99.977177 
L 145.377502 99.956356 
L 145.251666 99.947955 
L 144.806864 99.93145 
L 144.362063 99.928263 
L 143.917261 99.939117 
L 143.617475 99.956356 
L 143.47246 99.96504 
L 143.027658 100.007641 
L 142.582856 100.068438 
L 142.138055 100.149452 
L 141.693253 100.253133 
L 141.304191 100.365559 
L 141.248452 100.383009 
L 140.80365 100.547526 
L 140.358849 100.74825 
L 140.307609 100.774762 
L 139.914047 101.002427 
L 139.646125 101.183966 
L 139.469246 101.320484 
L 139.159406 101.593169 
L 139.024444 101.731186 
L 138.786603 102.002372 
L 138.579642 102.282435 
L 138.492383 102.411576 
L 138.257683 102.820779 
L 138.134841 103.078485 
L 138.06712 103.229983 
L 137.911844 103.639186 
L 137.783227 104.048389 
L 137.690039 104.402089 
L 137.675941 104.457593 
L 137.58539 104.866796 
L 137.50745 105.276 
L 137.439051 105.685203 
L 137.377607 106.094406 
L 137.320964 106.50361 
L 137.267364 106.912813 
L 137.245238 107.0859 
L 137.215067 107.322017 
L 137.163078 107.73122 
L 137.11099 108.140423 
L 137.058505 108.549627 
L 137.005666 108.95883 
L 136.952847 109.368033 
L 136.900731 109.777237 
L 136.850288 110.18644 
L 136.802727 110.595644 
L 136.800436 110.617191 
L 136.758887 111.004847 
L 136.720987 111.41405 
L 136.690717 111.823254 
L 136.669761 112.232457 
L 136.659772 112.641661 
L 136.662336 113.050864 
L 136.67894 113.460067 
L 136.710955 113.869271 
L 136.75963 114.278474 
L 136.800436 114.529319 
L 136.825831 114.687678 
L 136.910235 115.096881 
L 137.014193 115.506084 
L 137.138577 115.915288 
L 137.245238 116.215052 
L 137.283864 116.324491 
L 137.449962 116.733694 
L 137.638722 117.142898 
L 137.690039 117.242324 
L 137.849526 117.552101 
L 138.083986 117.961305 
L 138.134841 118.042162 
L 138.34171 118.370508 
L 138.579642 118.715087 
L 138.624455 118.779711 
L 138.931852 119.188915 
L 139.024444 119.303288 
L 139.265119 119.598118 
L 139.469246 119.831137 
L 139.62521 120.007322 
L 139.914047 120.313238 
L 140.012786 120.416525 
L 140.358849 120.757924 
L 140.428556 120.825728 
L 140.80365 121.171753 
L 140.873211 121.234932 
L 141.248452 121.55991 
L 141.347346 121.644135 
L 141.693253 121.92651 
L 141.85138 122.053339 
L 142.138055 122.274836 
L 142.385461 122.462542 
L 142.582856 122.607508 
L 142.949378 122.871745 
L 143.027658 122.926627 
L 143.47246 123.233947 
L 143.54131 123.280949 
L 143.917261 123.531586 
L 144.158905 123.690152 
L 144.362063 123.820902 
L 144.801283 124.099355 
L 144.806864 124.10284 
L 145.251666 124.379952 
L 145.460379 124.508559 
L 145.696467 124.652342 
L 146.136699 124.917762 
L 146.141269 124.920496 
L 146.58607 125.187815 
L 146.818973 125.326966 
L 147.030872 125.45297 
L 147.475674 125.716662 
L 147.508274 125.736169 
L 147.920475 125.982358 
L 148.193888 126.145372 
L 148.365277 126.247719 
L 148.810078 126.514144 
L 148.87688 126.554576 
L 149.25488 126.78431 
L 149.54994 126.963779 
L 149.699681 127.055532 
L 150.144483 127.32951 
L 150.214332 127.372983 
L 150.589284 127.608627 
L 150.865185 127.782186 
L 151.034086 127.889812 
L 151.478888 128.173828 
L 151.506107 128.191389 
L 151.923689 128.464936 
L 152.131023 128.600593 
L 152.368491 128.758839 
L 152.746012 129.009796 
L 152.813292 129.055491 
L 153.258094 129.358243 
L 153.347431 129.419 
L 153.702895 129.666603 
L 153.936505 129.828203 
L 154.147697 129.978319 
L 154.515378 130.237406 
L 154.592498 130.293428 
L 155.0373 130.614161 
L 155.082632 130.64661 
L 155.482102 130.942206 
L 155.637875 131.055813 
L 155.926903 131.274451 
L 156.183008 131.465016 
L 156.371705 131.611136 
L 156.717772 131.87422 
L 156.816506 131.952588 
L 157.241903 132.283423 
L 157.261308 132.29923 
L 157.706109 132.654744 
L 157.754635 132.692627 
L 158.150911 133.017579 
L 158.256452 133.10183 
L 158.595712 133.387115 
L 158.747388 133.511033 
L 159.040514 133.763943 
L 159.227332 133.920237 
L 159.485316 134.148649 
L 159.696332 134.32944 
L 159.930117 134.541744 
L 160.154645 134.738644 
L 160.374919 134.943565 
L 160.602799 135.147847 
L 160.81972 135.354138 
L 161.041653 135.55705 
L 161.264522 135.773006 
L 161.472468 135.966254 
L 161.709323 136.199042 
L 161.896978 136.375457 
L 162.154125 136.630268 
L 162.317485 136.784661 
L 162.598926 137.063733 
L 162.736961 137.193864 
L 163.043728 137.495502 
L 163.159197 137.603067 
L 163.48853 137.920812 
L 163.588982 138.012271 
L 163.933331 138.334422 
L 164.03237 138.421474 
L 164.378133 138.731115 
L 164.497049 138.830677 
L 164.822934 139.106267 
L 164.992876 139.239881 
L 165.267736 139.456334 
L 165.532658 139.649084 
L 165.712537 139.77916 
L 166.133333 140.058288 
L 166.157339 140.074008 
L 166.60214 140.341921 
L 166.832739 140.467491 
L 167.046942 140.582187 
L 167.491744 140.796566 
L 167.677831 140.876694 
L 167.936545 140.985977 
L 168.381347 141.15194 
L 168.795458 141.285898 
L 168.826148 141.295629 
L 169.27095 141.417845 
L 169.715751 141.519996 
L 170.160553 141.602833 
L 170.605354 141.666978 
L 170.876627 141.695101 
z
" style="fill:#d92523;fill-opacity:0.4;"/>
   </g>
   <g id="matplotlib.axis_1">
    <g id="xtick_1">
     <g id="line2d_1">
      <defs>
       <path d="M 0 0 
L 0 3.5 
" id="m449a94d033" style="stroke:#000000;stroke-width:0.8;"/>
      </defs>
      <g>
       <use style="stroke:#000000;stroke-width:0.8;" x="53.83125" xlink:href="#m449a94d033" y="281.29375"/>
      </g>
     </g>
     <g id="text_1">
      <!-- −40 -->
      <g transform="translate(43.278906 295.892188)scale(0.1 -0.1)">
       <defs>
        <path d="M 10.59375 35.5 
L 73.1875 35.5 
L 73.1875 27.203125 
L 10.59375 27.203125 
z
" id="DejaVuSans-8722"/>
        <path d="M 37.796875 64.3125 
L 12.890625 25.390625 
L 37.796875 25.390625 
z
M 35.203125 72.90625 
L 47.609375 72.90625 
L 47.609375 25.390625 
L 58.015625 25.390625 
L 58.015625 17.1875 
L 47.609375 17.1875 
L 47.609375 0 
L 37.796875 0 
L 37.796875 17.1875 
L 4.890625 17.1875 
L 4.890625 26.703125 
z
" id="DejaVuSans-52"/>
        <path d="M 31.78125 66.40625 
Q 24.171875 66.40625 20.328125 58.90625 
Q 16.5 51.421875 16.5 36.375 
Q 16.5 21.390625 20.328125 13.890625 
Q 24.171875 6.390625 31.78125 6.390625 
Q 39.453125 6.390625 43.28125 13.890625 
Q 47.125 21.390625 47.125 36.375 
Q 47.125 51.421875 43.28125 58.90625 
Q 39.453125 66.40625 31.78125 66.40625 
z
M 31.78125 74.21875 
Q 44.046875 74.21875 50.515625 64.515625 
Q 56.984375 54.828125 56.984375 36.375 
Q 56.984375 17.96875 50.515625 8.265625 
Q 44.046875 -1.421875 31.78125 -1.421875 
Q 19.53125 -1.421875 13.0625 8.265625 
Q 6.59375 17.96875 6.59375 36.375 
Q 6.59375 54.828125 13.0625 64.515625 
Q 19.53125 74.21875 31.78125 74.21875 
z
" id="DejaVuSans-48"/>
       </defs>
       <use xlink:href="#DejaVuSans-8722"/>
       <use x="83.789062" xlink:href="#DejaVuSans-52"/>
       <use x="147.412109" xlink:href="#DejaVuSans-48"/>
      </g>
     </g>
    </g>
    <g id="xtick_2">
     <g id="line2d_2">
      <g>
       <use style="stroke:#000000;stroke-width:0.8;" x="104.397258" xlink:href="#m449a94d033" y="281.29375"/>
      </g>
     </g>
     <g id="text_2">
      <!-- −20 -->
      <g transform="translate(93.844915 295.892188)scale(0.1 -0.1)">
       <defs>
        <path d="M 19.1875 8.296875 
L 53.609375 8.296875 
L 53.609375 0 
L 7.328125 0 
L 7.328125 8.296875 
Q 12.9375 14.109375 22.625 23.890625 
Q 32.328125 33.6875 34.8125 36.53125 
Q 39.546875 41.84375 41.421875 45.53125 
Q 43.3125 49.21875 43.3125 52.78125 
Q 43.3125 58.59375 39.234375 62.25 
Q 35.15625 65.921875 28.609375 65.921875 
Q 23.96875 65.921875 18.8125 64.3125 
Q 13.671875 62.703125 7.8125 59.421875 
L 7.8125 69.390625 
Q 13.765625 71.78125 18.9375 73 
Q 24.125 74.21875 28.421875 74.21875 
Q 39.75 74.21875 46.484375 68.546875 
Q 53.21875 62.890625 53.21875 53.421875 
Q 53.21875 48.921875 51.53125 44.890625 
Q 49.859375 40.875 45.40625 35.40625 
Q 44.1875 33.984375 37.640625 27.21875 
Q 31.109375 20.453125 19.1875 8.296875 
z
" id="DejaVuSans-50"/>
       </defs>
       <use xlink:href="#DejaVuSans-8722"/>
       <use x="83.789062" xlink:href="#DejaVuSans-50"/>
       <use x="147.412109" xlink:href="#DejaVuSans-48"/>
      </g>
     </g>
    </g>
    <g id="xtick_3">
     <g id="line2d_3">
      <g>
       <use style="stroke:#000000;stroke-width:0.8;" x="154.963267" xlink:href="#m449a94d033" y="281.29375"/>
      </g>
     </g>
     <g id="text_3">
      <!-- 0 -->
      <g transform="translate(151.782017 295.892188)scale(0.1 -0.1)">
       <use xlink:href="#DejaVuSans-48"/>
      </g>
     </g>
    </g>
    <g id="xtick_4">
     <g id="line2d_4">
      <g>
       <use style="stroke:#000000;stroke-width:0.8;" x="205.529275" xlink:href="#m449a94d033" y="281.29375"/>
      </g>
     </g>
     <g id="text_4">
      <!-- 20 -->
      <g transform="translate(199.166775 295.892188)scale(0.1 -0.1)">
       <use xlink:href="#DejaVuSans-50"/>
       <use x="63.623047" xlink:href="#DejaVuSans-48"/>
      </g>
     </g>
    </g>
    <g id="xtick_5">
     <g id="line2d_5">
      <g>
       <use style="stroke:#000000;stroke-width:0.8;" x="256.095284" xlink:href="#m449a94d033" y="281.29375"/>
      </g>
     </g>
     <g id="text_5">
      <!-- 40 -->
      <g transform="translate(249.732784 295.892188)scale(0.1 -0.1)">
       <use xlink:href="#DejaVuSans-52"/>
       <use x="63.623047" xlink:href="#DejaVuSans-48"/>
      </g>
     </g>
    </g>
    <g id="text_6">
     <!-- Cas9 to Cas3 (min.) -->
     <g transform="translate(111.895737 309.570312)scale(0.1 -0.1)">
      <defs>
       <path d="M 64.40625 67.28125 
L 64.40625 56.890625 
Q 59.421875 61.53125 53.78125 63.8125 
Q 48.140625 66.109375 41.796875 66.109375 
Q 29.296875 66.109375 22.65625 58.46875 
Q 16.015625 50.828125 16.015625 36.375 
Q 16.015625 21.96875 22.65625 14.328125 
Q 29.296875 6.6875 41.796875 6.6875 
Q 48.140625 6.6875 53.78125 8.984375 
Q 59.421875 11.28125 64.40625 15.921875 
L 64.40625 5.609375 
Q 59.234375 2.09375 53.4375 0.328125 
Q 47.65625 -1.421875 41.21875 -1.421875 
Q 24.65625 -1.421875 15.125 8.703125 
Q 5.609375 18.84375 5.609375 36.375 
Q 5.609375 53.953125 15.125 64.078125 
Q 24.65625 74.21875 41.21875 74.21875 
Q 47.75 74.21875 53.53125 72.484375 
Q 59.328125 70.75 64.40625 67.28125 
z
" id="DejaVuSans-67"/>
       <path d="M 34.28125 27.484375 
Q 23.390625 27.484375 19.1875 25 
Q 14.984375 22.515625 14.984375 16.5 
Q 14.984375 11.71875 18.140625 8.90625 
Q 21.296875 6.109375 26.703125 6.109375 
Q 34.1875 6.109375 38.703125 11.40625 
Q 43.21875 16.703125 43.21875 25.484375 
L 43.21875 27.484375 
z
M 52.203125 31.203125 
L 52.203125 0 
L 43.21875 0 
L 43.21875 8.296875 
Q 40.140625 3.328125 35.546875 0.953125 
Q 30.953125 -1.421875 24.3125 -1.421875 
Q 15.921875 -1.421875 10.953125 3.296875 
Q 6 8.015625 6 15.921875 
Q 6 25.140625 12.171875 29.828125 
Q 18.359375 34.515625 30.609375 34.515625 
L 43.21875 34.515625 
L 43.21875 35.40625 
Q 43.21875 41.609375 39.140625 45 
Q 35.0625 48.390625 27.6875 48.390625 
Q 23 48.390625 18.546875 47.265625 
Q 14.109375 46.140625 10.015625 43.890625 
L 10.015625 52.203125 
Q 14.9375 54.109375 19.578125 55.046875 
Q 24.21875 56 28.609375 56 
Q 40.484375 56 46.34375 49.84375 
Q 52.203125 43.703125 52.203125 31.203125 
z
" id="DejaVuSans-97"/>
       <path d="M 44.28125 53.078125 
L 44.28125 44.578125 
Q 40.484375 46.53125 36.375 47.5 
Q 32.28125 48.484375 27.875 48.484375 
Q 21.1875 48.484375 17.84375 46.4375 
Q 14.5 44.390625 14.5 40.28125 
Q 14.5 37.15625 16.890625 35.375 
Q 19.28125 33.59375 26.515625 31.984375 
L 29.59375 31.296875 
Q 39.15625 29.25 43.1875 25.515625 
Q 47.21875 21.78125 47.21875 15.09375 
Q 47.21875 7.46875 41.1875 3.015625 
Q 35.15625 -1.421875 24.609375 -1.421875 
Q 20.21875 -1.421875 15.453125 -0.5625 
Q 10.6875 0.296875 5.421875 2 
L 5.421875 11.28125 
Q 10.40625 8.6875 15.234375 7.390625 
Q 20.0625 6.109375 24.8125 6.109375 
Q 31.15625 6.109375 34.5625 8.28125 
Q 37.984375 10.453125 37.984375 14.40625 
Q 37.984375 18.0625 35.515625 20.015625 
Q 33.0625 21.96875 24.703125 23.78125 
L 21.578125 24.515625 
Q 13.234375 26.265625 9.515625 29.90625 
Q 5.8125 33.546875 5.8125 39.890625 
Q 5.8125 47.609375 11.28125 51.796875 
Q 16.75 56 26.8125 56 
Q 31.78125 56 36.171875 55.265625 
Q 40.578125 54.546875 44.28125 53.078125 
z
" id="DejaVuSans-115"/>
       <path d="M 10.984375 1.515625 
L 10.984375 10.5 
Q 14.703125 8.734375 18.5 7.8125 
Q 22.3125 6.890625 25.984375 6.890625 
Q 35.75 6.890625 40.890625 13.453125 
Q 46.046875 20.015625 46.78125 33.40625 
Q 43.953125 29.203125 39.59375 26.953125 
Q 35.25 24.703125 29.984375 24.703125 
Q 19.046875 24.703125 12.671875 31.3125 
Q 6.296875 37.9375 6.296875 49.421875 
Q 6.296875 60.640625 12.9375 67.421875 
Q 19.578125 74.21875 30.609375 74.21875 
Q 43.265625 74.21875 49.921875 64.515625 
Q 56.59375 54.828125 56.59375 36.375 
Q 56.59375 19.140625 48.40625 8.859375 
Q 40.234375 -1.421875 26.421875 -1.421875 
Q 22.703125 -1.421875 18.890625 -0.6875 
Q 15.09375 0.046875 10.984375 1.515625 
z
M 30.609375 32.421875 
Q 37.25 32.421875 41.125 36.953125 
Q 45.015625 41.5 45.015625 49.421875 
Q 45.015625 57.28125 41.125 61.84375 
Q 37.25 66.40625 30.609375 66.40625 
Q 23.96875 66.40625 20.09375 61.84375 
Q 16.21875 57.28125 16.21875 49.421875 
Q 16.21875 41.5 20.09375 36.953125 
Q 23.96875 32.421875 30.609375 32.421875 
z
" id="DejaVuSans-57"/>
       <path id="DejaVuSans-32"/>
       <path d="M 18.3125 70.21875 
L 18.3125 54.6875 
L 36.8125 54.6875 
L 36.8125 47.703125 
L 18.3125 47.703125 
L 18.3125 18.015625 
Q 18.3125 11.328125 20.140625 9.421875 
Q 21.96875 7.515625 27.59375 7.515625 
L 36.8125 7.515625 
L 36.8125 0 
L 27.59375 0 
Q 17.1875 0 13.234375 3.875 
Q 9.28125 7.765625 9.28125 18.015625 
L 9.28125 47.703125 
L 2.6875 47.703125 
L 2.6875 54.6875 
L 9.28125 54.6875 
L 9.28125 70.21875 
z
" id="DejaVuSans-116"/>
       <path d="M 30.609375 48.390625 
Q 23.390625 48.390625 19.1875 42.75 
Q 14.984375 37.109375 14.984375 27.296875 
Q 14.984375 17.484375 19.15625 11.84375 
Q 23.34375 6.203125 30.609375 6.203125 
Q 37.796875 6.203125 41.984375 11.859375 
Q 46.1875 17.53125 46.1875 27.296875 
Q 46.1875 37.015625 41.984375 42.703125 
Q 37.796875 48.390625 30.609375 48.390625 
z
M 30.609375 56 
Q 42.328125 56 49.015625 48.375 
Q 55.71875 40.765625 55.71875 27.296875 
Q 55.71875 13.875 49.015625 6.21875 
Q 42.328125 -1.421875 30.609375 -1.421875 
Q 18.84375 -1.421875 12.171875 6.21875 
Q 5.515625 13.875 5.515625 27.296875 
Q 5.515625 40.765625 12.171875 48.375 
Q 18.84375 56 30.609375 56 
z
" id="DejaVuSans-111"/>
       <path d="M 40.578125 39.3125 
Q 47.65625 37.796875 51.625 33 
Q 55.609375 28.21875 55.609375 21.1875 
Q 55.609375 10.40625 48.1875 4.484375 
Q 40.765625 -1.421875 27.09375 -1.421875 
Q 22.515625 -1.421875 17.65625 -0.515625 
Q 12.796875 0.390625 7.625 2.203125 
L 7.625 11.71875 
Q 11.71875 9.328125 16.59375 8.109375 
Q 21.484375 6.890625 26.8125 6.890625 
Q 36.078125 6.890625 40.9375 10.546875 
Q 45.796875 14.203125 45.796875 21.1875 
Q 45.796875 27.640625 41.28125 31.265625 
Q 36.765625 34.90625 28.71875 34.90625 
L 20.21875 34.90625 
L 20.21875 43.015625 
L 29.109375 43.015625 
Q 36.375 43.015625 40.234375 45.921875 
Q 44.09375 48.828125 44.09375 54.296875 
Q 44.09375 59.90625 40.109375 62.90625 
Q 36.140625 65.921875 28.71875 65.921875 
Q 24.65625 65.921875 20.015625 65.03125 
Q 15.375 64.15625 9.8125 62.3125 
L 9.8125 71.09375 
Q 15.4375 72.65625 20.34375 73.4375 
Q 25.25 74.21875 29.59375 74.21875 
Q 40.828125 74.21875 47.359375 69.109375 
Q 53.90625 64.015625 53.90625 55.328125 
Q 53.90625 49.265625 50.4375 45.09375 
Q 46.96875 40.921875 40.578125 39.3125 
z
" id="DejaVuSans-51"/>
       <path d="M 31 75.875 
Q 24.46875 64.65625 21.28125 53.65625 
Q 18.109375 42.671875 18.109375 31.390625 
Q 18.109375 20.125 21.3125 9.0625 
Q 24.515625 -2 31 -13.1875 
L 23.1875 -13.1875 
Q 15.875 -1.703125 12.234375 9.375 
Q 8.59375 20.453125 8.59375 31.390625 
Q 8.59375 42.28125 12.203125 53.3125 
Q 15.828125 64.359375 23.1875 75.875 
z
" id="DejaVuSans-40"/>
       <path d="M 52 44.1875 
Q 55.375 50.25 60.0625 53.125 
Q 64.75 56 71.09375 56 
Q 79.640625 56 84.28125 50.015625 
Q 88.921875 44.046875 88.921875 33.015625 
L 88.921875 0 
L 79.890625 0 
L 79.890625 32.71875 
Q 79.890625 40.578125 77.09375 44.375 
Q 74.3125 48.1875 68.609375 48.1875 
Q 61.625 48.1875 57.5625 43.546875 
Q 53.515625 38.921875 53.515625 30.90625 
L 53.515625 0 
L 44.484375 0 
L 44.484375 32.71875 
Q 44.484375 40.625 41.703125 44.40625 
Q 38.921875 48.1875 33.109375 48.1875 
Q 26.21875 48.1875 22.15625 43.53125 
Q 18.109375 38.875 18.109375 30.90625 
L 18.109375 0 
L 9.078125 0 
L 9.078125 54.6875 
L 18.109375 54.6875 
L 18.109375 46.1875 
Q 21.1875 51.21875 25.484375 53.609375 
Q 29.78125 56 35.6875 56 
Q 41.65625 56 45.828125 52.96875 
Q 50 49.953125 52 44.1875 
z
" id="DejaVuSans-109"/>
       <path d="M 9.421875 54.6875 
L 18.40625 54.6875 
L 18.40625 0 
L 9.421875 0 
z
M 9.421875 75.984375 
L 18.40625 75.984375 
L 18.40625 64.59375 
L 9.421875 64.59375 
z
" id="DejaVuSans-105"/>
       <path d="M 54.890625 33.015625 
L 54.890625 0 
L 45.90625 0 
L 45.90625 32.71875 
Q 45.90625 40.484375 42.875 44.328125 
Q 39.84375 48.1875 33.796875 48.1875 
Q 26.515625 48.1875 22.3125 43.546875 
Q 18.109375 38.921875 18.109375 30.90625 
L 18.109375 0 
L 9.078125 0 
L 9.078125 54.6875 
L 18.109375 54.6875 
L 18.109375 46.1875 
Q 21.34375 51.125 25.703125 53.5625 
Q 30.078125 56 35.796875 56 
Q 45.21875 56 50.046875 50.171875 
Q 54.890625 44.34375 54.890625 33.015625 
z
" id="DejaVuSans-110"/>
       <path d="M 10.6875 12.40625 
L 21 12.40625 
L 21 0 
L 10.6875 0 
z
" id="DejaVuSans-46"/>
       <path d="M 8.015625 75.875 
L 15.828125 75.875 
Q 23.140625 64.359375 26.78125 53.3125 
Q 30.421875 42.28125 30.421875 31.390625 
Q 30.421875 20.453125 26.78125 9.375 
Q 23.140625 -1.703125 15.828125 -13.1875 
L 8.015625 -13.1875 
Q 14.5 -2 17.703125 9.0625 
Q 20.90625 20.125 20.90625 31.390625 
Q 20.90625 42.671875 17.703125 53.65625 
Q 14.5 64.65625 8.015625 75.875 
z
" id="DejaVuSans-41"/>
      </defs>
      <use xlink:href="#DejaVuSans-67"/>
      <use x="69.824219" xlink:href="#DejaVuSans-97"/>
      <use x="131.103516" xlink:href="#DejaVuSans-115"/>
      <use x="183.203125" xlink:href="#DejaVuSans-57"/>
      <use x="246.826172" xlink:href="#DejaVuSans-32"/>
      <use x="278.613281" xlink:href="#DejaVuSans-116"/>
      <use x="317.822266" xlink:href="#DejaVuSans-111"/>
      <use x="379.003906" xlink:href="#DejaVuSans-32"/>
      <use x="410.791016" xlink:href="#DejaVuSans-67"/>
      <use x="480.615234" xlink:href="#DejaVuSans-97"/>
      <use x="541.894531" xlink:href="#DejaVuSans-115"/>
      <use x="593.994141" xlink:href="#DejaVuSans-51"/>
      <use x="657.617188" xlink:href="#DejaVuSans-32"/>
      <use x="689.404297" xlink:href="#DejaVuSans-40"/>
      <use x="728.417969" xlink:href="#DejaVuSans-109"/>
      <use x="825.830078" xlink:href="#DejaVuSans-105"/>
      <use x="853.613281" xlink:href="#DejaVuSans-110"/>
      <use x="916.992188" xlink:href="#DejaVuSans-46"/>
      <use x="948.779297" xlink:href="#DejaVuSans-41"/>
     </g>
    </g>
   </g>
   <g id="matplotlib.axis_2">
    <g id="ytick_1">
     <g id="line2d_6">
      <defs>
       <path d="M 0 0 
L -3.5 0 
" id="m24f530571b" style="stroke:#000000;stroke-width:0.8;"/>
      </defs>
      <g>
       <use style="stroke:#000000;stroke-width:0.8;" x="53.83125" xlink:href="#m24f530571b" y="281.29375"/>
      </g>
     </g>
     <g id="text_7">
      <!-- −60 -->
      <g transform="translate(25.726562 285.092969)scale(0.1 -0.1)">
       <defs>
        <path d="M 33.015625 40.375 
Q 26.375 40.375 22.484375 35.828125 
Q 18.609375 31.296875 18.609375 23.390625 
Q 18.609375 15.53125 22.484375 10.953125 
Q 26.375 6.390625 33.015625 6.390625 
Q 39.65625 6.390625 43.53125 10.953125 
Q 47.40625 15.53125 47.40625 23.390625 
Q 47.40625 31.296875 43.53125 35.828125 
Q 39.65625 40.375 33.015625 40.375 
z
M 52.59375 71.296875 
L 52.59375 62.3125 
Q 48.875 64.0625 45.09375 64.984375 
Q 41.3125 65.921875 37.59375 65.921875 
Q 27.828125 65.921875 22.671875 59.328125 
Q 17.53125 52.734375 16.796875 39.40625 
Q 19.671875 43.65625 24.015625 45.921875 
Q 28.375 48.1875 33.59375 48.1875 
Q 44.578125 48.1875 50.953125 41.515625 
Q 57.328125 34.859375 57.328125 23.390625 
Q 57.328125 12.15625 50.6875 5.359375 
Q 44.046875 -1.421875 33.015625 -1.421875 
Q 20.359375 -1.421875 13.671875 8.265625 
Q 6.984375 17.96875 6.984375 36.375 
Q 6.984375 53.65625 15.1875 63.9375 
Q 23.390625 74.21875 37.203125 74.21875 
Q 40.921875 74.21875 44.703125 73.484375 
Q 48.484375 72.75 52.59375 71.296875 
z
" id="DejaVuSans-54"/>
       </defs>
       <use xlink:href="#DejaVuSans-8722"/>
       <use x="83.789062" xlink:href="#DejaVuSans-54"/>
       <use x="147.412109" xlink:href="#DejaVuSans-48"/>
      </g>
     </g>
    </g>
    <g id="ytick_2">
     <g id="line2d_7">
      <g>
       <use style="stroke:#000000;stroke-width:0.8;" x="53.83125" xlink:href="#m24f530571b" y="236.469071"/>
      </g>
     </g>
     <g id="text_8">
      <!-- −40 -->
      <g transform="translate(25.726562 240.26829)scale(0.1 -0.1)">
       <use xlink:href="#DejaVuSans-8722"/>
       <use x="83.789062" xlink:href="#DejaVuSans-52"/>
       <use x="147.412109" xlink:href="#DejaVuSans-48"/>
      </g>
     </g>
    </g>
    <g id="ytick_3">
     <g id="line2d_8">
      <g>
       <use style="stroke:#000000;stroke-width:0.8;" x="53.83125" xlink:href="#m24f530571b" y="191.644393"/>
      </g>
     </g>
     <g id="text_9">
      <!-- −20 -->
      <g transform="translate(25.726562 195.443612)scale(0.1 -0.1)">
       <use xlink:href="#DejaVuSans-8722"/>
       <use x="83.789062" xlink:href="#DejaVuSans-50"/>
       <use x="147.412109" xlink:href="#DejaVuSans-48"/>
      </g>
     </g>
    </g>
    <g id="ytick_4">
     <g id="line2d_9">
      <g>
       <use style="stroke:#000000;stroke-width:0.8;" x="53.83125" xlink:href="#m24f530571b" y="146.819714"/>
      </g>
     </g>
     <g id="text_10">
      <!-- 0 -->
      <g transform="translate(40.46875 150.618933)scale(0.1 -0.1)">
       <use xlink:href="#DejaVuSans-48"/>
      </g>
     </g>
    </g>
    <g id="ytick_5">
     <g id="line2d_10">
      <g>
       <use style="stroke:#000000;stroke-width:0.8;" x="53.83125" xlink:href="#m24f530571b" y="101.995036"/>
      </g>
     </g>
     <g id="text_11">
      <!-- 20 -->
      <g transform="translate(34.10625 105.794254)scale(0.1 -0.1)">
       <use xlink:href="#DejaVuSans-50"/>
       <use x="63.623047" xlink:href="#DejaVuSans-48"/>
      </g>
     </g>
    </g>
    <g id="ytick_6">
     <g id="line2d_11">
      <g>
       <use style="stroke:#000000;stroke-width:0.8;" x="53.83125" xlink:href="#m24f530571b" y="57.170357"/>
      </g>
     </g>
     <g id="text_12">
      <!-- 40 -->
      <g transform="translate(34.10625 60.969576)scale(0.1 -0.1)">
       <use xlink:href="#DejaVuSans-52"/>
       <use x="63.623047" xlink:href="#DejaVuSans-48"/>
      </g>
     </g>
    </g>
    <g id="text_13">
     <!-- Cas8 to Cas3 (min.) -->
     <g transform="translate(19.646875 218.620335)rotate(-90)scale(0.1 -0.1)">
      <defs>
       <path d="M 31.78125 34.625 
Q 24.75 34.625 20.71875 30.859375 
Q 16.703125 27.09375 16.703125 20.515625 
Q 16.703125 13.921875 20.71875 10.15625 
Q 24.75 6.390625 31.78125 6.390625 
Q 38.8125 6.390625 42.859375 10.171875 
Q 46.921875 13.96875 46.921875 20.515625 
Q 46.921875 27.09375 42.890625 30.859375 
Q 38.875 34.625 31.78125 34.625 
z
M 21.921875 38.8125 
Q 15.578125 40.375 12.03125 44.71875 
Q 8.5 49.078125 8.5 55.328125 
Q 8.5 64.0625 14.71875 69.140625 
Q 20.953125 74.21875 31.78125 74.21875 
Q 42.671875 74.21875 48.875 69.140625 
Q 55.078125 64.0625 55.078125 55.328125 
Q 55.078125 49.078125 51.53125 44.71875 
Q 48 40.375 41.703125 38.8125 
Q 48.828125 37.15625 52.796875 32.3125 
Q 56.78125 27.484375 56.78125 20.515625 
Q 56.78125 9.90625 50.3125 4.234375 
Q 43.84375 -1.421875 31.78125 -1.421875 
Q 19.734375 -1.421875 13.25 4.234375 
Q 6.78125 9.90625 6.78125 20.515625 
Q 6.78125 27.484375 10.78125 32.3125 
Q 14.796875 37.15625 21.921875 38.8125 
z
M 18.3125 54.390625 
Q 18.3125 48.734375 21.84375 45.5625 
Q 25.390625 42.390625 31.78125 42.390625 
Q 38.140625 42.390625 41.71875 45.5625 
Q 45.3125 48.734375 45.3125 54.390625 
Q 45.3125 60.0625 41.71875 63.234375 
Q 38.140625 66.40625 31.78125 66.40625 
Q 25.390625 66.40625 21.84375 63.234375 
Q 18.3125 60.0625 18.3125 54.390625 
z
" id="DejaVuSans-56"/>
      </defs>
      <use xlink:href="#DejaVuSans-67"/>
      <use x="69.824219" xlink:href="#DejaVuSans-97"/>
      <use x="131.103516" xlink:href="#DejaVuSans-115"/>
      <use x="183.203125" xlink:href="#DejaVuSans-56"/>
      <use x="246.826172" xlink:href="#DejaVuSans-32"/>
      <use x="278.613281" xlink:href="#DejaVuSans-116"/>
      <use x="317.822266" xlink:href="#DejaVuSans-111"/>
      <use x="379.003906" xlink:href="#DejaVuSans-32"/>
      <use x="410.791016" xlink:href="#DejaVuSans-67"/>
      <use x="480.615234" xlink:href="#DejaVuSans-97"/>
      <use x="541.894531" xlink:href="#DejaVuSans-115"/>
      <use x="593.994141" xlink:href="#DejaVuSans-51"/>
      <use x="657.617188" xlink:href="#DejaVuSans-32"/>
      <use x="689.404297" xlink:href="#DejaVuSans-40"/>
      <use x="728.417969" xlink:href="#DejaVuSans-109"/>
      <use x="825.830078" xlink:href="#DejaVuSans-105"/>
      <use x="853.613281" xlink:href="#DejaVuSans-110"/>
      <use x="916.992188" xlink:href="#DejaVuSans-46"/>
      <use x="948.779297" xlink:href="#DejaVuSans-41"/>
     </g>
    </g>
   </g>
   <g id="LineCollection_1">
    <path clip-path="url(#pf7d9bf5692)" d="M 163.05797 148.672298 
L 165.022741 148.676713 
L 166.987513 148.622132 
L 167.126229 148.614276 
L 168.952285 148.513674 
L 170.917057 148.353617 
L 172.881828 148.143053 
L 174.8466 147.882016 
L 176.811372 147.569428 
L 177.087466 147.518911 
L 178.776143 147.211417 
L 180.740915 146.802758 
L 182.35497 146.423546 
L 182.705687 146.340002 
L 184.670459 145.826812 
L 186.387278 145.328182 
L 186.63523 145.253798 
L 188.600002 144.620351 
L 189.706744 144.232817 
L 190.564774 143.916675 
L 192.529546 143.137453 
L 194.494317 142.26342 
L 194.966021 142.042088 
L 196.459089 141.279123 
L 197.083621 140.946724 
L 198.423861 140.158039 
L 198.930465 139.851359 
L 200.388632 138.861683 
L 200.541867 138.755994 
L 201.957366 137.66063 
L 202.353404 137.310188 
L 203.19738 136.565265 
L 204.270203 135.469901 
L 204.318176 135.413338 
L 205.217836 134.374536 
L 206.023579 133.279172 
L 206.282948 132.856744 
L 206.712232 132.183807 
L 207.275916 131.088442 
L 207.705766 129.993078 
L 207.991658 128.897713 
L 208.11234 127.802349 
L 208.033178 126.706984 
L 207.702608 125.61162 
L 207.046749 124.516255 
L 206.282948 123.72232 
L 205.946233 123.420891 
L 204.318176 122.400909 
L 204.170399 122.325526 
L 202.353404 121.603169 
L 201.113945 121.230161 
L 200.388632 121.047442 
L 198.423861 120.668939 
L 196.459089 120.408786 
L 194.494317 120.247644 
L 192.529546 120.170898 
L 190.564774 120.167615 
L 188.600002 120.229775 
L 186.63523 120.351729 
L 184.670459 120.529804 
L 182.705687 120.762024 
L 180.740915 121.047932 
L 179.689994 121.230161 
L 178.776143 121.384135 
L 176.811372 121.767156 
L 174.8466 122.203619 
L 174.356884 122.325526 
L 172.881828 122.684095 
L 170.917057 123.215828 
L 170.227878 123.420891 
L 168.952285 123.794505 
L 166.987513 124.426676 
L 166.729506 124.516255 
L 165.022741 125.106275 
L 163.677622 125.61162 
L 163.05797 125.846259 
L 161.093198 126.646853 
L 160.954078 126.706984 
L 159.128426 127.515737 
L 158.520167 127.802349 
L 157.163654 128.468107 
L 156.333649 128.897713 
L 155.198883 129.520233 
L 154.37395 129.993078 
L 153.234111 130.698401 
L 152.624761 131.088442 
L 151.269339 132.043151 
L 151.07423 132.183807 
L 149.708372 133.279172 
L 149.304568 133.649401 
L 148.51919 134.374536 
L 147.508001 135.469901 
L 147.339796 135.689419 
L 146.661805 136.565265 
L 145.993031 137.66063 
L 145.506464 138.755994 
L 145.375024 139.253456 
L 145.21163 139.851359 
L 145.133562 140.946724 
L 145.304616 142.042088 
L 145.375024 142.215868 
L 145.774282 143.137453 
L 146.614586 144.232817 
L 147.339796 144.864491 
L 147.945669 145.328182 
L 149.304568 146.097143 
L 149.993773 146.423546 
L 151.269339 146.912122 
L 153.234111 147.507758 
L 153.279741 147.518911 
L 155.198883 147.931852 
L 157.163654 148.245495 
L 159.128426 148.465472 
L 161.093198 148.604411 
L 161.371178 148.614276 
L 163.05797 148.672298 
" style="fill:none;stroke:#a3cce3;stroke-opacity:0.9;stroke-width:2;"/>
   </g>
   <g id="LineCollection_2">
    <path clip-path="url(#pf7d9bf5692)" d="M 163.05797 148.622467 
L 165.022741 148.627885 
L 165.513618 148.614276 
L 166.987513 148.574566 
L 168.952285 148.466811 
L 170.917057 148.307004 
L 172.881828 148.096366 
L 174.8466 147.834934 
L 176.811372 147.521628 
L 176.826224 147.518911 
L 178.776143 147.163847 
L 180.740915 146.75406 
L 182.147696 146.423546 
L 182.705687 146.290626 
L 184.670459 145.775837 
L 186.211768 145.328182 
L 186.63523 145.201147 
L 188.600002 144.565517 
L 189.550145 144.232817 
L 190.564774 143.858976 
L 192.38406 143.137453 
L 192.529546 143.075738 
L 194.494317 142.198416 
L 194.827483 142.042088 
L 196.459089 141.20833 
L 196.95061 140.946724 
L 198.423861 140.079767 
L 198.801167 139.851359 
L 200.388632 138.773926 
L 200.414632 138.755994 
L 201.835085 137.66063 
L 202.353404 137.201987 
L 203.07479 136.565265 
L 204.15006 135.469901 
L 204.318176 135.271681 
L 205.095153 134.374536 
L 205.900957 133.279172 
L 206.282948 132.657032 
L 206.58483 132.183807 
L 207.146143 131.088442 
L 207.571894 129.993078 
L 207.851826 128.897713 
L 207.964481 127.802349 
L 207.874934 126.706984 
L 207.531216 125.61162 
L 206.858892 124.516255 
L 206.282948 123.917589 
L 205.728107 123.420891 
L 204.318176 122.537565 
L 203.902504 122.325526 
L 202.353404 121.709672 
L 200.760047 121.230161 
L 200.388632 121.136595 
L 198.423861 120.751598 
L 196.459089 120.486057 
L 194.494317 120.320457 
L 192.529546 120.240049 
L 190.564774 120.233788 
L 188.600002 120.293573 
L 186.63523 120.41369 
L 184.670459 120.590417 
L 182.705687 120.821741 
L 180.740915 121.107183 
L 180.031695 121.230161 
L 178.776143 121.441708 
L 176.811372 121.824693 
L 174.8466 122.261533 
L 174.58953 122.325526 
L 172.881828 122.740649 
L 170.917057 123.273219 
L 170.420759 123.420891 
L 168.952285 123.850998 
L 166.987513 124.484518 
L 166.896103 124.516255 
L 165.022741 125.163866 
L 163.830918 125.61162 
L 163.05797 125.904307 
L 161.093198 126.706984 
L 159.128426 127.577366 
L 158.650959 127.802349 
L 157.163654 128.532298 
L 156.457667 128.897713 
L 155.198883 129.588267 
L 154.492644 129.993078 
L 153.234111 130.771848 
L 152.739505 131.088442 
L 151.269339 132.123973 
L 151.186341 132.183807 
L 149.817202 133.279172 
L 149.304568 133.749182 
L 148.627261 134.374536 
L 147.614579 135.469901 
L 147.339796 135.828508 
L 146.769474 136.565265 
L 146.100989 137.66063 
L 145.615947 138.755994 
L 145.375024 139.667815 
L 145.324865 139.851359 
L 145.250436 140.946724 
L 145.375024 141.730749 
L 145.426934 142.042088 
L 145.904833 143.137453 
L 146.755383 144.232817 
L 147.339796 144.741854 
L 148.10591 145.328182 
L 149.304568 146.006467 
L 150.185236 146.423546 
L 151.269339 146.838787 
L 153.234111 147.44015 
L 153.556346 147.518911 
L 155.198883 147.872335 
L 157.163654 148.18924 
L 159.128426 148.411896 
L 161.093198 148.553005 
L 162.81984 148.614276 
L 163.05797 148.622467 
" style="fill:none;stroke:#a1cbe2;stroke-opacity:0.9;stroke-width:2;"/>
   </g>
   <g id="LineCollection_3">
    <path clip-path="url(#pf7d9bf5692)" d="M 157.670723 143.019112 
L 159.115505 143.46515 
L 160.560286 143.736383 
L 162.005068 143.837568 
L 163.449849 143.768818 
L 164.89463 143.525634 
L 166.339412 143.098765 
L 166.683165 142.954943 
L 167.784193 142.489801 
L 169.155915 141.719549 
L 169.228975 141.677381 
L 170.673756 140.658568 
L 170.884648 140.484155 
L 172.118537 139.407338 
L 172.280011 139.248761 
L 173.459587 138.013367 
L 173.563319 137.896675 
L 174.485493 136.777974 
L 175.0081 136.079344 
L 175.392892 135.54258 
L 176.195643 134.307186 
L 176.452882 133.866779 
L 176.91377 133.071792 
L 177.544505 131.836398 
L 177.897663 131.038397 
L 178.09619 130.601004 
L 178.576897 129.36561 
L 178.970607 128.130216 
L 179.279761 126.894822 
L 179.342444 126.550551 
L 179.515742 125.659428 
L 179.663742 124.424034 
L 179.716564 123.18864 
L 179.669024 121.953246 
L 179.513287 120.717852 
L 179.342444 119.938136 
L 179.24303 119.482458 
L 178.850745 118.247064 
L 178.309725 117.01167 
L 177.897663 116.277106 
L 177.5997 115.776276 
L 176.692096 114.540882 
L 176.452882 114.264843 
L 175.525563 113.305488 
L 175.0081 112.840888 
L 174.007601 112.070094 
L 173.563319 111.760019 
L 172.118537 110.930847 
L 171.905636 110.8347 
L 170.673756 110.302952 
L 169.228975 109.856521 
L 167.890741 109.599306 
L 167.784193 109.578801 
L 166.339412 109.459747 
L 164.89463 109.505416 
L 164.259273 109.599306 
L 163.449849 109.715599 
L 162.005068 110.093152 
L 160.560286 110.655135 
L 160.210878 110.8347 
L 159.115505 111.400905 
L 158.093405 112.070094 
L 157.670723 112.352633 
L 156.486289 113.305488 
L 156.225942 113.522575 
L 155.169123 114.540882 
L 154.78116 114.934336 
L 154.037794 115.776276 
L 153.336379 116.625656 
L 153.042325 117.01167 
L 152.162802 118.247064 
L 151.891598 118.659323 
L 151.376562 119.482458 
L 150.677881 120.717852 
L 150.446816 121.171535 
L 150.05707 121.953246 
L 149.516561 123.18864 
L 149.05791 124.424034 
L 149.002035 124.605918 
L 148.674749 125.659428 
L 148.378887 126.894822 
L 148.174993 128.130216 
L 148.068092 129.36561 
L 148.064953 130.601004 
L 148.174058 131.836398 
L 148.405516 133.071792 
L 148.770915 134.307186 
L 149.002035 134.87999 
L 149.28337 135.54258 
L 149.958139 136.777974 
L 150.446816 137.505777 
L 150.819686 138.013367 
L 151.891598 139.248761 
L 153.24735 140.484155 
L 153.336379 140.558317 
L 154.78116 141.588693 
L 155.00594 141.719549 
L 156.225942 142.401521 
L 157.519038 142.954943 
L 157.670723 143.019112 
" style="fill:none;stroke:#fda159;stroke-opacity:0.9;stroke-width:2;"/>
   </g>
   <g id="LineCollection_4">
    <path clip-path="url(#pf7d9bf5692)" d="M 159.115505 143.402491 
L 160.560286 143.674521 
L 162.005068 143.775808 
L 163.449849 143.706463 
L 164.89463 143.461965 
L 166.339412 143.033021 
L 166.526028 142.954943 
L 167.784193 142.423417 
L 169.037692 141.719549 
L 169.228975 141.609146 
L 170.673756 140.58592 
L 170.796805 140.484155 
L 172.118537 139.330677 
L 172.201949 139.248761 
L 173.386396 138.013367 
L 173.563319 137.814339 
L 174.417621 136.777974 
L 175.0081 135.988613 
L 175.327849 135.54258 
L 176.133622 134.307186 
L 176.452882 133.760595 
L 176.852211 133.071792 
L 177.485085 131.836398 
L 177.897663 130.90413 
L 178.035248 130.601004 
L 178.517323 129.36561 
L 178.911911 128.130216 
L 179.221454 126.894822 
L 179.342444 126.230318 
L 179.453466 125.659428 
L 179.601057 124.424034 
L 179.652935 123.18864 
L 179.603894 121.953246 
L 179.446062 120.717852 
L 179.342444 120.244945 
L 179.176094 119.482458 
L 178.780242 118.247064 
L 178.234901 117.01167 
L 177.897663 116.410492 
L 177.520343 115.776276 
L 176.606409 114.540882 
L 176.452882 114.36372 
L 175.429989 113.305488 
L 175.0081 112.926699 
L 173.896218 112.070094 
L 173.563319 111.837756 
L 172.118537 111.003563 
L 171.744619 110.8347 
L 170.673756 110.372455 
L 169.228975 109.923336 
L 167.784193 109.64436 
L 167.22998 109.599306 
L 166.339412 109.525752 
L 164.89463 109.571278 
L 164.704965 109.599306 
L 163.449849 109.779633 
L 162.005068 110.158392 
L 160.560286 110.722387 
L 160.34174 110.8347 
L 159.115505 111.468548 
L 158.196721 112.070094 
L 157.670723 112.421694 
L 156.572135 113.305488 
L 156.225942 113.594156 
L 155.243411 114.540882 
L 154.78116 115.009676 
L 154.104313 115.776276 
L 153.336379 116.706208 
L 153.103687 117.01167 
L 152.221255 118.247064 
L 151.891598 118.748179 
L 151.432159 119.482458 
L 150.731417 120.717852 
L 150.446816 121.276649 
L 150.109478 121.953246 
L 149.567625 123.18864 
L 149.108057 124.424034 
L 149.002035 124.769158 
L 148.725461 125.659428 
L 148.429348 126.894822 
L 148.225628 128.130216 
L 148.119329 129.36561 
L 148.11723 130.601004 
L 148.227829 131.836398 
L 148.461254 133.071792 
L 148.829117 134.307186 
L 149.002035 134.735743 
L 149.344617 135.54258 
L 150.023024 136.777974 
L 150.446816 137.409141 
L 150.890674 138.013367 
L 151.891598 139.166947 
L 151.971918 139.248761 
L 153.333606 140.484155 
L 153.336379 140.486466 
L 154.78116 141.521084 
L 155.122076 141.719549 
L 156.225942 142.336602 
L 157.670723 142.954943 
L 159.115505 143.402491 
" style="fill:none;stroke:#fda159;stroke-opacity:0.9;stroke-width:2;"/>
   </g>
   <g id="LineCollection_5">
    <path clip-path="url(#pf7d9bf5692)" d="M 149.460498 151.432784 
L 152.194238 151.65884 
L 155.611412 151.663275 
L 170.646978 151.181453 
L 174.064152 150.701855 
L 184.315675 148.884065 
L 186.365979 148.329142 
L 188.61719 147.496632 
L 191.367153 146.218555 
L 197.300936 143.136814 
L 199.351241 141.874611 
L 200.71811 140.755773 
L 201.401545 139.978909 
L 201.787564 139.402144 
L 202.192665 138.550093 
L 202.519946 137.272016 
L 202.625361 135.993939 
L 202.560044 134.289836 
L 202.206307 131.733682 
L 201.573294 128.751502 
L 201.004449 127.0474 
L 200.557274 126.195348 
L 199.910086 125.343297 
L 198.93959 124.491246 
L 197.984371 123.914944 
L 196.288035 123.213169 
L 194.567197 122.737584 
L 191.150023 122.079698 
L 185.96414 121.08304 
L 179.531631 119.664494 
L 177.481326 119.46057 
L 175.431022 119.470824 
L 173.380717 119.709355 
L 171.191283 120.230989 
L 169.280108 120.932681 
L 167.322331 121.935092 
L 165.862934 122.892377 
L 163.811761 124.491246 
L 161.044035 126.621374 
L 158.947934 127.899451 
L 156.292296 129.177528 
L 152.194238 131.027221 
L 150.143933 132.233234 
L 148.582821 133.437785 
L 146.726759 135.236037 
L 143.309585 138.670671 
L 141.25928 140.797335 
L 140.402381 141.958298 
L 139.787109 143.236375 
L 139.593311 144.088427 
L 139.584482 144.940478 
L 139.770191 145.792529 
L 140.16237 146.644581 
L 140.776502 147.496632 
L 141.942715 148.590972 
L 143.309585 149.495771 
L 144.676455 150.16708 
L 146.821697 150.904838 
L 148.784049 151.330863 
L 149.460498 151.432784 
L 149.460498 151.432784 
" style="fill:none;stroke:#3f007d;stroke-opacity:0.4;stroke-width:2;"/>
   </g>
   <g id="LineCollection_6">
    <path clip-path="url(#pf7d9bf5692)" d="M 149.460498 151.411439 
L 152.194238 151.638004 
L 155.611412 151.642081 
L 170.646978 151.152579 
L 174.064152 150.668074 
L 184.315675 148.83355 
L 186.365979 148.275448 
L 188.493504 147.496632 
L 191.265155 146.218555 
L 197.300936 143.084739 
L 199.351241 141.812502 
L 200.71811 140.680035 
L 201.440548 139.82817 
L 202.08498 138.642771 
L 202.373474 137.698042 
L 202.545641 136.419965 
L 202.533961 134.715862 
L 202.294138 132.585733 
L 201.726902 129.603554 
L 201.124214 127.473425 
L 200.502318 126.195348 
L 199.851923 125.343297 
L 198.87539 124.491246 
L 197.984371 123.951694 
L 196.199487 123.213169 
L 194.567197 122.762394 
L 191.150023 122.101261 
L 185.866559 121.08304 
L 179.531631 119.689583 
L 177.481326 119.485705 
L 175.431022 119.496403 
L 173.380717 119.7359 
L 171.281958 120.230989 
L 169.280108 120.963606 
L 167.381975 121.935092 
L 165.862934 122.931394 
L 163.81263 124.532638 
L 161.07889 126.637317 
L 159.017012 127.899451 
L 156.294847 129.211282 
L 151.738991 131.307656 
L 150.143933 132.279121 
L 148.642545 133.437785 
L 146.726759 135.292145 
L 143.309585 138.716398 
L 141.25928 140.847868 
L 140.441829 141.958298 
L 139.824619 143.236375 
L 139.630207 144.088427 
L 139.621209 144.940478 
L 139.892411 146.007864 
L 140.200453 146.644581 
L 140.816388 147.496632 
L 141.942715 148.556679 
L 143.309585 149.467228 
L 144.676455 150.141928 
L 146.726759 150.856965 
L 148.925717 151.330863 
L 149.460498 151.411439 
L 149.460498 151.411439 
" style="fill:none;stroke:#3f007d;stroke-opacity:0.4;stroke-width:2;"/>
   </g>
   <g id="LineCollection_7">
    <path clip-path="url(#pf7d9bf5692)" d="M 73.196952 98.802376 
L 74.466154 99.107331 
L 75.735357 99.201533 
L 77.004559 99.123545 
L 78.908363 98.752364 
L 80.812166 98.147503 
L 83.683058 96.941715 
L 90.331184 94.018871 
L 92.869588 93.203601 
L 96.26293 92.373526 
L 101.119403 91.225565 
L 103.657808 90.397209 
L 105.561612 89.585094 
L 107.465415 88.546835 
L 109.188203 87.348518 
L 110.723171 85.978061 
L 111.919921 84.607604 
L 112.841731 83.237148 
L 113.499585 81.866691 
L 113.853488 80.496234 
L 113.874056 79.582596 
L 113.677405 78.668958 
L 113.176826 77.670664 
L 112.190641 76.384864 
L 111.194364 75.014407 
L 110.585291 73.64395 
L 109.389024 69.989399 
L 108.734617 69.005078 
L 107.908513 68.162123 
L 106.830814 67.417617 
L 105.425661 66.791666 
L 103.646247 66.334847 
L 101.754005 66.093088 
L 98.580999 65.952737 
L 89.061981 65.835929 
L 86.523577 66.029032 
L 83.985172 66.471632 
L 82.081368 66.998508 
L 79.542964 67.959345 
L 76.237664 69.53258 
L 72.562351 71.481994 
L 69.389345 73.378015 
L 66.85094 75.18226 
L 64.908031 76.841683 
L 63.043333 78.761365 
L 61.622308 80.496234 
L 60.060741 82.780329 
L 58.808518 85.064423 
L 57.882063 87.348518 
L 57.513569 88.718975 
L 57.354174 90.089431 
L 57.419092 91.003069 
L 57.691248 91.916707 
L 58.287677 92.830345 
L 58.78458 93.287164 
L 59.870328 93.909024 
L 61.13953 94.327597 
L 63.043333 94.683538 
L 66.216339 95.216404 
L 67.485542 95.607998 
L 68.754744 96.205581 
L 70.658547 97.452474 
L 72.056753 98.312172 
L 73.196952 98.802376 
L 73.196952 98.802376 
" style="fill:none;stroke:#67000d;stroke-opacity:0.4;stroke-width:2;"/>
   </g>
   <g id="LineCollection_8">
    <path clip-path="url(#pf7d9bf5692)" d="M 73.196952 98.781899 
L 74.466154 99.088932 
L 75.735357 99.184844 
L 77.004559 99.108151 
L 78.908363 98.738286 
L 80.812166 98.134267 
L 83.65593 96.941715 
L 90.331184 94.007784 
L 92.869588 93.192904 
L 96.215268 92.373526 
L 101.119403 91.214652 
L 103.657808 90.385465 
L 105.561612 89.572138 
L 107.465415 88.532092 
L 109.165926 87.348518 
L 110.701412 85.978061 
L 111.907623 84.594138 
L 112.818603 83.237148 
L 113.474561 81.866691 
L 113.825595 80.496234 
L 113.811427 79.367532 
L 113.641969 78.668958 
L 113.176826 77.731062 
L 112.147432 76.384864 
L 111.156486 75.014407 
L 110.552757 73.64395 
L 109.359209 69.989399 
L 108.734617 69.042672 
L 107.87298 68.162123 
L 106.830814 67.441914 
L 105.561612 66.858911 
L 104.292409 66.485446 
L 102.388606 66.170489 
L 99.850201 66.002098 
L 90.965785 65.822806 
L 87.792779 65.921929 
L 85.254374 66.232024 
L 82.820589 66.791666 
L 80.812166 67.462651 
L 78.129927 68.618942 
L 74.466154 70.46633 
L 70.658547 72.598119 
L 67.696481 74.557588 
L 65.952199 75.928045 
L 63.990524 77.755321 
L 62.360522 79.582596 
L 60.9811 81.409872 
L 59.550219 83.693967 
L 58.431283 85.978061 
L 57.776257 87.805337 
L 57.468266 89.175794 
L 57.399809 90.54625 
L 57.559215 91.459888 
L 57.970408 92.373526 
L 58.601125 93.09404 
L 59.235726 93.557087 
L 59.870328 93.882856 
L 61.13953 94.305487 
L 63.043333 94.663539 
L 66.216339 95.194974 
L 67.485542 95.584707 
L 68.754744 96.18014 
L 70.658547 97.426371 
L 72.102783 98.312172 
L 73.196952 98.781899 
L 73.196952 98.781899 
" style="fill:none;stroke:#67000d;stroke-opacity:0.4;stroke-width:2;"/>
   </g>
   <g id="line2d_12">
    <path clip-path="url(#pf7d9bf5692)" d="M 53.83125 146.819714 
L 268.736786 146.819714 
" style="fill:none;stroke:#000000;stroke-linecap:square;stroke-opacity:0.5;stroke-width:1.5;"/>
   </g>
   <g id="line2d_13">
    <path clip-path="url(#pf7d9bf5692)" d="M 154.963267 281.29375 
L 154.963267 57.170357 
" style="fill:none;stroke:#000000;stroke-linecap:square;stroke-opacity:0.5;stroke-width:1.5;"/>
   </g>
   <g id="patch_3">
    <path d="M 53.83125 281.29375 
L 53.83125 57.170357 
" style="fill:none;stroke:#000000;stroke-linecap:square;stroke-linejoin:miter;stroke-width:0.8;"/>
   </g>
   <g id="patch_4">
    <path d="M 53.83125 281.29375 
L 268.736786 281.29375 
" style="fill:none;stroke:#000000;stroke-linecap:square;stroke-linejoin:miter;stroke-width:0.8;"/>
   </g>
  </g>
  <g id="axes_2">
   <g id="patch_5">
    <path d="M 53.83125 49.441964 
L 268.736786 49.441964 
L 268.736786 10.8 
L 53.83125 10.8 
z
" style="fill:#ffffff;"/>
   </g>
   <g id="PolyCollection_1">
    <defs>
     <path d="M 191.862385 -274.59263 
L 191.862385 -274.558036 
L 197.680953 -274.558036 
L 203.499521 -274.558036 
L 209.31809 -274.558036 
L 215.136658 -274.558036 
L 220.955226 -274.558036 
L 226.773795 -274.558036 
L 232.592363 -274.558036 
L 238.410931 -274.558036 
L 244.229499 -274.558036 
L 250.048068 -274.558036 
L 255.866636 -274.558036 
L 261.685204 -274.558036 
L 267.503772 -274.558036 
L 273.322341 -274.558036 
L 279.140909 -274.558036 
L 284.959477 -274.558036 
L 290.778046 -274.558036 
L 296.596614 -274.558036 
L 302.415182 -274.558036 
L 302.415182 -274.578431 
L 302.415182 -274.578431 
L 296.596614 -274.678461 
L 290.778046 -275.019956 
L 284.959477 -275.73751 
L 279.140909 -276.73011 
L 273.322341 -278.056466 
L 267.503772 -280.514344 
L 261.685204 -284.492693 
L 255.866636 -288.373081 
L 250.048068 -289.938724 
L 244.229499 -289.339946 
L 238.410931 -288.967724 
L 232.592363 -289.912654 
L 226.773795 -290.128421 
L 220.955226 -287.390935 
L 215.136658 -282.500119 
L 209.31809 -278.104696 
L 203.499521 -275.668926 
L 197.680953 -274.796702 
L 191.862385 -274.59263 
z
" id="maa3bfabaf2" style="stroke:#7262ac;"/>
    </defs>
    <g clip-path="url(#paa95a44d33)">
     <use style="fill:#7262ac;fill-opacity:0.4;stroke:#7262ac;" x="0" xlink:href="#maa3bfabaf2" y="324"/>
    </g>
   </g>
   <g id="PolyCollection_2">
    <defs>
     <path d="M 116.411921 -274.595968 
L 116.411921 -274.558036 
L 120.828909 -274.558036 
L 125.245898 -274.558036 
L 129.662886 -274.558036 
L 134.079875 -274.558036 
L 138.496863 -274.558036 
L 142.913852 -274.558036 
L 147.33084 -274.558036 
L 151.747829 -274.558036 
L 156.164817 -274.558036 
L 160.581806 -274.558036 
L 164.998794 -274.558036 
L 169.415783 -274.558036 
L 173.832772 -274.558036 
L 178.24976 -274.558036 
L 182.666749 -274.558036 
L 187.083737 -274.558036 
L 191.500726 -274.558036 
L 195.917714 -274.558036 
L 200.334703 -274.558036 
L 200.334703 -274.655992 
L 200.334703 -274.655992 
L 195.917714 -275.100409 
L 191.500726 -276.664182 
L 187.083737 -280.320013 
L 182.666749 -285.779774 
L 178.24976 -290.542768 
L 173.832772 -292.379255 
L 169.415783 -292.260844 
L 164.998794 -292.353618 
L 160.581806 -292.791302 
L 156.164817 -292.498141 
L 151.747829 -290.956099 
L 147.33084 -288.402832 
L 142.913852 -285.433529 
L 138.496863 -282.361334 
L 134.079875 -279.329465 
L 129.662886 -276.849159 
L 125.245898 -275.374128 
L 120.828909 -274.767111 
L 116.411921 -274.595968 
z
" id="mf1dc57c8bb" style="stroke:#d92523;"/>
    </defs>
    <g clip-path="url(#paa95a44d33)">
     <use style="fill:#d92523;fill-opacity:0.4;stroke:#d92523;" x="0" xlink:href="#mf1dc57c8bb" y="324"/>
    </g>
   </g>
   <g id="PolyCollection_3">
    <defs>
     <path d="M 118.184381 -274.570994 
L 118.184381 -274.558036 
L 124.965718 -274.558036 
L 131.747056 -274.558036 
L 138.528393 -274.558036 
L 145.309731 -274.558036 
L 152.091069 -274.558036 
L 158.872406 -274.558036 
L 165.653744 -274.558036 
L 172.435081 -274.558036 
L 179.216419 -274.558036 
L 185.997756 -274.558036 
L 192.779094 -274.558036 
L 199.560431 -274.558036 
L 206.341769 -274.558036 
L 213.123106 -274.558036 
L 219.904444 -274.558036 
L 226.685782 -274.558036 
L 233.467119 -274.558036 
L 240.248457 -274.558036 
L 247.029794 -274.558036 
L 247.029794 -274.562998 
L 247.029794 -274.562998 
L 240.248457 -274.61193 
L 233.467119 -274.800112 
L 226.685782 -275.042333 
L 219.904444 -275.343587 
L 213.123106 -276.773061 
L 206.341769 -279.478197 
L 199.560431 -281.909236 
L 192.779094 -284.897825 
L 185.997756 -289.104605 
L 179.216419 -291.333298 
L 172.435081 -290.086619 
L 165.653744 -287.656082 
L 158.872406 -285.522796 
L 152.091069 -283.94035 
L 145.309731 -281.579938 
L 138.528393 -278.238544 
L 131.747056 -275.694167 
L 124.965718 -274.736674 
L 118.184381 -274.570994 
z
" id="mce25f5d09c" style="stroke:#7262ac;"/>
    </defs>
    <g clip-path="url(#paa95a44d33)">
     <use style="fill:#7262ac;fill-opacity:0.4;stroke:#7262ac;" x="0" xlink:href="#mce25f5d09c" y="324"/>
    </g>
   </g>
   <g id="PolyCollection_4">
    <defs>
     <path d="M 28.311228 -274.570346 
L 28.311228 -274.558036 
L 34.605844 -274.558036 
L 40.90046 -274.558036 
L 47.195075 -274.558036 
L 53.489691 -274.558036 
L 59.784307 -274.558036 
L 66.078923 -274.558036 
L 72.373539 -274.558036 
L 78.668155 -274.558036 
L 84.962771 -274.558036 
L 91.257387 -274.558036 
L 97.552003 -274.558036 
L 103.846619 -274.558036 
L 110.141235 -274.558036 
L 116.435851 -274.558036 
L 122.730467 -274.558036 
L 129.025083 -274.558036 
L 135.319699 -274.558036 
L 141.614315 -274.558036 
L 147.908931 -274.558036 
L 147.908931 -274.56423 
L 147.908931 -274.56423 
L 141.614315 -274.631902 
L 135.319699 -274.961389 
L 129.025083 -275.729653 
L 122.730467 -277.020121 
L 116.435851 -279.187527 
L 110.141235 -282.295689 
L 103.846619 -285.84574 
L 97.552003 -288.422435 
L 91.257387 -289.887247 
L 84.962771 -291.440797 
L 78.668155 -291.95964 
L 72.373539 -288.893301 
L 66.078923 -284.312688 
L 59.784307 -280.603477 
L 53.489691 -278.139787 
L 47.195075 -276.569928 
L 40.90046 -275.323929 
L 34.605844 -274.703534 
L 28.311228 -274.570346 
z
" id="m9894328fd9" style="stroke:#d92523;"/>
    </defs>
    <g clip-path="url(#paa95a44d33)">
     <use style="fill:#d92523;fill-opacity:0.4;stroke:#d92523;" x="0" xlink:href="#m9894328fd9" y="324"/>
    </g>
   </g>
   <g id="patch_6">
    <path clip-path="url(#paa95a44d33)" d="M 139.793464 49.441964 
L 152.434966 49.441964 
L 152.434966 48.603974 
L 139.793464 48.603974 
z
" style="fill:none;stroke:#2e7ebc;stroke-linejoin:miter;stroke-width:2;"/>
   </g>
   <g id="patch_7">
    <path clip-path="url(#paa95a44d33)" d="M 152.434966 49.441964 
L 165.076468 49.441964 
L 165.076468 41.900055 
L 152.434966 41.900055 
z
" style="fill:none;stroke:#2e7ebc;stroke-linejoin:miter;stroke-width:2;"/>
   </g>
   <g id="patch_8">
    <path clip-path="url(#paa95a44d33)" d="M 165.076468 49.441964 
L 177.717971 49.441964 
L 177.717971 31.006185 
L 165.076468 31.006185 
z
" style="fill:none;stroke:#2e7ebc;stroke-linejoin:miter;stroke-width:2;"/>
   </g>
   <g id="patch_9">
    <path clip-path="url(#paa95a44d33)" d="M 177.717971 49.441964 
L 190.359473 49.441964 
L 190.359473 39.386085 
L 177.717971 39.386085 
z
" style="fill:none;stroke:#2e7ebc;stroke-linejoin:miter;stroke-width:2;"/>
   </g>
   <g id="patch_10">
    <path clip-path="url(#paa95a44d33)" d="M 190.359473 49.441964 
L 203.000975 49.441964 
L 203.000975 42.738045 
L 190.359473 42.738045 
z
" style="fill:none;stroke:#2e7ebc;stroke-linejoin:miter;stroke-width:2;"/>
   </g>
   <g id="patch_11">
    <path clip-path="url(#paa95a44d33)" d="M 203.000975 49.441964 
L 215.642477 49.441964 
L 215.642477 45.671009 
L 203.000975 45.671009 
z
" style="fill:none;stroke:#2e7ebc;stroke-linejoin:miter;stroke-width:2;"/>
   </g>
   <g id="patch_12">
    <path clip-path="url(#paa95a44d33)" d="M 215.642477 49.441964 
L 228.283979 49.441964 
L 228.283979 48.184979 
L 215.642477 48.184979 
z
" style="fill:none;stroke:#2e7ebc;stroke-linejoin:miter;stroke-width:2;"/>
   </g>
   <g id="patch_13">
    <path clip-path="url(#paa95a44d33)" d="M 228.283979 49.441964 
L 240.925481 49.441964 
L 240.925481 47.765984 
L 228.283979 47.765984 
z
" style="fill:none;stroke:#2e7ebc;stroke-linejoin:miter;stroke-width:2;"/>
   </g>
   <g id="patch_14">
    <path clip-path="url(#paa95a44d33)" d="M 240.925481 49.441964 
L 253.566983 49.441964 
L 253.566983 46.927994 
L 240.925481 46.927994 
z
" style="fill:none;stroke:#2e7ebc;stroke-linejoin:miter;stroke-width:2;"/>
   </g>
   <g id="patch_15">
    <path clip-path="url(#paa95a44d33)" d="M 253.566983 49.441964 
L 266.208485 49.441964 
L 266.208485 48.184979 
L 253.566983 48.184979 
z
" style="fill:none;stroke:#2e7ebc;stroke-linejoin:miter;stroke-width:2;"/>
   </g>
   <g id="patch_16">
    <path clip-path="url(#paa95a44d33)" d="M 266.208485 49.441964 
L 278.849987 49.441964 
L 278.849987 47.346989 
L 266.208485 47.346989 
z
" style="fill:none;stroke:#2e7ebc;stroke-linejoin:miter;stroke-width:2;"/>
   </g>
   <g id="patch_17">
    <path clip-path="url(#paa95a44d33)" d="M 278.849987 49.441964 
L 291.491489 49.441964 
L 291.491489 47.765984 
L 278.849987 47.765984 
z
" style="fill:none;stroke:#2e7ebc;stroke-linejoin:miter;stroke-width:2;"/>
   </g>
   <g id="patch_18">
    <path clip-path="url(#paa95a44d33)" d="M 291.491489 49.441964 
L 304.132992 49.441964 
L 304.132992 47.765984 
L 291.491489 47.765984 
z
" style="fill:none;stroke:#2e7ebc;stroke-linejoin:miter;stroke-width:2;"/>
   </g>
   <g id="patch_19">
    <path clip-path="url(#paa95a44d33)" d="M 304.132992 49.441964 
L 316.774494 49.441964 
L 316.774494 48.184979 
L 304.132992 48.184979 
z
" style="fill:none;stroke:#2e7ebc;stroke-linejoin:miter;stroke-width:2;"/>
   </g>
   <g id="patch_20">
    <path clip-path="url(#paa95a44d33)" d="M 316.774494 49.441964 
L 329.415996 49.441964 
L 329.415996 49.441964 
L 316.774494 49.441964 
z
" style="fill:none;stroke:#2e7ebc;stroke-linejoin:miter;stroke-width:2;"/>
   </g>
   <g id="patch_21">
    <path clip-path="url(#paa95a44d33)" d="M 329.415996 49.441964 
L 342.057498 49.441964 
L 342.057498 49.022969 
L 329.415996 49.022969 
z
" style="fill:none;stroke:#2e7ebc;stroke-linejoin:miter;stroke-width:2;"/>
   </g>
   <g id="patch_22">
    <path clip-path="url(#paa95a44d33)" d="M 342.057498 49.441964 
L 354.699 49.441964 
L 354.699 49.022969 
L 342.057498 49.022969 
z
" style="fill:none;stroke:#2e7ebc;stroke-linejoin:miter;stroke-width:2;"/>
   </g>
   <g id="patch_23">
    <path clip-path="url(#paa95a44d33)" d="M 354.699 49.441964 
L 367.340502 49.441964 
L 367.340502 48.603974 
L 354.699 48.603974 
z
" style="fill:none;stroke:#2e7ebc;stroke-linejoin:miter;stroke-width:2;"/>
   </g>
   <g id="patch_24">
    <path clip-path="url(#paa95a44d33)" d="M 367.340502 49.441964 
L 379.982004 49.441964 
L 379.982004 49.022969 
L 367.340502 49.022969 
z
" style="fill:none;stroke:#2e7ebc;stroke-linejoin:miter;stroke-width:2;"/>
   </g>
   <g id="patch_25">
    <path clip-path="url(#paa95a44d33)" d="M 379.982004 49.441964 
L 392.623506 49.441964 
L 392.623506 48.603974 
L 379.982004 48.603974 
z
" style="fill:none;stroke:#2e7ebc;stroke-linejoin:miter;stroke-width:2;"/>
   </g>
   <g id="patch_26">
    <path clip-path="url(#paa95a44d33)" d="M 101.868958 49.441964 
L 112.867065 49.441964 
L 112.867065 48.641924 
L 101.868958 48.641924 
z
" style="fill:none;stroke:#e25508;stroke-linejoin:miter;stroke-width:2;"/>
   </g>
   <g id="patch_27">
    <path clip-path="url(#paa95a44d33)" d="M 112.867065 49.441964 
L 123.865172 49.441964 
L 123.865172 49.441964 
L 112.867065 49.441964 
z
" style="fill:none;stroke:#e25508;stroke-linejoin:miter;stroke-width:2;"/>
   </g>
   <g id="patch_28">
    <path clip-path="url(#paa95a44d33)" d="M 123.865172 49.441964 
L 134.863278 49.441964 
L 134.863278 49.441964 
L 123.865172 49.441964 
z
" style="fill:none;stroke:#e25508;stroke-linejoin:miter;stroke-width:2;"/>
   </g>
   <g id="patch_29">
    <path clip-path="url(#paa95a44d33)" d="M 134.863278 49.441964 
L 145.861385 49.441964 
L 145.861385 48.241903 
L 134.863278 48.241903 
z
" style="fill:none;stroke:#e25508;stroke-linejoin:miter;stroke-width:2;"/>
   </g>
   <g id="patch_30">
    <path clip-path="url(#paa95a44d33)" d="M 145.861385 49.441964 
L 156.859492 49.441964 
L 156.859492 40.641517 
L 145.861385 40.641517 
z
" style="fill:none;stroke:#e25508;stroke-linejoin:miter;stroke-width:2;"/>
   </g>
   <g id="patch_31">
    <path clip-path="url(#paa95a44d33)" d="M 156.859492 49.441964 
L 167.857599 49.441964 
L 167.857599 12.640094 
L 156.859492 12.640094 
z
" style="fill:none;stroke:#e25508;stroke-linejoin:miter;stroke-width:2;"/>
   </g>
   <g id="patch_32">
    <path clip-path="url(#paa95a44d33)" d="M 167.857599 49.441964 
L 178.855706 49.441964 
L 178.855706 40.241497 
L 167.857599 40.241497 
z
" style="fill:none;stroke:#e25508;stroke-linejoin:miter;stroke-width:2;"/>
   </g>
   <g id="patch_33">
    <path clip-path="url(#paa95a44d33)" d="M 178.855706 49.441964 
L 189.853813 49.441964 
L 189.853813 45.441761 
L 178.855706 45.441761 
z
" style="fill:none;stroke:#e25508;stroke-linejoin:miter;stroke-width:2;"/>
   </g>
   <g id="patch_34">
    <path clip-path="url(#paa95a44d33)" d="M 189.853813 49.441964 
L 200.851919 49.441964 
L 200.851919 43.441659 
L 189.853813 43.441659 
z
" style="fill:none;stroke:#e25508;stroke-linejoin:miter;stroke-width:2;"/>
   </g>
   <g id="patch_35">
    <path clip-path="url(#paa95a44d33)" d="M 200.851919 49.441964 
L 211.850026 49.441964 
L 211.850026 47.441863 
L 200.851919 47.441863 
z
" style="fill:none;stroke:#e25508;stroke-linejoin:miter;stroke-width:2;"/>
   </g>
   <g id="patch_36">
    <path clip-path="url(#paa95a44d33)" d="M 211.850026 49.441964 
L 222.848133 49.441964 
L 222.848133 49.041944 
L 211.850026 49.041944 
z
" style="fill:none;stroke:#e25508;stroke-linejoin:miter;stroke-width:2;"/>
   </g>
   <g id="patch_37">
    <path clip-path="url(#paa95a44d33)" d="M 222.848133 49.441964 
L 233.84624 49.441964 
L 233.84624 48.241903 
L 222.848133 48.241903 
z
" style="fill:none;stroke:#e25508;stroke-linejoin:miter;stroke-width:2;"/>
   </g>
   <g id="patch_38">
    <path clip-path="url(#paa95a44d33)" d="M 233.84624 49.441964 
L 244.844347 49.441964 
L 244.844347 48.641924 
L 233.84624 48.641924 
z
" style="fill:none;stroke:#e25508;stroke-linejoin:miter;stroke-width:2;"/>
   </g>
   <g id="patch_39">
    <path clip-path="url(#paa95a44d33)" d="M 244.844347 49.441964 
L 255.842454 49.441964 
L 255.842454 48.641924 
L 244.844347 48.641924 
z
" style="fill:none;stroke:#e25508;stroke-linejoin:miter;stroke-width:2;"/>
   </g>
   <g id="patch_40">
    <path clip-path="url(#paa95a44d33)" d="M 255.842454 49.441964 
L 266.84056 49.441964 
L 266.84056 49.441964 
L 255.842454 49.441964 
z
" style="fill:none;stroke:#e25508;stroke-linejoin:miter;stroke-width:2;"/>
   </g>
   <g id="patch_41">
    <path clip-path="url(#paa95a44d33)" d="M 266.84056 49.441964 
L 277.838667 49.441964 
L 277.838667 49.441964 
L 266.84056 49.441964 
z
" style="fill:none;stroke:#e25508;stroke-linejoin:miter;stroke-width:2;"/>
   </g>
   <g id="patch_42">
    <path clip-path="url(#paa95a44d33)" d="M 277.838667 49.441964 
L 288.836774 49.441964 
L 288.836774 49.041944 
L 277.838667 49.041944 
z
" style="fill:none;stroke:#e25508;stroke-linejoin:miter;stroke-width:2;"/>
   </g>
   <g id="patch_43">
    <path clip-path="url(#paa95a44d33)" d="M 288.836774 49.441964 
L 299.834881 49.441964 
L 299.834881 49.441964 
L 288.836774 49.441964 
z
" style="fill:none;stroke:#e25508;stroke-linejoin:miter;stroke-width:2;"/>
   </g>
   <g id="patch_44">
    <path clip-path="url(#paa95a44d33)" d="M 299.834881 49.441964 
L 310.832988 49.441964 
L 310.832988 49.041944 
L 299.834881 49.041944 
z
" style="fill:none;stroke:#e25508;stroke-linejoin:miter;stroke-width:2;"/>
   </g>
   <g id="patch_45">
    <path clip-path="url(#paa95a44d33)" d="M 310.832988 49.441964 
L 321.831095 49.441964 
L 321.831095 49.041944 
L 310.832988 49.041944 
z
" style="fill:none;stroke:#e25508;stroke-linejoin:miter;stroke-width:2;"/>
   </g>
   <g id="matplotlib.axis_3">
    <g id="xtick_6">
     <g id="line2d_14">
      <g>
       <use style="stroke:#000000;stroke-width:0.8;" x="53.83125" xlink:href="#m449a94d033" y="49.441964"/>
      </g>
     </g>
    </g>
    <g id="xtick_7">
     <g id="line2d_15">
      <g>
       <use style="stroke:#000000;stroke-width:0.8;" x="104.397258" xlink:href="#m449a94d033" y="49.441964"/>
      </g>
     </g>
    </g>
    <g id="xtick_8">
     <g id="line2d_16">
      <g>
       <use style="stroke:#000000;stroke-width:0.8;" x="154.963267" xlink:href="#m449a94d033" y="49.441964"/>
      </g>
     </g>
    </g>
    <g id="xtick_9">
     <g id="line2d_17">
      <g>
       <use style="stroke:#000000;stroke-width:0.8;" x="205.529275" xlink:href="#m449a94d033" y="49.441964"/>
      </g>
     </g>
    </g>
    <g id="xtick_10">
     <g id="line2d_18">
      <g>
       <use style="stroke:#000000;stroke-width:0.8;" x="256.095284" xlink:href="#m449a94d033" y="49.441964"/>
      </g>
     </g>
    </g>
   </g>
   <g id="matplotlib.axis_4">
    <g id="ytick_7"/>
    <g id="ytick_8"/>
   </g>
   <g id="patch_46">
    <path d="M 53.83125 49.441964 
L 268.736786 49.441964 
" style="fill:none;stroke:#000000;stroke-linecap:square;stroke-linejoin:miter;stroke-width:0.8;"/>
   </g>
  </g>
  <g id="axes_3">
   <g id="patch_47">
    <path d="M 276.147321 281.29375 
L 313.2 281.29375 
L 313.2 57.170357 
L 276.147321 57.170357 
z
" style="fill:#ffffff;"/>
   </g>
   <g id="PolyCollection_5">
    <defs>
     <path d="M 276.237132 -34.330623 
L 276.147321 -34.330623 
L 276.147321 -37.076006 
L 276.147321 -39.821389 
L 276.147321 -42.566772 
L 276.147321 -45.312155 
L 276.147321 -48.057538 
L 276.147321 -50.802921 
L 276.147321 -53.548304 
L 276.147321 -56.293687 
L 276.147321 -59.03907 
L 276.147321 -61.784453 
L 276.147321 -64.529836 
L 276.147321 -67.275219 
L 276.147321 -70.020602 
L 276.147321 -72.765985 
L 276.147321 -75.511368 
L 276.147321 -78.256751 
L 276.147321 -81.002134 
L 276.147321 -83.747517 
L 276.147321 -86.4929 
L 276.220987 -86.4929 
L 276.220987 -86.4929 
L 276.569852 -83.747517 
L 277.8207 -81.002134 
L 280.81638 -78.256751 
L 285.680054 -75.511368 
L 291.332205 -72.765985 
L 296.708872 -70.020602 
L 301.607416 -67.275219 
L 305.788956 -64.529836 
L 308.752526 -61.784453 
L 310.559653 -59.03907 
L 311.435587 -56.293687 
L 310.725107 -53.548304 
L 307.080321 -50.802921 
L 299.85697 -48.057538 
L 290.696229 -45.312155 
L 282.896154 -42.566772 
L 278.419999 -39.821389 
L 276.688746 -37.076006 
L 276.237132 -34.330623 
z
" id="mfd896981c4" style="stroke:#7262ac;"/>
    </defs>
    <g clip-path="url(#pab98ef337a)">
     <use style="fill:#7262ac;fill-opacity:0.4;stroke:#7262ac;" x="0" xlink:href="#mfd896981c4" y="324"/>
    </g>
   </g>
   <g id="PolyCollection_6">
    <defs>
     <path d="M 276.195584 -163.803163 
L 276.147321 -163.803163 
L 276.147321 -167.88288 
L 276.147321 -171.962596 
L 276.147321 -176.042312 
L 276.147321 -180.122028 
L 276.147321 -184.201744 
L 276.147321 -188.28146 
L 276.147321 -192.361176 
L 276.147321 -196.440892 
L 276.147321 -200.520608 
L 276.147321 -204.600325 
L 276.147321 -208.680041 
L 276.147321 -212.759757 
L 276.147321 -216.839473 
L 276.147321 -220.919189 
L 276.147321 -224.998905 
L 276.147321 -229.078621 
L 276.147321 -233.158337 
L 276.147321 -237.238054 
L 276.147321 -241.31777 
L 276.214462 -241.31777 
L 276.214462 -241.31777 
L 276.556709 -237.238054 
L 277.807911 -233.158337 
L 280.718907 -229.078621 
L 285.058229 -224.998905 
L 289.489941 -220.919189 
L 293.472008 -216.839473 
L 297.781704 -212.759757 
L 302.415779 -208.680041 
L 305.215221 -204.600325 
L 303.554897 -200.520608 
L 297.735572 -196.440892 
L 291.255264 -192.361176 
L 286.998004 -188.28146 
L 284.569372 -184.201744 
L 282.107101 -180.122028 
L 279.345257 -176.042312 
L 277.335356 -171.962596 
L 276.442255 -167.88288 
L 276.195584 -163.803163 
z
" id="me908630736" style="stroke:#d92523;"/>
    </defs>
    <g clip-path="url(#pab98ef337a)">
     <use style="fill:#d92523;fill-opacity:0.4;stroke:#d92523;" x="0" xlink:href="#me908630736" y="324"/>
    </g>
   </g>
   <g id="PolyCollection_7">
    <defs>
     <path d="M 276.157276 -143.534031 
L 276.147321 -143.534031 
L 276.147321 -147.789272 
L 276.147321 -152.044512 
L 276.147321 -156.299753 
L 276.147321 -160.554994 
L 276.147321 -164.810234 
L 276.147321 -169.065475 
L 276.147321 -173.320716 
L 276.147321 -177.575956 
L 276.147321 -181.831197 
L 276.147321 -186.086438 
L 276.147321 -190.341678 
L 276.147321 -194.596919 
L 276.147321 -198.85216 
L 276.147321 -203.1074 
L 276.147321 -207.362641 
L 276.147321 -211.617882 
L 276.147321 -215.873122 
L 276.147321 -220.128363 
L 276.147321 -224.383604 
L 276.159403 -224.383604 
L 276.159403 -224.383604 
L 276.343911 -220.128363 
L 277.266893 -215.873122 
L 278.840225 -211.617882 
L 281.358446 -207.362641 
L 287.693185 -203.1074 
L 295.348616 -198.85216 
L 302.875084 -194.596919 
L 309.012592 -190.341678 
L 308.119451 -186.086438 
L 303.86631 -181.831197 
L 298.999813 -177.575956 
L 291.47091 -173.320716 
L 283.005175 -169.065475 
L 277.947048 -164.810234 
L 276.756771 -160.554994 
L 277.03254 -156.299753 
L 276.775203 -152.044512 
L 276.288644 -147.789272 
L 276.157276 -143.534031 
z
" id="mabbe6bf35f" style="stroke:#7262ac;"/>
    </defs>
    <g clip-path="url(#pab98ef337a)">
     <use style="fill:#7262ac;fill-opacity:0.4;stroke:#7262ac;" x="0" xlink:href="#mabbe6bf35f" y="324"/>
    </g>
   </g>
   <g id="PolyCollection_8">
    <defs>
     <path d="M 276.156763 -190.300286 
L 276.147321 -190.300286 
L 276.147321 -194.866799 
L 276.147321 -199.433312 
L 276.147321 -203.999825 
L 276.147321 -208.566338 
L 276.147321 -213.132851 
L 276.147321 -217.699364 
L 276.147321 -222.265877 
L 276.147321 -226.83239 
L 276.147321 -231.398903 
L 276.147321 -235.965416 
L 276.147321 -240.531928 
L 276.147321 -245.098441 
L 276.147321 -249.664954 
L 276.147321 -254.231467 
L 276.147321 -258.79798 
L 276.147321 -263.364493 
L 276.147321 -267.931006 
L 276.147321 -272.497519 
L 276.147321 -277.064032 
L 276.157329 -277.064032 
L 276.157329 -277.064032 
L 276.31727 -272.497519 
L 277.319752 -267.931006 
L 280.649951 -263.364493 
L 287.301695 -258.79798 
L 294.699958 -254.231467 
L 300.97878 -249.664954 
L 307.209185 -245.098441 
L 309.278496 -240.531928 
L 304.730704 -235.965416 
L 296.102969 -231.398903 
L 286.556027 -226.83239 
L 280.638706 -222.265877 
L 278.403599 -217.699364 
L 277.492391 -213.132851 
L 277.015835 -208.566338 
L 277.051845 -203.999825 
L 276.766421 -199.433312 
L 276.286439 -194.866799 
L 276.156763 -190.300286 
z
" id="m108c0e8501" style="stroke:#d92523;"/>
    </defs>
    <g clip-path="url(#pab98ef337a)">
     <use style="fill:#d92523;fill-opacity:0.4;stroke:#d92523;" x="0" xlink:href="#m108c0e8501" y="324"/>
    </g>
   </g>
   <g id="patch_48">
    <path clip-path="url(#pab98ef337a)" d="M 276.147321 240.951539 
L 276.814692 240.951539 
L 276.814692 232.210727 
L 276.147321 232.210727 
z
" style="fill:none;stroke:#2e7ebc;stroke-linejoin:miter;stroke-width:2;"/>
   </g>
   <g id="patch_49">
    <path clip-path="url(#pab98ef337a)" d="M 276.147321 232.210727 
L 276.147321 232.210727 
L 276.147321 223.469915 
L 276.147321 223.469915 
z
" style="fill:none;stroke:#2e7ebc;stroke-linejoin:miter;stroke-width:2;"/>
   </g>
   <g id="patch_50">
    <path clip-path="url(#pab98ef337a)" d="M 276.147321 223.469915 
L 276.147321 223.469915 
L 276.147321 214.729102 
L 276.147321 214.729102 
z
" style="fill:none;stroke:#2e7ebc;stroke-linejoin:miter;stroke-width:2;"/>
   </g>
   <g id="patch_51">
    <path clip-path="url(#pab98ef337a)" d="M 276.147321 214.729102 
L 276.147321 214.729102 
L 276.147321 205.98829 
L 276.147321 205.98829 
z
" style="fill:none;stroke:#2e7ebc;stroke-linejoin:miter;stroke-width:2;"/>
   </g>
   <g id="patch_52">
    <path clip-path="url(#pab98ef337a)" d="M 276.147321 205.98829 
L 276.147321 205.98829 
L 276.147321 197.247478 
L 276.147321 197.247478 
z
" style="fill:none;stroke:#2e7ebc;stroke-linejoin:miter;stroke-width:2;"/>
   </g>
   <g id="patch_53">
    <path clip-path="url(#pab98ef337a)" d="M 276.147321 197.247478 
L 276.147321 197.247478 
L 276.147321 188.506665 
L 276.147321 188.506665 
z
" style="fill:none;stroke:#2e7ebc;stroke-linejoin:miter;stroke-width:2;"/>
   </g>
   <g id="patch_54">
    <path clip-path="url(#pab98ef337a)" d="M 276.147321 188.506665 
L 277.482063 188.506665 
L 277.482063 179.765853 
L 276.147321 179.765853 
z
" style="fill:none;stroke:#2e7ebc;stroke-linejoin:miter;stroke-width:2;"/>
   </g>
   <g id="patch_55">
    <path clip-path="url(#pab98ef337a)" d="M 276.147321 179.765853 
L 276.814692 179.765853 
L 276.814692 171.025041 
L 276.147321 171.025041 
z
" style="fill:none;stroke:#2e7ebc;stroke-linejoin:miter;stroke-width:2;"/>
   </g>
   <g id="patch_56">
    <path clip-path="url(#pab98ef337a)" d="M 276.147321 171.025041 
L 277.482063 171.025041 
L 277.482063 162.284228 
L 276.147321 162.284228 
z
" style="fill:none;stroke:#2e7ebc;stroke-linejoin:miter;stroke-width:2;"/>
   </g>
   <g id="patch_57">
    <path clip-path="url(#pab98ef337a)" d="M 276.147321 162.284228 
L 276.814692 162.284228 
L 276.814692 153.543416 
L 276.147321 153.543416 
z
" style="fill:none;stroke:#2e7ebc;stroke-linejoin:miter;stroke-width:2;"/>
   </g>
   <g id="patch_58">
    <path clip-path="url(#pab98ef337a)" d="M 276.147321 153.543416 
L 286.157882 153.543416 
L 286.157882 144.802604 
L 276.147321 144.802604 
z
" style="fill:none;stroke:#2e7ebc;stroke-linejoin:miter;stroke-width:2;"/>
   </g>
   <g id="patch_59">
    <path clip-path="url(#pab98ef337a)" d="M 276.147321 144.802604 
L 303.509521 144.802604 
L 303.509521 136.061791 
L 276.147321 136.061791 
z
" style="fill:none;stroke:#2e7ebc;stroke-linejoin:miter;stroke-width:2;"/>
   </g>
   <g id="patch_60">
    <path clip-path="url(#pab98ef337a)" d="M 276.147321 136.061791 
L 305.511633 136.061791 
L 305.511633 127.320979 
L 276.147321 127.320979 
z
" style="fill:none;stroke:#2e7ebc;stroke-linejoin:miter;stroke-width:2;"/>
   </g>
   <g id="patch_61">
    <path clip-path="url(#pab98ef337a)" d="M 276.147321 127.320979 
L 294.166331 127.320979 
L 294.166331 118.580167 
L 276.147321 118.580167 
z
" style="fill:none;stroke:#2e7ebc;stroke-linejoin:miter;stroke-width:2;"/>
   </g>
   <g id="patch_62">
    <path clip-path="url(#pab98ef337a)" d="M 276.147321 118.580167 
L 285.490511 118.580167 
L 285.490511 109.839354 
L 276.147321 109.839354 
z
" style="fill:none;stroke:#2e7ebc;stroke-linejoin:miter;stroke-width:2;"/>
   </g>
   <g id="patch_63">
    <path clip-path="url(#pab98ef337a)" d="M 276.147321 109.839354 
L 277.482063 109.839354 
L 277.482063 101.098542 
L 276.147321 101.098542 
z
" style="fill:none;stroke:#2e7ebc;stroke-linejoin:miter;stroke-width:2;"/>
   </g>
   <g id="patch_64">
    <path clip-path="url(#pab98ef337a)" d="M 276.147321 101.098542 
L 276.814692 101.098542 
L 276.814692 92.35773 
L 276.147321 92.35773 
z
" style="fill:none;stroke:#2e7ebc;stroke-linejoin:miter;stroke-width:2;"/>
   </g>
   <g id="patch_65">
    <path clip-path="url(#pab98ef337a)" d="M 276.147321 92.35773 
L 276.147321 92.35773 
L 276.147321 83.616917 
L 276.147321 83.616917 
z
" style="fill:none;stroke:#2e7ebc;stroke-linejoin:miter;stroke-width:2;"/>
   </g>
   <g id="patch_66">
    <path clip-path="url(#pab98ef337a)" d="M 276.147321 83.616917 
L 276.147321 83.616917 
L 276.147321 74.876105 
L 276.147321 74.876105 
z
" style="fill:none;stroke:#2e7ebc;stroke-linejoin:miter;stroke-width:2;"/>
   </g>
   <g id="patch_67">
    <path clip-path="url(#pab98ef337a)" d="M 276.147321 74.876105 
L 276.814692 74.876105 
L 276.814692 66.135293 
L 276.147321 66.135293 
z
" style="fill:none;stroke:#2e7ebc;stroke-linejoin:miter;stroke-width:2;"/>
   </g>
   <g id="patch_68">
    <path clip-path="url(#pab98ef337a)" d="M 276.147321 236.469071 
L 277.176771 236.469071 
L 277.176771 227.055889 
L 276.147321 227.055889 
z
" style="fill:none;stroke:#e25508;stroke-linejoin:miter;stroke-width:2;"/>
   </g>
   <g id="patch_69">
    <path clip-path="url(#pab98ef337a)" d="M 276.147321 227.055889 
L 276.147321 227.055889 
L 276.147321 217.642706 
L 276.147321 217.642706 
z
" style="fill:none;stroke:#e25508;stroke-linejoin:miter;stroke-width:2;"/>
   </g>
   <g id="patch_70">
    <path clip-path="url(#pab98ef337a)" d="M 276.147321 217.642706 
L 276.147321 217.642706 
L 276.147321 208.229524 
L 276.147321 208.229524 
z
" style="fill:none;stroke:#e25508;stroke-linejoin:miter;stroke-width:2;"/>
   </g>
   <g id="patch_71">
    <path clip-path="url(#pab98ef337a)" d="M 276.147321 208.229524 
L 276.662046 208.229524 
L 276.662046 198.816341 
L 276.147321 198.816341 
z
" style="fill:none;stroke:#e25508;stroke-linejoin:miter;stroke-width:2;"/>
   </g>
   <g id="patch_72">
    <path clip-path="url(#pab98ef337a)" d="M 276.147321 198.816341 
L 276.147321 198.816341 
L 276.147321 189.403159 
L 276.147321 189.403159 
z
" style="fill:none;stroke:#e25508;stroke-linejoin:miter;stroke-width:2;"/>
   </g>
   <g id="patch_73">
    <path clip-path="url(#pab98ef337a)" d="M 276.147321 189.403159 
L 276.662046 189.403159 
L 276.662046 179.989976 
L 276.147321 179.989976 
z
" style="fill:none;stroke:#e25508;stroke-linejoin:miter;stroke-width:2;"/>
   </g>
   <g id="patch_74">
    <path clip-path="url(#pab98ef337a)" d="M 276.147321 179.989976 
L 278.20622 179.989976 
L 278.20622 170.576794 
L 276.147321 170.576794 
z
" style="fill:none;stroke:#e25508;stroke-linejoin:miter;stroke-width:2;"/>
   </g>
   <g id="patch_75">
    <path clip-path="url(#pab98ef337a)" d="M 276.147321 170.576794 
L 276.662046 170.576794 
L 276.662046 161.163611 
L 276.147321 161.163611 
z
" style="fill:none;stroke:#e25508;stroke-linejoin:miter;stroke-width:2;"/>
   </g>
   <g id="patch_76">
    <path clip-path="url(#pab98ef337a)" d="M 276.147321 161.163611 
L 278.20622 161.163611 
L 278.20622 151.750429 
L 276.147321 151.750429 
z
" style="fill:none;stroke:#e25508;stroke-linejoin:miter;stroke-width:2;"/>
   </g>
   <g id="patch_77">
    <path clip-path="url(#pab98ef337a)" d="M 276.147321 151.750429 
L 281.809292 151.750429 
L 281.809292 142.337246 
L 276.147321 142.337246 
z
" style="fill:none;stroke:#e25508;stroke-linejoin:miter;stroke-width:2;"/>
   </g>
   <g id="patch_78">
    <path clip-path="url(#pab98ef337a)" d="M 276.147321 142.337246 
L 291.589061 142.337246 
L 291.589061 132.924064 
L 276.147321 132.924064 
z
" style="fill:none;stroke:#e25508;stroke-linejoin:miter;stroke-width:2;"/>
   </g>
   <g id="patch_79">
    <path clip-path="url(#pab98ef337a)" d="M 276.147321 132.924064 
L 304.971901 132.924064 
L 304.971901 123.510881 
L 276.147321 123.510881 
z
" style="fill:none;stroke:#e25508;stroke-linejoin:miter;stroke-width:2;"/>
   </g>
   <g id="patch_80">
    <path clip-path="url(#pab98ef337a)" d="M 276.147321 123.510881 
L 291.074336 123.510881 
L 291.074336 114.097699 
L 276.147321 114.097699 
z
" style="fill:none;stroke:#e25508;stroke-linejoin:miter;stroke-width:2;"/>
   </g>
   <g id="patch_81">
    <path clip-path="url(#pab98ef337a)" d="M 276.147321 114.097699 
L 286.956539 114.097699 
L 286.956539 104.684516 
L 276.147321 104.684516 
z
" style="fill:none;stroke:#e25508;stroke-linejoin:miter;stroke-width:2;"/>
   </g>
   <g id="patch_82">
    <path clip-path="url(#pab98ef337a)" d="M 276.147321 104.684516 
L 282.838742 104.684516 
L 282.838742 95.271334 
L 276.147321 95.271334 
z
" style="fill:none;stroke:#e25508;stroke-linejoin:miter;stroke-width:2;"/>
   </g>
   <g id="patch_83">
    <path clip-path="url(#pab98ef337a)" d="M 276.147321 95.271334 
L 279.235669 95.271334 
L 279.235669 85.858151 
L 276.147321 85.858151 
z
" style="fill:none;stroke:#e25508;stroke-linejoin:miter;stroke-width:2;"/>
   </g>
   <g id="patch_84">
    <path clip-path="url(#pab98ef337a)" d="M 276.147321 85.858151 
L 276.662046 85.858151 
L 276.662046 76.444969 
L 276.147321 76.444969 
z
" style="fill:none;stroke:#e25508;stroke-linejoin:miter;stroke-width:2;"/>
   </g>
   <g id="patch_85">
    <path clip-path="url(#pab98ef337a)" d="M 276.147321 76.444969 
L 276.662046 76.444969 
L 276.662046 67.031786 
L 276.147321 67.031786 
z
" style="fill:none;stroke:#e25508;stroke-linejoin:miter;stroke-width:2;"/>
   </g>
   <g id="patch_86">
    <path clip-path="url(#pab98ef337a)" d="M 276.147321 67.031786 
L 276.147321 67.031786 
L 276.147321 57.618604 
L 276.147321 57.618604 
z
" style="fill:none;stroke:#e25508;stroke-linejoin:miter;stroke-width:2;"/>
   </g>
   <g id="patch_87">
    <path clip-path="url(#pab98ef337a)" d="M 276.147321 57.618604 
L 277.176771 57.618604 
L 277.176771 48.205421 
L 276.147321 48.205421 
z
" style="fill:none;stroke:#e25508;stroke-linejoin:miter;stroke-width:2;"/>
   </g>
   <g id="matplotlib.axis_5">
    <g id="xtick_11"/>
    <g id="xtick_12"/>
   </g>
   <g id="matplotlib.axis_6">
    <g id="ytick_9">
     <g id="line2d_19">
      <g>
       <use style="stroke:#000000;stroke-width:0.8;" x="276.147321" xlink:href="#m24f530571b" y="281.29375"/>
      </g>
     </g>
    </g>
    <g id="ytick_10">
     <g id="line2d_20">
      <g>
       <use style="stroke:#000000;stroke-width:0.8;" x="276.147321" xlink:href="#m24f530571b" y="236.469071"/>
      </g>
     </g>
    </g>
    <g id="ytick_11">
     <g id="line2d_21">
      <g>
       <use style="stroke:#000000;stroke-width:0.8;" x="276.147321" xlink:href="#m24f530571b" y="191.644393"/>
      </g>
     </g>
    </g>
    <g id="ytick_12">
     <g id="line2d_22">
      <g>
       <use style="stroke:#000000;stroke-width:0.8;" x="276.147321" xlink:href="#m24f530571b" y="146.819714"/>
      </g>
     </g>
    </g>
    <g id="ytick_13">
     <g id="line2d_23">
      <g>
       <use style="stroke:#000000;stroke-width:0.8;" x="276.147321" xlink:href="#m24f530571b" y="101.995036"/>
      </g>
     </g>
    </g>
    <g id="ytick_14">
     <g id="line2d_24">
      <g>
       <use style="stroke:#000000;stroke-width:0.8;" x="276.147321" xlink:href="#m24f530571b" y="57.170357"/>
      </g>
     </g>
    </g>
   </g>
   <g id="patch_88">
    <path d="M 276.147321 281.29375 
L 276.147321 57.170357 
" style="fill:none;stroke:#000000;stroke-linecap:square;stroke-linejoin:miter;stroke-width:0.8;"/>
   </g>
  </g>
 </g>
 <defs>
  <clipPath id="pf7d9bf5692">
   <rect height="224.123393" width="214.905536" x="53.83125" y="57.170357"/>
  </clipPath>
  <clipPath id="paa95a44d33">
   <rect height="38.641964" width="214.905536" x="53.83125" y="10.8"/>
  </clipPath>
  <clipPath id="pab98ef337a">
   <rect height="224.123393" width="37.052679" x="276.147321" y="57.170357"/>
  </clipPath>
 </defs>
</svg>
