<?xml version="1.0" encoding="UTF-8" standalone="no"?>
<svg
   xmlns:dc="http://purl.org/dc/elements/1.1/"
   xmlns:cc="http://creativecommons.org/ns#"
   xmlns:rdf="http://www.w3.org/1999/02/22-rdf-syntax-ns#"
   xmlns:svg="http://www.w3.org/2000/svg"
   xmlns="http://www.w3.org/2000/svg"
   xmlns:xlink="http://www.w3.org/1999/xlink"
   xmlns:sodipodi="http://sodipodi.sourceforge.net/DTD/sodipodi-0.dtd"
   xmlns:inkscape="http://www.inkscape.org/namespaces/inkscape"
   height="2.161046in"
   version="1.1"
   viewBox="0 0 288 155.59531"
   width="4in"
   id="svg420"
   sodipodi:docname="onset_histogram.svg"
   inkscape:export-filename="C:\Users\corba\Documents\Lab\Apoptosis\unpublished\ARM\Figures\supp_1\supp_1.png"
   inkscape:export-xdpi="90"
   inkscape:export-ydpi="90"
   inkscape:version="1.0.1 (3bc2e813f5, 2020-09-07)">
  <sodipodi:namedview
     pagecolor="#ffffff"
     bordercolor="#666666"
     borderopacity="1"
     objecttolerance="10"
     gridtolerance="10"
     guidetolerance="10"
     inkscape:pageopacity="0"
     inkscape:pageshadow="2"
     inkscape:window-width="1825"
     inkscape:window-height="1046"
     id="namedview422"
     showgrid="false"
     inkscape:zoom="1.2954417"
     inkscape:cx="273.10028"
     inkscape:cy="150.34195"
     inkscape:window-x="-11"
     inkscape:window-y="-11"
     inkscape:window-maximized="1"
     inkscape:current-layer="svg420"
     inkscape:document-rotation="0"
     fit-margin-top="0"
     fit-margin-left="0"
     fit-margin-right="0"
     fit-margin-bottom="0"
     units="in" />
  <metadata
     id="metadata2">
    <rdf:RDF>
      <cc:Work>
        <dc:type
           rdf:resource="http://purl.org/dc/dcmitype/StillImage" />
        <dc:date>2021-02-05T10:04:51.557597</dc:date>
        <dc:format>image/svg+xml</dc:format>
        <dc:creator>
          <cc:Agent>
            <dc:title>Matplotlib v3.3.2, https://matplotlib.org/</dc:title>
          </cc:Agent>
        </dc:creator>
        <dc:title></dc:title>
      </cc:Work>
    </rdf:RDF>
  </metadata>
  <defs
     id="defs6">
    <style
       type="text/css"
       id="style4">*{stroke-linecap:butt;stroke-linejoin:round;}</style>
  </defs>
  <g
     id="figure_1">
    <g
       id="patch_1">
      <path
         d="M 0,144 H 288 V 0 H 0 Z"
         style="fill:none"
         id="path8" />
    </g>
    <g
       id="axes_1">
      <g
         id="patch_2">
        <path
           d="M 36,126 H 259.2 V 17.28 H 36 Z"
           style="fill:#ffffff"
           id="path11" />
      </g>
      <g
         id="patch_3">
        <path
           clip-path="url(#p8114836f72)"
           d="M 46.145455,126 H 59.672727 V 63.874286 H 46.145455 Z"
           style="opacity:0.5;fill:#1f77b4;stroke:#000000;stroke-linejoin:miter"
           id="path14" />
      </g>
      <g
         id="patch_4">
        <path
           clip-path="url(#p8114836f72)"
           d="M 59.672727,126 H 73.2 V 22.457143 H 59.672727 Z"
           style="opacity:0.5;fill:#1f77b4;stroke:#000000;stroke-linejoin:miter"
           id="path17" />
      </g>
      <g
         id="patch_5">
        <path
           clip-path="url(#p8114836f72)"
           d="M 73.2,126 H 86.727273 V 84.582857 H 73.2 Z"
           style="opacity:0.5;fill:#1f77b4;stroke:#000000;stroke-linejoin:miter"
           id="path20" />
      </g>
      <g
         id="patch_6">
        <path
           clip-path="url(#p8114836f72)"
           d="M 86.727273,126 H 100.25454 V 114.70442 H 86.727273 Z"
           style="opacity:0.5;fill:#1f77b4;stroke:#000000;stroke-linejoin:miter"
           id="path23" />
      </g>
      <g
         id="patch_7">
        <path
           clip-path="url(#p8114836f72)"
           d="m 100.25454,126 h 13.52728 v -16.94338 h -13.52728 z"
           style="opacity:0.5;fill:#1f77b4;stroke:#000000;stroke-linejoin:miter"
           id="path26" />
      </g>
      <g
         id="patch_8">
        <path
           clip-path="url(#p8114836f72)"
           d="m 113.78182,126 h 13.52727 v -5.64779 h -13.52727 z"
           style="opacity:0.5;fill:#1f77b4;stroke:#000000;stroke-linejoin:miter"
           id="path29" />
      </g>
      <g
         id="patch_9">
        <path
           clip-path="url(#p8114836f72)"
           d="m 127.30909,126 h 13.52727 v -7.53039 h -13.52727 z"
           style="opacity:0.5;fill:#1f77b4;stroke:#000000;stroke-linejoin:miter"
           id="path32" />
      </g>
      <g
         id="patch_10">
        <path
           clip-path="url(#p8114836f72)"
           d="m 140.83636,126 h 13.52728 v -15.06078 h -13.52728 z"
           style="opacity:0.5;fill:#1f77b4;stroke:#000000;stroke-linejoin:miter"
           id="path35" />
      </g>
      <g
         id="patch_11">
        <path
           clip-path="url(#p8114836f72)"
           d="m 154.36364,126 h 13.52727 v -13.17818 h -13.52727 z"
           style="opacity:0.5;fill:#1f77b4;stroke:#000000;stroke-linejoin:miter"
           id="path38" />
      </g>
      <g
         id="patch_12">
        <path
           clip-path="url(#p8114836f72)"
           d="m 167.89091,126 h 13.52727 v -3.7652 h -13.52727 z"
           style="opacity:0.5;fill:#1f77b4;stroke:#000000;stroke-linejoin:miter"
           id="path41" />
      </g>
      <g
         id="patch_13">
        <path
           clip-path="url(#p8114836f72)"
           d="m 181.41818,126 h 13.52727 v -5.64779 h -13.52727 z"
           style="opacity:0.5;fill:#1f77b4;stroke:#000000;stroke-linejoin:miter"
           id="path44" />
      </g>
      <g
         id="patch_14">
        <path
           clip-path="url(#p8114836f72)"
           d="m 194.94545,126 h 13.52728 v 0 z"
           style="opacity:0.5;fill:#1f77b4;stroke:#000000;stroke-linejoin:miter"
           id="path47" />
      </g>
      <g
         id="patch_15">
        <path
           clip-path="url(#p8114836f72)"
           d="M 208.47273,126 H 222 v 0 z"
           style="opacity:0.5;fill:#1f77b4;stroke:#000000;stroke-linejoin:miter"
           id="path50" />
      </g>
      <g
         id="patch_16">
        <path
           clip-path="url(#p8114836f72)"
           d="m 222,126 h 13.52727 v 0 z"
           style="opacity:0.5;fill:#1f77b4;stroke:#000000;stroke-linejoin:miter"
           id="path53" />
      </g>
      <g
         id="patch_17">
        <path
           clip-path="url(#p8114836f72)"
           d="m 235.52727,126 h 13.52727 v 0 z"
           style="opacity:0.5;fill:#1f77b4;stroke:#000000;stroke-linejoin:miter"
           id="path56" />
      </g>
      <g
         id="patch_18">
        <path
           clip-path="url(#p8114836f72)"
           d="M 46.145455,126 H 59.672727 V 69.522078 H 46.145455 Z"
           style="opacity:0.5;fill:#ff7f0e;stroke:#000000;stroke-linejoin:miter"
           id="path59" />
      </g>
      <g
         id="patch_19">
        <path
           clip-path="url(#p8114836f72)"
           d="M 59.672727,126 H 73.2 V 71.404675 H 59.672727 Z"
           style="opacity:0.5;fill:#ff7f0e;stroke:#000000;stroke-linejoin:miter"
           id="path62" />
      </g>
      <g
         id="patch_20">
        <path
           clip-path="url(#p8114836f72)"
           d="M 73.2,126 H 86.727273 V 61.991688 H 73.2 Z"
           style="opacity:0.5;fill:#ff7f0e;stroke:#000000;stroke-linejoin:miter"
           id="path65" />
      </g>
      <g
         id="patch_21">
        <path
           clip-path="url(#p8114836f72)"
           d="M 86.727273,126 H 100.25454 V 99.643636 H 86.727273 Z"
           style="opacity:0.5;fill:#ff7f0e;stroke:#000000;stroke-linejoin:miter"
           id="path68" />
      </g>
      <g
         id="patch_22">
        <path
           clip-path="url(#p8114836f72)"
           d="m 100.25454,126 h 13.52728 v -20.70857 h -13.52728 z"
           style="opacity:0.5;fill:#ff7f0e;stroke:#000000;stroke-linejoin:miter"
           id="path71" />
      </g>
      <g
         id="patch_23">
        <path
           clip-path="url(#p8114836f72)"
           d="m 113.78182,126 h 13.52727 V 92.113247 h -13.52727 z"
           style="opacity:0.5;fill:#ff7f0e;stroke:#000000;stroke-linejoin:miter"
           id="path74" />
      </g>
      <g
         id="patch_24">
        <path
           clip-path="url(#p8114836f72)"
           d="m 127.30909,126 h 13.52727 v -5.64779 h -13.52727 z"
           style="opacity:0.5;fill:#ff7f0e;stroke:#000000;stroke-linejoin:miter"
           id="path77" />
      </g>
      <g
         id="patch_25">
        <path
           clip-path="url(#p8114836f72)"
           d="m 140.83636,126 h 13.52728 v -16.94338 h -13.52728 z"
           style="opacity:0.5;fill:#ff7f0e;stroke:#000000;stroke-linejoin:miter"
           id="path80" />
      </g>
      <g
         id="patch_26">
        <path
           clip-path="url(#p8114836f72)"
           d="m 154.36364,126 h 13.52727 v -16.94338 h -13.52727 z"
           style="opacity:0.5;fill:#ff7f0e;stroke:#000000;stroke-linejoin:miter"
           id="path83" />
      </g>
      <g
         id="patch_27">
        <path
           clip-path="url(#p8114836f72)"
           d="m 167.89091,126 h 13.52727 v -9.41299 h -13.52727 z"
           style="opacity:0.5;fill:#ff7f0e;stroke:#000000;stroke-linejoin:miter"
           id="path86" />
      </g>
      <g
         id="patch_28">
        <path
           clip-path="url(#p8114836f72)"
           d="m 181.41818,126 h 13.52727 v -13.17818 h -13.52727 z"
           style="opacity:0.5;fill:#ff7f0e;stroke:#000000;stroke-linejoin:miter"
           id="path89" />
      </g>
      <g
         id="patch_29">
        <path
           clip-path="url(#p8114836f72)"
           d="m 194.94545,126 h 13.52728 v -11.29558 h -13.52728 z"
           style="opacity:0.5;fill:#ff7f0e;stroke:#000000;stroke-linejoin:miter"
           id="path92" />
      </g>
      <g
         id="patch_30">
        <path
           clip-path="url(#p8114836f72)"
           d="M 208.47273,126 H 222 v -5.64779 h -13.52727 z"
           style="opacity:0.5;fill:#ff7f0e;stroke:#000000;stroke-linejoin:miter"
           id="path95" />
      </g>
      <g
         id="patch_31">
        <path
           clip-path="url(#p8114836f72)"
           d="m 222,126 h 13.52727 v -5.64779 H 222 Z"
           style="opacity:0.5;fill:#ff7f0e;stroke:#000000;stroke-linejoin:miter"
           id="path98" />
      </g>
      <g
         id="patch_32">
        <path
           clip-path="url(#p8114836f72)"
           d="m 235.52727,126 h 13.52727 v 0 z"
           style="opacity:0.5;fill:#ff7f0e;stroke:#000000;stroke-linejoin:miter"
           id="path101" />
      </g>
      <g
         id="matplotlib.axis_1">
        <g
           id="xtick_1">
          <g
             id="line2d_1">
            <defs
               id="defs105">
              <path
                 d="M 0,0 V 3.5"
                 id="mff0cc86fe1"
                 style="stroke:#000000;stroke-width:0.8" />
            </defs>
            <g
               id="g109">
              <use
                 style="stroke:#000000;stroke-width:0.8"
                 x="46.145454"
                 xlink:href="#mff0cc86fe1"
                 y="126"
                 id="use107"
                 width="100%"
                 height="100%" />
            </g>
          </g>
          <g
             id="text_1">
            <!-- 0.0 -->
            <g
               transform="matrix(0.1,0,0,-0.1,38.193892,140.59844)"
               id="g122">
              <defs
                 id="defs114">
                <path
                   d="m 31.78125,66.40625 q -7.609375,0 -11.453125,-7.5 Q 16.5,51.421875 16.5,36.375 q 0,-14.984375 3.828125,-22.484375 3.84375,-7.5 11.453125,-7.5 7.671875,0 11.5,7.5 3.84375,7.5 3.84375,22.484375 0,15.046875 -3.84375,22.53125 -3.828125,7.5 -11.5,7.5 z m 0,7.8125 q 12.265625,0 18.734375,-9.703125 6.46875,-9.6875 6.46875,-28.140625 0,-18.40625 -6.46875,-28.109375 -6.46875,-9.6875 -18.734375,-9.6875 -12.25,0 -18.71875,9.6875 Q 6.59375,17.96875 6.59375,36.375 q 0,18.453125 6.46875,28.140625 6.46875,9.703125 18.71875,9.703125 z"
                   id="DejaVuSans-48" />
                <path
                   d="M 10.6875,12.40625 H 21 V 0 H 10.6875 Z"
                   id="DejaVuSans-46" />
              </defs>
              <use
                 xlink:href="#DejaVuSans-48"
                 id="use116"
                 x="0"
                 y="0"
                 width="100%"
                 height="100%" />
              <use
                 x="63.623047"
                 xlink:href="#DejaVuSans-46"
                 id="use118"
                 y="0"
                 width="100%"
                 height="100%" />
              <use
                 x="95.410156"
                 xlink:href="#DejaVuSans-48"
                 id="use120"
                 y="0"
                 width="100%"
                 height="100%" />
            </g>
          </g>
        </g>
        <g
           id="xtick_2">
          <g
             id="line2d_2">
            <g
               id="g128">
              <use
                 style="stroke:#000000;stroke-width:0.8"
                 x="79.963638"
                 xlink:href="#mff0cc86fe1"
                 y="126"
                 id="use126"
                 width="100%"
                 height="100%" />
            </g>
          </g>
          <g
             id="text_2">
            <!-- 2.5 -->
            <g
               transform="matrix(0.1,0,0,-0.1,72.012074,140.59844)"
               id="g141">
              <defs
                 id="defs133">
                <path
                   d="M 19.1875,8.296875 H 53.609375 V 0 H 7.328125 v 8.296875 q 5.609375,5.8125 15.296875,15.59375 9.703125,9.796875 12.1875,12.640625 4.734375,5.3125 6.609375,9 1.890625,3.6875 1.890625,7.25 0,5.8125 -4.078125,9.46875 -4.078125,3.671875 -10.625,3.671875 -4.640625,0 -9.796875,-1.609375 -5.140625,-1.609375 -11,-4.890625 v 9.96875 Q 13.765625,71.78125 18.9375,73 q 5.1875,1.21875 9.484375,1.21875 11.328125,0 18.0625,-5.671875 6.734375,-5.65625 6.734375,-15.125 0,-4.5 -1.6875,-8.53125 Q 49.859375,40.875 45.40625,35.40625 44.1875,33.984375 37.640625,27.21875 31.109375,20.453125 19.1875,8.296875 Z"
                   id="DejaVuSans-50" />
                <path
                   d="m 10.796875,72.90625 h 38.71875 v -8.3125 h -29.6875 V 46.734375 q 2.140625,0.734375 4.28125,1.09375 2.15625,0.359375 4.3125,0.359375 Q 40.625,48.1875 47.75,41.5 54.890625,34.8125 54.890625,23.390625 54.890625,11.625 47.5625,5.09375 40.234375,-1.421875 26.90625,-1.421875 q -4.59375,0 -9.359375,0.78125 -4.75,0.78125 -9.828125,2.34375 V 11.625 q 4.390625,-2.390625 9.078125,-3.5625 4.6875,-1.171875 9.90625,-1.171875 8.453125,0 13.375,4.4375 4.9375,4.4375 4.9375,12.0625 0,7.609375 -4.9375,12.046875 -4.921875,4.453125 -13.375,4.453125 -3.953125,0 -7.890625,-0.875 -3.921875,-0.875 -8.015625,-2.734375 z"
                   id="DejaVuSans-53" />
              </defs>
              <use
                 xlink:href="#DejaVuSans-50"
                 id="use135"
                 x="0"
                 y="0"
                 width="100%"
                 height="100%" />
              <use
                 x="63.623047"
                 xlink:href="#DejaVuSans-46"
                 id="use137"
                 y="0"
                 width="100%"
                 height="100%" />
              <use
                 x="95.410156"
                 xlink:href="#DejaVuSans-53"
                 id="use139"
                 y="0"
                 width="100%"
                 height="100%" />
            </g>
          </g>
        </g>
        <g
           id="xtick_3">
          <g
             id="line2d_3">
            <g
               id="g147">
              <use
                 style="stroke:#000000;stroke-width:0.8"
                 x="113.78181"
                 xlink:href="#mff0cc86fe1"
                 y="126"
                 id="use145"
                 width="100%"
                 height="100%" />
            </g>
          </g>
          <g
             id="text_3">
            <!-- 5.0 -->
            <g
               transform="matrix(0.1,0,0,-0.1,105.83026,140.59844)"
               id="g156">
              <use
                 xlink:href="#DejaVuSans-53"
                 id="use150"
                 x="0"
                 y="0"
                 width="100%"
                 height="100%" />
              <use
                 x="63.623047"
                 xlink:href="#DejaVuSans-46"
                 id="use152"
                 y="0"
                 width="100%"
                 height="100%" />
              <use
                 x="95.410156"
                 xlink:href="#DejaVuSans-48"
                 id="use154"
                 y="0"
                 width="100%"
                 height="100%" />
            </g>
          </g>
        </g>
        <g
           id="xtick_4">
          <g
             id="line2d_4">
            <g
               id="g162">
              <use
                 style="stroke:#000000;stroke-width:0.8"
                 x="147.60001"
                 xlink:href="#mff0cc86fe1"
                 y="126"
                 id="use160"
                 width="100%"
                 height="100%" />
            </g>
          </g>
          <g
             id="text_4">
            <!-- 7.5 -->
            <g
               transform="matrix(0.1,0,0,-0.1,139.64844,140.59844)"
               id="g174">
              <defs
                 id="defs166">
                <path
                   d="m 8.203125,72.90625 h 46.875 V 68.703125 L 28.609375,0 H 18.3125 L 43.21875,64.59375 H 8.203125 Z"
                   id="DejaVuSans-55" />
              </defs>
              <use
                 xlink:href="#DejaVuSans-55"
                 id="use168"
                 x="0"
                 y="0"
                 width="100%"
                 height="100%" />
              <use
                 x="63.623047"
                 xlink:href="#DejaVuSans-46"
                 id="use170"
                 y="0"
                 width="100%"
                 height="100%" />
              <use
                 x="95.410156"
                 xlink:href="#DejaVuSans-53"
                 id="use172"
                 y="0"
                 width="100%"
                 height="100%" />
            </g>
          </g>
        </g>
        <g
           id="xtick_5">
          <g
             id="line2d_5">
            <g
               id="g180">
              <use
                 style="stroke:#000000;stroke-width:0.8"
                 x="181.41818"
                 xlink:href="#mff0cc86fe1"
                 y="126"
                 id="use178"
                 width="100%"
                 height="100%" />
            </g>
          </g>
          <g
             id="text_5">
            <!-- 10.0 -->
            <g
               transform="matrix(0.1,0,0,-0.1,170.28537,140.59844)"
               id="g194">
              <defs
                 id="defs184">
                <path
                   d="m 12.40625,8.296875 h 16.109375 v 55.625 L 10.984375,60.40625 v 8.984375 l 17.4375,3.515625 H 38.28125 V 8.296875 H 54.390625 V 0 H 12.40625 Z"
                   id="DejaVuSans-49" />
              </defs>
              <use
                 xlink:href="#DejaVuSans-49"
                 id="use186"
                 x="0"
                 y="0"
                 width="100%"
                 height="100%" />
              <use
                 x="63.623047"
                 xlink:href="#DejaVuSans-48"
                 id="use188"
                 y="0"
                 width="100%"
                 height="100%" />
              <use
                 x="127.24609"
                 xlink:href="#DejaVuSans-46"
                 id="use190"
                 y="0"
                 width="100%"
                 height="100%" />
              <use
                 x="159.0332"
                 xlink:href="#DejaVuSans-48"
                 id="use192"
                 y="0"
                 width="100%"
                 height="100%" />
            </g>
          </g>
        </g>
        <g
           id="xtick_6">
          <g
             id="line2d_6">
            <g
               id="g200">
              <use
                 style="stroke:#000000;stroke-width:0.8"
                 x="215.23636"
                 xlink:href="#mff0cc86fe1"
                 y="126"
                 id="use198"
                 width="100%"
                 height="100%" />
            </g>
          </g>
          <g
             id="text_6">
            <!-- 12.5 -->
            <g
               transform="matrix(0.1,0,0,-0.1,204.10355,140.59844)"
               id="g211">
              <use
                 xlink:href="#DejaVuSans-49"
                 id="use203"
                 x="0"
                 y="0"
                 width="100%"
                 height="100%" />
              <use
                 x="63.623047"
                 xlink:href="#DejaVuSans-50"
                 id="use205"
                 y="0"
                 width="100%"
                 height="100%" />
              <use
                 x="127.24609"
                 xlink:href="#DejaVuSans-46"
                 id="use207"
                 y="0"
                 width="100%"
                 height="100%" />
              <use
                 x="159.0332"
                 xlink:href="#DejaVuSans-53"
                 id="use209"
                 y="0"
                 width="100%"
                 height="100%" />
            </g>
          </g>
        </g>
        <g
           id="xtick_7">
          <g
             id="line2d_7">
            <g
               id="g217">
              <use
                 style="stroke:#000000;stroke-width:0.8"
                 x="249.05455"
                 xlink:href="#mff0cc86fe1"
                 y="126"
                 id="use215"
                 width="100%"
                 height="100%" />
            </g>
          </g>
          <g
             id="text_7">
            <!-- 15.0 -->
            <g
               transform="matrix(0.1,0,0,-0.1,237.92173,140.59844)"
               id="g228">
              <use
                 xlink:href="#DejaVuSans-49"
                 id="use220"
                 x="0"
                 y="0"
                 width="100%"
                 height="100%" />
              <use
                 x="63.623047"
                 xlink:href="#DejaVuSans-53"
                 id="use222"
                 y="0"
                 width="100%"
                 height="100%" />
              <use
                 x="127.24609"
                 xlink:href="#DejaVuSans-46"
                 id="use224"
                 y="0"
                 width="100%"
                 height="100%" />
              <use
                 x="159.0332"
                 xlink:href="#DejaVuSans-48"
                 id="use226"
                 y="0"
                 width="100%"
                 height="100%" />
            </g>
          </g>
        </g>
        <g
           id="text_8">
          <!-- Time (hr.) -->
          <g
             transform="matrix(0.1,0,0,-0.1,123.51875,154.27656)"
             id="g263">
            <defs
               id="defs241">
              <path
                 d="M -0.296875,72.90625 H 61.375 v -8.3125 H 35.5 V 0 H 25.59375 V 64.59375 H -0.296875 Z"
                 id="DejaVuSans-84" />
              <path
                 d="M 9.421875,54.6875 H 18.40625 V 0 H 9.421875 Z m 0,21.296875 H 18.40625 V 64.59375 H 9.421875 Z"
                 id="DejaVuSans-105" />
              <path
                 d="M 52,44.1875 Q 55.375,50.25 60.0625,53.125 64.75,56 71.09375,56 q 8.546875,0 13.1875,-5.984375 4.640625,-5.96875 4.640625,-17 V 0 h -9.03125 v 32.71875 q 0,7.859375 -2.796875,11.65625 -2.78125,3.8125 -8.484375,3.8125 -6.984375,0 -11.046875,-4.640625 -4.046875,-4.625 -4.046875,-12.640625 V 0 h -9.03125 v 32.71875 q 0,7.90625 -2.78125,11.6875 -2.78125,3.78125 -8.59375,3.78125 -6.890625,0 -10.953125,-4.65625 -4.046875,-4.65625 -4.046875,-12.625 V 0 h -9.03125 v 54.6875 h 9.03125 v -8.5 q 3.078125,5.03125 7.375,7.421875 Q 29.78125,56 35.6875,56 41.65625,56 45.828125,52.96875 50,49.953125 52,44.1875 Z"
                 id="DejaVuSans-109" />
              <path
                 d="m 56.203125,29.59375 v -4.390625 h -41.3125 q 0.59375,-9.28125 5.59375,-14.140625 5,-4.859375 13.9375,-4.859375 5.171875,0 10.03125,1.265625 4.859375,1.265625 9.65625,3.8125 v -8.5 q -4.84375,-2.046875 -9.921875,-3.125 -5.078125,-1.078125 -10.296875,-1.078125 -13.09375,0 -20.734375,7.609375 -7.640625,7.625 -7.640625,20.625 0,13.421875 7.25,21.296875 Q 20.015625,56 32.328125,56 q 11.03125,0 17.453125,-7.109375 6.421875,-7.09375 6.421875,-19.296875 z m -8.984375,2.640625 q -0.09375,7.359375 -4.125,11.75 -4.03125,4.40625 -10.671875,4.40625 -7.515625,0 -12.03125,-4.25 -4.515625,-4.25 -5.203125,-11.96875 z"
                 id="DejaVuSans-101" />
              <path
                 id="DejaVuSans-32"
                 d="" />
              <path
                 d="M 31,75.875 Q 24.46875,64.65625 21.28125,53.65625 18.109375,42.671875 18.109375,31.390625 18.109375,20.125 21.3125,9.0625 24.515625,-2 31,-13.1875 H 23.1875 Q 15.875,-1.703125 12.234375,9.375 8.59375,20.453125 8.59375,31.390625 q 0,10.890625 3.609375,21.921875 3.625,11.046875 10.984375,22.5625 z"
                 id="DejaVuSans-40" />
              <path
                 d="M 54.890625,33.015625 V 0 H 45.90625 v 32.71875 q 0,7.765625 -3.03125,11.609375 -3.03125,3.859375 -9.078125,3.859375 -7.28125,0 -11.484375,-4.640625 -4.203125,-4.625 -4.203125,-12.640625 V 0 h -9.03125 v 75.984375 h 9.03125 V 46.1875 q 3.234375,4.9375 7.59375,7.375 4.375,2.4375 10.09375,2.4375 9.421875,0 14.25,-5.828125 4.84375,-5.828125 4.84375,-17.15625 z"
                 id="DejaVuSans-104" />
              <path
                 d="m 41.109375,46.296875 q -1.515625,0.875 -3.296875,1.28125 Q 36.03125,48 33.890625,48 26.265625,48 22.1875,43.046875 18.109375,38.09375 18.109375,28.8125 V 0 h -9.03125 v 54.6875 h 9.03125 v -8.5 q 2.84375,4.984375 7.375,7.390625 Q 30.03125,56 36.53125,56 q 0.921875,0 2.046875,-0.125 1.125,-0.109375 2.484375,-0.359375 z"
                 id="DejaVuSans-114" />
              <path
                 d="m 8.015625,75.875 h 7.8125 q 7.3125,-11.515625 10.953125,-22.5625 3.640625,-11.03125 3.640625,-21.921875 0,-10.9375 -3.640625,-22.015625 -3.640625,-11.078125 -10.953125,-22.5625 h -7.8125 Q 14.5,-2 17.703125,9.0625 20.90625,20.125 20.90625,31.390625 q 0,11.28125 -3.203125,22.265625 -3.203125,11 -9.6875,22.21875 z"
                 id="DejaVuSans-41" />
            </defs>
            <use
               xlink:href="#DejaVuSans-84"
               id="use243"
               x="0"
               y="0"
               width="100%"
               height="100%" />
            <use
               x="57.958984"
               xlink:href="#DejaVuSans-105"
               id="use245"
               y="0"
               width="100%"
               height="100%" />
            <use
               x="85.742188"
               xlink:href="#DejaVuSans-109"
               id="use247"
               y="0"
               width="100%"
               height="100%" />
            <use
               x="183.1543"
               xlink:href="#DejaVuSans-101"
               id="use249"
               y="0"
               width="100%"
               height="100%" />
            <use
               x="244.67773"
               xlink:href="#DejaVuSans-32"
               id="use251"
               y="0"
               width="100%"
               height="100%" />
            <use
               x="276.46484"
               xlink:href="#DejaVuSans-40"
               id="use253"
               y="0"
               width="100%"
               height="100%" />
            <use
               x="315.47852"
               xlink:href="#DejaVuSans-104"
               id="use255"
               y="0"
               width="100%"
               height="100%" />
            <use
               x="378.85742"
               xlink:href="#DejaVuSans-114"
               id="use257"
               y="0"
               width="100%"
               height="100%" />
            <use
               x="410.8457"
               xlink:href="#DejaVuSans-46"
               id="use259"
               y="0"
               width="100%"
               height="100%" />
            <use
               x="442.63281"
               xlink:href="#DejaVuSans-41"
               id="use261"
               y="0"
               width="100%"
               height="100%" />
          </g>
        </g>
      </g>
      <g
         id="matplotlib.axis_2">
        <g
           id="ytick_1">
          <g
             id="line2d_8">
            <defs
               id="defs268">
              <path
                 d="M 0,0 H -3.5"
                 id="m95d335680a"
                 style="stroke:#000000;stroke-width:0.8" />
            </defs>
            <g
               id="g272">
              <use
                 style="stroke:#000000;stroke-width:0.8"
                 x="36"
                 xlink:href="#m95d335680a"
                 y="126"
                 id="use270"
                 width="100%"
                 height="100%" />
            </g>
          </g>
          <g
             id="text_9">
            <!-- 0 -->
            <g
               transform="matrix(0.1,0,0,-0.1,22.6375,129.79922)"
               id="g277">
              <use
                 xlink:href="#DejaVuSans-48"
                 id="use275"
                 x="0"
                 y="0"
                 width="100%"
                 height="100%" />
            </g>
          </g>
        </g>
        <g
           id="ytick_2">
          <g
             id="line2d_9">
            <g
               id="g283">
              <use
                 style="stroke:#000000;stroke-width:0.8"
                 x="36"
                 xlink:href="#m95d335680a"
                 y="88.348053"
                 id="use281"
                 width="100%"
                 height="100%" />
            </g>
          </g>
          <g
             id="text_10">
            <!-- 20 -->
            <g
               transform="matrix(0.1,0,0,-0.1,16.275,92.147271)"
               id="g290">
              <use
                 xlink:href="#DejaVuSans-50"
                 id="use286"
                 x="0"
                 y="0"
                 width="100%"
                 height="100%" />
              <use
                 x="63.623047"
                 xlink:href="#DejaVuSans-48"
                 id="use288"
                 y="0"
                 width="100%"
                 height="100%" />
            </g>
          </g>
        </g>
        <g
           id="ytick_3">
          <g
             id="line2d_10">
            <g
               id="g296">
              <use
                 style="stroke:#000000;stroke-width:0.8"
                 x="36"
                 xlink:href="#m95d335680a"
                 y="50.696102"
                 id="use294"
                 width="100%"
                 height="100%" />
            </g>
          </g>
          <g
             id="text_11">
            <!-- 40 -->
            <g
               transform="matrix(0.1,0,0,-0.1,16.275,54.495323)"
               id="g306">
              <defs
                 id="defs300">
                <path
                   d="M 37.796875,64.3125 12.890625,25.390625 h 24.90625 z m -2.59375,8.59375 h 12.40625 V 25.390625 h 10.40625 V 17.1875 H 47.609375 V 0 h -9.8125 V 17.1875 H 4.890625 v 9.515625 z"
                   id="DejaVuSans-52" />
              </defs>
              <use
                 xlink:href="#DejaVuSans-52"
                 id="use302"
                 x="0"
                 y="0"
                 width="100%"
                 height="100%" />
              <use
                 x="63.623047"
                 xlink:href="#DejaVuSans-48"
                 id="use304"
                 y="0"
                 width="100%"
                 height="100%" />
            </g>
          </g>
        </g>
        <g
           id="text_12">
          <!-- Frequency -->
          <g
             transform="matrix(0,-0.1,-0.1,0,10.195312,97.469688)"
             id="g336">
            <defs
               id="defs316">
              <path
                 d="m 9.8125,72.90625 h 41.890625 v -8.3125 H 19.671875 V 43.109375 h 28.90625 V 34.8125 H 19.671875 V 0 H 9.8125 Z"
                 id="DejaVuSans-70" />
              <path
                 d="m 14.796875,27.296875 q 0,-9.90625 4.078125,-15.546875 4.078125,-5.640625 11.203125,-5.640625 7.125,0 11.21875,5.640625 4.109375,5.640625 4.109375,15.546875 0,9.90625 -4.109375,15.546875 -4.09375,5.640625 -11.21875,5.640625 -7.125,0 -11.203125,-5.640625 -4.078125,-5.640625 -4.078125,-15.546875 z M 45.40625,8.203125 q -2.828125,-4.875 -7.15625,-7.25 -4.3125,-2.375 -10.375,-2.375 -9.90625,0 -16.140625,7.90625 -6.21875,7.921875 -6.21875,20.8125 0,12.890625 6.21875,20.796875 Q 17.96875,56 27.875,56 q 6.0625,0 10.375,-2.375 4.328125,-2.359375 7.15625,-7.234375 V 54.6875 h 8.984375 V -20.796875 H 45.40625 Z"
                 id="DejaVuSans-113" />
              <path
                 d="M 8.5,21.578125 V 54.6875 h 8.984375 V 21.921875 q 0,-7.765625 3.015625,-11.65625 3.03125,-3.875 9.09375,-3.875 7.265625,0 11.484375,4.640625 4.234375,4.640625 4.234375,12.65625 v 31 h 8.984375 V 0 H 45.3125 V 8.40625 Q 42.046875,3.421875 37.71875,1 33.40625,-1.421875 27.6875,-1.421875 18.265625,-1.421875 13.375,4.4375 8.5,10.296875 8.5,21.578125 Z M 31.109375,56 Z"
                 id="DejaVuSans-117" />
              <path
                 d="M 54.890625,33.015625 V 0 H 45.90625 v 32.71875 q 0,7.765625 -3.03125,11.609375 -3.03125,3.859375 -9.078125,3.859375 -7.28125,0 -11.484375,-4.640625 -4.203125,-4.625 -4.203125,-12.640625 V 0 h -9.03125 v 54.6875 h 9.03125 v -8.5 q 3.234375,4.9375 7.59375,7.375 4.375,2.4375 10.09375,2.4375 9.421875,0 14.25,-5.828125 4.84375,-5.828125 4.84375,-17.15625 z"
                 id="DejaVuSans-110" />
              <path
                 d="M 48.78125,52.59375 V 44.1875 q -3.8125,2.109375 -7.640625,3.15625 -3.828125,1.046875 -7.734375,1.046875 -8.75,0 -13.59375,-5.546875 -4.828125,-5.53125 -4.828125,-15.546875 0,-10.015625 4.828125,-15.5625 4.84375,-5.53125 13.59375,-5.53125 3.90625,0 7.734375,1.046875 3.828125,1.046875 7.640625,3.15625 v -8.3125 q -3.765625,-1.75 -7.796875,-2.625 -4.015625,-0.890625 -8.5625,-0.890625 -12.359375,0 -19.640625,7.765625 -7.265625,7.765625 -7.265625,20.953125 0,13.375 7.34375,21.03125 Q 20.21875,56 33.015625,56 q 4.140625,0 8.09375,-0.859375 3.953125,-0.84375 7.671875,-2.546875 z"
                 id="DejaVuSans-99" />
              <path
                 d="M 32.171875,-5.078125 Q 28.375,-14.84375 24.75,-17.8125 q -3.609375,-2.984375 -9.65625,-2.984375 h -7.1875 v 7.515625 h 5.28125 q 3.703125,0 5.75,1.765625 2.0625,1.75 4.546875,8.296875 L 25.09375,0.875 2.984375,54.6875 H 12.5 L 29.59375,11.921875 46.6875,54.6875 h 9.515625 z"
                 id="DejaVuSans-121" />
            </defs>
            <use
               xlink:href="#DejaVuSans-70"
               id="use318"
               x="0"
               y="0"
               width="100%"
               height="100%" />
            <use
               x="50.269531"
               xlink:href="#DejaVuSans-114"
               id="use320"
               y="0"
               width="100%"
               height="100%" />
            <use
               x="89.132812"
               xlink:href="#DejaVuSans-101"
               id="use322"
               y="0"
               width="100%"
               height="100%" />
            <use
               x="150.65625"
               xlink:href="#DejaVuSans-113"
               id="use324"
               y="0"
               width="100%"
               height="100%" />
            <use
               x="214.13281"
               xlink:href="#DejaVuSans-117"
               id="use326"
               y="0"
               width="100%"
               height="100%" />
            <use
               x="277.51172"
               xlink:href="#DejaVuSans-101"
               id="use328"
               y="0"
               width="100%"
               height="100%" />
            <use
               x="339.03516"
               xlink:href="#DejaVuSans-110"
               id="use330"
               y="0"
               width="100%"
               height="100%" />
            <use
               x="402.41406"
               xlink:href="#DejaVuSans-99"
               id="use332"
               y="0"
               width="100%"
               height="100%" />
            <use
               x="457.39453"
               xlink:href="#DejaVuSans-121"
               id="use334"
               y="0"
               width="100%"
               height="100%" />
          </g>
        </g>
      </g>
      <g
         id="patch_33">
        <path
           d="M 36,126 V 17.28"
           style="fill:none;stroke:#000000;stroke-width:0.8;stroke-linecap:square;stroke-linejoin:miter"
           id="path340" />
      </g>
      <g
         id="patch_34">
        <path
           d="M 259.2,126 V 17.28"
           style="fill:none;stroke:#000000;stroke-width:0.8;stroke-linecap:square;stroke-linejoin:miter"
           id="path343" />
      </g>
      <g
         id="patch_35">
        <path
           d="M 36,126 H 259.2"
           style="fill:none;stroke:#000000;stroke-width:0.8;stroke-linecap:square;stroke-linejoin:miter"
           id="path346" />
      </g>
      <g
         id="patch_36">
        <path
           d="M 36,17.28 H 259.2"
           style="fill:none;stroke:#000000;stroke-width:0.8;stroke-linecap:square;stroke-linejoin:miter"
           id="path349" />
      </g>
      <g
         id="legend_1">
        <g
           id="patch_37">
          <path
             d="M 177.32969,54.63625 H 252.2 q 2,0 2,-2 V 24.28 q 0,-2 -2,-2 h -74.87031 q -2,0 -2,2 v 28.35625 q 0,2 2,2 z"
             style="opacity:0.8;fill:#ffffff;stroke:#cccccc;stroke-linejoin:miter"
             id="path352" />
        </g>
        <g
           id="patch_38">
          <path
             d="m 179.32969,33.878438 h 20 v -7 h -20 z"
             style="opacity:0.5;fill:#1f77b4;stroke:#000000;stroke-linejoin:miter"
             id="path355" />
        </g>
        <g
           id="text_13">
          <!-- Extrinsic -->
          <g
             transform="matrix(0.1,0,0,-0.1,207.32969,33.878438)"
             id="g382">
            <defs
               id="defs362">
              <path
                 d="m 9.8125,72.90625 h 46.09375 v -8.3125 H 19.671875 V 43.015625 h 34.71875 V 34.71875 H 19.671875 V 8.296875 H 56.78125 V 0 H 9.8125 Z"
                 id="DejaVuSans-69" />
              <path
                 d="M 54.890625,54.6875 35.109375,28.078125 55.90625,0 H 45.3125 L 29.390625,21.484375 13.484375,0 H 2.875 L 24.125,28.609375 4.6875,54.6875 h 10.59375 l 14.5,-19.484375 14.5,19.484375 z"
                 id="DejaVuSans-120" />
              <path
                 d="M 18.3125,70.21875 V 54.6875 h 18.5 v -6.984375 h -18.5 v -29.6875 q 0,-6.6875 1.828125,-8.59375 1.828125,-1.90625 7.453125,-1.90625 H 36.8125 V 0 H 27.59375 Q 17.1875,0 13.234375,3.875 9.28125,7.765625 9.28125,18.015625 v 29.6875 H 2.6875 V 54.6875 h 6.59375 v 15.53125 z"
                 id="DejaVuSans-116" />
              <path
                 d="m 44.28125,53.078125 v -8.5 Q 40.484375,46.53125 36.375,47.5 q -4.09375,0.984375 -8.5,0.984375 -6.6875,0 -10.03125,-2.046875 Q 14.5,44.390625 14.5,40.28125 q 0,-3.125 2.390625,-4.90625 2.390625,-1.78125 9.625,-3.390625 l 3.078125,-0.6875 Q 39.15625,29.25 43.1875,25.515625 47.21875,21.78125 47.21875,15.09375 q 0,-7.625 -6.03125,-12.078125 -6.03125,-4.4375 -16.578125,-4.4375 -4.390625,0 -9.15625,0.859375 Q 10.6875,0.296875 5.421875,2 v 9.28125 q 4.984375,-2.59375 9.8125,-3.890625 4.828125,-1.28125 9.578125,-1.28125 6.34375,0 9.75,2.171875 3.421875,2.171875 3.421875,6.125 0,3.65625 -2.46875,5.609375 -2.453125,1.953125 -10.8125,3.765625 l -3.125,0.734375 q -8.34375,1.75 -12.0625,5.390625 -3.703125,3.640625 -3.703125,9.984375 0,7.71875 5.46875,11.90625 Q 16.75,56 26.8125,56 q 4.96875,0 9.359375,-0.734375 4.40625,-0.71875 8.109375,-2.1875 z"
                 id="DejaVuSans-115" />
            </defs>
            <use
               xlink:href="#DejaVuSans-69"
               id="use364"
               x="0"
               y="0"
               width="100%"
               height="100%" />
            <use
               x="63.183594"
               xlink:href="#DejaVuSans-120"
               id="use366"
               y="0"
               width="100%"
               height="100%" />
            <use
               x="122.36328"
               xlink:href="#DejaVuSans-116"
               id="use368"
               y="0"
               width="100%"
               height="100%" />
            <use
               x="161.57227"
               xlink:href="#DejaVuSans-114"
               id="use370"
               y="0"
               width="100%"
               height="100%" />
            <use
               x="202.68555"
               xlink:href="#DejaVuSans-105"
               id="use372"
               y="0"
               width="100%"
               height="100%" />
            <use
               x="230.46875"
               xlink:href="#DejaVuSans-110"
               id="use374"
               y="0"
               width="100%"
               height="100%" />
            <use
               x="293.84766"
               xlink:href="#DejaVuSans-115"
               id="use376"
               y="0"
               width="100%"
               height="100%" />
            <use
               x="345.94727"
               xlink:href="#DejaVuSans-105"
               id="use378"
               y="0"
               width="100%"
               height="100%" />
            <use
               x="373.73047"
               xlink:href="#DejaVuSans-99"
               id="use380"
               y="0"
               width="100%"
               height="100%" />
          </g>
        </g>
        <g
           id="patch_39">
          <path
             d="m 179.32969,48.556563 h 20 v -7 h -20 z"
             style="opacity:0.5;fill:#ff7f0e;stroke:#000000;stroke-linejoin:miter"
             id="path385" />
        </g>
        <g
           id="text_14">
          <!-- Intrinsic -->
          <g
             transform="matrix(0.1,0,0,-0.1,207.32969,48.556563)"
             id="g409">
            <defs
               id="defs389">
              <path
                 d="m 9.8125,72.90625 h 9.859375 V 0 H 9.8125 Z"
                 id="DejaVuSans-73" />
            </defs>
            <use
               xlink:href="#DejaVuSans-73"
               id="use391"
               x="0"
               y="0"
               width="100%"
               height="100%" />
            <use
               x="29.492188"
               xlink:href="#DejaVuSans-110"
               id="use393"
               y="0"
               width="100%"
               height="100%" />
            <use
               x="92.871094"
               xlink:href="#DejaVuSans-116"
               id="use395"
               y="0"
               width="100%"
               height="100%" />
            <use
               x="132.08008"
               xlink:href="#DejaVuSans-114"
               id="use397"
               y="0"
               width="100%"
               height="100%" />
            <use
               x="173.19336"
               xlink:href="#DejaVuSans-105"
               id="use399"
               y="0"
               width="100%"
               height="100%" />
            <use
               x="200.97656"
               xlink:href="#DejaVuSans-110"
               id="use401"
               y="0"
               width="100%"
               height="100%" />
            <use
               x="264.35547"
               xlink:href="#DejaVuSans-115"
               id="use403"
               y="0"
               width="100%"
               height="100%" />
            <use
               x="316.45508"
               xlink:href="#DejaVuSans-105"
               id="use405"
               y="0"
               width="100%"
               height="100%" />
            <use
               x="344.23828"
               xlink:href="#DejaVuSans-99"
               id="use407"
               y="0"
               width="100%"
               height="100%" />
          </g>
        </g>
      </g>
    </g>
  </g>
  <defs
     id="defs418">
    <clipPath
       id="p8114836f72">
      <rect
         height="108.72"
         width="223.2"
         x="36"
         y="17.280001"
         id="rect415" />
    </clipPath>
  </defs>
</svg>
